<?xml version="1.0" encoding="UTF-8"?><svg id="a" xmlns="http://www.w3.org/2000/svg" viewBox="0 0 699.472 78.439"><path d="M686.546,52.886c.692-.591,1.038-1.269,1.038-2.033,0-.836-.331-1.542-.994-2.119-.664-.577-1.507-.865-2.53-.865-.966,0-1.803,.306-2.509,.919-.706,.613-1.06,1.301-1.06,2.065,0,.749,.354,1.424,1.06,2.022,.706,.598,1.543,.897,2.509,.897s1.794-.296,2.486-.887h0Z" style="fill:red;"/><path d="M673.269,33.294c.562-.548,.843-1.233,.843-2.054,0-1.355-.577-2.234-1.73-2.638-.605-.216-1.737-.324-3.395-.324-.562,0-1.29,.065-2.184,.195l.043-1.773c0-3.59-1.067-5.385-3.2-5.385-.836,0-1.55,.267-2.141,.8-.591,.534-.887,1.204-.887,2.011,0,.505,.029,1.219,.087,2.141,.057,1.067,.094,1.831,.108,2.292-1.917-.173-3.143-.26-3.676-.26-.865,0-1.572,.281-2.119,.843-.548,.562-.822,1.247-.822,2.054,0,1.673,.904,2.606,2.714,2.8,1.809,.195,3.16,.314,4.054,.357,.26,5.723,.39,9.457,.39,11.202,0,.519-.022,1.297-.065,2.335-.043,1.038-.065,1.816-.065,2.335,0,.779,.317,1.427,.951,1.946,.577,.49,1.262,.735,2.055,.735,2.09,0,3.135-1.658,3.135-4.974,0-.317-.007-.732-.021-1.243-.015-.512-.022-.861-.022-1.049,0-1.788-.13-5.593-.389-11.418,.778-.115,1.463-.173,2.054-.173,.303,0,.66,.011,1.071,.033,.41,.022,.767,.032,1.07,.032,.865,0,1.579-.274,2.141-.822h0Z" style="fill:#ff8500;"/><path d="M650.768,24.601c.671-.62,1.006-1.377,1.006-2.271s-.335-1.651-1.006-2.271c-.67-.62-1.467-.93-2.389-.93s-1.723,.31-2.4,.93c-.678,.62-1.017,1.377-1.017,2.271s.339,1.651,1.017,2.271c.677,.62,1.477,.93,2.4,.93s1.719-.31,2.389-.93h0Zm-.335,11.958c.144-1.932,.217-3.539,.217-4.822,0-.836-.282-1.525-.844-2.065-.562-.541-1.276-.811-2.141-.811s-1.578,.27-2.141,.811c-.562,.541-.843,1.229-.843,2.065,0,1.283-.072,2.891-.216,4.822-.144,1.932-.216,3.539-.216,4.822,0,.822,.025,2.141,.075,3.957,.051,1.816,.076,3.136,.076,3.957,0,.836,.281,1.525,.843,2.065,.563,.541,1.276,.811,2.141,.811s1.579-.27,2.141-.811c.562-.541,.843-1.229,.843-2.065,0-.822-.025-2.141-.075-3.957-.051-1.816-.076-3.136-.076-3.957,0-1.283,.072-2.89,.216-4.822h0Z" style="fill:blue;"/><path d="M620.786,33.294c.562-.548,.843-1.233,.843-2.054,0-1.355-.577-2.234-1.73-2.638-.605-.216-1.737-.324-3.395-.324-.562,0-1.29,.065-2.184,.195l.043-1.773c0-3.59-1.067-5.385-3.2-5.385-.836,0-1.55,.267-2.141,.8-.591,.534-.887,1.204-.887,2.011,0,.505,.029,1.219,.087,2.141,.057,1.067,.094,1.831,.108,2.292-1.917-.173-3.143-.26-3.676-.26-.865,0-1.572,.281-2.119,.843-.548,.562-.822,1.247-.822,2.054,0,1.673,.904,2.606,2.714,2.8,1.809,.195,3.16,.314,4.054,.357,.26,5.723,.39,9.457,.39,11.202,0,.519-.022,1.297-.065,2.335-.043,1.038-.065,1.816-.065,2.335,0,.779,.317,1.427,.951,1.946,.577,.49,1.262,.735,2.055,.735,2.09,0,3.135-1.658,3.135-4.974,0-.317-.007-.732-.021-1.243-.015-.512-.022-.861-.022-1.049,0-1.788-.13-5.593-.389-11.418,.778-.115,1.463-.173,2.054-.173,.303,0,.66,.011,1.071,.033,.411,.022,.767,.032,1.07,.032,.865,0,1.579-.274,2.141-.822h0Z" style="fill:#00b729;"/><path d="M599.702,31.413c.043-.807-.238-1.478-.843-2.011-.606-.533-1.334-.8-2.185-.8-1.744,0-2.724,.858-2.941,2.573-.274,2.148-.41,4.7-.41,7.655,0,.735,.014,1.946,.043,3.633,.014,1.413,.021,2.674,.021,3.784-1.917,.462-3.676,.692-5.276,.692-.317,0-.645-.043-.984-.129s-.688-.208-1.049-.365c-.274-.988-.479-2.236-.616-3.747-.137-1.51-.205-3.274-.205-5.293,0-.701,.104-1.725,.313-3.071,.209-1.346,.314-2.333,.314-2.963,0-.801-.296-1.464-.887-1.986-.591-.522-1.305-.784-2.141-.784-1.658,0-2.631,.81-2.919,2.43-.433,2.395-.649,4.524-.649,6.388,0,2.825,.281,6.03,.844,9.615,.302,1.893,1.239,3.334,2.811,4.323,1.398,.86,3.121,1.29,5.168,1.29,1.975,0,3.885-.339,5.731-1.016,.547,1.081,1.419,1.622,2.616,1.622,.851,0,1.568-.263,2.152-.789,.584-.526,.876-1.193,.876-2,0-.303-.026-.753-.076-1.352-.051-.598-.076-1.049-.076-1.352,0-.966-.007-2.422-.021-4.368-.015-1.946-.022-3.402-.022-4.368,0,.418,.137-2.119,.411-7.612h0Z" style="fill:#f0f;"/><path d="M574.033,48.842c1.788-2.364,2.682-5.219,2.682-8.563,0-3.071-.764-5.644-2.292-7.72-1.702-2.306-3.994-3.46-6.877-3.46-3.907,0-6.956,1.47-9.147,4.411-1.846,2.494-2.718,5.334-2.617,8.52,.101,3.345,1.204,6.019,3.309,8.023,1.917,1.831,4.209,2.746,6.876,2.746,3.374,0,6.062-1.319,8.066-3.957h0Zm-3.114-7.05c-.072,1.701-.634,3.049-1.686,4.044-.923,.851-2.011,1.276-3.266,1.276-1.038,0-1.946-.368-2.724-1.103-.981-.923-1.471-2.249-1.471-3.979,0-1.831,.433-3.431,1.298-4.801,1.023-1.629,2.422-2.436,4.195-2.422,2.624,.014,3.842,2.343,3.654,6.985h0Z" style="fill:aqua;"/><path d="M549.619,48.864c2.263-2.321,3.395-5.154,3.395-8.498,0-3.287-.973-6.084-2.919-8.39-2.091-2.465-4.83-3.698-8.217-3.698-.909,0-1.853,.148-2.833,.443-.981,.296-2.004,.739-3.071,1.33v-8.282c0-.187,.025-.487,.076-.898,.05-.411,.075-.71,.075-.897,0-1.672-.771-2.508-2.313-2.508-1.067,0-1.889,.512-2.466,1.535-.461,.807-.692,1.73-.692,2.768v24.501c0,.346-.021,.876-.064,1.589-.044,.714-.065,1.243-.065,1.589,0,.779,.277,1.427,.832,1.946,.555,.519,1.222,.779,2.001,.779,.763,0,1.412-.267,1.946-.8,1.816,.706,3.733,1.06,5.752,1.06,3.402,0,6.256-1.189,8.563-3.568h0Zm-3.719-13.148c.965,1.226,1.449,2.775,1.449,4.649s-.592,3.427-1.774,4.66c-1.182,1.233-2.688,1.849-4.519,1.849-1.413,0-3.107-.425-5.082-1.276-.014-4.757-.014-7.821,0-9.19,1.225-.865,2.328-1.514,3.309-1.946,.98-.433,1.845-.649,2.595-.649,1.672,0,3.013,.634,4.022,1.903h0Z" style="fill:red;"/><path d="M526.859,51.963c.584-.499,.876-1.127,.876-1.884,0-.171-.281-.87-.843-2.098-.62-1.356-.952-2.098-.995-2.227-.389-1.199-.584-3.162-.584-5.888,0-1.156,.04-2.166,.119-3.03,.079-.864,.191-1.581,.335-2.152,.332-.385,.498-.835,.498-1.349,0-1.227-1.089-2.305-3.266-3.233-1.802-.771-3.388-1.156-4.757-1.156-3.576,0-6.646,1.236-9.212,3.709-2.566,2.473-3.849,5.446-3.849,8.92,0,3.705,.868,6.487,2.605,8.347,1.737,1.86,4.343,2.79,7.818,2.79,.706,0,1.564-.162,2.573-.487,1.009-.324,2.177-.803,3.503-1.438,1.442,1.283,2.494,1.925,3.157,1.925,.764,0,1.438-.25,2.022-.749h0Zm-6.736-6.149c-.706,.577-1.459,1.013-2.26,1.308-.8,.296-1.647,.443-2.54,.443-1.384,0-2.422-.487-3.114-1.46-.692-.973-1.038-2.425-1.038-4.357,0-2.018,.735-3.795,2.205-5.33,1.471-1.535,3.186-2.303,5.147-2.303,.158,0,.349,.033,.573,.097,.223,.065,.479,.17,.768,.314-.13,.735-.227,1.402-.292,2-.065,.598-.098,1.128-.098,1.589,0,1.701,.217,4.268,.649,7.698h0Z" style="fill:blue;"/><path d="M483.405,51.578c.634-.555,.951-1.229,.951-2.022,0-.966-1.089-2.898-3.265-5.795l-4.498-5.795c2.35-2.076,4.375-4.065,6.076-5.968,.563-.62,.844-1.261,.844-1.925,0-.779-.31-1.463-.93-2.054-.62-.591-1.334-.887-2.141-.887s-1.528,.317-2.162,.951c-4.008,3.993-6.993,6.747-8.953,8.261-.015-1.759,.022-3.763,.108-6.012,.087-2.35,.13-4.382,.13-6.098,0-.634-.036-1.384-.108-2.249-.073-.865-.108-1.614-.108-2.249,0-.836-.281-1.525-.844-2.065-.562-.541-1.276-.811-2.141-.811s-1.578,.27-2.14,.811c-.563,.541-.844,1.229-.844,2.065,0,.62,.033,1.352,.098,2.195,.064,.843,.097,1.575,.097,2.195,0,2.062-.033,4.437-.097,7.125-.065,2.689-.098,5.078-.098,7.169,0,1.139-.083,2.844-.248,5.114-.166,2.27-.249,3.975-.249,5.114,0,2.422,1.016,3.633,3.049,3.633,.865,0,1.579-.274,2.141-.822,.562-.548,.843-1.24,.843-2.076,0-1.831,.072-3.748,.216-5.752,.75-.447,1.701-1.095,2.855-1.946,.13,.173,1.29,1.651,3.481,4.433,1.413,1.788,2.473,3.338,3.179,4.649,.591,1.095,1.456,1.643,2.595,1.643,.807,0,1.528-.278,2.163-.833h0Z" style="fill:#00b729;"/><path d="M457.585,19.606c0-.836-.274-1.51-.822-2.022-.548-.512-1.247-.768-2.097-.768s-1.565,.245-2.141,.735c-.606,.534-.909,1.218-.909,2.054v29.907c0,.865,.282,1.571,.844,2.119,.562,.548,1.276,.822,2.141,.822,1.989,0,2.984-1.369,2.984-4.109V19.606h0Z" style="fill:#ff8500;"/><path d="M447,51.963c.583-.499,.875-1.127,.875-1.884,0-.171-.281-.87-.843-2.098-.62-1.356-.951-2.098-.995-2.227-.389-1.199-.584-3.162-.584-5.888,0-1.156,.04-2.166,.119-3.03,.079-.864,.191-1.581,.336-2.152,.331-.385,.497-.835,.497-1.349,0-1.227-1.089-2.305-3.265-3.233-1.803-.771-3.388-1.156-4.758-1.156-3.575,0-6.646,1.236-9.212,3.709-2.566,2.473-3.849,5.446-3.849,8.92,0,3.705,.868,6.487,2.606,8.347,1.737,1.86,4.342,2.79,7.817,2.79,.706,0,1.564-.162,2.573-.487,1.009-.324,2.177-.803,3.503-1.438,1.442,1.283,2.494,1.925,3.158,1.925,.764,0,1.438-.25,2.022-.749h0Zm-6.737-6.149c-.706,.577-1.459,1.013-2.259,1.308-.8,.296-1.647,.443-2.541,.443-1.384,0-2.422-.487-3.114-1.46-.692-.973-1.038-2.425-1.038-4.357,0-2.018,.735-3.795,2.206-5.33,1.47-1.535,3.186-2.303,5.146-2.303,.159,0,.35,.033,.573,.097,.224,.065,.479,.17,.768,.314-.13,.735-.227,1.402-.292,2-.065,.598-.097,1.128-.097,1.589,0,1.701,.216,4.268,.648,7.698h0Z" style="fill:#f0f;"/><path d="M422.856,33.294c.562-.548,.843-1.233,.843-2.054,0-1.355-.577-2.234-1.73-2.638-.605-.216-1.737-.324-3.395-.324-.562,0-1.29,.065-2.184,.195l.043-1.773c0-3.59-1.067-5.385-3.2-5.385-.837,0-1.55,.267-2.141,.8-.591,.534-.887,1.204-.887,2.011,0,.505,.029,1.219,.087,2.141,.057,1.067,.093,1.831,.108,2.292-1.918-.173-3.143-.26-3.676-.26-.865,0-1.572,.281-2.12,.843-.548,.562-.821,1.247-.821,2.054,0,1.673,.904,2.606,2.714,2.8,1.809,.195,3.16,.314,4.054,.357,.26,5.723,.389,9.457,.389,11.202,0,.519-.021,1.297-.064,2.335-.044,1.038-.065,1.816-.065,2.335,0,.779,.317,1.427,.951,1.946,.577,.49,1.262,.735,2.055,.735,2.09,0,3.135-1.658,3.135-4.974,0-.317-.007-.732-.021-1.243-.015-.512-.022-.861-.022-1.049,0-1.788-.13-5.593-.389-11.418,.778-.115,1.463-.173,2.054-.173,.303,0,.66,.011,1.07,.033,.411,.022,.768,.032,1.071,.032,.865,0,1.578-.274,2.141-.822h0Z" style="fill:aqua;"/><path d="M382.007,31.802c0-1.355-.476-2.285-1.427-2.79-.692-.375-1.759-.562-3.201-.562-3.676,0-6.415,.296-8.217,.887-3.071,1.009-4.606,2.963-4.606,5.86,0,2.047,1.016,3.784,3.049,5.212,.836,.577,2.739,1.521,5.709,2.833,2.032,.894,3.049,1.708,3.049,2.444-.015,1.182-1.485,1.773-4.412,1.773-.677,0-1.643-.209-2.897-.627-1.255-.418-2.214-.627-2.876-.627-1.716,0-2.574,.721-2.574,2.163,0,1.572,1.081,2.761,3.244,3.568,1.586,.591,3.337,.887,5.255,.887,2.71,0,4.995-.512,6.855-1.535,2.306-1.283,3.46-3.164,3.46-5.644,0-1.903-1.046-3.611-3.136-5.125-1.009-.735-2.941-1.759-5.795-3.071-2.091-.951-3.136-1.708-3.136-2.271,0-.952,1.737-1.427,5.212-1.427,.605,0,1.196,.051,1.773,.151,.288,1.197,1.146,1.795,2.573,1.795,1.398,0,2.098-1.297,2.098-3.892h0Z" style="fill:red;"/><path d="M354.868,27.12c-.49-.497-.735-1.135-.735-1.914,0-.663,.252-2.53,.756-5.601,.26-1.6,1.19-2.4,2.79-2.4,.793,0,1.431,.249,1.914,.746,.483,.497,.724,1.135,.724,1.914,0,.505-.252,2.328-.757,5.471-.086,.577-.324,1.096-.713,1.557-.534,.649-1.219,.973-2.055,.973-.793,0-1.434-.249-1.924-.746h0Z" style="fill:blue;"/><path d="M351.213,33.294c.563-.548,.844-1.233,.844-2.054,0-1.355-.577-2.234-1.73-2.638-.606-.216-1.738-.324-3.395-.324-.563,0-1.291,.065-2.184,.195l.043-1.773c0-3.59-1.067-5.385-3.201-5.385-.836,0-1.55,.267-2.141,.8-.591,.534-.886,1.204-.886,2.011,0,.505,.029,1.219,.086,2.141,.058,1.067,.094,1.831,.108,2.292-1.917-.173-3.143-.26-3.676-.26-.865,0-1.571,.281-2.119,.843-.548,.562-.822,1.247-.822,2.054,0,1.673,.905,2.606,2.714,2.8,1.809,.195,3.161,.314,4.055,.357,.259,5.723,.389,9.457,.389,11.202,0,.519-.022,1.297-.065,2.335-.043,1.038-.065,1.816-.065,2.335,0,.779,.317,1.427,.952,1.946,.576,.49,1.261,.735,2.054,.735,2.09,0,3.136-1.658,3.136-4.974,0-.317-.008-.732-.022-1.243-.014-.512-.021-.861-.021-1.049,0-1.788-.13-5.593-.39-11.418,.779-.115,1.463-.173,2.055-.173,.302,0,.659,.011,1.07,.033,.411,.022,.768,.032,1.07,.032,.865,0,1.579-.274,2.141-.822h0Z" style="fill:#f0f;"/><path d="M326.367,51.221c2.407-1.038,3.611-2.379,3.611-4.022,0-1.456-.75-2.184-2.249-2.184-.721,0-1.68,.353-2.876,1.06-1.341,.793-2.977,1.189-4.909,1.189-1.269,0-2.393-.187-3.373-.562-.981-.375-1.817-.937-2.509-1.687l7.288-3.222c2.436-1.081,4.058-1.903,4.865-2.465,1.773-1.225,2.66-2.631,2.66-4.217,0-2.249-1.089-3.907-3.265-4.974-1.658-.807-3.741-1.211-6.25-1.211-3.619,0-6.495,1.398-8.628,4.195-1.918,2.523-2.876,5.608-2.876,9.255,0,3.302,1.211,5.86,3.633,7.677,2.191,1.643,5.009,2.465,8.455,2.465,2.263,0,4.404-.433,6.423-1.298h0Zm-3.222-16.24c-1.154,.75-2.704,1.564-4.65,2.444-1.615,.692-3.236,1.391-4.865,2.098,.576-1.787,1.34-3.128,2.292-4.022,.951-.894,2.097-1.341,3.438-1.341,1.557,0,2.818,.274,3.785,.822h0Z" style="fill:#00b729;"/><path d="M306.861,47.999c0-.735-.252-1.398-.757-1.989-.562-.663-1.297-.995-2.205-.995-.303,0-.62,.051-.952,.151-5.349,1.615-9.731,2.451-13.148,2.508,.144-2.379,.281-4.144,.411-5.298,.389-6.473,.584-13.551,.584-21.235,0-.822-.289-1.521-.865-2.097-.577-.577-1.297-.865-2.162-.865s-1.583,.289-2.152,.865c-.57,.577-.854,1.276-.854,2.097,0,7.67-.188,14.633-.562,20.889-.289,4.815-.433,7.1-.433,6.855,0,3.099,1.766,4.649,5.298,4.649,2.09,0,4.765-.274,8.023-.822,3.56-.591,6.192-1.261,7.893-2.011,1.254-.562,1.881-1.463,1.881-2.703h0Z" style="fill:aqua;"/><path d="M256.065,52.886c.692-.591,1.038-1.269,1.038-2.033,0-.836-.332-1.542-.995-2.119-.663-.577-1.506-.865-2.53-.865-.966,0-1.802,.306-2.508,.919-.707,.613-1.06,1.301-1.06,2.065,0,.749,.353,1.424,1.06,2.022,.706,.598,1.542,.897,2.508,.897s1.795-.296,2.487-.887h0Z" style="fill:#f0f;"/><path d="M242.247,52.259c.576-.534,.865-1.204,.865-2.011,0-1.11-.155-2.552-.465-4.325-.31-1.773-.465-3.222-.465-4.347,0-.274,.007-.742,.022-1.406v-1.535c0-3.042-.346-5.327-1.038-6.855-1.038-2.278-2.92-3.417-5.645-3.417-2.335,0-4.555,1.06-6.66,3.179l-.022-.238c-.129-2.263-1.139-3.395-3.027-3.395-.851,0-1.568,.268-2.152,.804-.583,.536-.875,1.215-.875,2.037,0,.426,.025,1.076,.075,1.949,.051,.874,.076,1.531,.076,1.971,0,1.41-.101,3.37-.303,5.88-.202,2.51-.303,4.471-.303,5.88,0,.411,.044,1.031,.13,1.861,.087,.83,.13,1.45,.13,1.861,0,.837,.281,1.53,.843,2.081,.563,.55,1.276,.826,2.141,.826s1.582-.277,2.152-.831c.569-.554,.854-1.251,.854-2.094,0-.414,.047-1.037,.141-1.872,.093-.834,.14-1.459,.14-1.872,0-.635,.04-1.285,.121-1.95,.094-.812,.154-1.462,.181-1.95,.671-2.437,1.6-4.449,2.788-6.037,1.188-1.588,2.4-2.382,3.635-2.382,.577,0,.865,.598,.865,1.795,0,.259-.014,.595-.043,1.006-.029,.411-.043,.667-.043,.768,0,.375-.025,1.016-.076,1.925-.051,.908-.076,1.55-.076,1.925,0,1.398,.109,2.891,.325,4.476,.202,1.5,.403,2.992,.605,4.476,.202,1.744,1.19,2.617,2.963,2.617,.85,0,1.564-.267,2.141-.8h0Z" style="fill:#ff8500;"/><path d="M219.39,31.413c.043-.807-.238-1.478-.844-2.011-.605-.533-1.333-.8-2.184-.8-1.744,0-2.725,.858-2.941,2.573-.274,2.148-.411,4.7-.411,7.655,0,.735,.014,1.946,.044,3.633,.014,1.413,.021,2.674,.021,3.784-1.917,.462-3.676,.692-5.276,.692-.318,0-.646-.043-.984-.129-.339-.086-.689-.208-1.049-.365-.274-.988-.479-2.236-.616-3.747-.137-1.51-.206-3.274-.206-5.293,0-.701,.105-1.725,.314-3.071,.209-1.346,.313-2.333,.313-2.963,0-.801-.295-1.464-.886-1.986-.592-.522-1.305-.784-2.141-.784-1.658,0-2.631,.81-2.919,2.43-.433,2.395-.649,4.524-.649,6.388,0,2.825,.281,6.03,.843,9.615,.303,1.893,1.24,3.334,2.811,4.323,1.399,.86,3.121,1.29,5.169,1.29,1.975,0,3.885-.339,5.73-1.016,.548,1.081,1.42,1.622,2.617,1.622,.85,0,1.568-.263,2.151-.789,.584-.526,.876-1.193,.876-2,0-.303-.025-.753-.075-1.352-.051-.598-.076-1.049-.076-1.352,0-.966-.008-2.422-.022-4.368-.014-1.946-.021-3.402-.021-4.368,0,.418,.136-2.119,.411-7.612h0Z" style="fill:red;"/><path d="M187.861,28.688c.202-1.932,.598-3.352,1.189-4.26,.793-1.225,2.062-1.838,3.806-1.838,2.451,0,3.676-.937,3.676-2.811,0-1.888-1.319-2.833-3.957-2.833-3.46,0-6.026,.981-7.698,2.941-1.341,1.572-2.214,3.965-2.617,7.179-.173,1.37-.267,2.184-.281,2.444-1.889,.058-3.15,.18-3.784,.368-1.413,.418-2.12,1.298-2.12,2.638,0,.865,.289,1.554,.865,2.065,.577,.512,1.305,.768,2.184,.768,.289,0,.707-.036,1.255-.108,.692-.101,1.167-.159,1.427-.173v10.812c0,1.816-.173,3.756-.519,5.817-.029,.173-.043,.353-.043,.541,0,.793,.299,1.449,.897,1.968,.598,.519,1.301,.779,2.108,.779,1.572,0,2.523-.771,2.855-2.314,.331-1.542,.497-3.633,.497-6.271,0-.476-.029-2.414-.086-5.817-.029-2.364-.015-4.31,.043-5.839,1.845-.158,3.222-.223,4.13-.195,2.869,.087,4.304-.822,4.304-2.725,0-1.845-1.348-2.768-4.044-2.768-.836,0-2.22,.086-4.152,.259l.065-.627h0Z" style="fill:aqua;"/><path d="M152.007,48.842c1.788-2.364,2.682-5.219,2.682-8.563,0-3.071-.765-5.644-2.293-7.72-1.701-2.306-3.993-3.46-6.876-3.46-3.907,0-6.956,1.47-9.147,4.411-1.846,2.494-2.718,5.334-2.617,8.52,.101,3.345,1.204,6.019,3.309,8.023,1.917,1.831,4.209,2.746,6.876,2.746,3.374,0,6.062-1.319,8.066-3.957h0Zm-3.114-7.05c-.072,1.701-.634,3.049-1.686,4.044-.923,.851-2.012,1.276-3.266,1.276-1.038,0-1.946-.368-2.725-1.103-.98-.923-1.47-2.249-1.47-3.979,0-1.831,.432-3.431,1.297-4.801,1.024-1.629,2.422-2.436,4.196-2.422,2.623,.014,3.841,2.343,3.654,6.985h0Z" style="fill:blue;"/><path d="M130.793,31.802c0-1.355-.475-2.285-1.427-2.79-.692-.375-1.759-.562-3.2-.562-3.676,0-6.416,.296-8.218,.887-3.07,1.009-4.606,2.963-4.606,5.86,0,2.047,1.017,3.784,3.049,5.212,.836,.577,2.739,1.521,5.709,2.833,2.033,.894,3.049,1.708,3.049,2.444-.014,1.182-1.485,1.773-4.411,1.773-.678,0-1.644-.209-2.898-.627-1.254-.418-2.213-.627-2.876-.627-1.716,0-2.573,.721-2.573,2.163,0,1.572,1.081,2.761,3.244,3.568,1.585,.591,3.337,.887,5.254,.887,2.711,0,4.996-.512,6.855-1.535,2.307-1.283,3.46-3.164,3.46-5.644,0-1.903-1.045-3.611-3.135-5.125-1.01-.735-2.941-1.759-5.796-3.071-2.09-.951-3.135-1.708-3.135-2.271,0-.952,1.737-1.427,5.211-1.427,.606,0,1.197,.051,1.773,.151,.289,1.197,1.147,1.795,2.574,1.795,1.398,0,2.097-1.297,2.097-3.892h0Z" style="fill:#f0f;"/><path d="M90.031,31.802c0-1.355-.476-2.285-1.427-2.79-.692-.375-1.759-.562-3.201-.562-3.676,0-6.415,.296-8.217,.887-3.071,1.009-4.606,2.963-4.606,5.86,0,2.047,1.016,3.784,3.049,5.212,.836,.577,2.739,1.521,5.709,2.833,2.033,.894,3.049,1.708,3.049,2.444-.015,1.182-1.485,1.773-4.411,1.773-.678,0-1.643-.209-2.898-.627-1.254-.418-2.213-.627-2.876-.627-1.716,0-2.573,.721-2.573,2.163,0,1.572,1.081,2.761,3.244,3.568,1.586,.591,3.337,.887,5.255,.887,2.71,0,4.995-.512,6.855-1.535,2.306-1.283,3.46-3.164,3.46-5.644,0-1.903-1.045-3.611-3.136-5.125-1.009-.735-2.941-1.759-5.795-3.071-2.09-.951-3.136-1.708-3.136-2.271,0-.952,1.737-1.427,5.212-1.427,.605,0,1.196,.051,1.773,.151,.288,1.197,1.146,1.795,2.573,1.795,1.398,0,2.098-1.297,2.098-3.892h0Z" style="fill:#00b729;"/><path d="M62.892,27.12c-.49-.497-.735-1.135-.735-1.914,0-.663,.252-2.53,.757-5.601,.259-1.6,1.189-2.4,2.79-2.4,.793,0,1.431,.249,1.914,.746,.483,.497,.724,1.135,.724,1.914,0,.505-.252,2.328-.757,5.471-.086,.577-.324,1.096-.714,1.557-.533,.649-1.218,.973-2.054,.973-.793,0-1.435-.249-1.925-.746h0Z" style="fill:blue;"/><path d="M59.238,33.294c.562-.548,.843-1.233,.843-2.054,0-1.355-.577-2.234-1.73-2.638-.605-.216-1.737-.324-3.395-.324-.562,0-1.29,.065-2.184,.195l.043-1.773c0-3.59-1.067-5.385-3.201-5.385-.836,0-1.55,.267-2.141,.8-.591,.534-.887,1.204-.887,2.011,0,.505,.029,1.219,.086,2.141,.057,1.067,.094,1.831,.108,2.292-1.918-.173-3.143-.26-3.676-.26-.865,0-1.572,.281-2.119,.843-.548,.562-.822,1.247-.822,2.054,0,1.673,.905,2.606,2.714,2.8,1.809,.195,3.161,.314,4.055,.357,.259,5.723,.389,9.457,.389,11.202,0,.519-.022,1.297-.065,2.335-.043,1.038-.065,1.816-.065,2.335,0,.779,.317,1.427,.952,1.946,.576,.49,1.261,.735,2.054,.735,2.09,0,3.136-1.658,3.136-4.974,0-.317-.007-.732-.022-1.243-.015-.512-.022-.861-.022-1.049,0-1.788-.13-5.593-.389-11.418,.779-.115,1.463-.173,2.054-.173,.303,0,.66,.011,1.07,.033,.411,.022,.768,.032,1.07,.032,.865,0,1.579-.274,2.141-.822h0Z" style="fill:aqua;"/><path d="M37.502,25.293c.665-.533,.998-1.261,.998-2.184,0-1.744-.859-2.739-2.577-2.984-4.317-.605-7.844-.908-10.582-.908-3.045,0-5.183,.058-6.412,.173-.754,.072-1.39,.354-1.907,.843-.559,.534-.838,1.225-.838,2.076,0,.836,.292,1.535,.876,2.098,.584,.562,1.308,.843,2.173,.843l4.693-.13c-.289,3.561-.433,7.302-.433,11.223,0,4.815,.014,8.073,.043,9.774-1.711,.216-3.091,.324-4.139,.324-.925,0-1.692,.289-2.3,.865-.609,.577-.913,1.269-.913,2.076s.291,1.496,.873,2.065c.582,.569,1.315,.854,2.199,.854,.972,0,2.43-.126,4.375-.378,1.944-.252,3.402-.378,4.375-.378,.825,0,2.062-.018,3.712-.054,1.65-.036,2.887-.054,3.712-.054,.884,0,1.617-.285,2.199-.854,.582-.569,.873-1.258,.873-2.065s-.285-1.499-.854-2.076c-.57-.576-1.287-.865-2.152-.865-1.99,0-3.943,.022-5.86,.065l.022-9.71c0-4.397,.101-7.922,.303-10.574,3.1,.404,4.996,.605,5.688,.605s1.31-.223,1.856-.67h0Z" style="fill:red;"/></svg>