<?xml version="1.0" encoding="UTF-8"?><svg id="a" xmlns="http://www.w3.org/2000/svg" viewBox="0 0 1200 400.993"><path d="M28.969,34.375h8.144v-8.407h-3.744v-.46c0-1.708,.383-3.031,1.149-3.973,.766-.941,1.675-1.565,2.726-1.872v-3.612c-1.095,.131-2.134,.417-3.12,.854-.985,.438-1.862,1.062-2.627,1.872-.767,.811-1.379,1.829-1.839,3.054-.46,1.226-.69,2.693-.69,4.4v8.144h0Zm-12.61,0h8.21v-8.407h-3.809v-.46c0-1.708,.394-3.031,1.182-3.973,.788-.941,1.708-1.565,2.758-1.872v-3.612c-1.095,.131-2.146,.417-3.152,.854-1.008,.438-1.894,1.062-2.66,1.872-.767,.811-1.379,1.829-1.839,3.054-.46,1.226-.69,2.693-.69,4.4v8.144h0Zm52.902,30.573c1.86-.854,3.448-2.09,4.762-3.711,1.314-1.619,2.32-3.579,3.021-5.878,.7-2.299,1.051-4.87,1.051-7.717,0-2.801-.361-5.341-1.084-7.619-.722-2.276-1.74-4.225-3.054-5.845-1.313-1.619-2.901-2.867-4.762-3.744-1.861-.875-3.908-1.314-6.141-1.314-2.496,0-4.642,.558-6.436,1.675-1.796,1.117-3.262,2.594-4.4,4.433h-.197c.087-.919,.153-2.036,.197-3.35,.043-1.314,.066-2.67,.066-4.072v-11.559h-8.341v48.863h8.078v-5.057h.197c1.051,2.102,2.517,3.656,4.4,4.663,1.882,1.007,4.006,1.511,6.371,1.511,2.32,0,4.411-.427,6.272-1.281h0Zm-12.052-6.31c-1.139-.594-2.102-1.409-2.89-2.443-.788-1.034-1.379-2.278-1.773-3.731-.394-1.453-.591-3.038-.591-4.754,0-1.673,.186-3.247,.558-4.722,.372-1.475,.93-2.751,1.675-3.831,.744-1.078,1.708-1.937,2.89-2.576,1.182-.638,2.561-.958,4.138-.958,1.401,0,2.627,.298,3.678,.892,1.051,.595,1.926,1.432,2.627,2.51,.7,1.079,1.225,2.355,1.576,3.83,.35,1.476,.525,3.071,.525,4.787,0,3.523-.701,6.385-2.102,8.586-1.402,2.201-3.503,3.301-6.305,3.301-1.533,0-2.868-.296-4.006-.892h0Zm26.795,6.474h8.407V16.248h-8.407v48.863h0Zm39.603-.394c2.189-.962,4.061-2.276,5.615-3.941,1.554-1.663,2.747-3.622,3.579-5.878,.831-2.254,1.248-4.673,1.248-7.257,0-2.627-.417-5.067-1.248-7.323-.832-2.254-2.026-4.213-3.579-5.878-1.555-1.663-3.427-2.966-5.615-3.908-2.19-.941-4.642-1.412-7.356-1.412s-5.178,.471-7.389,1.412c-2.212,.942-4.095,2.244-5.648,3.908-1.555,1.665-2.758,3.624-3.612,5.878-.854,2.256-1.281,4.696-1.281,7.323,0,2.584,.427,5.003,1.281,7.257,.854,2.256,2.057,4.215,3.612,5.878,1.554,1.665,3.437,2.978,5.648,3.941,2.21,.963,4.673,1.445,7.389,1.445s5.166-.482,7.356-1.445h0Zm-11.493-5.714c-1.182-.613-2.167-1.466-2.955-2.561-.788-1.094-1.379-2.386-1.773-3.875-.394-1.488-.591-3.108-.591-4.86s.197-3.382,.591-4.893c.394-1.511,.985-2.824,1.773-3.941,.788-1.116,1.773-1.98,2.955-2.594,1.182-.613,2.539-.919,4.072-.919s2.878,.307,4.039,.919c1.16,.614,2.134,1.478,2.923,2.594,.788,1.117,1.389,2.43,1.806,3.941,.415,1.511,.624,3.142,.624,4.893s-.208,3.372-.624,4.86c-.417,1.489-1.018,2.781-1.806,3.875-.788,1.095-1.763,1.949-2.923,2.561-1.161,.614-2.507,.919-4.039,.919s-2.89-.306-4.072-.919h0Zm50.176,6.141c1.882-.678,3.514-1.619,4.893-2.824,1.379-1.204,2.463-2.649,3.251-4.335,.788-1.685,1.248-3.557,1.379-5.615h-8.144c-.22,2.321-.996,4.116-2.332,5.385-1.336,1.271-3.164,1.905-5.484,1.905-1.533,0-2.879-.308-4.039-.925-1.16-.616-2.124-1.463-2.89-2.542-.766-1.079-1.346-2.355-1.74-3.83-.394-1.475-.591-3.07-.591-4.788,0-1.761,.197-3.389,.591-4.886,.394-1.496,.974-2.795,1.74-3.896,.766-1.1,1.729-1.948,2.89-2.542,1.16-.594,2.506-.892,4.039-.892,2.102,0,3.798,.571,5.09,1.711,1.291,1.14,2.135,2.694,2.529,4.66h8.144c-.307-1.882-.887-3.601-1.74-5.156-.854-1.553-1.949-2.878-3.284-3.973-1.336-1.094-2.912-1.948-4.729-2.561-1.817-.613-3.842-.919-6.075-.919-2.715,0-5.156,.471-7.323,1.412-2.167,.942-4.017,2.244-5.55,3.908-1.533,1.665-2.715,3.624-3.547,5.878-.832,2.256-1.248,4.696-1.248,7.323,0,2.584,.416,5.003,1.248,7.257,.831,2.256,2.025,4.215,3.579,5.878,1.554,1.665,3.426,2.978,5.615,3.941,2.189,.963,4.641,1.445,7.356,1.445,2.364,0,4.488-.34,6.371-1.018h0Zm37.895-.033h9.72l-14.383-22.264,12.873-12.807h-9.917l-13.201,13.726c.043-1.007,.099-2.276,.164-3.809,.066-1.532,.099-3.13,.099-4.794V16.248h-8.275v48.863h8.275v-12.676l4.138-4.138,10.508,16.813h0Zm34.48,.033c1.883-.678,3.514-1.619,4.893-2.824,1.379-1.204,2.463-2.649,3.251-4.335,.788-1.685,1.248-3.557,1.379-5.615h-8.144c-.219,2.321-.996,4.116-2.332,5.385-1.335,1.271-3.163,1.905-5.484,1.905-1.532,0-2.879-.308-4.038-.925-1.16-.616-2.124-1.463-2.89-2.542-.766-1.079-1.346-2.355-1.74-3.83-.394-1.475-.591-3.07-.591-4.788,0-1.761,.197-3.389,.591-4.886,.394-1.496,.974-2.795,1.74-3.896,.766-1.1,1.729-1.948,2.89-2.542,1.16-.594,2.506-.892,4.038-.892,2.102,0,3.798,.571,5.09,1.711,1.292,1.14,2.134,2.694,2.529,4.66h8.144c-.306-1.882-.887-3.601-1.74-5.156-.854-1.553-1.948-2.878-3.284-3.973-1.335-1.094-2.912-1.948-4.729-2.561-1.817-.613-3.842-.919-6.075-.919-2.714,0-5.155,.471-7.322,1.412-2.167,.942-4.017,2.244-5.55,3.908-1.533,1.665-2.715,3.624-3.547,5.878-.832,2.256-1.248,4.696-1.248,7.323,0,2.584,.416,5.003,1.248,7.257,.831,2.256,2.025,4.215,3.579,5.878,1.554,1.665,3.425,2.978,5.615,3.941,2.189,.963,4.64,1.445,7.355,1.445,2.364,0,4.488-.34,6.371-1.018h0Zm23.315-48.896h-8.341v48.863h8.341v-20.557c0-1.225,.197-2.364,.591-3.415,.394-1.051,.941-1.959,1.642-2.726,.701-.765,1.533-1.356,2.496-1.773,.963-.415,2.036-.624,3.218-.624,2.145,0,3.798,.591,4.959,1.773,1.16,1.182,1.74,2.824,1.74,4.926v22.396h8.341v-23.775c0-3.809-1.062-6.798-3.185-8.965-2.124-2.167-5.09-3.251-8.899-3.251-2.496,0-4.63,.525-6.403,1.576s-3.251,2.519-4.433,4.4h-.197c.044-1.007,.077-2.09,.099-3.251,.022-1.159,.033-1.98,.033-2.463v-13.135h0Zm61.145,48.863v-.591c-.394-.263-.714-.788-.952-1.576-.243-.788-.361-1.905-.361-3.35v-18.455c0-4.64-1.666-7.968-4.991-9.983-1.141-.744-2.487-1.269-4.039-1.576-1.557-.306-3.341-.46-5.353-.46-2.496,0-4.663,.318-6.502,.952-1.839,.635-3.382,1.478-4.63,2.529-1.248,1.051-2.191,2.266-2.824,3.645-.637,1.379-.976,2.814-1.018,4.302h7.881c.085-1.75,.709-3.13,1.872-4.138,1.158-1.007,2.923-1.511,5.287-1.511,2.102,0,3.678,.459,4.729,1.375,1.051,.916,1.576,2.138,1.576,3.665,0,1.571-.722,2.673-2.167,3.306-1.445,.633-3.612,1.124-6.502,1.472-2.102,.264-4.03,.604-5.78,1.02-1.754,.417-3.264,1.019-4.532,1.808-1.272,.79-2.266,1.832-2.988,3.125-.722,1.294-1.084,2.928-1.084,4.9,0,1.711,.304,3.213,.919,4.506,.611,1.294,1.445,2.38,2.496,3.256,1.051,.877,2.307,1.535,3.776,1.973,1.465,.438,3.054,.658,4.762,.658,2.8,0,5.057-.515,6.765-1.543,1.708-1.028,3.128-2.309,4.269-3.842h.131c.085,1.182,.23,2.134,.427,2.857s.447,1.281,.755,1.675h8.078Zm-20.294-5.153c-.747-.152-1.392-.414-1.937-.784-.549-.37-.985-.87-1.314-1.501-.328-.63-.493-1.403-.493-2.317,0-1.915,.698-3.253,2.102-4.014,1.399-.761,3.391-1.381,5.977-1.861,1.268-.263,2.515-.58,3.744-.952,1.224-.371,2.253-.821,3.087-1.346v5.171c0,1.002-.197,1.969-.591,2.905-.394,.936-.965,1.762-1.708,2.48-.747,.718-1.666,1.305-2.758,1.762-1.097,.458-2.364,.685-3.809,.685-.788,0-1.557-.076-2.299-.228h0Zm26.531-35.632h8.538v-8.078h-8.538v8.078h0Zm.131,40.785h8.341V30.04h-8.341v35.071h0Zm24.038-35.071h-8.144v35.071h8.341v-20.557c0-1.225,.197-2.364,.591-3.415,.394-1.051,.941-1.959,1.642-2.726,.701-.765,1.532-1.356,2.496-1.773,.963-.415,2.036-.624,3.218-.624,2.145,0,3.798,.591,4.959,1.773,1.16,1.182,1.74,2.824,1.74,4.926v22.396h8.341v-23.775c0-3.809-1.062-6.798-3.185-8.965-2.124-2.167-5.09-3.251-8.899-3.251-2.496,0-4.652,.515-6.469,1.543-1.817,1.029-3.295,2.529-4.433,4.499h-.197v-5.123h0Zm36.976-13.792h-8.21v8.407h3.744v.46c0,1.752-.383,3.087-1.149,4.006-.766,.919-1.675,1.555-2.726,1.905v3.547c1.095-.131,2.145-.404,3.152-.821,1.007-.416,1.894-1.039,2.66-1.872,.766-.831,1.379-1.86,1.839-3.087,.46-1.225,.69-2.693,.69-4.4v-8.144h0Zm12.544,0h-8.144v8.407h3.744v.46c0,1.752-.394,3.087-1.182,4.006s-1.708,1.555-2.758,1.905v3.547c1.095-.131,2.145-.404,3.152-.821,1.007-.416,1.894-1.039,2.66-1.872,.766-.831,1.379-1.86,1.839-3.087,.46-1.225,.69-2.693,.69-4.4v-8.144h0Z"/><path d="M674.792,100.051h8.144v-8.407h-3.744v-.46c0-1.708,.383-3.031,1.149-3.973,.766-.941,1.675-1.565,2.726-1.872v-3.612c-1.095,.131-2.135,.417-3.12,.854-.985,.438-1.861,1.062-2.627,1.872-.766,.811-1.379,1.829-1.839,3.054-.46,1.226-.689,2.693-.689,4.4v8.144h0Zm-12.61,0h8.21v-8.407h-3.809v-.46c0-1.708,.394-3.031,1.182-3.973,.788-.941,1.708-1.565,2.759-1.872v-3.612c-1.095,.131-2.145,.417-3.152,.854-1.007,.438-1.894,1.062-2.66,1.872-.766,.811-1.379,1.829-1.839,3.054-.46,1.226-.69,2.693-.69,4.4v8.144h0Zm26.468,1.445h5.385v21.429c0,1.529,.23,2.818,.69,3.867,.46,1.049,1.103,1.889,1.938,2.522,.83,.634,1.839,1.093,3.021,1.376,1.182,.283,2.472,.426,3.875,.426,1.136,0,2.167-.054,3.087-.162,.919-.11,1.727-.228,2.43-.358v-6.442h-.394c-.352,.088-.779,.154-1.281,.197-.504,.044-.976,.066-1.412,.066-1.182,0-2.102-.23-2.758-.69-.657-.46-.985-1.324-.985-2.594v-19.637h7.028v-5.78h-7.028v-11.165h-8.21v11.165h-5.385v5.78h0Zm49.978,28.898c2.189-.962,4.061-2.276,5.615-3.941,1.554-1.663,2.747-3.622,3.579-5.878,.832-2.254,1.248-4.673,1.248-7.257,0-2.627-.416-5.067-1.248-7.323-.832-2.254-2.025-4.213-3.579-5.878-1.554-1.663-3.426-2.966-5.615-3.908-2.189-.941-4.641-1.412-7.356-1.412s-5.178,.471-7.389,1.412c-2.211,.942-4.094,2.244-5.648,3.908-1.554,1.665-2.759,3.624-3.612,5.878-.854,2.256-1.281,4.696-1.281,7.323,0,2.584,.427,5.003,1.281,7.257,.854,2.256,2.058,4.215,3.612,5.878,1.554,1.665,3.437,2.978,5.648,3.941,2.211,.963,4.674,1.445,7.389,1.445s5.167-.482,7.356-1.445h0Zm-11.493-5.714c-1.182-.613-2.167-1.466-2.955-2.561-.788-1.094-1.379-2.386-1.773-3.875-.394-1.488-.591-3.108-.591-4.86s.197-3.382,.591-4.893c.394-1.511,.985-2.824,1.773-3.941,.788-1.117,1.773-1.98,2.955-2.594,1.182-.613,2.54-.919,4.072-.919s2.879,.307,4.039,.919c1.16,.614,2.135,1.478,2.923,2.594,.788,1.117,1.39,2.43,1.806,3.941,.416,1.511,.624,3.142,.624,4.893s-.208,3.372-.624,4.86c-.416,1.489-1.018,2.781-1.806,3.875-.788,1.095-1.762,1.949-2.923,2.561-1.16,.614-2.507,.919-4.039,.919s-2.89-.306-4.072-.919h0Zm50.703,6.108h9.72l-14.383-22.264,12.873-12.807h-9.917l-13.201,13.727c.044-1.007,.098-2.276,.164-3.809,.066-1.532,.099-3.13,.099-4.794v-18.915h-8.275v48.864h8.275v-12.676l4.138-4.138,10.508,16.813h0Zm34.053,.235c1.773-.544,3.339-1.305,4.696-2.284,1.357-.979,2.485-2.132,3.382-3.46,.898-1.328,1.565-2.775,2.003-4.342h-8.144c-.569,1.465-1.5,2.61-2.791,3.431-1.292,.822-2.944,1.232-4.959,1.232-2.934,0-5.199-.942-6.798-2.827-1.598-1.885-2.55-4.358-2.857-7.418h26.205c.044-3.284-.35-6.249-1.182-8.899-.832-2.648-2.102-4.893-3.809-6.732-1.489-1.576-3.229-2.791-5.221-3.645-1.992-.854-4.28-1.281-6.863-1.281s-4.948,.471-7.093,1.412c-2.145,.942-3.984,2.244-5.517,3.908-1.532,1.665-2.715,3.624-3.547,5.878-.832,2.256-1.248,4.696-1.248,7.323,0,2.584,.405,5.003,1.215,7.257,.81,2.256,1.981,4.215,3.514,5.878,1.532,1.665,3.404,2.978,5.615,3.941,2.211,.963,4.718,1.445,7.52,1.445,2.145,0,4.105-.272,5.878-.816h0Zm-.328-27.721c1.467,1.642,2.288,3.908,2.463,6.798h-17.47c.35-2.758,1.248-4.991,2.693-6.699,1.445-1.708,3.547-2.561,6.305-2.561,2.54,0,4.543,.821,6.009,2.463h0Zm25.056-7.586h-8.144v35.071h8.341v-20.557c0-1.225,.197-2.364,.591-3.415,.394-1.051,.941-1.959,1.642-2.726,.698-.765,1.532-1.356,2.496-1.773,.961-.415,2.036-.624,3.218-.624,2.143,0,3.798,.591,4.959,1.773,1.158,1.182,1.74,2.824,1.74,4.926v22.396h8.341v-23.775c0-3.809-1.062-6.798-3.185-8.965-2.126-2.167-5.09-3.251-8.899-3.251-2.496,0-4.654,.515-6.469,1.543-1.817,1.029-3.295,2.529-4.433,4.499h-.197v-5.123h0Zm50.569,35.468c1.839-.48,3.426-1.189,4.762-2.128,1.335-.939,2.375-2.107,3.12-3.505,.744-1.398,1.116-3.013,1.116-4.847,0-2.14-.372-3.875-1.116-5.207-.744-1.332-1.74-2.401-2.988-3.21-1.248-.808-2.66-1.419-4.236-1.834-1.576-.415-3.196-.775-4.86-1.081-1.313-.261-2.518-.499-3.612-.716-1.095-.218-2.036-.488-2.824-.815-.788-.325-1.401-.727-1.839-1.205-.438-.478-.657-1.108-.657-1.89,0-1.216,.493-2.215,1.478-2.997,.985-.782,2.463-1.173,4.433-1.173,4.028,0,6.349,1.511,6.962,4.532h7.947c-.438-3.064-1.85-5.55-4.236-7.454-2.386-1.905-5.922-2.857-10.607-2.857-2.058,0-3.941,.231-5.648,.692-1.708,.462-3.163,1.142-4.368,2.042-1.204,.901-2.145,1.999-2.824,3.294-.679,1.296-1.018,2.779-1.018,4.447,0,1.977,.361,3.591,1.084,4.843,.722,1.252,1.675,2.263,2.857,3.031,1.182,.769,2.54,1.372,4.072,1.811,1.532,.439,3.131,.813,4.794,1.12,1.357,.265,2.594,.518,3.711,.761,1.117,.242,2.069,.551,2.857,.926,.788,.375,1.401,.837,1.839,1.387,.438,.551,.657,1.267,.657,2.149,0,1.41-.547,2.568-1.642,3.471-1.095,.903-2.802,1.354-5.123,1.354-2.233,0-4.094-.48-5.583-1.443-1.489-.962-2.408-2.516-2.758-4.665h-8.013c.263,3.547,1.784,6.415,4.565,8.604,2.78,2.189,6.688,3.284,11.723,3.284,2.145,0,4.138-.24,5.977-.72h0Zm21.279-49.26h-8.21v8.407h3.744v.46c0,1.752-.383,3.087-1.149,4.006-.766,.919-1.675,1.555-2.726,1.905v3.547c1.095-.131,2.145-.404,3.152-.821,1.007-.415,1.894-1.039,2.66-1.872,.766-.831,1.379-1.86,1.839-3.087,.46-1.225,.69-2.693,.69-4.4v-8.144h0Zm12.544,0h-8.144v8.407h3.744v.46c0,1.752-.394,3.087-1.182,4.006-.788,.919-1.708,1.555-2.759,1.905v3.547c1.095-.131,2.145-.404,3.152-.821,1.007-.415,1.894-1.039,2.66-1.872,.766-.831,1.379-1.86,1.839-3.087,.46-1.225,.69-2.693,.69-4.4v-8.144h0Z"/><path d="M236.578,340.867h8.144v-8.407h-3.744v-.46c0-1.708,.381-3.032,1.149-3.973,.764-.941,1.675-1.565,2.726-1.872v-3.612c-1.097,.131-2.135,.416-3.12,.854s-1.863,1.062-2.627,1.872c-.768,.81-1.379,1.828-1.839,3.054-.46,1.226-.69,2.693-.69,4.4v8.144h0Zm-12.611,0h8.211v-8.407h-3.809v-.46c0-1.708,.394-3.032,1.182-3.973s1.708-1.565,2.758-1.872v-3.612c-1.097,.131-2.148,.416-3.152,.854-1.009,.438-1.895,1.062-2.661,1.872-.767,.81-1.379,1.828-1.839,3.054-.46,1.226-.69,2.693-.69,4.4v8.144h0Zm36.253,30.737h8.013l4.532-16.682c.219-.919,.46-1.97,.722-3.152,.263-1.182,.503-2.299,.722-3.35,.263-1.226,.525-2.496,.788-3.809h.131c.219,1.314,.46,2.583,.722,3.809,.219,1.051,.46,2.167,.722,3.35,.263,1.182,.504,2.233,.722,3.152l4.4,16.682h8.013l11.165-35.071h-8.407l-4.663,16.354c-.35,1.095-.646,2.255-.887,3.481-.241,1.226-.471,2.364-.69,3.415-.219,1.226-.438,2.474-.657,3.744h-.131c-.263-1.27-.504-2.54-.722-3.809-.219-1.095-.46-2.255-.722-3.481-.263-1.226-.525-2.342-.788-3.35l-4.466-16.354h-7.356l-4.335,16.354c-.306,1.051-.591,2.2-.854,3.448s-.504,2.397-.722,3.448c-.263,1.226-.504,2.452-.722,3.678h-.131c-.219-1.226-.438-2.474-.657-3.744-.219-1.051-.46-2.2-.722-3.448-.263-1.248-.525-2.375-.788-3.382l-4.532-16.354h-8.669l10.968,35.071h0Zm66.038,.234c1.773-.543,3.339-1.305,4.696-2.283,1.357-.981,2.485-2.132,3.382-3.461,.898-1.329,1.565-2.774,2.003-4.341h-8.144c-.569,1.465-1.5,2.61-2.791,3.43-1.292,.821-2.945,1.233-4.959,1.233-2.934,0-5.199-.944-6.798-2.829-1.598-1.885-2.55-4.356-2.857-7.417h26.205c.044-3.284-.35-6.25-1.182-8.899-.832-2.649-2.102-4.893-3.809-6.732-1.489-1.576-3.229-2.791-5.221-3.645-1.992-.854-4.28-1.281-6.863-1.281s-4.948,.471-7.093,1.412c-2.145,.941-3.984,2.244-5.517,3.908-1.533,1.664-2.715,3.623-3.547,5.878-.832,2.255-1.248,4.696-1.248,7.323,0,2.583,.405,5.002,1.215,7.257,.81,2.255,1.981,4.214,3.514,5.878,1.532,1.664,3.404,2.977,5.615,3.941,2.211,.961,4.718,1.445,7.52,1.445,2.145,0,4.105-.271,5.878-.817h0Zm-.328-27.72c1.467,1.642,2.288,3.908,2.463,6.798h-17.47c.35-2.758,1.248-4.991,2.693-6.699,1.445-1.708,3.547-2.561,6.305-2.561,2.54,0,4.543,.821,6.009,2.463h0Zm42.23,27.322c1.861-.854,3.448-2.091,4.762-3.711,1.313-1.62,2.321-3.579,3.021-5.878,.698-2.299,1.051-4.871,1.051-7.717,0-2.802-.361-5.342-1.084-7.619s-1.74-4.225-3.054-5.845c-1.314-1.62-2.901-2.868-4.762-3.744-1.863-.876-3.908-1.314-6.141-1.314-2.496,0-4.641,.558-6.436,1.675-1.797,1.117-3.262,2.594-4.4,4.433h-.197c.088-.919,.153-2.036,.197-3.35,.042-1.314,.066-2.671,.066-4.072v-11.559h-8.341v48.864h8.078v-5.057h.197c1.051,2.102,2.518,3.656,4.4,4.663,1.881,1.007,4.006,1.511,6.371,1.511,2.321,0,4.409-.427,6.272-1.281h0Zm-12.052-6.312c-1.141-.593-2.102-1.408-2.89-2.443-.788-1.033-1.379-2.277-1.773-3.73-.394-1.454-.591-3.039-.591-4.755,0-1.673,.186-3.247,.558-4.722,.37-1.473,.928-2.75,1.675-3.829,.744-1.079,1.708-1.937,2.89-2.577,1.182-.637,2.561-.957,4.138-.957,1.401,0,2.627,.298,3.678,.891,1.051,.595,1.927,1.432,2.627,2.511,.698,1.077,1.224,2.353,1.576,3.829,.35,1.476,.525,3.071,.525,4.788,0,3.522-.701,6.384-2.102,8.586-1.403,2.2-3.505,3.301-6.305,3.301-1.535,0-2.868-.298-4.006-.893h0Zm50.635,6.673c2.145-.613,4.017-1.522,5.615-2.726s2.868-2.704,3.809-4.499c.941-1.795,1.412-3.875,1.412-6.239,0-6.13-3.131-10.07-9.392-11.822v-.131c2.364-.788,4.269-1.948,5.714-3.481,1.445-1.532,2.167-3.568,2.167-6.108,0-2.014-.416-3.831-1.248-5.451-.832-1.62-1.981-2.988-3.448-4.105-1.467-1.116-3.196-1.97-5.188-2.561-1.992-.591-4.171-.887-6.535-.887-2.758,0-5.221,.383-7.389,1.149s-3.995,1.817-5.484,3.152c-1.489,1.335-2.627,2.934-3.415,4.794-.788,1.861-1.204,3.864-1.248,6.009h8.21c.044-1.165,.263-2.253,.657-3.266,.394-1.011,.974-1.896,1.74-2.651,.766-.755,1.708-1.357,2.824-1.81,1.116-.453,2.419-.679,3.908-.679,2.364,0,4.302,.595,5.812,1.789,1.511,1.191,2.266,2.828,2.266,4.91,0,2.126-.777,3.772-2.332,4.943s-3.798,1.756-6.732,1.756h-2.693v6.239h2.89c3.24,0,5.736,.635,7.487,1.905,1.751,1.27,2.627,3.152,2.627,5.648,0,2.671-.832,4.696-2.496,6.075-1.664,1.379-3.897,2.069-6.699,2.069-3.415,0-6.009-.876-7.783-2.627-1.773-1.751-2.726-4.05-2.857-6.896h-8.275c.044,2.54,.536,4.86,1.478,6.962,.941,2.102,2.31,3.875,4.105,5.32,3.503,2.759,8.056,4.138,13.661,4.138,2.408,0,4.685-.306,6.83-.919h0Zm24.497-49.061h-8.21v8.407h3.744v.46c0,1.751-.383,3.087-1.149,4.006-.766,.919-1.675,1.554-2.726,1.905v3.546c1.095-.131,2.145-.405,3.152-.821,1.007-.416,1.894-1.04,2.66-1.872,.766-.832,1.379-1.861,1.839-3.087,.46-1.226,.69-2.693,.69-4.4v-8.144h0Zm12.544,0h-8.144v8.407h3.744v.46c0,1.751-.394,3.087-1.182,4.006-.788,.919-1.708,1.554-2.758,1.905v3.546c1.095-.131,2.145-.405,3.152-.821,1.007-.416,1.894-1.04,2.66-1.872,.766-.832,1.379-1.861,1.839-3.087,.46-1.226,.69-2.693,.69-4.4v-8.144h0Z"/><path d="M393.31,187.621h8.144v-8.407h-3.744v-.46c0-1.708,.383-3.031,1.149-3.973,.766-.941,1.675-1.565,2.726-1.872v-3.612c-1.095,.131-2.134,.417-3.12,.854-.985,.438-1.861,1.062-2.627,1.872-.766,.811-1.379,1.829-1.839,3.054-.46,1.226-.69,2.693-.69,4.4v8.144h0Zm-12.61,0h8.21v-8.407h-3.809v-.46c0-1.708,.394-3.031,1.182-3.973,.788-.941,1.708-1.565,2.758-1.872v-3.612c-1.095,.131-2.145,.417-3.153,.854-1.007,.438-1.894,1.062-2.66,1.872-.766,.811-1.379,1.829-1.839,3.054-.46,1.226-.69,2.693-.69,4.4v8.144h0Zm28.438,30.737h18.718c3.678,0,6.938-.58,9.786-1.74,2.844-1.16,5.221-2.792,7.126-4.894,1.905-2.102,3.349-4.64,4.335-7.618,.985-2.977,1.478-6.282,1.478-9.917,0-3.721-.493-7.093-1.478-10.114-.985-3.021-2.43-5.615-4.335-7.783-1.905-2.167-4.227-3.842-6.962-5.024-2.737-1.182-5.878-1.773-9.425-1.773h-19.243v48.864h0Zm9.129-7.75v-33.364h9.26c2.406,0,4.475,.405,6.206,1.215,1.727,.811,3.152,1.96,4.269,3.448,1.116,1.489,1.937,3.274,2.463,5.353,.525,2.08,.788,4.39,.788,6.929,0,5.123-1.127,9.14-3.382,12.052-2.257,2.913-5.793,4.368-10.607,4.368h-8.998Zm60.653,7.985c1.773-.543,3.336-1.305,4.696-2.283,1.355-.981,2.483-2.133,3.382-3.461,.895-1.328,1.563-2.775,2.003-4.342h-8.144c-.571,1.465-1.502,2.61-2.791,3.431-1.294,.822-2.947,1.232-4.959,1.232-2.936,0-5.202-.942-6.798-2.827-1.6-1.885-2.553-4.358-2.857-7.418h26.205c.042-3.284-.353-6.249-1.182-8.899-.834-2.649-2.102-4.893-3.809-6.732-1.491-1.576-3.231-2.791-5.221-3.645-1.994-.854-4.282-1.281-6.863-1.281s-4.95,.471-7.093,1.412c-2.148,.942-3.987,2.244-5.517,3.908-1.535,1.665-2.717,3.624-3.547,5.878-.834,2.256-1.248,4.696-1.248,7.323,0,2.584,.403,5.003,1.215,7.257,.808,2.256,1.979,4.215,3.514,5.878,1.53,1.664,3.402,2.978,5.615,3.941,2.209,.961,4.716,1.445,7.52,1.445,2.143,0,4.105-.271,5.878-.817h0Zm-.328-27.721c1.465,1.642,2.286,3.908,2.463,6.798h-17.47c.348-2.758,1.248-4.991,2.693-6.699s3.547-2.561,6.305-2.561c2.537,0,4.54,.821,6.009,2.463h0Zm17.698,27.486h9.063v-21.017h21.345v-7.487h-21.345v-12.544h25.614v-7.815h-34.677v48.864h0Zm40.588-40.786h8.538v-8.078h-8.538v8.078h0Zm.131,40.786h8.341v-35.072h-8.341v35.072h0Zm23.315-48.864h-8.21v8.407h3.744v.46c0,1.752-.385,3.087-1.149,4.006-.768,.92-1.675,1.555-2.726,1.905v3.547c1.092-.131,2.143-.404,3.152-.821,1.005-.416,1.891-1.039,2.66-1.872,.764-.831,1.379-1.86,1.839-3.087,.46-1.225,.69-2.693,.69-4.4v-8.144h0Zm12.544,0h-8.144v8.407h3.744v.46c0,1.752-.394,3.087-1.182,4.006-.788,.92-1.708,1.555-2.758,1.905v3.547c1.092-.131,2.143-.404,3.152-.821,1.005-.416,1.891-1.039,2.66-1.872,.764-.831,1.379-1.86,1.839-3.087,.46-1.225,.69-2.693,.69-4.4v-8.144h0Z"/><path d="M695.576,309.979h8.144v-8.407h-3.744v-.46c0-1.708,.383-3.03,1.149-3.973,.766-.939,1.675-1.563,2.726-1.872v-3.612c-1.095,.131-2.135,.418-3.12,.854-.985,.44-1.861,1.064-2.627,1.872-.766,.812-1.379,1.83-1.839,3.054-.46,1.228-.69,2.693-.69,4.4v8.144h0Zm-12.61,0h8.21v-8.407h-3.809v-.46c0-1.708,.394-3.03,1.182-3.973,.788-.939,1.708-1.563,2.758-1.872v-3.612c-1.095,.131-2.145,.418-3.152,.854-1.007,.44-1.894,1.064-2.66,1.872-.766,.812-1.379,1.83-1.839,3.054-.46,1.228-.69,2.693-.69,4.4v8.144h0Zm26.468,1.445h5.386v21.43c0,1.528,.23,2.818,.69,3.866,.46,1.049,1.103,1.889,1.937,2.522,.83,.635,1.839,1.092,3.021,1.377,1.182,.282,2.472,.425,3.875,.425,1.136,0,2.167-.053,3.087-.162,.92-.109,1.727-.228,2.43-.357v-6.443h-.394c-.352,.09-.779,.155-1.281,.197-.506,.046-.976,.066-1.412,.066-1.182,0-2.102-.23-2.759-.69-.657-.46-.985-1.322-.985-2.594v-19.637h7.027v-5.78h-7.027v-11.165h-8.21v11.165h-5.386v5.78h0Zm34.807-19.572h-8.341v48.864h8.341v-20.557c0-1.224,.197-2.364,.591-3.415,.394-1.051,.941-1.957,1.642-2.726,.701-.764,1.532-1.355,2.496-1.773,.963-.414,2.036-.624,3.218-.624,2.145,0,3.798,.591,4.959,1.773,1.16,1.182,1.74,2.824,1.74,4.926v22.396h8.341v-23.775c0-3.809-1.062-6.798-3.185-8.965-2.124-2.167-5.09-3.251-8.899-3.251-2.496,0-4.63,.525-6.404,1.576-1.773,1.051-3.251,2.52-4.433,4.4h-.197c.044-1.005,.077-2.089,.098-3.251,.022-1.158,.033-1.979,.033-2.463v-13.135h0Zm52.312,49.1c1.773-.545,3.338-1.307,4.696-2.286,1.357-.979,2.485-2.132,3.382-3.459,.898-1.329,1.565-2.776,2.003-4.343h-8.144c-.569,1.467-1.5,2.61-2.791,3.431-1.292,.823-2.945,1.233-4.959,1.233-2.933,0-5.199-.941-6.798-2.826-1.598-1.885-2.55-4.359-2.857-7.419h26.205c.044-3.284-.35-6.248-1.182-8.899-.832-2.647-2.102-4.893-3.809-6.732-1.489-1.576-3.229-2.791-5.221-3.645-1.992-.854-4.28-1.281-6.863-1.281s-4.948,.473-7.093,1.412c-2.145,.944-3.984,2.246-5.517,3.908-1.532,1.666-2.715,3.625-3.547,5.878-.832,2.257-1.248,4.696-1.248,7.323,0,2.585,.405,5.005,1.215,7.257,.81,2.257,1.981,4.217,3.514,5.878,1.533,1.666,3.404,2.98,5.615,3.941,2.211,.963,4.718,1.445,7.52,1.445,2.145,0,4.105-.272,5.878-.814h0Zm-.328-27.722c1.467,1.642,2.288,3.908,2.463,6.798h-17.47c.35-2.758,1.248-4.991,2.693-6.699,1.445-1.708,3.547-2.561,6.305-2.561,2.54,0,4.543,.821,6.009,2.463h0Zm33.526,27.486h8.341v-20.754c0-1.224,.197-2.351,.591-3.382,.394-1.027,.93-1.905,1.609-2.627,.679-.722,1.456-1.289,2.332-1.708,.876-.414,1.795-.624,2.758-.624,1.751,0,3.109,.571,4.072,1.708,.963,1.141,1.445,2.717,1.445,4.729v22.659h8.341v-20.754c0-2.496,.668-4.508,2.003-6.042,1.335-1.53,3.032-2.299,5.09-2.299,1.708,0,3.087,.571,4.138,1.708,1.051,1.141,1.576,2.717,1.576,4.729v22.659h8.341v-23.775c0-3.809-.996-6.798-2.988-8.965-1.992-2.167-4.783-3.251-8.374-3.251-2.189,0-4.225,.525-6.108,1.576-1.883,1.051-3.525,2.717-4.926,4.991h-.131c-.788-2.187-1.981-3.829-3.579-4.926-1.598-1.092-3.514-1.642-5.747-1.642-2.408,0-4.477,.55-6.207,1.642-1.729,1.097-3.163,2.627-4.302,4.597h-.197v-5.32h-8.078v35.071h0Zm79.962,.236c1.773-.545,3.339-1.307,4.696-2.286,1.357-.979,2.485-2.132,3.382-3.459,.898-1.329,1.565-2.776,2.003-4.343h-8.144c-.569,1.467-1.5,2.61-2.791,3.431-1.292,.823-2.944,1.233-4.959,1.233-2.934,0-5.199-.941-6.798-2.826-1.598-1.885-2.55-4.359-2.857-7.419h26.205c.044-3.284-.35-6.248-1.182-8.899-.832-2.647-2.102-4.893-3.809-6.732-1.489-1.576-3.229-2.791-5.221-3.645-1.992-.854-4.28-1.281-6.863-1.281s-4.948,.473-7.093,1.412c-2.145,.944-3.984,2.246-5.517,3.908-1.532,1.666-2.715,3.625-3.547,5.878-.832,2.257-1.248,4.696-1.248,7.323,0,2.585,.405,5.005,1.215,7.257,.81,2.257,1.981,4.217,3.514,5.878,1.532,1.666,3.404,2.98,5.615,3.941,2.211,.963,4.718,1.445,7.52,1.445,2.145,0,4.105-.272,5.878-.814h0Zm-.328-27.722c1.467,1.642,2.288,3.908,2.463,6.798h-17.47c.35-2.758,1.248-4.991,2.693-6.699,1.445-1.708,3.547-2.561,6.305-2.561,2.54,0,4.543,.821,6.009,2.463h0Zm14.153-1.806h5.385v21.43c0,1.528,.23,2.818,.69,3.866,.46,1.049,1.106,1.889,1.937,2.522,.832,.635,1.839,1.092,3.021,1.377,1.182,.282,2.474,.425,3.875,.425,1.138,0,2.167-.053,3.087-.162,.919-.109,1.729-.228,2.43-.357v-6.443h-.394c-.35,.09-.777,.155-1.281,.197-.504,.046-.974,.066-1.412,.066-1.182,0-2.102-.23-2.758-.69-.657-.46-.985-1.322-.985-2.594v-19.637h7.027v-5.78h-7.027v-11.165h-8.21v11.165h-5.385v5.78h0Zm57.596,29.292v-.591c-.394-.263-.711-.788-.952-1.576-.241-.788-.361-1.905-.361-3.35v-18.455c0-4.639-1.664-7.967-4.992-9.983-1.138-.742-2.485-1.268-4.039-1.576-1.554-.304-3.339-.46-5.353-.46-2.496,0-4.663,.32-6.502,.952-1.839,.637-3.382,1.478-4.63,2.529-1.248,1.051-2.189,2.266-2.824,3.645s-.974,2.815-1.018,4.302h7.881c.088-1.749,.712-3.128,1.872-4.138,1.16-1.005,2.923-1.511,5.287-1.511,2.102,0,3.678,.46,4.729,1.375,1.051,.917,1.576,2.139,1.576,3.667,0,1.572-.722,2.673-2.167,3.306-1.445,.633-3.612,1.123-6.502,1.471-2.102,.265-4.028,.604-5.78,1.02-1.751,.418-3.262,1.02-4.532,1.808-1.27,.79-2.266,1.832-2.988,3.126-.722,1.294-1.084,2.927-1.084,4.899,0,1.71,.306,3.214,.919,4.505,.613,1.294,1.445,2.38,2.496,3.255,1.051,.878,2.31,1.537,3.776,1.975s3.054,.657,4.762,.657c2.802,0,5.057-.514,6.765-1.543,1.708-1.027,3.131-2.307,4.269-3.842h.131c.088,1.182,.23,2.135,.427,2.857,.197,.722,.449,1.281,.755,1.675h8.078Zm-20.294-5.153c-.744-.151-1.39-.414-1.938-.784-.547-.37-.985-.869-1.313-1.502-.328-.628-.493-1.401-.493-2.316,0-1.916,.701-3.253,2.102-4.015,1.401-.762,3.393-1.381,5.977-1.861,1.27-.263,2.518-.578,3.744-.952,1.226-.37,2.255-.821,3.087-1.346v5.171c0,1.003-.197,1.97-.591,2.905-.394,.937-.963,1.762-1.708,2.48-.744,.72-1.664,1.307-2.758,1.762-1.095,.458-2.364,.685-3.809,.685-.788,0-1.554-.074-2.299-.228h0Zm34.677,5.153h9.129l12.413-35.071h-8.472l-5.32,16.354c-.394,1.182-.766,2.463-1.117,3.842-.35,1.379-.657,2.66-.92,3.842-.307,1.403-.591,2.758-.854,4.072h-.197c-.306-1.314-.613-2.669-.919-4.072-.263-1.182-.58-2.463-.952-3.842-.372-1.379-.733-2.66-1.084-3.842l-5.123-16.354h-8.735l12.15,35.071h0Zm46.663,.236c1.773-.545,3.339-1.307,4.696-2.286,1.357-.979,2.485-2.132,3.382-3.459,.898-1.329,1.565-2.776,2.003-4.343h-8.144c-.569,1.467-1.5,2.61-2.791,3.431-1.292,.823-2.944,1.233-4.959,1.233-2.934,0-5.199-.941-6.798-2.826-1.598-1.885-2.55-4.359-2.857-7.419h26.205c.044-3.284-.35-6.248-1.182-8.899-.832-2.647-2.102-4.893-3.809-6.732-1.489-1.576-3.229-2.791-5.221-3.645-1.992-.854-4.28-1.281-6.863-1.281s-4.948,.473-7.093,1.412c-2.145,.944-3.984,2.246-5.517,3.908-1.532,1.666-2.715,3.625-3.547,5.878-.832,2.257-1.248,4.696-1.248,7.323,0,2.585,.405,5.005,1.215,7.257,.81,2.257,1.981,4.217,3.514,5.878,1.532,1.666,3.404,2.98,5.615,3.941,2.211,.963,4.718,1.445,7.52,1.445,2.145,0,4.105-.272,5.878-.814h0Zm-.328-27.722c1.467,1.642,2.288,3.908,2.463,6.798h-17.47c.35-2.758,1.248-4.991,2.693-6.699,1.445-1.708,3.547-2.561,6.305-2.561,2.54,0,4.543,.821,6.009,2.463h0Zm24.99-7.586h-8.078v35.071h8.341v-17.641c0-3.38,.919-5.981,2.758-7.802,1.839-1.819,4.138-2.708,6.896-2.666,.832,0,1.598,.09,2.299,.263h.263v-7.424c-.482-.217-1.226-.326-2.233-.326-4.466,0-7.816,2.279-10.049,6.83h-.197v-6.305h0Zm37.961,35.468c1.839-.479,3.426-1.189,4.762-2.128,1.335-.939,2.375-2.106,3.12-3.505,.744-1.397,1.116-3.012,1.116-4.847,0-2.139-.372-3.875-1.116-5.206-.744-1.331-1.741-2.402-2.988-3.209-1.248-.808-2.66-1.421-4.236-1.835-1.576-.414-3.196-.775-4.86-1.081-1.314-.261-2.518-.497-3.612-.716-1.095-.217-2.036-.488-2.824-.814-.788-.324-1.401-.727-1.839-1.204-.438-.479-.657-1.108-.657-1.891,0-1.215,.493-2.215,1.478-2.997,.985-.782,2.463-1.173,4.433-1.173,4.028,0,6.349,1.511,6.962,4.532h7.947c-.438-3.063-1.85-5.55-4.236-7.454-2.386-1.905-5.922-2.857-10.607-2.857-2.058,0-3.941,.232-5.648,.692-1.708,.462-3.163,1.143-4.368,2.043-1.204,.902-2.145,1.999-2.824,3.295-.679,1.296-1.018,2.778-1.018,4.446,0,1.977,.361,3.593,1.084,4.843,.722,1.252,1.675,2.264,2.857,3.032,1.182,.768,2.54,1.373,4.072,1.81,1.532,.44,3.131,.814,4.794,1.121,1.357,.265,2.594,.519,3.711,.76,1.116,.243,2.069,.552,2.857,.926,.788,.374,1.401,.836,1.839,1.388,.438,.549,.657,1.267,.657,2.148,0,1.41-.547,2.568-1.642,3.472-1.095,.902-2.802,1.353-5.123,1.353-2.233,0-4.094-.479-5.583-1.443-1.489-.961-2.408-2.515-2.758-4.665h-8.013c.263,3.547,1.784,6.417,4.565,8.604,2.78,2.189,6.688,3.284,11.723,3.284,2.146,0,4.138-.239,5.977-.72h0Zm37.138-.16c1.773-.545,3.338-1.307,4.696-2.286,1.357-.979,2.485-2.132,3.382-3.459,.898-1.329,1.565-2.776,2.003-4.343h-8.144c-.569,1.467-1.5,2.61-2.791,3.431-1.292,.823-2.945,1.233-4.959,1.233-2.934,0-5.199-.941-6.798-2.826-1.598-1.885-2.55-4.359-2.857-7.419h26.205c.044-3.284-.35-6.248-1.182-8.899-.832-2.647-2.102-4.893-3.809-6.732-1.489-1.576-3.229-2.791-5.221-3.645-1.992-.854-4.28-1.281-6.863-1.281s-4.948,.473-7.093,1.412c-2.146,.944-3.984,2.246-5.517,3.908-1.532,1.666-2.715,3.625-3.547,5.878-.832,2.257-1.248,4.696-1.248,7.323,0,2.585,.405,5.005,1.215,7.257,.81,2.257,1.981,4.217,3.514,5.878,1.532,1.666,3.404,2.98,5.615,3.941,2.211,.963,4.718,1.445,7.52,1.445,2.145,0,4.105-.272,5.878-.814h0Zm-.328-27.722c1.467,1.642,2.288,3.908,2.463,6.798h-17.47c.35-2.758,1.248-4.991,2.693-6.699,1.445-1.708,3.547-2.561,6.305-2.561,2.539,0,4.543,.821,6.009,2.463h0Zm23.02-21.378h-8.21v8.407h3.743v.46c0,1.753-.383,3.087-1.149,4.006-.766,.92-1.675,1.557-2.726,1.905v3.547c1.095-.131,2.145-.403,3.152-.821,1.007-.414,1.894-1.038,2.66-1.872,.766-.83,1.379-1.859,1.839-3.087,.46-1.224,.69-2.693,.69-4.4v-8.144h0Zm12.544,0h-8.144v8.407h3.743v.46c0,1.753-.394,3.087-1.182,4.006-.788,.92-1.708,1.557-2.758,1.905v3.547c1.095-.131,2.145-.403,3.153-.821,1.007-.414,1.894-1.038,2.66-1.872,.766-.83,1.379-1.859,1.839-3.087,.46-1.224,.69-2.693,.69-4.4v-8.144h0Z"/></svg>