<?xml version="1.0" encoding="UTF-8"?><svg id="a" xmlns="http://www.w3.org/2000/svg" viewBox="0 0 548.505 291.164"><path d="M29.85,247.702l3.692-.751-1.45-7.126c-.163-.799-.099-1.49,.191-2.071,.29-.582,.764-.94,1.423-1.074,.612-.124,1.109-.025,1.493,.297,.384,.322,.646,.828,.786,1.517l1.555,7.644,3.692-.751-1.45-7.126c-.163-.8-.103-1.489,.179-2.07,.282-.579,.752-.936,1.411-1.07,.596-.122,1.093-.023,1.493,.296,.399,.319,.67,.823,.81,1.513l1.555,7.643,3.669-.746-1.679-8.255c-.284-1.395-.864-2.441-1.74-3.136-.876-.695-2.012-.901-3.407-.617-.8,.162-1.495,.496-2.087,1-.592,.504-1.06,1.232-1.405,2.184l-.047,.009c-.965-1.452-2.271-2.011-3.917-1.676-.894,.181-1.603,.53-2.126,1.044-.524,.515-.913,1.19-1.168,2.026l-.071,.014-.397-1.952-3.551,.723,2.546,12.511h0Zm30.128-6.239c.747-.503,1.345-1.111,1.797-1.823,.451-.712,.751-1.504,.901-2.375,.149-.872,.128-1.778-.063-2.718-.191-.941-.526-1.783-1.004-2.527-.478-.744-1.064-1.355-1.757-1.835-.694-.479-1.482-.804-2.366-.975-.884-.172-1.82-.157-2.807,.044-1.004,.204-1.879,.558-2.625,1.061-.747,.503-1.35,1.111-1.808,1.825-.459,.714-.763,1.507-.912,2.378-.15,.871-.128,1.777,.063,2.718,.191,.94,.526,1.783,1.004,2.526,.478,.744,1.067,1.355,1.769,1.832,.701,.478,1.494,.803,2.378,.974,.884,.171,1.827,.155,2.831-.05,.988-.201,1.855-.553,2.602-1.055h0Zm-5.532-2.272c-.634-.626-1.069-1.524-1.307-2.693-.241-1.184-.193-2.192,.144-3.024,.337-.831,.976-1.343,1.917-1.534,.925-.188,1.709,.034,2.352,.666,.643,.632,1.085,1.54,1.326,2.725,.238,1.169,.184,2.166-.163,2.991-.346,.825-.982,1.332-1.907,1.52-.941,.192-1.728-.026-2.361-.651h0Zm12.298-12.024l-3.551,.722,2.545,12.512,3.692-.751-1.182-5.809c-.249-1.223-.135-2.206,.343-2.948,.477-.742,1.22-1.207,2.226-1.396,.251-.051,.514-.08,.79-.087l.094-.019-.656-3.222c-.154-.034-.419-.013-.795,.064-.784,.159-1.42,.484-1.908,.975-.488,.492-.847,1.218-1.075,2.179l-.07,.014-.455-2.234h0Zm16.626,9.732c.619-.329,1.139-.721,1.561-1.174,.422-.454,.753-.953,.993-1.5,.24-.547,.382-1.111,.427-1.692l-3.575,.728c-.124,.433-.349,.793-.674,1.08-.326,.286-.778,.489-1.358,.607-.894,.182-1.645,.059-2.254-.368-.61-.426-1.072-1.094-1.387-2.002l9.125-1.856c-.237-1.246-.624-2.347-1.162-3.302-.537-.955-1.229-1.707-2.075-2.255-.651-.392-1.362-.657-2.133-.795-.771-.138-1.603-.116-2.497,.066-.956,.195-1.792,.54-2.508,1.037-.716,.497-1.295,1.1-1.738,1.81-.443,.711-.74,1.502-.889,2.373-.15,.872-.128,1.778,.063,2.718,.191,.941,.521,1.78,.99,2.517,.468,.738,1.049,1.346,1.743,1.826,.693,.479,1.482,.804,2.366,.976,.884,.171,1.835,.153,2.854-.055,.8-.162,1.509-.409,2.127-.739h0Zm-2.54-9.475c.555,.401,.953,1.034,1.195,1.9l-5.339,1.086c-.05-.888,.093-1.627,.43-2.219,.337-.591,.929-.972,1.775-1.145,.737-.149,1.383-.024,1.938,.378h0Zm11.214-2.906l1.881-.383,1.419,6.976c.13,.64,.331,1.148,.604,1.523,.272,.375,.607,.657,1.005,.844,.397,.188,.845,.283,1.344,.287,.499,.004,1.038-.052,1.618-.171,.502-.102,.928-.213,1.279-.333,.351-.12,.625-.216,.823-.289l-.555-2.729-.188,.038c-.122,.041-.261,.082-.416,.122-.155,.04-.296,.072-.421,.097-.439,.09-.797,.077-1.073-.038-.277-.114-.462-.406-.558-.875l-1.259-6.189,2.446-.498-.488-2.398-2.446,.497-.813-3.998-3.622,.737,.813,3.998-1.882,.383,.488,2.399h0Zm13.048-5.325l-.981-4.821-3.692,.751,3.56,17.498,3.692-.751-1.429-7.022c-.162-.796-.076-1.495,.258-2.1,.334-.604,.862-.98,1.583-1.126,.69-.141,1.253-.04,1.69,.302,.437,.342,.725,.855,.865,1.542l1.524,7.49,3.669-.747-1.675-8.231c-.287-1.411-.896-2.459-1.827-3.143-.931-.684-2.087-.886-3.466-.605-.878,.179-1.592,.52-2.143,1.024-.551,.504-.945,1.131-1.185,1.882l-.07,.014c-.041-.203-.081-.416-.118-.637-.037-.221-.074-.426-.113-.614-.038-.188-.07-.345-.096-.47-.025-.126-.041-.204-.048-.236h0Zm24.709,8.174l-.043-.212c-.355-.139-.63-.688-.824-1.644l-1.307-6.421c-.172-.846-.475-1.556-.91-2.129-.435-.573-1.02-.98-1.755-1.222-.494-.178-1.043-.266-1.646-.266-.604,.001-1.306,.082-2.106,.245-.925,.188-1.709,.466-2.353,.834s-1.154,.79-1.53,1.266c-.377,.477-.631,.99-.764,1.54-.134,.55-.154,1.093-.061,1.628l3.41-.693c-.055-.511,.064-.952,.356-1.322,.292-.369,.791-.626,1.496-.77,.643-.13,1.141-.089,1.495,.125,.354,.214,.577,.548,.67,1.003,.095,.47-.081,.865-.531,1.185-.449,.32-1.214,.672-2.295,1.055-.675,.219-1.294,.463-1.86,.733-.565,.271-1.039,.591-1.42,.963-.382,.371-.656,.811-.822,1.318-.166,.508-.179,1.106-.039,1.796,.125,.611,.341,1.135,.65,1.57,.309,.435,.688,.77,1.136,1.006,.448,.235,.951,.382,1.51,.44,.558,.057,1.144,.024,1.755-.1,.972-.198,1.711-.52,2.216-.966,.505-.445,.903-1,1.192-1.663l.048-.009c.104,.354,.222,.652,.353,.895,.131,.243,.258,.425,.381,.547l3.598-.732h0Zm-8.489-.795c-.405-.146-.664-.494-.775-1.043-.112-.548,.003-.988,.344-1.319,.34-.33,.901-.665,1.681-1.003,.389-.177,.765-.355,1.128-.536,.364-.18,.661-.383,.893-.61l.33,1.623c.14,.69,.01,1.312-.392,1.867-.401,.556-1.018,.918-1.848,1.087-.502,.102-.956,.08-1.361-.066h0Zm11.541-12.855l-3.575,.727,2.545,12.512,3.693-.751-1.429-7.022c-.162-.796-.076-1.496,.259-2.1,.334-.604,.862-.98,1.583-1.127,.69-.14,1.253-.039,1.69,.303,.437,.342,.725,.855,.865,1.542l1.524,7.49,3.669-.747-1.675-8.231c-.287-1.411-.896-2.459-1.827-3.143-.932-.684-2.087-.886-3.467-.605-.878,.179-1.604,.522-2.178,1.031-.574,.509-.981,1.179-1.219,2.011l-.071,.015-.387-1.905h0Zm27.669,7.375c.766-.449,1.389-.996,1.87-1.641,.482-.645,.812-1.369,.991-2.174,.179-.803,.177-1.66-.008-2.569-.179-.878-.494-1.643-.945-2.294-.451-.651-.989-1.17-1.615-1.558-.626-.387-1.31-.643-2.054-.769-.745-.126-1.501-.111-2.269,.045-.831,.169-1.492,.43-1.984,.783-.491,.353-.89,.781-1.196,1.284l-.047,.01,.007-3.822,7.431-1.512-.631-3.105-10.184,2.072,.16,9.691,3.598-.732c.189-.351,.487-.674,.893-.967,.406-.294,.906-.501,1.502-.622,.815-.166,1.552-.054,2.212,.336,.658,.39,1.08,1.035,1.262,1.933,.177,.867,.045,1.624-.395,2.27-.44,.646-1.099,1.058-1.977,1.237-.8,.163-1.492,.11-2.077-.158-.586-.269-1.004-.7-1.256-1.295l-3.786,.77c.225,.787,.587,1.461,1.084,2.021,.498,.56,1.094,1.002,1.789,1.326,.694,.324,1.469,.521,2.324,.592,.856,.071,1.754,.011,2.695-.18,.971-.198,1.84-.522,2.606-.972h0Zm15.836-3.417c.819-.591,1.472-1.332,1.961-2.224,.488-.891,.794-1.913,.919-3.065,.125-1.152,.052-2.394-.219-3.727-.272-1.332-.69-2.505-1.255-3.516-.565-1.012-1.242-1.833-2.032-2.465-.79-.631-1.677-1.058-2.661-1.283-.985-.224-2.026-.224-3.123-.001-1.082,.22-2.028,.625-2.839,1.214-.811,.59-1.46,1.33-1.948,2.221-.489,.892-.799,1.914-.931,3.067-.133,1.154-.064,2.397,.207,3.73,.271,1.333,.693,2.504,1.266,3.514,.573,1.01,1.258,1.83,2.056,2.46,.797,.629,1.68,1.058,2.649,1.285,.969,.227,1.994,.231,3.076,.011,1.098-.223,2.056-.63,2.874-1.221h0Zm-5.068-1.921c-.471-.189-.895-.507-1.272-.953-.376-.446-.699-1.009-.968-1.689-.269-.68-.489-1.443-.662-2.29-.175-.862-.272-1.659-.29-2.39s.059-1.375,.231-1.933c.172-.557,.438-1.02,.796-1.386,.358-.367,.835-.611,1.431-.732,.595-.122,1.134-.084,1.614,.112,.481,.196,.906,.518,1.274,.965,.369,.448,.688,1.012,.957,1.692,.269,.68,.491,1.451,.666,2.313,.176,.863,.272,1.655,.288,2.378,.017,.724-.057,1.363-.222,1.919-.164,.556-.43,1.015-.797,1.375-.368,.36-.85,.601-1.445,.722-.596,.122-1.13,.088-1.601-.103h0Zm15.59-7.996c.495-.337,.891-.757,1.189-1.259,.298-.501,.495-1.076,.592-1.724,.097-.648,.069-1.349-.084-2.102-.153-.752-.396-1.405-.729-1.957-.333-.553-.735-1.002-1.205-1.347-.471-.345-.999-.577-1.586-.694-.587-.117-1.202-.111-1.845,.02-.643,.131-1.208,.365-1.695,.7-.487,.336-.883,.755-1.189,1.258-.306,.503-.507,1.079-.603,1.727-.097,.649-.07,1.341,.079,2.078,.154,.753,.401,1.409,.744,1.968,.342,.559,.752,1.01,1.23,1.353,.478,.344,1.007,.575,1.586,.694,.579,.119,1.19,.113,1.834-.018,.626-.127,1.188-.36,1.682-.697h0Zm-.048,8.006l2.21-.45,5.718-18.601-2.21,.45-5.718,18.601h0Zm13.266-2.625c.493-.346,.893-.77,1.199-1.273,.305-.503,.507-1.079,.604-1.727,.096-.648,.068-1.349-.085-2.101-.15-.737-.396-1.385-.738-1.944-.343-.559-.749-1.011-1.219-1.356-.471-.345-1-.581-1.589-.706-.589-.125-1.212-.121-1.871,.013-.627,.128-1.187,.364-1.68,.71-.493,.345-.893,.769-1.198,1.272-.306,.503-.508,1.079-.604,1.727-.097,.649-.07,1.341,.08,2.078,.153,.753,.4,1.409,.743,1.967,.342,.559,.752,1.011,1.23,1.354,.478,.344,1.008,.579,1.589,.706,.581,.126,1.192,.124,1.836-.006,.642-.131,1.21-.369,1.703-.714h0Zm-16.662-7.264c-.352-.484-.614-1.149-.786-1.996-.172-.846-.192-1.565-.059-2.155,.133-.591,.474-.942,1.023-1.053,.548-.112,1.004,.081,1.367,.579,.362,.498,.628,1.162,.797,1.993,.172,.847,.187,1.562,.045,2.146-.143,.584-.488,.932-1.037,1.044-.549,.111-.999-.075-1.35-.558h0Zm13.204,5.371c-.36-.482-.625-1.146-.798-1.993-.172-.847-.189-1.57-.049-2.17,.139-.599,.483-.955,1.032-1.067,.517-.105,.961,.09,1.331,.586,.371,.497,.642,1.168,.814,2.015,.172,.846,.191,1.561,.057,2.143-.135,.583-.477,.93-1.025,1.042-.549,.111-1.003-.074-1.362-.556h0Zm11.264,.231l3.904-.794-.785-3.857-3.904,.794,.785,3.857h0Zm2.406-6.833c-.055-.348-.071-.63-.05-.847,.021-.216,.104-.453,.247-.711,.197-.318,.483-.654,.86-1.008,.377-.354,.836-.848,1.377-1.48,.381-.453,.691-.998,.929-1.634,.238-.637,.266-1.402,.084-2.295-.144-.706-.416-1.324-.818-1.854-.402-.531-.903-.947-1.503-1.25-.601-.302-1.292-.492-2.076-.569-.783-.078-1.629-.024-2.538,.161-1.02,.207-1.896,.537-2.628,.988-.733,.451-1.326,.988-1.779,1.611-.453,.623-.759,1.305-.918,2.048-.159,.742-.167,1.507-.023,2.294l3.669-.746c-.132-.726-.003-1.378,.386-1.954,.389-.576,.984-.945,1.783-1.108,.659-.134,1.227-.088,1.706,.137,.478,.225,.772,.608,.883,1.15,.069,.341,.051,.655-.054,.942-.104,.288-.26,.565-.467,.833s-.435,.529-.685,.784c-.251,.255-.485,.527-.704,.816-.275,.334-.499,.657-.672,.97s-.299,.636-.378,.971c-.079,.334-.111,.7-.095,1.097,.015,.397,.072,.838,.171,1.324l3.293-.67h0Z" style="fill:red;"/><path d="M25.324,224.132l8.49-1.728c1.834-.373,3.189-1.097,4.064-2.174,.459-.55,.774-1.169,.945-1.857,.17-.688,.169-1.455-.003-2.302-.22-1.082-.708-1.933-1.463-2.555-.755-.622-1.724-.952-2.907-.989l-.019-.094c1.763-.962,2.466-2.322,2.109-4.078-.277-1.364-.998-2.377-2.161-3.038-1.088-.612-2.533-.734-4.336-.367l-8.278,1.684,3.56,17.498h0Zm1.845-11.275l-.799-3.927,3.786-.77c.69-.141,1.269-.083,1.737,.173,.469,.256,.768,.705,.899,1.347,.134,.659,.026,1.192-.324,1.597-.35,.406-.87,.679-1.56,.82l-3.739,.76h0Zm1.498,7.362l-.928-4.563,4.022-.818c.737-.15,1.387-.084,1.95,.197,.563,.281,.924,.81,1.082,1.586,.139,.682,.037,1.263-.306,1.745-.368,.521-.944,.861-1.727,1.02l-4.092,.833h0Zm10.168-13.703l3.739-.76-.655-3.222-3.739,.76,.656,3.222h0Zm2.928,14.271l3.692-.751-2.546-12.512-3.692,.751,2.546,12.512h0Zm3.351-11.213l1.882-.383,1.419,6.976c.13,.641,.331,1.148,.604,1.523,.272,.376,.607,.657,1.004,.844,.397,.188,.845,.283,1.344,.288,.499,.004,1.038-.053,1.618-.171,.502-.102,.928-.214,1.279-.333,.351-.121,.625-.217,.823-.289l-.555-2.73-.188,.038c-.122,.042-.261,.082-.416,.122-.155,.04-.296,.072-.421,.098-.439,.089-.797,.076-1.073-.038-.277-.115-.462-.407-.558-.876l-1.259-6.189,2.446-.497-.488-2.399-2.446,.497-.813-3.998-3.622,.737,.813,3.998-1.881,.383,.488,2.399h0Zm20.298,6.414c.661-.404,1.196-.884,1.605-1.441,.409-.557,.696-1.174,.86-1.853,.164-.678,.19-1.373,.078-2.085l-3.551,.722c.068,.738-.057,1.343-.378,1.816-.32,.474-.825,.78-1.515,.921-.941,.191-1.714-.019-2.32-.63-.606-.612-1.026-1.49-1.258-2.634-.239-1.176-.199-2.164,.12-2.964,.319-.799,.949-1.295,1.89-1.486,.612-.125,1.14-.057,1.585,.204,.445,.261,.789,.668,1.033,1.223l3.575-.728c-.247-.651-.585-1.231-1.015-1.74-.43-.509-.933-.916-1.51-1.224-.577-.307-1.226-.505-1.946-.596-.721-.09-1.496-.05-2.327,.119-.988,.201-1.847,.551-2.578,1.051-.731,.5-1.318,1.105-1.761,1.815-.443,.711-.736,1.501-.877,2.371-.141,.87-.116,1.775,.075,2.715,.191,.941,.526,1.783,1.004,2.527,.478,.744,1.063,1.355,1.757,1.834,.693,.48,1.478,.806,2.354,.979,.876,.172,1.816,.157,2.819-.047,.862-.176,1.624-.465,2.285-.869h0Zm13.934-2.958c.746-.502,1.345-1.11,1.797-1.822,.451-.712,.751-1.504,.9-2.376,.149-.871,.128-1.777-.063-2.718-.191-.94-.526-1.782-1.004-2.526-.478-.744-1.064-1.355-1.757-1.835-.694-.479-1.482-.804-2.366-.976-.884-.171-1.82-.156-2.807,.045-1.004,.204-1.879,.558-2.625,1.061-.747,.503-1.35,1.111-1.808,1.825-.459,.714-.763,1.506-.912,2.378-.15,.871-.128,1.777,.063,2.718,.191,.94,.526,1.783,1.004,2.526,.478,.744,1.067,1.355,1.769,1.832,.701,.478,1.494,.803,2.378,.974,.884,.171,1.827,.155,2.831-.05,.988-.201,1.855-.553,2.602-1.056h0Zm-5.532-2.272c-.634-.625-1.069-1.523-1.307-2.692-.241-1.184-.193-2.192,.144-3.024,.337-.831,.976-1.343,1.917-1.534,.925-.188,1.709,.034,2.352,.666,.643,.632,1.085,1.54,1.326,2.725,.238,1.169,.184,2.166-.163,2.991-.346,.825-.982,1.332-1.907,1.52-.941,.191-1.728-.026-2.361-.652h0Zm8.364-13.06l3.739-.761-.656-3.222-3.739,.761,.656,3.222h0Zm2.928,14.271l3.692-.751-2.546-12.512-3.692,.751,2.546,12.512h0Zm7.167-14.488l-3.575,.727,2.546,12.512,3.692-.751-1.429-7.022c-.162-.795-.076-1.495,.259-2.1,.334-.604,.862-.98,1.583-1.126,.69-.141,1.253-.04,1.69,.302,.437,.342,.725,.856,.865,1.542l1.524,7.49,3.669-.747-1.675-8.231c-.287-1.411-.896-2.458-1.827-3.143-.931-.684-2.087-.885-3.466-.605-.878,.179-1.604,.523-2.178,1.031-.574,.509-.981,1.179-1.22,2.012l-.071,.014-.388-1.905h0Zm16.033-.764l1.882-.383,2.058,10.113,3.692-.751-2.058-10.113,2.611-.531-.488-2.399-2.611,.531-.166-.816c-.072-.352-.082-.642-.03-.869,.052-.227,.173-.414,.363-.561,.191-.147,.449-.262,.775-.345,.326-.083,.725-.164,1.199-.245l-.527-2.588c-.273,.023-.536,.053-.79,.088-.254,.036-.507,.079-.757,.13-.803,.148-1.506,.364-2.109,.65-.603,.286-1.072,.651-1.406,1.094-.575,.787-.728,1.838-.46,3.155l.215,1.059-1.881,.382,.488,2.399h0Zm23.482,5.754l-.043-.212c-.355-.139-.63-.688-.824-1.644l-1.307-6.421c-.172-.846-.476-1.556-.91-2.129-.435-.573-1.02-.98-1.755-1.223-.494-.177-1.043-.265-1.646-.265-.605,0-1.306,.082-2.106,.245-.925,.188-1.709,.466-2.353,.834-.644,.368-1.154,.79-1.53,1.266-.377,.477-.631,.99-.765,1.54-.133,.549-.153,1.092-.06,1.628l3.41-.693c-.055-.512,.064-.952,.356-1.322,.292-.369,.791-.626,1.496-.77,.643-.13,1.141-.089,1.495,.125,.354,.214,.577,.548,.67,1.002,.095,.471-.082,.866-.531,1.186-.449,.32-1.214,.672-2.296,1.055-.674,.219-1.293,.463-1.859,.733-.565,.271-1.039,.591-1.42,.963-.382,.371-.656,.811-.822,1.318-.166,.508-.179,1.106-.039,1.796,.125,.611,.341,1.135,.65,1.57,.309,.435,.688,.77,1.136,1.006,.448,.235,.951,.382,1.51,.439,.558,.058,1.143,.025,1.755-.1,.972-.197,1.71-.519,2.216-.965,.505-.445,.903-1,1.192-1.663l.047-.009c.105,.354,.223,.652,.354,.895,.131,.243,.258,.425,.381,.547l3.598-.732h0Zm-8.489-.795c-.405-.146-.664-.494-.775-1.043-.112-.548,.003-.988,.344-1.319,.34-.33,.901-.665,1.681-1.003,.389-.177,.765-.356,1.128-.536,.363-.18,.661-.383,.892-.61l.331,1.623c.14,.69,.009,1.312-.392,1.867-.401,.556-1.018,.918-1.848,1.087-.502,.102-.956,.08-1.361-.066h0Zm10.558,.374l3.716-.756-3.56-17.497-3.716,.756,3.56,17.497h0Zm6.233-1.268l3.716-.756-3.56-17.497-3.716,.756,3.56,17.497h0Zm21.46-4.427c.596-.44,1.071-.994,1.425-1.662,.354-.668,.573-1.439,.656-2.313,.083-.874,.02-1.829-.191-2.863-.194-.957-.503-1.812-.926-2.567-.423-.755-.929-1.379-1.519-1.871-.59-.492-1.248-.836-1.974-1.031-.725-.196-1.496-.21-2.311-.044-.878,.178-1.577,.516-2.096,1.014-.519,.497-.925,1.111-1.217,1.84l-.071,.014c-.045-.383-.108-.831-.188-1.346-.08-.514-.174-1.038-.283-1.571l-.78-3.833-3.692,.751,3.56,17.498,3.551-.723-.373-1.834,.047-.01c.517,.695,1.145,1.155,1.885,1.38,.739,.225,1.533,.251,2.379,.079,.815-.166,1.521-.469,2.118-.908h0Zm-6.01-2.451c-.64-.58-1.072-1.419-1.295-2.517-.109-.532-.156-1.046-.142-1.538,.014-.493,.105-.932,.271-1.317,.167-.385,.407-.711,.719-.979,.313-.267,.713-.451,1.199-.55,.878-.178,1.603,.038,2.176,.647,.573,.61,.975,1.48,1.205,2.609,.229,1.128,.197,2.074-.097,2.836-.294,.762-.872,1.23-1.734,1.406-.894,.182-1.661-.017-2.302-.597h0Zm15.652,4.702c.427-.226,.79-.529,1.089-.908,.298-.379,.538-.844,.72-1.395,.182-.552,.325-1.214,.429-1.986l1.861-13.726-3.669,.746-.553,5.109c-.055,.452-.094,.942-.117,1.469-.024,.527-.046,1.022-.066,1.483-.02,.543-.033,1.084-.037,1.624l-.047,.009c-.196-.482-.402-.971-.617-1.466-.183-.42-.389-.872-.618-1.356-.23-.484-.458-.923-.685-1.318l-2.575-4.472-3.881,.789,5.914,9.206c.335,.52,.602,.992,.803,1.416,.2,.425,.323,.747,.368,.966,.1,.894-.407,1.454-1.52,1.681-.031,.006-.105,.021-.223,.045-.118,.024-.247,.051-.388,.079-.141,.029-.271,.051-.391,.068-.119,.015-.186,.025-.202,.028l-.188,.039,.579,2.846c.016-.003,.15-.026,.402-.069,.252-.044,.528-.092,.828-.145,.299-.053,.575-.105,.826-.156,.25-.051,.391-.08,.423-.086,.596-.121,1.107-.295,1.535-.52h0Z" style="fill:red;"/><path d="M31.573,198.27c.842-.514,1.526-1.167,2.05-1.96,.474-.716,.821-1.501,1.039-2.354,.218-.853,.27-1.724,.154-2.615l-4.022,.818c.09,.922-.118,1.75-.621,2.485-.504,.734-1.297,1.211-2.378,1.432-.69,.14-1.343,.122-1.958-.054-.616-.176-1.167-.48-1.655-.91-.488-.431-.909-.976-1.264-1.637-.355-.661-.617-1.406-.785-2.236-.169-.829-.231-1.615-.186-2.357,.045-.743,.199-1.409,.462-2.001,.263-.591,.644-1.088,1.142-1.491,.497-.402,1.123-.68,1.875-.834,.988-.201,1.846-.094,2.576,.321,.729,.415,1.241,1.026,1.536,1.831l3.998-.814c-.311-.965-.774-1.817-1.39-2.558-.616-.74-1.383-1.318-2.3-1.736-.688-.333-1.463-.531-2.325-.592-.862-.062-1.779,.006-2.75,.204-1.302,.265-2.434,.736-3.398,1.414-.964,.678-1.736,1.5-2.315,2.467-.579,.967-.959,2.048-1.14,3.244-.181,1.197-.139,2.445,.125,3.747,.265,1.301,.718,2.466,1.36,3.495,.642,1.029,1.421,1.87,2.338,2.524,.917,.655,1.951,1.101,3.102,1.341,1.151,.239,2.361,.229,3.631-.029,1.223-.249,2.255-.63,3.098-1.145h0Zm17.94-3.551l-.043-.212c-.355-.14-.63-.688-.824-1.645l-1.306-6.42c-.172-.847-.476-1.557-.911-2.129-.435-.573-1.02-.981-1.755-1.223-.493-.177-1.042-.266-1.646-.265-.604,0-1.306,.082-2.106,.244-.925,.189-1.709,.467-2.353,.834-.644,.368-1.154,.79-1.53,1.267-.377,.477-.631,.99-.764,1.539-.133,.55-.154,1.093-.061,1.629l3.41-.694c-.055-.511,.064-.952,.356-1.321,.292-.37,.791-.627,1.497-.77,.643-.131,1.141-.089,1.495,.124,.354,.214,.577,.548,.669,1.003,.096,.47-.081,.866-.53,1.186-.449,.32-1.215,.671-2.296,1.054-.674,.219-1.294,.464-1.859,.734-.566,.27-1.039,.591-1.421,.962-.382,.372-.655,.811-.822,1.319-.166,.507-.179,1.106-.039,1.795,.124,.612,.341,1.135,.65,1.57,.309,.436,.687,.771,1.135,1.006,.448,.236,.951,.382,1.51,.44,.559,.058,1.144,.024,1.755-.1,.972-.198,1.71-.519,2.216-.965,.505-.446,.903-1,1.192-1.663l.047-.01c.105,.355,.222,.653,.354,.896,.131,.242,.258,.425,.381,.547l3.598-.732h0Zm-8.489-.796c-.405-.146-.664-.493-.775-1.042-.112-.549,.003-.989,.344-1.319,.341-.331,.901-.665,1.682-1.004,.388-.177,.764-.355,1.128-.535,.363-.18,.661-.384,.892-.611l.33,1.623c.14,.69,.01,1.313-.391,1.868s-1.018,.917-1.849,1.086c-.502,.102-.955,.08-1.361-.066h0Zm11.541-12.855l-3.575,.727,2.546,12.512,3.692-.751-1.429-7.022c-.162-.795-.076-1.495,.258-2.1,.334-.604,.862-.979,1.583-1.126,.69-.141,1.253-.04,1.69,.302,.437,.342,.725,.856,.865,1.542l1.524,7.49,3.669-.746-1.675-8.232c-.287-1.411-.896-2.458-1.827-3.143-.931-.683-2.087-.885-3.466-.605-.878,.179-1.604,.523-2.178,1.031-.574,.509-.981,1.18-1.219,2.012l-.071,.014-.388-1.905h0Zm16.057-.768l1.882-.383,1.419,6.976c.13,.64,.331,1.148,.604,1.523,.272,.375,.607,.657,1.005,.844,.397,.188,.845,.283,1.344,.287,.499,.004,1.038-.053,1.618-.171,.502-.102,.928-.213,1.279-.333,.351-.12,.625-.216,.823-.289l-.555-2.729-.188,.038c-.122,.041-.261,.082-.416,.121-.155,.04-.296,.073-.421,.098-.439,.09-.797,.077-1.073-.038-.277-.114-.462-.406-.558-.875l-1.259-6.189,2.446-.498-.488-2.399-2.446,.498-.813-3.998-3.622,.737,.813,3.998-1.881,.383,.488,2.399h0Zm13.048-5.325l-.981-4.821-3.692,.751,3.56,17.498,3.692-.751-1.429-7.022c-.162-.796-.076-1.496,.259-2.1,.334-.604,.862-.98,1.583-1.127,.69-.14,1.253-.039,1.69,.303,.437,.342,.725,.855,.865,1.542l1.524,7.49,3.669-.747-1.675-8.231c-.287-1.411-.896-2.459-1.827-3.143-.931-.684-2.087-.886-3.466-.605-.878,.179-1.592,.52-2.143,1.024-.551,.504-.945,1.131-1.184,1.882l-.071,.014c-.041-.204-.081-.416-.117-.637-.037-.221-.074-.426-.113-.614-.038-.188-.07-.345-.096-.471-.025-.125-.041-.203-.048-.235h0Zm21.316,8.95c.619-.33,1.139-.721,1.561-1.175,.422-.453,.753-.953,.993-1.5,.24-.546,.382-1.11,.427-1.691l-3.575,.727c-.124,.434-.349,.794-.674,1.081-.326,.286-.778,.489-1.358,.607-.894,.181-1.645,.059-2.254-.368-.61-.427-1.072-1.094-1.387-2.002l9.125-1.857c-.237-1.245-.624-2.346-1.162-3.301-.537-.955-1.229-1.707-2.075-2.256-.651-.391-1.362-.656-2.133-.794-.771-.138-1.603-.116-2.497,.066-.957,.194-1.792,.54-2.508,1.036-.715,.497-1.295,1.101-1.738,1.811-.443,.711-.74,1.502-.889,2.373-.149,.872-.128,1.777,.063,2.718,.191,.941,.521,1.78,.99,2.517,.469,.738,1.049,1.346,1.743,1.825,.693,.48,1.482,.805,2.366,.976,.884,.171,1.835,.154,2.854-.054,.8-.163,1.509-.409,2.127-.739h0Zm-2.54-9.476c.555,.402,.953,1.035,1.195,1.9l-5.339,1.086c-.05-.887,.093-1.627,.43-2.218,.337-.591,.929-.973,1.775-1.145,.737-.15,1.383-.024,1.938,.377h0Zm14.847,11.222l3.692-.752-.608-2.986c-.137-.675-.263-1.236-.38-1.687-.116-.449-.213-.789-.292-1.018l.047-.009c.485,.538,1.08,.915,1.785,1.131,.705,.215,1.473,.239,2.304,.07,.831-.169,1.556-.48,2.174-.932,.618-.453,1.108-1.013,1.47-1.683,.362-.67,.588-1.443,.679-2.318,.092-.876,.034-1.823-.174-2.843-.194-.956-.499-1.812-.914-2.569-.416-.756-.914-1.381-1.496-1.875-.582-.494-1.24-.838-1.973-1.032-.734-.193-1.516-.206-2.347-.037-1.693,.345-2.818,1.317-3.374,2.916l-.071,.014-.364-1.787-3.551,.722,3.393,16.675h0Zm2.746-8.531c-.625-.583-1.047-1.416-1.267-2.498-.109-.532-.151-1.038-.125-1.517,.025-.479,.12-.914,.285-1.307,.165-.393,.404-.723,.717-.991,.312-.268,.704-.45,1.174-.545,.91-.185,1.655,.027,2.236,.635,.581,.608,.986,1.477,1.216,2.606,.23,1.129,.184,2.069-.137,2.82-.321,.751-.904,1.212-1.751,1.384-.94,.192-1.723-.004-2.348-.587h0Zm12.088-11.852l-3.552,.723,2.546,12.511,3.692-.751-1.182-5.809c-.248-1.223-.134-2.205,.344-2.948,.477-.742,1.219-1.207,2.226-1.395,.251-.051,.514-.081,.79-.088l.095-.019-.656-3.222c-.154-.034-.419-.013-.795,.064-.784,.159-1.42,.485-1.908,.976-.488,.491-.846,1.217-1.075,2.178l-.071,.014-.454-2.234h0Zm5.708-2.998l3.74-.761-.656-3.222-3.739,.761,.655,3.222h0Zm2.928,14.27l3.692-.751-2.545-12.511-3.692,.751,2.545,12.511h0Zm14.501-2.938c.661-.403,1.196-.883,1.605-1.44,.409-.557,.696-1.174,.86-1.853,.164-.678,.19-1.373,.078-2.085l-3.552,.722c.069,.737-.057,1.343-.377,1.816-.32,.473-.825,.78-1.515,.92-.941,.192-1.714-.018-2.32-.63-.606-.611-1.026-1.489-1.259-2.634-.239-1.176-.199-2.163,.12-2.963,.319-.8,.949-1.295,1.89-1.487,.611-.124,1.139-.056,1.584,.205,.445,.26,.789,.668,1.033,1.222l3.574-.727c-.247-.652-.585-1.232-1.015-1.741-.43-.508-.933-.916-1.51-1.223-.577-.307-1.226-.506-1.946-.596-.721-.09-1.496-.051-2.327,.118-.988,.201-1.847,.552-2.578,1.051-.731,.5-1.319,1.105-1.762,1.816-.443,.711-.735,1.501-.877,2.37-.141,.87-.116,1.775,.075,2.716,.191,.941,.526,1.783,1.004,2.527,.478,.744,1.063,1.355,1.757,1.834,.693,.48,1.478,.806,2.354,.978,.876,.173,1.816,.158,2.819-.047,.863-.175,1.624-.465,2.285-.869h0Zm13.431-2.659c.619-.33,1.139-.721,1.562-1.175,.422-.453,.752-.952,.992-1.5,.24-.546,.383-1.11,.428-1.691l-3.575,.728c-.124,.433-.349,.793-.674,1.08-.326,.286-.778,.489-1.358,.607-.894,.181-1.646,.059-2.255-.368s-1.072-1.094-1.387-2.002l9.125-1.856c-.237-1.246-.624-2.347-1.161-3.302-.538-.955-1.229-1.707-2.076-2.255-.651-.392-1.362-.657-2.133-.795-.771-.138-1.603-.116-2.497,.066-.956,.194-1.792,.54-2.508,1.037-.715,.496-1.294,1.1-1.737,1.81-.444,.711-.74,1.502-.889,2.373-.15,.872-.128,1.777,.063,2.718,.191,.941,.521,1.78,.99,2.517,.468,.738,1.049,1.346,1.743,1.826,.693,.479,1.482,.804,2.366,.975,.883,.172,1.835,.154,2.854-.054,.8-.162,1.509-.409,2.127-.739h0Zm-2.54-9.476c.555,.402,.954,1.035,1.195,1.9l-5.339,1.087c-.05-.888,.094-1.627,.431-2.219,.337-.591,.929-.972,1.775-1.145,.737-.15,1.383-.024,1.938,.377h0Zm22.728,5.173c.746-.503,1.345-1.11,1.796-1.823,.451-.712,.751-1.503,.901-2.375,.149-.871,.128-1.777-.063-2.718-.192-.94-.526-1.782-1.004-2.526-.478-.744-1.064-1.355-1.757-1.835-.694-.479-1.483-.804-2.366-.976-.884-.171-1.82-.156-2.808,.045-1.003,.204-1.879,.558-2.625,1.061-.747,.503-1.35,1.111-1.808,1.825-.459,.714-.764,1.506-.913,2.377-.149,.872-.128,1.778,.063,2.718,.192,.941,.526,1.783,1.004,2.527,.478,.744,1.068,1.354,1.769,1.832,.701,.478,1.494,.802,2.378,.974,.883,.171,1.827,.154,2.831-.05,.988-.201,1.855-.553,2.602-1.056h0Zm-5.532-2.272c-.634-.625-1.07-1.523-1.307-2.692-.241-1.185-.194-2.192,.144-3.024,.336-.831,.975-1.343,1.916-1.534,.925-.188,1.709,.034,2.352,.665,.643,.633,1.085,1.541,1.326,2.726,.238,1.168,.184,2.166-.163,2.991-.346,.825-.982,1.332-1.907,1.52-.941,.191-1.728-.026-2.361-.652h0Zm8.246-8.701l1.882-.383,2.057,10.113,3.693-.751-2.058-10.113,2.611-.531-.488-2.399-2.611,.531-.166-.816c-.072-.352-.082-.642-.03-.869,.052-.228,.173-.414,.364-.562,.19-.147,.448-.262,.774-.345,.326-.082,.726-.164,1.2-.244l-.527-2.589c-.273,.024-.536,.053-.79,.089-.254,.036-.507,.079-.757,.13-.803,.147-1.506,.364-2.109,.649-.603,.286-1.072,.651-1.406,1.095-.575,.786-.728,1.838-.461,3.155l.216,1.058-1.882,.383,.488,2.399h0Z" style="fill:red;"/><path d="M317.095,149.904l3.739-.761-.656-3.222-3.739,.761,.656,3.222h0Zm2.927,14.271l3.693-.752-2.546-12.511-3.692,.751,2.545,12.512h0Zm3.352-11.214l1.881-.383,1.42,6.977c.13,.64,.331,1.147,.603,1.523,.273,.375,.607,.656,1.005,.844,.397,.187,.845,.283,1.344,.287,.499,.004,1.038-.053,1.619-.171,.501-.102,.927-.213,1.279-.333,.351-.12,.625-.216,.823-.289l-.556-2.73-.188,.039c-.122,.041-.261,.082-.416,.121-.155,.04-.296,.072-.421,.098-.439,.089-.797,.077-1.073-.038-.277-.114-.462-.407-.558-.875l-1.259-6.189,2.446-.498-.488-2.399-2.446,.498-.813-3.998-3.622,.737,.813,3.998-1.881,.382,.488,2.399h0Zm24.618,5.376c.592-.496,.991-1.165,1.196-2.007l.047-.009,.373,1.834,3.551-.722-3.56-17.498-3.692,.751,.78,3.834c.108,.533,.221,1.049,.339,1.547,.118,.499,.232,.941,.343,1.327l-.047,.009c-.557-.572-1.171-.982-1.842-1.229-.671-.247-1.437-.283-2.299-.108-.816,.166-1.523,.481-2.122,.946-.6,.465-1.075,1.039-1.426,1.723-.35,.683-.573,1.455-.667,2.315-.095,.861-.045,1.769,.15,2.725,.21,1.035,.525,1.938,.943,2.71,.418,.773,.921,1.397,1.508,1.873,.587,.477,1.24,.801,1.961,.973,.721,.172,1.489,.175,2.304,.009,.847-.172,1.566-.507,2.16-1.003h0Zm-3.921-2.778c-.569-.586-.967-1.444-1.197-2.573-.23-1.129-.2-2.086,.089-2.871,.289-.786,.873-1.268,1.751-1.447,.471-.095,.901-.085,1.292,.032,.391,.116,.739,.319,1.043,.608,.303,.289,.562,.657,.775,1.103,.213,.447,.376,.945,.488,1.493,.223,1.098,.153,2.039-.21,2.823-.363,.784-.991,1.267-1.885,1.449-.862,.175-1.578-.03-2.146-.617h0Zm8.606-12.895l3.739-.76-.655-3.222-3.74,.76,.656,3.222h0Zm2.928,14.271l3.692-.751-2.545-12.512-3.693,.752,2.546,12.511h0Zm13.153-2.823c.593-.496,.991-1.165,1.196-2.006l.047-.01,.373,1.834,3.551-.722-3.56-17.498-3.692,.752,.78,3.833c.108,.533,.221,1.049,.339,1.547,.118,.499,.232,.941,.343,1.327l-.047,.009c-.557-.572-1.171-.982-1.842-1.229-.671-.247-1.437-.283-2.299-.108-.816,.166-1.523,.481-2.122,.946-.6,.465-1.075,1.039-1.426,1.723-.35,.684-.573,1.455-.667,2.315-.095,.861-.045,1.769,.15,2.725,.211,1.035,.525,1.938,.943,2.711,.418,.772,.921,1.396,1.508,1.873,.587,.476,1.241,.8,1.961,.972,.721,.172,1.489,.175,2.304,.009,.847-.172,1.566-.507,2.16-1.003h0Zm-3.921-2.778c-.568-.586-.967-1.444-1.197-2.573-.23-1.129-.2-2.086,.089-2.871,.29-.786,.873-1.268,1.751-1.446,.471-.096,.901-.086,1.292,.031,.391,.116,.739,.319,1.043,.608,.303,.29,.562,.657,.775,1.104,.213,.446,.376,.944,.488,1.492,.223,1.098,.153,2.039-.21,2.823-.363,.784-.991,1.267-1.885,1.449-.862,.175-1.578-.03-2.146-.617h0Zm14.415-9.741l1.882-.383,1.419,6.976c.13,.64,.331,1.148,.604,1.523,.272,.376,.607,.657,1.004,.844,.397,.188,.845,.283,1.344,.287,.499,.005,1.039-.052,1.619-.17,.501-.103,.928-.214,1.279-.333,.351-.121,.625-.217,.823-.29l-.555-2.729-.188,.038c-.123,.041-.262,.082-.417,.122-.155,.04-.295,.072-.421,.097-.439,.09-.796,.077-1.073-.038-.276-.114-.462-.406-.557-.875l-1.26-6.189,2.446-.498-.488-2.398-2.446,.497-.813-3.998-3.622,.737,.814,3.998-1.882,.383,.488,2.399h0Zm13.048-5.325l-.98-4.821-3.693,.751,3.56,17.498,3.692-.751-1.428-7.022c-.162-.796-.076-1.495,.258-2.1,.334-.604,.862-.98,1.584-1.126,.689-.141,1.253-.04,1.69,.302,.437,.342,.725,.856,.865,1.542l1.523,7.49,3.669-.747-1.674-8.231c-.287-1.411-.897-2.459-1.828-3.143-.931-.684-2.086-.886-3.466-.605-.878,.179-1.592,.52-2.143,1.024-.551,.504-.945,1.131-1.184,1.882l-.071,.014c-.041-.203-.081-.416-.117-.637-.037-.221-.075-.426-.113-.614-.038-.188-.07-.345-.096-.47-.025-.126-.041-.204-.048-.236h0Zm24.71,8.174l-.043-.211c-.355-.14-.63-.689-.825-1.645l-1.306-6.421c-.172-.846-.476-1.556-.911-2.129-.435-.573-1.02-.98-1.755-1.222-.493-.177-1.042-.266-1.646-.266-.604,0-1.305,.082-2.105,.245-.925,.188-1.71,.467-2.353,.834-.644,.368-1.154,.79-1.53,1.266-.377,.477-.632,.99-.765,1.54-.133,.55-.153,1.093-.06,1.629l3.41-.694c-.055-.511,.063-.952,.356-1.322,.292-.369,.791-.626,1.496-.77,.643-.13,1.141-.089,1.495,.125,.353,.214,.577,.548,.669,1.003,.096,.47-.081,.865-.53,1.185s-1.215,.672-2.296,1.055c-.674,.219-1.293,.463-1.859,.733-.566,.271-1.039,.591-1.421,.963-.381,.372-.655,.811-.821,1.318-.166,.508-.179,1.106-.039,1.796,.124,.611,.341,1.135,.65,1.57,.309,.435,.687,.771,1.135,1.006,.448,.235,.951,.382,1.51,.44,.559,.057,1.144,.024,1.756-.1,.972-.198,1.71-.52,2.216-.966,.505-.445,.902-.999,1.192-1.663l.047-.009c.105,.354,.223,.652,.354,.895,.131,.243,.258,.425,.381,.547l3.598-.732h0Zm-8.489-.795c-.406-.146-.664-.494-.776-1.043-.111-.548,.003-.988,.344-1.319,.341-.33,.902-.665,1.682-1.003,.388-.177,.764-.355,1.128-.536,.363-.18,.661-.383,.892-.61l.33,1.623c.141,.69,.01,1.312-.391,1.867-.402,.556-1.018,.918-1.849,1.087-.502,.102-.955,.08-1.36-.066h0Zm7.607-9.557l1.882-.383,1.419,6.977c.13,.64,.331,1.147,.604,1.523,.272,.375,.607,.656,1.004,.844,.397,.187,.845,.283,1.344,.287,.499,.004,1.039-.053,1.619-.171,.501-.102,.928-.213,1.279-.333,.351-.12,.625-.216,.823-.289l-.555-2.73-.188,.039c-.123,.041-.262,.081-.417,.121-.155,.04-.295,.072-.421,.098-.439,.089-.796,.077-1.073-.038-.276-.115-.462-.407-.557-.876l-1.26-6.188,2.446-.498-.488-2.399-2.446,.498-.813-3.998-3.622,.736,.814,3.999-1.882,.382,.488,2.399h0Zm14.816-3.014l1.882-.383,1.419,6.976c.13,.641,.332,1.148,.604,1.523,.272,.376,.607,.657,1.004,.844,.398,.188,.846,.283,1.345,.287,.498,.005,1.038-.052,1.618-.17,.502-.102,.928-.214,1.279-.333,.351-.121,.626-.217,.823-.289l-.555-2.73-.188,.038c-.123,.042-.261,.082-.416,.122-.156,.04-.296,.072-.421,.098-.439,.089-.797,.076-1.073-.039-.277-.114-.463-.406-.558-.875l-1.259-6.189,2.446-.498-.489-2.398-2.445,.497-.814-3.998-3.622,.737,.814,3.998-1.882,.383,.488,2.399h0Zm13.049-5.325l-.981-4.821-3.693,.751,3.56,17.498,3.693-.751-1.429-7.022c-.162-.795-.076-1.495,.259-2.1,.334-.604,.861-.98,1.583-1.126,.69-.141,1.253-.04,1.69,.302,.437,.342,.725,.856,.865,1.542l1.524,7.49,3.668-.747-1.674-8.231c-.287-1.411-.896-2.458-1.827-3.143-.932-.684-2.087-.885-3.467-.605-.878,.179-1.592,.52-2.143,1.024-.55,.504-.945,1.131-1.184,1.882l-.071,.014c-.041-.203-.081-.416-.117-.637-.037-.221-.075-.426-.113-.614-.038-.188-.07-.345-.095-.47-.026-.126-.042-.204-.048-.236h0Zm10.163-3.733l3.74-.761-.656-3.222-3.739,.761,.655,3.222h0Zm2.928,14.271l3.692-.751-2.545-12.512-3.693,.751,2.546,12.512h0Zm13.622-2.624c.655-.313,1.198-.693,1.629-1.14,.432-.447,.736-.958,.913-1.533,.177-.575,.197-1.199,.06-1.873-.16-.784-.435-1.394-.825-1.829-.391-.434-.844-.755-1.359-.96-.515-.205-1.07-.325-1.665-.359-.595-.034-1.184-.041-1.767-.02-.44,.008-.854,.018-1.243,.032s-.734,.002-1.036-.034c-.301-.037-.545-.113-.732-.231-.187-.117-.305-.293-.353-.528-.083-.408,.022-.755,.315-1.044,.292-.288,.72-.489,1.285-.604,1.176-.239,1.972,.064,2.389,.91l3.434-.699c-.396-1.062-1.11-1.843-2.142-2.344-1.033-.5-2.419-.573-4.16-.219-.737,.15-1.41,.373-2.019,.668-.61,.296-1.116,.656-1.519,1.081-.403,.425-.693,.908-.868,1.45-.176,.542-.198,1.134-.067,1.777,.15,.737,.4,1.306,.751,1.708,.352,.403,.768,.701,1.248,.898,.481,.196,1.002,.31,1.564,.343,.562,.032,1.136,.046,1.723,.041,.455-.011,.881-.02,1.28-.028,.398-.007,.758,.014,1.078,.063,.32,.049,.584,.142,.792,.279,.207,.138,.34,.348,.397,.63,.093,.455-.016,.844-.325,1.168-.31,.325-.794,.553-1.452,.687-.722,.147-1.33,.108-1.825-.118-.495-.226-.858-.625-1.089-1.199l-3.48,.708c.174,.618,.46,1.16,.857,1.626,.397,.466,.888,.835,1.475,1.108,.585,.273,1.26,.438,2.023,.494,.762,.057,1.598-.006,2.508-.191,.815-.166,1.55-.406,2.205-.718h0Zm15.975,.754c.427-.226,.79-.528,1.089-.907,.298-.38,.538-.845,.72-1.396,.182-.551,.324-1.213,.429-1.985l1.86-13.727-3.669,.746-.552,5.109c-.055,.452-.094,.942-.118,1.469-.023,.528-.045,1.022-.065,1.483-.021,.543-.033,1.084-.037,1.624l-.047,.01c-.196-.483-.402-.972-.617-1.467-.183-.42-.39-.872-.619-1.356-.229-.484-.457-.923-.684-1.318l-2.576-4.472-3.88,.789,5.914,9.206c.334,.52,.602,.992,.802,1.417,.201,.424,.324,.746,.368,.966,.1,.893-.406,1.454-1.519,1.68-.032,.007-.106,.022-.223,.046-.118,.024-.247,.05-.388,.079-.142,.028-.272,.051-.391,.067-.119,.016-.187,.026-.202,.029l-.188,.038,.579,2.846c.015-.003,.149-.026,.402-.069,.252-.044,.528-.092,.828-.144,.299-.054,.574-.105,.825-.157,.251-.051,.392-.079,.424-.086,.595-.121,1.107-.295,1.535-.52h0Zm15.739-7.268c.618-.33,1.139-.721,1.561-1.175,.422-.453,.753-.953,.993-1.5,.239-.546,.382-1.11,.427-1.691l-3.575,.727c-.124,.434-.349,.794-.674,1.08-.325,.287-.778,.489-1.358,.607-.894,.182-1.645,.06-2.255-.367-.609-.427-1.071-1.094-1.387-2.002l9.125-1.857c-.237-1.245-.624-2.346-1.161-3.301-.537-.956-1.229-1.707-2.075-2.256-.652-.391-1.363-.656-2.134-.794-.771-.138-1.603-.116-2.497,.066-.956,.194-1.792,.54-2.507,1.036-.716,.497-1.295,1.101-1.738,1.811-.443,.711-.74,1.502-.889,2.373-.149,.872-.128,1.777,.063,2.718,.192,.941,.521,1.78,.99,2.517,.468,.738,1.049,1.346,1.743,1.825,.693,.48,1.482,.805,2.366,.976,.883,.171,1.835,.153,2.854-.054,.8-.163,1.509-.409,2.128-.739h0Zm-2.54-9.476c.555,.402,.953,1.035,1.194,1.9l-5.338,1.086c-.05-.887,.093-1.627,.43-2.218,.337-.591,.929-.973,1.775-1.145,.737-.15,1.383-.024,1.939,.377h0Zm19.95,5.848l-.043-.211c-.356-.14-.63-.689-.825-1.645l-1.306-6.421c-.172-.846-.476-1.556-.911-2.129-.435-.572-1.02-.98-1.755-1.222-.493-.177-1.042-.266-1.646-.266-.604,0-1.306,.082-2.105,.245-.925,.188-1.71,.467-2.353,.834-.644,.368-1.154,.79-1.53,1.267-.377,.476-.632,.989-.765,1.539-.133,.55-.153,1.093-.06,1.629l3.41-.694c-.055-.511,.063-.952,.356-1.322,.292-.369,.791-.626,1.496-.769,.643-.131,1.141-.09,1.495,.124,.353,.214,.577,.548,.669,1.003,.096,.47-.081,.865-.53,1.185-.449,.32-1.215,.672-2.296,1.055-.674,.219-1.294,.463-1.859,.733-.566,.271-1.039,.592-1.421,.963-.381,.372-.655,.811-.821,1.318-.166,.508-.179,1.106-.039,1.796,.124,.612,.341,1.135,.65,1.57,.309,.435,.687,.771,1.135,1.006,.448,.236,.951,.382,1.51,.44,.559,.057,1.144,.024,1.756-.1,.972-.198,1.71-.52,2.216-.966,.505-.445,.902-.999,1.192-1.663l.047-.009c.105,.354,.222,.653,.354,.895,.131,.243,.258,.425,.38,.547l3.599-.732h0Zm-8.489-.795c-.406-.146-.664-.494-.776-1.043-.111-.548,.003-.988,.344-1.319,.341-.33,.902-.664,1.682-1.003,.388-.177,.764-.355,1.128-.536,.363-.18,.66-.383,.892-.61l.33,1.623c.141,.69,.01,1.312-.391,1.867-.402,.556-1.018,.918-1.849,1.087-.502,.102-.955,.08-1.36-.066h0Zm11.517-12.85l-3.552,.722,2.546,12.512,3.692-.751-1.181-5.809c-.249-1.223-.135-2.206,.343-2.948,.477-.742,1.219-1.207,2.226-1.396,.251-.051,.514-.08,.791-.087l.094-.019-.656-3.222c-.154-.034-.419-.013-.795,.064-.784,.159-1.42,.485-1.908,.976-.488,.491-.846,1.218-1.075,2.179l-.071,.014-.454-2.234h0Zm6.92,11.621l3.904-.794-.785-3.857-3.904,.794,.785,3.857h0Z" style="fill:red;"/><path d="M326.944,138.005c.974-.671,1.754-1.491,2.341-2.46,.586-.968,.966-2.049,1.14-3.244,.173-1.195,.127-2.442-.137-3.744-.268-1.317-.715-2.491-1.342-3.523-.626-1.032-1.398-1.875-2.315-2.53-.916-.654-1.955-1.104-3.115-1.35-1.161-.245-2.399-.234-3.716,.034-1.333,.271-2.485,.747-3.457,1.426-.973,.679-1.753,1.499-2.341,2.46-.588,.961-.969,2.038-1.142,3.232-.174,1.195-.126,2.451,.142,3.768,.264,1.301,.71,2.468,1.336,3.5,.627,1.032,1.399,1.879,2.317,2.541,.919,.662,1.957,1.112,3.116,1.35,1.159,.237,2.404,.221,3.737-.05,1.317-.268,2.462-.738,3.436-1.41h0Zm-6.17-1.976c-.633-.18-1.193-.488-1.682-.925-.489-.437-.903-.988-1.242-1.65-.339-.663-.593-1.409-.761-2.236-.168-.828-.227-1.617-.175-2.367,.051-.751,.215-1.43,.491-2.039,.276-.61,.67-1.121,1.182-1.534,.512-.413,1.144-.696,1.897-.849,.752-.153,1.441-.139,2.066,.043,.625,.182,1.179,.5,1.663,.954,.485,.455,.893,1.018,1.226,1.69,.333,.672,.583,1.422,.752,2.25,.168,.828,.23,1.612,.184,2.353-.045,.741-.203,1.408-.475,1.999-.271,.592-.659,1.094-1.163,1.505-.504,.412-1.132,.694-1.885,.847-.752,.153-1.445,.14-2.078-.041h0Zm14.368-12.623l-.981-4.821-3.692,.751,3.56,17.497,3.692-.751-1.429-7.022c-.161-.795-.075-1.495,.259-2.1,.334-.604,.862-.979,1.583-1.126,.69-.14,1.253-.04,1.69,.302,.437,.342,.725,.856,.865,1.542l1.524,7.49,3.669-.746-1.675-8.232c-.287-1.411-.896-2.458-1.827-3.142-.931-.684-2.087-.886-3.466-.606-.879,.179-1.593,.52-2.143,1.024-.551,.504-.946,1.132-1.185,1.882l-.07,.015c-.042-.204-.081-.416-.118-.638-.037-.221-.074-.426-.113-.614-.038-.188-.07-.344-.095-.47-.026-.125-.042-.204-.048-.235h0Zm23.874,12.495c.427-.226,.79-.528,1.089-.907,.298-.38,.538-.845,.72-1.396,.182-.551,.325-1.213,.429-1.985l1.861-13.727-3.669,.746-.553,5.109c-.055,.452-.094,.942-.117,1.469-.024,.528-.046,1.022-.066,1.483-.02,.543-.033,1.084-.037,1.624l-.047,.01c-.196-.483-.402-.972-.617-1.467-.183-.42-.389-.872-.618-1.356-.23-.484-.458-.923-.685-1.318l-2.575-4.472-3.881,.789,5.914,9.206c.335,.52,.602,.992,.803,1.417,.2,.424,.323,.746,.368,.966,.1,.893-.407,1.454-1.52,1.68-.031,.007-.105,.022-.223,.046-.118,.024-.247,.05-.388,.079-.141,.028-.271,.051-.391,.067-.119,.016-.186,.026-.202,.029l-.188,.038,.579,2.846c.016-.003,.15-.026,.402-.069,.252-.044,.528-.092,.828-.144,.299-.054,.575-.105,.826-.157,.25-.051,.391-.079,.423-.086,.596-.121,1.107-.295,1.535-.52h0Zm15.739-7.268c.619-.33,1.139-.721,1.561-1.175,.422-.453,.753-.953,.993-1.5,.24-.546,.382-1.11,.427-1.691l-3.574,.727c-.124,.434-.349,.794-.675,1.08-.325,.287-.778,.489-1.358,.607-.893,.182-1.645,.06-2.254-.367-.61-.427-1.072-1.094-1.387-2.002l9.125-1.857c-.238-1.245-.625-2.346-1.162-3.301-.537-.956-1.229-1.707-2.075-2.256-.652-.391-1.362-.656-2.133-.794-.771-.138-1.604-.116-2.497,.066-.957,.194-1.793,.54-2.508,1.036-.716,.497-1.295,1.101-1.738,1.811-.443,.711-.739,1.502-.889,2.373-.149,.872-.128,1.777,.064,2.718,.191,.941,.521,1.78,.989,2.517,.469,.738,1.049,1.346,1.743,1.825,.694,.48,1.482,.805,2.366,.976s1.835,.153,2.855-.054c.799-.163,1.508-.409,2.127-.739h0Zm-2.54-9.476c.555,.402,.953,1.035,1.195,1.9l-5.339,1.086c-.05-.887,.093-1.627,.43-2.218,.337-.591,.929-.973,1.776-1.145,.737-.15,1.382-.024,1.938,.377h0Zm15.816,6.836c.655-.312,1.198-.692,1.63-1.139,.431-.447,.735-.958,.912-1.533,.177-.575,.197-1.199,.06-1.874-.159-.784-.435-1.393-.825-1.828-.391-.435-.844-.755-1.359-.96-.515-.205-1.07-.325-1.665-.36-.595-.034-1.184-.04-1.767-.02-.44,.008-.854,.019-1.243,.033s-.734,.002-1.035-.034c-.302-.037-.546-.114-.733-.231-.187-.117-.305-.293-.353-.528-.082-.408,.022-.756,.315-1.044,.292-.288,.721-.49,1.285-.604,1.176-.24,1.972,.064,2.389,.91l3.434-.699c-.396-1.062-1.11-1.844-2.142-2.344-1.033-.5-2.419-.573-4.159-.219-.738,.15-1.411,.372-2.02,.668-.609,.295-1.115,.655-1.519,1.08-.403,.425-.693,.909-.868,1.451-.176,.542-.198,1.134-.067,1.777,.15,.737,.4,1.306,.751,1.708,.352,.402,.768,.701,1.248,.897,.481,.196,1.002,.311,1.564,.343,.562,.033,1.136,.047,1.723,.042,.455-.011,.881-.02,1.28-.028,.399-.008,.758,.013,1.078,.062,.32,.05,.584,.143,.792,.28,.207,.138,.34,.347,.397,.629,.093,.455-.016,.845-.325,1.169-.31,.324-.794,.553-1.452,.687-.722,.147-1.33,.108-1.825-.119-.495-.225-.858-.625-1.089-1.199l-3.48,.709c.174,.617,.46,1.159,.857,1.625,.397,.467,.888,.836,1.475,1.109,.586,.272,1.26,.437,2.023,.494,.762,.057,1.598-.007,2.508-.192,.815-.166,1.55-.405,2.205-.718h0Zm6.011,3.063c.523-.155,1.004-.38,1.443-.673,.438-.293,.793-.655,1.064-1.086,.272-.431,.454-.941,.546-1.531,.092-.591,.063-1.254-.087-1.991l-.736-3.622-3.904,.794,.784,3.857,1.835-.373,.009,.047c.144,.706,.095,1.307-.147,1.806-.241,.498-.622,.873-1.142,1.126l.335,1.646h0Zm22.558-9.022l-.043-.212c-.355-.139-.63-.688-.825-1.644l-1.306-6.421c-.172-.846-.476-1.556-.911-2.129s-1.02-.98-1.755-1.223c-.493-.177-1.042-.266-1.646-.265-.604,0-1.305,.082-2.105,.245-.925,.188-1.71,.466-2.353,.834-.644,.368-1.154,.79-1.53,1.266-.377,.477-.632,.99-.765,1.54-.133,.549-.153,1.092-.06,1.628l3.41-.694c-.055-.511,.063-.951,.356-1.321,.292-.369,.791-.626,1.496-.77,.643-.131,1.141-.089,1.495,.125,.353,.214,.577,.548,.669,1.002,.096,.471-.081,.866-.53,1.186-.449,.32-1.215,.672-2.296,1.055-.674,.219-1.293,.463-1.859,.733-.566,.271-1.039,.591-1.42,.963-.382,.371-.656,.811-.822,1.318-.166,.508-.179,1.106-.039,1.796,.124,.611,.341,1.135,.65,1.57s.687,.77,1.135,1.006c.448,.235,.951,.382,1.51,.439,.559,.058,1.144,.025,1.756-.1,.972-.197,1.71-.519,2.216-.965,.505-.446,.902-1,1.192-1.663l.047-.01c.105,.355,.223,.653,.354,.896,.131,.243,.258,.425,.381,.547l3.598-.732h0Zm-8.489-.796c-.406-.146-.664-.493-.776-1.042-.111-.549,.003-.988,.344-1.319,.341-.33,.902-.665,1.682-1.003,.388-.177,.764-.356,1.128-.536,.363-.18,.661-.383,.892-.61l.33,1.623c.141,.69,.01,1.312-.391,1.867-.401,.556-1.018,.917-1.849,1.087-.502,.102-.955,.08-1.36-.067h0Zm20.118-1.631c.596-.44,1.072-.994,1.425-1.662,.354-.668,.573-1.439,.656-2.313,.084-.874,.02-1.829-.19-2.863-.195-.956-.504-1.812-.927-2.567-.423-.755-.929-1.378-1.519-1.871-.59-.492-1.248-.836-1.973-1.031-.726-.195-1.496-.21-2.312-.044-.878,.179-1.576,.517-2.095,1.014-.52,.498-.925,1.111-1.218,1.84l-.071,.014c-.045-.383-.107-.831-.188-1.345-.08-.514-.174-1.038-.283-1.571l-.779-3.833-3.693,.751,3.56,17.498,3.551-.723-.373-1.834,.047-.01c.517,.695,1.145,1.155,1.885,1.38,.74,.225,1.533,.251,2.38,.079,.815-.166,1.521-.469,2.117-.908h0Zm-6.009-2.451c-.641-.58-1.073-1.419-1.296-2.517-.108-.532-.156-1.046-.142-1.538,.014-.493,.105-.932,.271-1.317,.167-.385,.407-.711,.72-.979,.313-.268,.712-.451,1.198-.55,.878-.179,1.604,.037,2.177,.647,.573,.61,.974,1.479,1.204,2.609,.23,1.128,.197,2.074-.096,2.836-.295,.762-.873,1.23-1.735,1.406-.894,.182-1.661-.017-2.301-.597h0Zm18.491,.12c.654-.313,1.197-.693,1.629-1.14,.431-.447,.736-.958,.913-1.533,.177-.575,.197-1.199,.059-1.874-.159-.784-.434-1.393-.825-1.828-.39-.435-.843-.755-1.358-.96-.516-.205-1.071-.325-1.665-.359-.595-.034-1.184-.041-1.768-.02-.439,.008-.853,.019-1.242,.032-.389,.014-.735,.002-1.036-.034-.301-.037-.546-.113-.733-.231-.187-.117-.304-.293-.352-.528-.083-.408,.022-.755,.314-1.044,.293-.288,.721-.49,1.286-.604,1.175-.239,1.972,.064,2.389,.91l3.434-.699c-.396-1.062-1.11-1.844-2.143-2.344-1.032-.5-2.419-.573-4.159-.219-.737,.15-1.41,.373-2.019,.668-.61,.295-1.116,.656-1.519,1.08-.404,.425-.693,.909-.869,1.45-.175,.542-.198,1.134-.067,1.777,.15,.737,.401,1.306,.752,1.708,.351,.402,.767,.701,1.248,.897,.481,.196,1.002,.31,1.564,.343,.561,.033,1.136,.047,1.722,.041,.455-.011,.882-.02,1.281-.028,.398-.008,.757,.014,1.078,.062,.32,.049,.584,.143,.791,.279,.208,.138,.34,.348,.398,.63,.092,.455-.016,.844-.326,1.168-.31,.324-.793,.553-1.452,.687-.721,.147-1.329,.108-1.824-.118s-.858-.625-1.089-1.199l-3.481,.708c.175,.618,.46,1.16,.858,1.626,.396,.466,.888,.835,1.474,1.108,.586,.273,1.261,.438,2.023,.494,.763,.057,1.599-.006,2.508-.191,.815-.166,1.55-.406,2.206-.718h0Zm13.919-3.09c.746-.502,1.345-1.11,1.796-1.822,.451-.712,.752-1.504,.901-2.375,.149-.871,.128-1.777-.063-2.718-.192-.941-.526-1.783-1.004-2.527-.478-.743-1.064-1.355-1.757-1.835-.694-.479-1.482-.804-2.366-.976-.884-.171-1.82-.156-2.808,.045-1.003,.204-1.878,.558-2.625,1.061-.747,.503-1.35,1.111-1.808,1.825-.459,.714-.763,1.507-.913,2.378-.149,.871-.128,1.777,.064,2.718,.191,.941,.525,1.783,1.003,2.527,.478,.744,1.068,1.355,1.769,1.832,.701,.478,1.494,.803,2.378,.974,.884,.171,1.827,.155,2.831-.05,.988-.201,1.855-.553,2.602-1.056h0Zm-5.532-2.271c-.634-.626-1.069-1.523-1.307-2.692-.241-1.185-.193-2.193,.144-3.024,.337-.831,.976-1.343,1.916-1.534,.925-.188,1.709,.034,2.352,.666,.643,.632,1.085,1.54,1.326,2.725,.238,1.169,.184,2.166-.163,2.991-.346,.825-.982,1.332-1.907,1.52-.941,.191-1.728-.026-2.361-.652h0Zm11.339,1.2l3.716-.756-3.56-17.497-3.716,.756,3.56,17.497h0Zm17.827-3.627l-2.546-12.512-3.645,.742,1.44,7.079c.159,.784,.079,1.47-.243,2.058-.321,.588-.858,.958-1.611,1.111-.658,.134-1.194,.047-1.608-.261-.414-.308-.692-.814-.836-1.52l-1.54-7.573-3.693,.751,1.685,8.278c.28,1.38,.882,2.413,1.806,3.098,.923,.686,2.098,.883,3.525,.593,.862-.175,1.556-.497,2.082-.962,.525-.466,.94-1.114,1.245-1.943l.071-.014,.363,1.787,3.505-.713h0Zm-.341-10.462l1.881-.383,1.42,6.977c.13,.64,.331,1.148,.603,1.523,.273,.376,.607,.657,1.005,.844,.397,.188,.845,.283,1.344,.287,.499,.004,1.038-.053,1.619-.171,.501-.102,.927-.213,1.279-.333,.351-.12,.625-.216,.823-.289l-.556-2.73-.188,.038c-.122,.041-.261,.082-.416,.121-.155,.04-.296,.072-.421,.098-.439,.089-.797,.077-1.073-.038-.277-.114-.462-.406-.558-.875l-1.259-6.189,2.446-.498-.488-2.399-2.446,.498-.813-3.998-3.622,.737,.813,3.998-1.881,.383,.488,2.399h0Zm20.159,6.516c.619-.33,1.139-.722,1.561-1.175,.423-.453,.753-.953,.993-1.5,.24-.547,.383-1.11,.428-1.691l-3.575,.727c-.124,.434-.349,.794-.674,1.08-.326,.287-.779,.489-1.358,.607-.894,.182-1.646,.06-2.255-.367-.61-.427-1.072-1.094-1.387-2.002l9.125-1.857c-.237-1.246-.624-2.346-1.161-3.302-.538-.955-1.229-1.707-2.076-2.255-.651-.392-1.362-.656-2.133-.794-.771-.138-1.603-.116-2.497,.066-.957,.195-1.792,.54-2.508,1.037-.715,.497-1.294,1.1-1.738,1.811-.443,.711-.739,1.502-.888,2.373-.15,.872-.129,1.777,.063,2.718,.191,.941,.521,1.78,.99,2.517,.468,.737,1.049,1.346,1.742,1.825,.694,.48,1.483,.805,2.366,.976,.884,.171,1.836,.153,2.855-.054,.8-.163,1.509-.409,2.127-.739h0Zm-2.54-9.476c.555,.401,.954,1.035,1.195,1.9l-5.339,1.086c-.05-.888,.094-1.627,.431-2.218,.336-.591,.928-.973,1.775-1.145,.737-.15,1.383-.024,1.938,.377h0Zm8.379,8.202l3.716-.756-3.56-17.498-3.715,.756,3.559,17.497h0Zm11.301,1.852c.427-.226,.79-.528,1.089-.907,.298-.379,.538-.844,.72-1.396,.182-.551,.324-1.213,.429-1.985l1.86-13.727-3.669,.746-.552,5.109c-.055,.452-.094,.942-.118,1.469-.023,.528-.045,1.022-.065,1.483-.021,.543-.033,1.084-.037,1.624l-.047,.01c-.196-.482-.402-.971-.617-1.466-.183-.42-.39-.872-.619-1.356-.229-.484-.457-.923-.684-1.318l-2.576-4.472-3.88,.79,5.914,9.206c.334,.52,.602,.992,.802,1.416,.201,.425,.324,.747,.368,.966,.1,.894-.406,1.454-1.519,1.681-.032,.007-.106,.022-.223,.046-.118,.024-.247,.05-.389,.079-.141,.029-.271,.051-.39,.067-.119,.016-.187,.026-.202,.029l-.188,.038,.579,2.846c.015-.003,.149-.027,.402-.07,.252-.044,.528-.092,.828-.144,.299-.053,.574-.105,.825-.156,.251-.051,.392-.08,.424-.086,.595-.121,1.107-.295,1.535-.52h0Zm6.448-13.325l3.904-.794-.785-3.857-3.904,.794,.785,3.857h0Zm2.426,11.801c.523-.155,1.004-.38,1.442-.673,.438-.293,.793-.655,1.065-1.086,.271-.431,.453-.941,.546-1.532,.092-.59,.063-1.254-.087-1.991l-.737-3.622-3.904,.794,.785,3.857,1.834-.373,.01,.047c.143,.706,.094,1.307-.147,1.806-.242,.498-.622,.874-1.142,1.126l.335,1.646h0Z" style="fill:red;"/><g><path d="M80.481,24.768l-4.196-4.297,2.717-.554,1.122,1.238c.162,.179,.328,.376,.497,.588,.169,.213,.326,.415,.472,.607,.161,.22,.328,.446,.502,.683l.027-.006c.059-.283,.124-.558,.195-.824,.059-.234,.127-.482,.204-.745,.077-.262,.155-.509,.234-.736l.563-1.581,2.592-.527-2.131,5.57,4.561,4.731-2.814,.572-1.417-1.612c-.162-.181-.326-.382-.492-.604-.167-.223-.322-.431-.468-.623-.162-.229-.325-.457-.488-.685l-.027,.006c-.061,.273-.125,.548-.195,.823-.059,.233-.126,.487-.201,.759s-.152,.521-.231,.751l-.701,2.043-2.703,.55,2.38-6.128Z"/><path d="M86.831,18.325l4.904-.997c1.067-.218,1.924-.145,2.568,.217,.688,.394,1.116,.993,1.28,1.801,.212,1.04-.205,1.846-1.25,2.415l.012,.057c.701,.022,1.275,.218,1.723,.585,.447,.369,.736,.873,.866,1.514,.103,.502,.103,.957,.002,1.364s-.287,.774-.56,1.1c-.519,.638-1.32,1.067-2.408,1.288l-5.029,1.023-2.108-10.366Zm5.417,3.236c.409-.083,.717-.244,.925-.485,.207-.24,.271-.555,.191-.945-.077-.381-.255-.647-.532-.799s-.621-.186-1.029-.103l-2.243,.457,.474,2.326,2.215-.451Zm1.097,4.318c.464-.095,.806-.296,1.023-.604,.202-.285,.263-.629,.181-1.033-.094-.46-.307-.773-.641-.939s-.719-.206-1.155-.117l-2.383,.485,.55,2.702,2.425-.493Z"/><path d="M96.026,16.455l8.555-1.74,.411,2.02-3.093,.63,1.697,8.346-2.382,.484-1.698-8.346-3.079,.627-.411-2.021Z"/><path d="M112.177,24.167c-1.412,.288-2.55,.179-3.411-.329-.863-.506-1.419-1.373-1.668-2.6l-1.375-6.757,2.368-.481,1.386,6.813c.115,.566,.362,.981,.74,1.242,.377,.262,.899,.325,1.568,.188,.622-.126,1.057-.391,1.304-.795,.247-.402,.312-.889,.197-1.455l-1.378-6.771,2.383-.484,1.375,6.757c.247,1.218,.076,2.229-.514,3.036-.592,.808-1.582,1.353-2.976,1.636Z"/><path d="M122.15,22.196c-.697,.142-1.34,.189-1.929,.146-.59-.044-1.114-.174-1.574-.391-.46-.216-.844-.521-1.152-.919s-.527-.872-.66-1.426l2.396-.487c.181,.554,.48,.923,.9,1.107,.42,.186,.964,.21,1.633,.074,.232-.047,.45-.115,.654-.205s.381-.2,.527-.332c.147-.132,.255-.284,.321-.457,.065-.174,.077-.367,.034-.58-.046-.223-.137-.398-.274-.525-.136-.126-.318-.22-.543-.281-.226-.061-.494-.1-.808-.118-.312-.018-.664-.032-1.053-.04-.524-.01-1.023-.038-1.497-.087-.475-.048-.901-.152-1.282-.312-.381-.16-.702-.395-.963-.703-.262-.311-.447-.735-.557-1.273-.109-.539-.102-1.023,.022-1.455,.126-.432,.343-.812,.653-1.143,.311-.328,.698-.605,1.166-.831,.467-.225,.987-.397,1.563-.515,.566-.115,1.104-.156,1.614-.125,.509,.032,.967,.143,1.373,.33,.405,.188,.754,.454,1.047,.795,.291,.343,.508,.766,.648,1.269l-2.326,.474c-.146-.387-.395-.657-.746-.812-.351-.156-.785-.182-1.306-.076-.493,.101-.868,.277-1.126,.53-.258,.254-.354,.541-.288,.862,.041,.202,.13,.356,.268,.462s.322,.186,.556,.238,.514,.084,.84,.094c.325,.011,.702,.021,1.13,.028,.485,.009,.958,.039,1.42,.096,.461,.056,.881,.172,1.26,.346s.705,.423,.979,.744c.273,.322,.466,.756,.577,1.305,.109,.538,.1,1.035-.03,1.493-.129,.456-.354,.865-.672,1.225-.318,.36-.716,.666-1.191,.917-.477,.252-1.012,.438-1.605,.56Z"/><path d="M125.562,10.445l4.319-.879c.725-.147,1.406-.154,2.048-.024,.641,.131,1.216,.382,1.727,.752s.944,.857,1.299,1.461c.354,.606,.613,1.304,.773,2.093,.157,.771,.192,1.491,.106,2.162-.086,.67-.293,1.271-.619,1.802-.328,.53-.773,.981-1.336,1.353-.563,.37-1.239,.637-2.029,.797l-4.18,.851-2.108-10.366Zm5.705,7.574c.901-.184,1.517-.591,1.847-1.225,.331-.633,.395-1.451,.19-2.453-.202-.993-.584-1.742-1.146-2.248-.562-.505-1.28-.668-2.152-.491l-1.658,.338,1.304,6.408,1.616-.329Z"/></g><g><path d="M85.58,44.129c-.641,.13-1.248,.128-1.822-.007s-1.097-.389-1.569-.762-.878-.858-1.218-1.457c-.339-.598-.59-1.291-.75-2.081-.16-.789-.201-1.526-.123-2.21,.078-.683,.263-1.289,.552-1.816,.289-.528,.674-.967,1.154-1.316,.479-.35,1.041-.589,1.682-.719,.65-.133,1.267-.133,1.85,0s1.108,.387,1.577,.761c.468,.374,.869,.86,1.203,1.46,.335,.599,.583,1.294,.744,2.083,.16,.79,.203,1.525,.129,2.208-.074,.682-.255,1.287-.545,1.815-.289,.527-.676,.967-1.16,1.317-.485,.35-1.053,.591-1.703,.724Zm-.352-1.801c.353-.072,.639-.214,.856-.428,.217-.213,.375-.484,.472-.813,.098-.33,.143-.709,.132-1.138-.01-.429-.066-.896-.171-1.408-.104-.511-.234-.968-.395-1.37-.159-.404-.349-.737-.566-1.002-.219-.267-.471-.456-.755-.572-.285-.117-.604-.139-.956-.066-.354,.071-.636,.216-.848,.434-.213,.217-.37,.49-.472,.821-.102,.33-.147,.711-.137,1.146,.011,.433,.068,.904,.172,1.415,.103,.502,.232,.953,.392,1.356,.16,.403,.352,.736,.574,1.001s.474,.452,.754,.564c.278,.113,.595,.132,.947,.061Z"/><path d="M91.738,35.882l-2.299,.468-.31-1.519c.721-.165,1.3-.459,1.736-.882,.437-.422,.645-.989,.625-1.701l1.797-.366,2.039,10.018-2.271,.463-1.317-6.48Z"/><path d="M98.566,29.866l1.992-.405-2.031,13.834-1.992,.405,2.031-13.834Z"/><path d="M107.203,39.73c-.642,.131-1.248,.128-1.822-.007-.574-.134-1.098-.389-1.57-.762-.472-.372-.878-.858-1.217-1.456-.34-.599-.59-1.292-.75-2.082-.161-.789-.202-1.526-.123-2.209,.078-.684,.262-1.289,.551-1.817s.674-.967,1.154-1.316c.48-.349,1.041-.588,1.683-.719,.649-.132,1.267-.133,1.85,0,.583,.134,1.108,.387,1.577,.761,.467,.374,.868,.861,1.203,1.46,.334,.6,.582,1.294,.742,2.083,.161,.79,.205,1.526,.131,2.208-.074,.683-.256,1.288-.545,1.815s-.676,.968-1.161,1.317-1.053,.591-1.702,.724Zm-.352-1.801c.353-.072,.638-.213,.855-.428,.218-.213,.375-.483,.473-.813s.141-.708,.131-1.138c-.009-.428-.066-.896-.17-1.408-.104-.511-.235-.967-.396-1.37-.159-.403-.348-.737-.566-1.002-.218-.266-.47-.456-.754-.572-.285-.116-.604-.138-.956-.066-.354,.072-.637,.216-.849,.434s-.369,.49-.472,.821c-.102,.33-.147,.711-.137,1.146,.011,.433,.068,.904,.172,1.415,.103,.502,.232,.953,.393,1.356,.159,.403,.351,.736,.573,1.001,.224,.265,.475,.453,.754,.564,.278,.113,.595,.133,.948,.061Z"/><path d="M113.36,31.484l-2.299,.467-.309-1.518c.721-.165,1.299-.46,1.735-.883,.437-.422,.646-.989,.626-1.701l1.797-.365,2.038,10.018-2.271,.462-1.318-6.479Z"/></g><g><path d="M474.612,251.322l-2.298,.468-.31-1.519c.721-.166,1.299-.459,1.735-.882s.646-.989,.626-1.702l1.798-.366,2.037,10.018-2.271,.462-1.318-6.479Z"/><path d="M484.129,256.379c-.641,.131-1.248,.129-1.822-.005-.574-.135-1.098-.39-1.57-.762-.472-.373-.877-.858-1.217-1.457s-.589-1.293-.75-2.082c-.16-.789-.201-1.525-.123-2.209s.262-1.289,.551-1.817c.29-.527,.675-.966,1.155-1.316,.479-.349,1.04-.588,1.682-.718,.649-.133,1.267-.133,1.85,0,.584,.134,1.108,.387,1.577,.761,.468,.375,.869,.86,1.204,1.461,.334,.599,.582,1.294,.742,2.083,.161,.789,.204,1.524,.131,2.208-.075,.682-.256,1.287-.546,1.815-.289,.527-.676,.967-1.16,1.316-.485,.351-1.053,.591-1.703,.723Zm-.352-1.799c.353-.072,.639-.214,.856-.428,.217-.214,.374-.485,.472-.814,.098-.33,.142-.709,.132-1.137-.01-.429-.066-.898-.17-1.408-.104-.512-.235-.969-.396-1.371-.159-.403-.349-.738-.566-1.002-.219-.266-.471-.455-.755-.572-.285-.116-.604-.138-.956-.065-.354,.071-.636,.216-.848,.433-.213,.218-.37,.491-.472,.822-.102,.328-.147,.711-.137,1.145,.011,.433,.068,.905,.172,1.416,.103,.501,.232,.953,.392,1.355,.16,.403,.352,.736,.574,1.002,.223,.264,.474,.451,.753,.564s.595,.132,.948,.061Z"/><path d="M490.678,243.426l1.992-.405-2.031,13.835-1.992,.405,2.031-13.835Z"/><path d="M494.861,252.324c.095-.463,.266-.914,.516-1.352,.181-.299,.383-.588,.606-.87,.223-.282,.455-.558,.695-.824s.483-.524,.729-.772c.244-.248,.474-.49,.686-.727,.278-.299,.48-.586,.607-.864,.128-.276,.155-.592,.084-.945-.085-.417-.271-.729-.561-.938s-.652-.266-1.088-.177c-.521,.105-.875,.337-1.063,.693-.122,.209-.194,.444-.219,.705-.024,.263-.007,.541,.054,.838l-2.159,.439c-.102-.501-.138-.951-.107-1.349s.128-.783,.295-1.155c.202-.477,.543-.894,1.021-1.253,.478-.358,1.103-.615,1.874-.772,.576-.117,1.104-.14,1.582-.067,.479,.07,.9,.22,1.266,.445s.665,.513,.901,.86c.235,.35,.398,.747,.489,1.192,.117,.576,.1,1.085-.053,1.527s-.378,.853-.678,1.233c-.213,.285-.449,.56-.709,.825-.261,.267-.521,.528-.784,.783-.263,.257-.51,.516-.741,.776-.233,.26-.422,.53-.568,.811l.009,.042,4.542-.924,.385,1.895-7.578,1.542c-.116-.615-.127-1.154-.032-1.619Z"/><path d="M507.844,249.002l-4.654,.946-.416-2.048,3.494-6.717,2.173-.442,1.245,6.115,1.477-.3,.346,1.699-1.477,.301,.45,2.215-2.188,.445-.45-2.215Zm-3.464-.979c.165-.043,.33-.092,.493-.145,.138-.037,.289-.078,.454-.12,.165-.044,.317-.08,.457-.108l1.714-.349-.488-2.396c-.03-.148-.061-.311-.09-.482-.03-.174-.058-.339-.08-.499-.026-.178-.05-.362-.069-.553l-.027,.006c-.077,.19-.155,.38-.232,.57-.074,.16-.15,.33-.229,.512-.08,.18-.157,.345-.232,.496l-.79,1.539c-.075,.15-.164,.312-.265,.481-.101,.171-.198,.334-.293,.488-.108,.177-.218,.354-.326,.53l.005,.028Z"/></g><g><polyline points="462.257 257.353 461.593 256.916 460.265 259.085 458.937 259.38 457.61 260.562 456.282 259.266 454.954 257.929 453.627 256.667 452.298 258.201 450.971 260.038 449.643 259.415 448.315 257.779 446.988 259.477 445.66 260.65 444.333 258.916 443.004 257.009 441.677 257.237 440.349 256.494 439.021 252.593 437.694 253.084 436.366 250.332 435.038 256.138 433.71 258.968 432.383 258.827 431.054 257.48 429.727 256.832 428.399 256.367 427.071 260.231 425.744 259.915 424.416 261.551 423.088 259.672 421.76 261.954 420.433 258.865 419.104 261.373 417.777 261 416.45 256.723 415.122 255.164 413.794 252.368 412.466 254.936 411.139 254.144 409.81 253.412 408.483 251.117 407.156 234.184 405.827 240.182 404.5 241.82 403.172 242.843 401.844 257.835 400.516 257.777 399.189 260.968 397.861 255.006 396.533 253.758 395.206 254.992 393.877 253.233 392.55 252.436 391.222 251.458 389.894 253.18 388.567 251.609 387.239 253.078 385.912 252.918 384.583 247.916 383.256 240.13 381.928 239.779 380.6 241.458 379.272 244.216 377.945 241.483 376.617 246.596 375.289 243.045 373.962 226.321 372.633 226.395 371.306 221.894 369.978 221.192 368.65 219.249 367.323 217.907 365.995 219.89 364.667 220.081 363.339 222.511 362.012 228.444 360.683 221.204 359.356 227.496 358.029 228.213 356.7 229.69 355.373 233.372 354.045 227.022 352.718 229.344 351.389 228.567 350.062 223.274 348.735 221.981 347.406 222.145 346.079 221.506 344.751 231.254 343.423 245.3 342.095 236.041 340.768 231.733 339.439 234.804 338.112 232.655 336.785 228.608 335.456 227.56 334.129 227.197 332.801 241.378 331.473 245.729 330.145 243.59 328.818 245.761 327.49 247.78 326.162 255.671 324.835 257.339 323.507 249.796 322.179 245.399 320.851 239.934 319.524 238.579 318.196 240.421 316.868 250.027 315.541 249.546 314.212 254.899 312.885 257.517 311.557 258.933 310.229 257.624 308.902 262.897 307.574 251.45 306.246 251.06 304.918 245.978 303.591 242.124 302.262 243.513 300.935 243.752 299.608 246.785 298.279 254.109 296.952 246.448 295.624 249.659 294.297 248.251 292.968 270.283 291.641 248.071 290.314 247.707 288.985 240.19 287.658 237.644 286.33 227.939 285.002 195.652 283.674 187.575 282.347 181.354 281.018 173.674 279.691 173.53 278.364 164.544 277.035 163.702 275.708 175.513 274.38 177.011 273.052 177.739 271.724 173.175 270.397 177.886 269.069 160.973 267.741 165.115 266.414 181.489 265.085 182.747 263.758 184.855 262.43 179.323 261.103 176.771 259.775 179.317 258.447 180.283 257.12 175.651 255.791 179.68 254.464 181.824 253.136 173.128 251.808 181.132 250.481 174.326 249.153 175.645 247.825 166.977 246.497 180.071 245.17 176.805 243.841 186.281 242.514 187.401 241.186 167.12 239.858 167.444 238.531 141.952 237.203 129.906 235.875 127.493 234.547 124.537 233.22 98.431 231.892 114.164 230.564 110.046 229.237 109.985 227.909 109.871 226.581 108.112 225.253 97.737 223.926 103.843 222.597 111.521 221.27 95.419 219.943 100.651 218.614 98.365 217.287 99.829 215.959 92.068 214.631 85.704 213.303 86.74 211.976 91.614 210.648 94.741 209.32 94.57 207.993 93.715 206.664 97.528 205.337 87.08 204.009 100.509 202.681 98.071 201.354 72.477 200.026 77.765 198.699 74.892 197.37 68.948 196.043 66.543 194.715 51.059 193.387 47.602 192.06 47.01 190.732 48.501 189.404 48.72 188.076 51.85 186.749 40.066 185.42 38.434 184.093 34.678 182.766 49.169 181.437 61.036 180.11 61.139 178.782 66.463 177.454 78.383 176.126 76.528 174.799 87.998 173.47 86.662 172.143 79.547 170.816 83.166 169.488 91.217 168.16 87.046 166.832 101.229 165.505 106.823 164.176 107.118 162.849 103.88 161.522 105.766 160.193 102.102 158.866 82.089 157.538 108.531 156.21 113.739 154.882 104.444 153.555 101.709 152.227 101.605 150.899 80.503 149.572 64.94 148.243 66.426 146.916 83.954 145.588 116.891 144.26 100.925 142.933 104.722 141.605 109.246 140.278 116.048 138.949 113.316 137.622 119.697 136.294 110.514 134.966 97.32 133.638 96.935 132.311 91.411 130.983 64.924 129.655 65.655 128.328 79.317 126.999 79.474 125.672 82.042 124.344 76.864 123.016 67.393 121.689 61.764 120.361 63.852 119.033 64.844 117.705 83.702 116.378 83.81 115.049 91.82 113.722 120.567 112.395 120.782 111.066 106.132 109.739 109.067 108.411 114.402 107.084 109.45 105.755 113.983 104.428 126.543 103.101 125.312 101.772 123.571 100.445 121.63 99.117 133.057 97.789 132.759 96.461 122.692 95.134 86.516 93.806 83.412 92.478 78.175 91.151 83.259 89.822 73.591 88.495 70.849 87.167 70.944 85.839 74.793 84.512 67.258 83.184 75.895 81.856 83.373 80.528 78.801 79.201 82.912 77.872 82.184 76.545 72.511 75.218 68.74 73.89 48.315 72.562 50.057 71.234 42.008 69.907 39.629 69.242 43.53" style="fill:none; stroke:#000; stroke-linecap:round; stroke-linejoin:round; stroke-width:3px;"/><path d="M462.257,263.447c3.365,0,6.093-2.728,6.093-6.093s-2.728-6.093-6.093-6.093-6.093,2.728-6.093,6.093,2.728,6.093,6.093,6.093"/><path d="M69.242,49.624c3.366,0,6.093-2.728,6.093-6.093s-2.728-6.093-6.093-6.093-6.093,2.728-6.093,6.093,2.728,6.093,6.093,6.093"/></g></svg>