<?xml version="1.0" encoding="UTF-8"?><svg id="a" xmlns="http://www.w3.org/2000/svg" xmlns:xlink="http://www.w3.org/1999/xlink" viewBox="0 0 399 224.691"><defs><clipPath id="b"><rect width="399" height="224.691" style="fill:none;"/></clipPath></defs><g style="clip-path:url(#b);"><path d="M398.725,224.691H.245v-.357H0V0L397.818,.02V.552h-11.271V12.473h11.271v.531h-11.271v11.921h11.271v.531h-11.271v11.922h11.271v.531h-11.271v11.921h11.271v.531h-11.271v11.921h11.271v.531h-11.271v11.921h11.921V0h.531V224.334h-.274v.357Zm-12.178-.531h11.921v-11.921h-11.921v11.921Zm-12.452,0h11.921v-11.921h-11.921v11.921Zm-12.451,0h11.92v-11.921h-11.92v11.921Zm-12.452,0h11.921v-11.921h-11.921v11.921Zm-12.453,0h11.922v-11.921h-11.922v11.921Zm-12.452,0h11.921v-11.921h-11.921v11.921Zm-12.452,0h11.921v-11.921h-11.921v11.921Zm-12.452,0h11.921v-11.921h-11.921v11.921Zm-12.452,0h11.921v-11.921h-11.921v11.921Zm-12.451,0h11.92v-11.921h-11.92v11.921Zm-12.453,0h11.922v-11.921h-11.922v11.921Zm-12.452,0h11.921v-11.921h-11.921v11.921Zm-12.452,0h11.921v-11.921h-11.921v11.921Zm-12.452,0h11.921v-11.921h-11.921v11.921Zm-12.452,0h11.921v-11.921h-11.921v11.921Zm-12.451,0h11.92v-11.921h-11.92v11.921Zm-12.453,0h11.922v-11.921h-11.922v11.921Zm-12.452,0h11.921v-11.921h-11.921v11.921Zm-12.452,0h11.921v-11.921h-11.921v11.921Zm-12.452,0h11.921v-11.921h-11.921v11.921Zm-12.452,0h11.921v-11.921h-11.921v11.921Zm-12.452,0h11.921v-11.921h-11.921v11.921Zm-12.452,0h11.921v-11.921h-11.921v11.921Zm-12.452,0h11.921v-11.921h-11.921v11.921Zm-12.452,0h11.921v-11.921h-11.921v11.921Zm-12.452,0h11.921v-11.921h-11.921v11.921Zm-12.452,0h11.921v-11.921h-11.921v11.921Zm-12.452,0h11.921v-11.921h-11.921v11.921Zm-12.453,0h11.922v-11.921h-11.922v11.921Zm-12.451,0h11.92v-11.921h-11.92v11.921Zm-12.452,0h11.921v-11.921H12.983v11.921Zm-12.452,0H12.452v-11.921H.531v11.921Zm386.017-12.452h11.921v-11.921h-11.921v11.921Zm-12.452,0h11.921v-11.921h-11.921v11.921Zm-12.451,0h11.92v-11.921h-11.92v11.921Zm-12.452,0h11.921v-11.921h-11.921v11.921Zm-12.453,0h11.922v-11.921h-11.922v11.921Zm-12.452,0h11.921v-11.921h-11.921v11.921Zm-12.452,0h11.921v-11.921h-11.921v11.921Zm-12.452,0h11.921v-11.921h-11.921v11.921Zm-12.452,0h11.921v-11.921h-11.921v11.921Zm-12.451,0h11.92v-11.921h-11.92v11.921Zm-12.453,0h11.922v-11.921h-11.922v11.921Zm-12.452,0h11.921v-11.921h-11.921v11.921Zm-12.452,0h11.921v-11.921h-11.921v11.921Zm-12.452,0h11.921v-11.921h-11.921v11.921Zm-12.452,0h11.921v-11.921h-11.921v11.921Zm-12.451,0h11.92v-11.921h-11.92v11.921Zm-12.453,0h11.922v-11.921h-11.922v11.921Zm-12.452,0h11.921v-11.921h-11.921v11.921Zm-12.452,0h11.921v-11.921h-11.921v11.921Zm-12.452,0h11.921v-11.921h-11.921v11.921Zm-12.452,0h11.921v-11.921h-11.921v11.921Zm-12.452,0h11.921v-11.921h-11.921v11.921Zm-12.452,0h11.921v-11.921h-11.921v11.921Zm-12.452,0h11.921v-11.921h-11.921v11.921Zm-12.452,0h11.921v-11.921h-11.921v11.921Zm-12.452,0h11.921v-11.921h-11.921v11.921Zm-12.452,0h11.921v-11.921h-11.921v11.921Zm-12.452,0h11.921v-11.921h-11.921v11.921Zm-12.453,0h11.922v-11.921h-11.922v11.921Zm-12.451,0h11.92v-11.921h-11.92v11.921Zm-12.452,0h11.921v-11.921H12.983v11.921Zm-12.452,0H12.452v-11.921H.531v11.921Zm386.017-12.452h11.921v-11.921h-11.921v11.921Zm-12.452,0h11.921v-11.921h-11.921v11.921Zm-12.451,0h11.92v-11.921h-11.92v11.921Zm-12.452,0h11.921v-11.921h-11.921v11.921Zm-12.453,0h11.922v-11.921h-11.922v11.921Zm-12.452,0h11.921v-11.921h-11.921v11.921Zm-12.452,0h11.921v-11.921h-11.921v11.921Zm-12.452,0h11.921v-11.921h-11.921v11.921Zm-12.452,0h11.921v-11.921h-11.921v11.921Zm-12.451,0h11.92v-11.921h-11.92v11.921Zm-12.453,0h11.922v-11.921h-11.922v11.921Zm-12.452,0h11.921v-11.921h-11.921v11.921Zm-12.452,0h11.921v-11.921h-11.921v11.921Zm-12.452,0h11.921v-11.921h-11.921v11.921Zm-12.452,0h11.921v-11.921h-11.921v11.921Zm-12.451,0h11.92v-11.921h-11.92v11.921Zm-12.453,0h11.922v-11.921h-11.922v11.921Zm-12.452,0h11.921v-11.921h-11.921v11.921Zm-12.452,0h11.921v-11.921h-11.921v11.921Zm-12.452,0h11.921v-11.921h-11.921v11.921Zm-12.452,0h11.921v-11.921h-11.921v11.921Zm-12.452,0h11.921v-11.921h-11.921v11.921Zm-12.452,0h11.921v-11.921h-11.921v11.921Zm-12.452,0h11.921v-11.921h-11.921v11.921Zm-12.452,0h11.921v-11.921h-11.921v11.921Zm-12.452,0h11.921v-11.921h-11.921v11.921Zm-12.452,0h11.921v-11.921h-11.921v11.921Zm-12.452,0h11.921v-11.921h-11.921v11.921Zm-12.453,0h11.922v-11.921h-11.922v11.921Zm-12.451,0h11.92v-11.921h-11.92v11.921Zm-12.452,0h11.921v-11.921H12.983v11.921Zm-12.452,0H12.452v-11.921H.531v11.921Zm386.017-12.452h11.921v-11.922h-11.921v11.922Zm-12.452,0h11.921v-11.922h-11.921v11.922Zm-12.451,0h11.92v-11.922h-11.92v11.922Zm-12.452,0h11.921v-11.922h-11.921v11.922Zm-12.453,0h11.922v-11.922h-11.922v11.922Zm-12.452,0h11.921v-11.922h-11.921v11.922Zm-12.452,0h11.921v-11.922h-11.921v11.922Zm-12.452,0h11.921v-11.922h-11.921v11.922Zm-12.452,0h11.921v-11.922h-11.921v11.922Zm-12.451,0h11.92v-11.922h-11.92v11.922Zm-12.453,0h11.922v-11.922h-11.922v11.922Zm-12.452,0h11.921v-11.922h-11.921v11.922Zm-12.452,0h11.921v-11.922h-11.921v11.922Zm-12.452,0h11.921v-11.922h-11.921v11.922Zm-12.452,0h11.921v-11.922h-11.921v11.922Zm-12.451,0h11.92v-11.922h-11.92v11.922Zm-12.453,0h11.922v-11.922h-11.922v11.922Zm-12.452,0h11.921v-11.922h-11.921v11.922Zm-12.452,0h11.921v-11.922h-11.921v11.922Zm-12.452,0h11.921v-11.922h-11.921v11.922Zm-12.452,0h11.921v-11.922h-11.921v11.922Zm-12.452,0h11.921v-11.922h-11.921v11.922Zm-12.452,0h11.921v-11.922h-11.921v11.922Zm-12.452,0h11.921v-11.922h-11.921v11.922Zm-12.452,0h11.921v-11.922h-11.921v11.922Zm-12.452,0h11.921v-11.922h-11.921v11.922Zm-12.452,0h11.921v-11.922h-11.921v11.922Zm-12.452,0h11.921v-11.922h-11.921v11.922Zm-12.453,0h11.922v-11.922h-11.922v11.922Zm-12.451,0h11.92v-11.922h-11.92v11.922Zm-12.452,0h11.921v-11.922H12.983v11.922Zm-12.452,0H12.452v-11.922H.531v11.922Zm386.017-12.453h11.921v-11.921h-11.921v11.921Zm-12.452,0h11.921v-11.921h-11.921v11.921Zm-12.451,0h11.92v-11.921h-11.92v11.921Zm-12.452,0h11.921v-11.921h-11.921v11.921Zm-12.453,0h11.922v-11.921h-11.922v11.921Zm-12.452,0h11.921v-11.921h-11.921v11.921Zm-12.452,0h11.921v-11.921h-11.921v11.921Zm-12.452,0h11.921v-11.921h-11.921v11.921Zm-12.452,0h11.921v-11.921h-11.921v11.921Zm-12.451,0h11.92v-11.921h-11.92v11.921Zm-12.453,0h11.922v-11.921h-11.922v11.921Zm-12.452,0h11.921v-11.921h-11.921v11.921Zm-12.452,0h11.921v-11.921h-11.921v11.921Zm-12.452,0h11.921v-11.921h-11.921v11.921Zm-12.452,0h11.921v-11.921h-11.921v11.921Zm-12.451,0h11.92v-11.921h-11.92v11.921Zm-12.453,0h11.922v-11.921h-11.922v11.921Zm-12.452,0h11.921v-11.921h-11.921v11.921Zm-12.452,0h11.921v-11.921h-11.921v11.921Zm-12.452,0h11.921v-11.921h-11.921v11.921Zm-12.452,0h11.921v-11.921h-11.921v11.921Zm-12.452,0h11.921v-11.921h-11.921v11.921Zm-12.452,0h11.921v-11.921h-11.921v11.921Zm-12.452,0h11.921v-11.921h-11.921v11.921Zm-12.452,0h11.921v-11.921h-11.921v11.921Zm-12.452,0h11.921v-11.921h-11.921v11.921Zm-12.452,0h11.921v-11.921h-11.921v11.921Zm-12.452,0h11.921v-11.921h-11.921v11.921Zm-12.453,0h11.922v-11.921h-11.922v11.921Zm-12.451,0h11.92v-11.921h-11.92v11.921Zm-12.452,0h11.921v-11.921H12.983v11.921Zm-12.452,0H12.452v-11.921H.531v11.921Zm386.017-12.452h11.921v-11.92h-11.921v11.92Zm-12.452,0h11.921v-11.92h-11.921v11.92Zm-12.451,0h11.92v-11.92h-11.92v11.92Zm-12.452,0h11.921v-11.92h-11.921v11.92Zm-12.453,0h11.922v-11.92h-11.922v11.92Zm-12.452,0h11.921v-11.92h-11.921v11.92Zm-12.452,0h11.921v-11.92h-11.921v11.92Zm-12.452,0h11.921v-11.92h-11.921v11.92Zm-12.452,0h11.921v-11.92h-11.921v11.92Zm-12.451,0h11.92v-11.92h-11.92v11.92Zm-12.453,0h11.922v-11.92h-11.922v11.92Zm-12.452,0h11.921v-11.92h-11.921v11.92Zm-12.452,0h11.921v-11.92h-11.921v11.92Zm-12.452,0h11.921v-11.92h-11.921v11.92Zm-12.452,0h11.921v-11.92h-11.921v11.92Zm-12.451,0h11.92v-11.92h-11.92v11.92Zm-12.453,0h11.922v-11.92h-11.922v11.92Zm-12.452,0h11.921v-11.92h-11.921v11.92Zm-12.452,0h11.921v-11.92h-11.921v11.92Zm-12.452,0h11.921v-11.92h-11.921v11.92Zm-12.452,0h11.921v-11.92h-11.921v11.92Zm-12.452,0h11.921v-11.92h-11.921v11.92Zm-12.452,0h11.921v-11.92h-11.921v11.92Zm-12.452,0h11.921v-11.92h-11.921v11.92Zm-12.452,0h11.921v-11.92h-11.921v11.92Zm-12.452,0h11.921v-11.92h-11.921v11.92Zm-12.452,0h11.921v-11.92h-11.921v11.92Zm-12.452,0h11.921v-11.92h-11.921v11.92Zm-12.453,0h11.922v-11.92h-11.922v11.92Zm-12.451,0h11.92v-11.92h-11.92v11.92Zm-12.452,0h11.921v-11.92H12.983v11.92Zm-12.452,0H12.452v-11.92H.531v11.92Zm386.017-12.451h11.921v-11.921h-11.921v11.921Zm-12.452,0h11.921v-11.921h-11.921v11.921Zm-12.451,0h11.92v-11.921h-11.92v11.921Zm-12.452,0h11.921v-11.921h-11.921v11.921Zm-12.453,0h11.922v-11.921h-11.922v11.921Zm-12.452,0h11.921v-11.921h-11.921v11.921Zm-12.452,0h11.921v-11.921h-11.921v11.921Zm-12.452,0h11.921v-11.921h-11.921v11.921Zm-12.452,0h11.921v-11.921h-11.921v11.921Zm-12.451,0h11.92v-11.921h-11.92v11.921Zm-12.453,0h11.922v-11.921h-11.922v11.921Zm-12.452,0h11.921v-11.921h-11.921v11.921Zm-12.452,0h11.921v-11.921h-11.921v11.921Zm-12.452,0h11.921v-11.921h-11.921v11.921Zm-12.452,0h11.921v-11.921h-11.921v11.921Zm-12.451,0h11.92v-11.921h-11.92v11.921Zm-12.453,0h11.922v-11.921h-11.922v11.921Zm-12.452,0h11.921v-11.921h-11.921v11.921Zm-12.452,0h11.921v-11.921h-11.921v11.921Zm-12.452,0h11.921v-11.921h-11.921v11.921Zm-12.452,0h11.921v-11.921h-11.921v11.921Zm-12.452,0h11.921v-11.921h-11.921v11.921Zm-12.452,0h11.921v-11.921h-11.921v11.921Zm-12.452,0h11.921v-11.921h-11.921v11.921Zm-12.452,0h11.921v-11.921h-11.921v11.921Zm-12.452,0h11.921v-11.921h-11.921v11.921Zm-12.452,0h11.921v-11.921h-11.921v11.921Zm-12.452,0h11.921v-11.921h-11.921v11.921Zm-12.453,0h11.922v-11.921h-11.922v11.921Zm-12.451,0h11.92v-11.921h-11.92v11.921Zm-12.452,0h11.921v-11.921H12.983v11.921Zm-12.452,0H12.452v-11.921H.531v11.921Zm386.017-12.452h11.921v-11.921h-11.921v11.921Zm-12.452,0h11.921v-11.921h-11.921v11.921Zm-12.451,0h11.92v-11.921h-11.92v11.921Zm-12.452,0h11.921v-11.921h-11.921v11.921Zm-12.453,0h11.922v-11.921h-11.922v11.921Zm-12.452,0h11.921v-11.921h-11.921v11.921Zm-12.452,0h11.921v-11.921h-11.921v11.921Zm-12.452,0h11.921v-11.921h-11.921v11.921Zm-12.452,0h11.921v-11.921h-11.921v11.921Zm-12.451,0h11.92v-11.921h-11.92v11.921Zm-12.453,0h11.922v-11.921h-11.922v11.921Zm-12.452,0h11.921v-11.921h-11.921v11.921Zm-12.452,0h11.921v-11.921h-11.921v11.921Zm-12.452,0h11.921v-11.921h-11.921v11.921Zm-12.452,0h11.921v-11.921h-11.921v11.921Zm-12.451,0h11.92v-11.921h-11.92v11.921Zm-12.453,0h11.922v-11.921h-11.922v11.921Zm-12.452,0h11.921v-11.921h-11.921v11.921Zm-12.452,0h11.921v-11.921h-11.921v11.921Zm-12.452,0h11.921v-11.921h-11.921v11.921Zm-12.452,0h11.921v-11.921h-11.921v11.921Zm-12.452,0h11.921v-11.921h-11.921v11.921Zm-12.452,0h11.921v-11.921h-11.921v11.921Zm-12.452,0h11.921v-11.921h-11.921v11.921Zm-12.452,0h11.921v-11.921h-11.921v11.921Zm-12.452,0h11.921v-11.921h-11.921v11.921Zm-12.452,0h11.921v-11.921h-11.921v11.921Zm-12.452,0h11.921v-11.921h-11.921v11.921Zm-12.453,0h11.922v-11.921h-11.922v11.921Zm-12.451,0h11.92v-11.921h-11.92v11.921Zm-12.452,0h11.921v-11.921H12.983v11.921Zm-12.452,0H12.452v-11.921H.531v11.921Zm386.017-12.452h11.921v-11.921h-11.921v11.921Zm-12.452,0h11.921v-11.921h-11.921v11.921Zm-12.451,0h11.92v-11.921h-11.92v11.921Zm-12.452,0h11.921v-11.921h-11.921v11.921Zm-12.453,0h11.922v-11.921h-11.922v11.921Zm-12.452,0h11.921v-11.921h-11.921v11.921Zm-12.452,0h11.921v-11.921h-11.921v11.921Zm-12.452,0h11.921v-11.921h-11.921v11.921Zm-12.452,0h11.921v-11.921h-11.921v11.921Zm-12.451,0h11.92v-11.921h-11.92v11.921Zm-12.453,0h11.922v-11.921h-11.922v11.921Zm-12.452,0h11.921v-11.921h-11.921v11.921Zm-12.452,0h11.921v-11.921h-11.921v11.921Zm-12.452,0h11.921v-11.921h-11.921v11.921Zm-12.452,0h11.921v-11.921h-11.921v11.921Zm-12.451,0h11.92v-11.921h-11.92v11.921Zm-12.453,0h11.922v-11.921h-11.922v11.921Zm-12.452,0h11.921v-11.921h-11.921v11.921Zm-12.452,0h11.921v-11.921h-11.921v11.921Zm-12.452,0h11.921v-11.921h-11.921v11.921Zm-12.452,0h11.921v-11.921h-11.921v11.921Zm-12.452,0h11.921v-11.921h-11.921v11.921Zm-12.452,0h11.921v-11.921h-11.921v11.921Zm-12.452,0h11.921v-11.921h-11.921v11.921Zm-12.452,0h11.921v-11.921h-11.921v11.921Zm-12.452,0h11.921v-11.921h-11.921v11.921Zm-12.452,0h11.921v-11.921h-11.921v11.921Zm-12.452,0h11.921v-11.921h-11.921v11.921Zm-12.453,0h11.922v-11.921h-11.922v11.921Zm-12.451,0h11.92v-11.921h-11.92v11.921Zm-12.452,0h11.921v-11.921H12.983v11.921Zm-12.452,0H12.452v-11.921H.531v11.921Zm386.017-12.452h11.921v-11.922h-11.921v11.922Zm-12.452,0h11.921v-11.922h-11.921v11.922Zm-12.451,0h11.92v-11.922h-11.92v11.922Zm-12.452,0h11.921v-11.922h-11.921v11.922Zm-12.453,0h11.922v-11.922h-11.922v11.922Zm-12.452,0h11.921v-11.922h-11.921v11.922Zm-12.452,0h11.921v-11.922h-11.921v11.922Zm-12.452,0h11.921v-11.922h-11.921v11.922Zm-12.452,0h11.921v-11.922h-11.921v11.922Zm-12.451,0h11.92v-11.922h-11.92v11.922Zm-12.453,0h11.922v-11.922h-11.922v11.922Zm-12.452,0h11.921v-11.922h-11.921v11.922Zm-12.452,0h11.921v-11.922h-11.921v11.922Zm-12.452,0h11.921v-11.922h-11.921v11.922Zm-12.452,0h11.921v-11.922h-11.921v11.922Zm-12.451,0h11.92v-11.922h-11.92v11.922Zm-12.453,0h11.922v-11.922h-11.922v11.922Zm-12.452,0h11.921v-11.922h-11.921v11.922Zm-12.452,0h11.921v-11.922h-11.921v11.922Zm-12.452,0h11.921v-11.922h-11.921v11.922Zm-12.452,0h11.921v-11.922h-11.921v11.922Zm-12.452,0h11.921v-11.922h-11.921v11.922Zm-12.452,0h11.921v-11.922h-11.921v11.922Zm-12.452,0h11.921v-11.922h-11.921v11.922Zm-12.452,0h11.921v-11.922h-11.921v11.922Zm-12.452,0h11.921v-11.922h-11.921v11.922Zm-12.452,0h11.921v-11.922h-11.921v11.922Zm-12.452,0h11.921v-11.922h-11.921v11.922Zm-12.453,0h11.922v-11.922h-11.922v11.922Zm-12.451,0h11.92v-11.922h-11.92v11.922Zm-12.452,0h11.921v-11.922H12.983v11.922Zm-12.452,0H12.452v-11.922H.531v11.922Zm386.017-12.453h11.921v-11.921h-11.921v11.921Zm-12.452,0h11.921v-11.921h-11.921v11.921Zm-12.451,0h11.92v-11.921h-11.92v11.921Zm-12.452,0h11.921v-11.921h-11.921v11.921Zm-12.453,0h11.922v-11.921h-11.922v11.921Zm-12.452,0h11.921v-11.921h-11.921v11.921Zm-12.452,0h11.921v-11.921h-11.921v11.921Zm-12.452,0h11.921v-11.921h-11.921v11.921Zm-12.452,0h11.921v-11.921h-11.921v11.921Zm-12.451,0h11.92v-11.921h-11.92v11.921Zm-12.453,0h11.922v-11.921h-11.922v11.921Zm-12.452,0h11.921v-11.921h-11.921v11.921Zm-12.452,0h11.921v-11.921h-11.921v11.921Zm-12.452,0h11.921v-11.921h-11.921v11.921Zm-12.452,0h11.921v-11.921h-11.921v11.921Zm-12.451,0h11.92v-11.921h-11.92v11.921Zm-12.453,0h11.922v-11.921h-11.922v11.921Zm-12.452,0h11.921v-11.921h-11.921v11.921Zm-12.452,0h11.921v-11.921h-11.921v11.921Zm-12.452,0h11.921v-11.921h-11.921v11.921Zm-12.452,0h11.921v-11.921h-11.921v11.921Zm-12.452,0h11.921v-11.921h-11.921v11.921Zm-12.452,0h11.921v-11.921h-11.921v11.921Zm-12.452,0h11.921v-11.921h-11.921v11.921Zm-12.452,0h11.921v-11.921h-11.921v11.921Zm-12.452,0h11.921v-11.921h-11.921v11.921Zm-12.452,0h11.921v-11.921h-11.921v11.921Zm-12.452,0h11.921v-11.921h-11.921v11.921Zm-12.453,0h11.922v-11.921h-11.922v11.921Zm-12.451,0h11.92v-11.921h-11.92v11.921Zm-12.452,0h11.921v-11.921H12.983v11.921Zm-12.452,0H12.452v-11.921H.531v11.921Zm386.017-12.452h11.921v-11.92h-11.921v11.92Zm-12.452,0h11.921v-11.92h-11.921v11.92Zm-12.451,0h11.92v-11.92h-11.92v11.92Zm-12.452,0h11.921v-11.92h-11.921v11.92Zm-12.453,0h11.922v-11.92h-11.922v11.92Zm-12.452,0h11.921v-11.92h-11.921v11.92Zm-12.452,0h11.921v-11.92h-11.921v11.92Zm-12.452,0h11.921v-11.92h-11.921v11.92Zm-12.452,0h11.921v-11.92h-11.921v11.92Zm-12.451,0h11.92v-11.92h-11.92v11.92Zm-12.453,0h11.922v-11.92h-11.922v11.92Zm-12.452,0h11.921v-11.92h-11.921v11.92Zm-12.452,0h11.921v-11.92h-11.921v11.92Zm-12.452,0h11.921v-11.92h-11.921v11.92Zm-12.452,0h11.921v-11.92h-11.921v11.92Zm-12.451,0h11.92v-11.92h-11.92v11.92Zm-12.453,0h11.922v-11.92h-11.922v11.92Zm-12.452,0h11.921v-11.92h-11.921v11.92Zm-12.452,0h11.921v-11.92h-11.921v11.92Zm-12.452,0h11.921v-11.92h-11.921v11.92Zm-12.452,0h11.921v-11.92h-11.921v11.92Zm-12.452,0h11.921v-11.92h-11.921v11.92Zm-12.452,0h11.921v-11.92h-11.921v11.92Zm-12.452,0h11.921v-11.92h-11.921v11.92Zm-12.452,0h11.921v-11.92h-11.921v11.92Zm-12.452,0h11.921v-11.92h-11.921v11.92Zm-12.452,0h11.921v-11.92h-11.921v11.92Zm-12.452,0h11.921v-11.92h-11.921v11.92Zm-12.453,0h11.922v-11.92h-11.922v11.92Zm-12.451,0h11.92v-11.92h-11.92v11.92Zm-12.452,0h11.921v-11.92H12.983v11.92Zm-12.452,0H12.452v-11.92H.531v11.92Zm373.564-12.451h11.921v-11.921h-11.921v11.921Zm-12.451,0h11.92v-11.921h-11.92v11.921Zm-12.452,0h11.921v-11.921h-11.921v11.921Zm-12.453,0h11.922v-11.921h-11.922v11.921Zm-12.452,0h11.921v-11.921h-11.921v11.921Zm-12.452,0h11.921v-11.921h-11.921v11.921Zm-12.452,0h11.921v-11.921h-11.921v11.921Zm-12.452,0h11.921v-11.921h-11.921v11.921Zm-12.451,0h11.92v-11.921h-11.92v11.921Zm-12.453,0h11.922v-11.921h-11.922v11.921Zm-12.452,0h11.921v-11.921h-11.921v11.921Zm-12.452,0h11.921v-11.921h-11.921v11.921Zm-12.452,0h11.921v-11.921h-11.921v11.921Zm-12.452,0h11.921v-11.921h-11.921v11.921Zm-12.451,0h11.92v-11.921h-11.92v11.921Zm-12.453,0h11.922v-11.921h-11.922v11.921Zm-12.452,0h11.921v-11.921h-11.921v11.921Zm-12.452,0h11.921v-11.921h-11.921v11.921Zm-12.452,0h11.921v-11.921h-11.921v11.921Zm-12.452,0h11.921v-11.921h-11.921v11.921Zm-12.452,0h11.921v-11.921h-11.921v11.921Zm-12.452,0h11.921v-11.921h-11.921v11.921Zm-12.452,0h11.921v-11.921h-11.921v11.921Zm-12.452,0h11.921v-11.921h-11.921v11.921Zm-12.452,0h11.921v-11.921h-11.921v11.921Zm-12.452,0h11.921v-11.921h-11.921v11.921Zm-12.452,0h11.921v-11.921h-11.921v11.921Zm-12.453,0h11.922v-11.921h-11.922v11.921Zm-12.451,0h11.92v-11.921h-11.92v11.921Zm-12.452,0h11.921v-11.921H12.983v11.921Zm-12.452,0H12.452v-11.921H.531v11.921Zm373.564-12.452h11.921v-11.921h-11.921v11.921Zm-12.451,0h11.92v-11.921h-11.92v11.921Zm-12.452,0h11.921v-11.921h-11.921v11.921Zm-12.453,0h11.922v-11.921h-11.922v11.921Zm-12.452,0h11.921v-11.921h-11.921v11.921Zm-12.452,0h11.921v-11.921h-11.921v11.921Zm-12.452,0h11.921v-11.921h-11.921v11.921Zm-12.452,0h11.921v-11.921h-11.921v11.921Zm-12.451,0h11.92v-11.921h-11.92v11.921Zm-12.453,0h11.922v-11.921h-11.922v11.921Zm-12.452,0h11.921v-11.921h-11.921v11.921Zm-12.452,0h11.921v-11.921h-11.921v11.921Zm-12.452,0h11.921v-11.921h-11.921v11.921Zm-12.452,0h11.921v-11.921h-11.921v11.921Zm-12.451,0h11.92v-11.921h-11.92v11.921Zm-12.453,0h11.922v-11.921h-11.922v11.921Zm-12.452,0h11.921v-11.921h-11.921v11.921Zm-12.452,0h11.921v-11.921h-11.921v11.921Zm-12.452,0h11.921v-11.921h-11.921v11.921Zm-12.452,0h11.921v-11.921h-11.921v11.921Zm-12.452,0h11.921v-11.921h-11.921v11.921Zm-12.452,0h11.921v-11.921h-11.921v11.921Zm-12.452,0h11.921v-11.921h-11.921v11.921Zm-12.452,0h11.921v-11.921h-11.921v11.921Zm-12.452,0h11.921v-11.921h-11.921v11.921Zm-12.452,0h11.921v-11.921h-11.921v11.921Zm-12.452,0h11.921v-11.921h-11.921v11.921Zm-12.453,0h11.922v-11.921h-11.922v11.921Zm-12.451,0h11.92v-11.921h-11.92v11.921Zm-12.452,0h11.921v-11.921H12.983v11.921Zm-12.452,0H12.452v-11.921H.531v11.921Zm373.564-12.452h11.921v-11.921h-11.921v11.921Zm-12.451,0h11.92v-11.921h-11.92v11.921Zm-12.452,0h11.921v-11.921h-11.921v11.921Zm-12.453,0h11.922v-11.921h-11.922v11.921Zm-12.452,0h11.921v-11.921h-11.921v11.921Zm-12.452,0h11.921v-11.921h-11.921v11.921Zm-12.452,0h11.921v-11.921h-11.921v11.921Zm-12.452,0h11.921v-11.921h-11.921v11.921Zm-12.451,0h11.92v-11.921h-11.92v11.921Zm-12.453,0h11.922v-11.921h-11.922v11.921Zm-12.452,0h11.921v-11.921h-11.921v11.921Zm-12.452,0h11.921v-11.921h-11.921v11.921Zm-12.452,0h11.921v-11.921h-11.921v11.921Zm-12.452,0h11.921v-11.921h-11.921v11.921Zm-12.451,0h11.92v-11.921h-11.92v11.921Zm-12.453,0h11.922v-11.921h-11.922v11.921Zm-12.452,0h11.921v-11.921h-11.921v11.921Zm-12.452,0h11.921v-11.921h-11.921v11.921Zm-12.452,0h11.921v-11.921h-11.921v11.921Zm-12.452,0h11.921v-11.921h-11.921v11.921Zm-12.452,0h11.921v-11.921h-11.921v11.921Zm-12.452,0h11.921v-11.921h-11.921v11.921Zm-12.452,0h11.921v-11.921h-11.921v11.921Zm-12.452,0h11.921v-11.921h-11.921v11.921Zm-12.452,0h11.921v-11.921h-11.921v11.921Zm-12.452,0h11.921v-11.921h-11.921v11.921Zm-12.452,0h11.921v-11.921h-11.921v11.921Zm-12.453,0h11.922v-11.921h-11.922v11.921Zm-12.451,0h11.92v-11.921h-11.92v11.921Zm-12.452,0h11.921v-11.921H12.983v11.921Zm-12.452,0H12.452v-11.921H.531v11.921Zm373.564-12.452h11.921v-11.922h-11.921v11.922Zm-12.451,0h11.92v-11.922h-11.92v11.922Zm-12.452,0h11.921v-11.922h-11.921v11.922Zm-12.453,0h11.922v-11.922h-11.922v11.922Zm-12.452,0h11.921v-11.922h-11.921v11.922Zm-12.452,0h11.921v-11.922h-11.921v11.922Zm-12.452,0h11.921v-11.922h-11.921v11.922Zm-12.452,0h11.921v-11.922h-11.921v11.922Zm-12.451,0h11.92v-11.922h-11.92v11.922Zm-12.453,0h11.922v-11.922h-11.922v11.922Zm-12.452,0h11.921v-11.922h-11.921v11.922Zm-12.452,0h11.921v-11.922h-11.921v11.922Zm-12.452,0h11.921v-11.922h-11.921v11.922Zm-12.452,0h11.921v-11.922h-11.921v11.922Zm-12.451,0h11.92v-11.922h-11.92v11.922Zm-12.453,0h11.922v-11.922h-11.922v11.922Zm-12.452,0h11.921v-11.922h-11.921v11.922Zm-12.452,0h11.921v-11.922h-11.921v11.922Zm-12.452,0h11.921v-11.922h-11.921v11.922Zm-12.452,0h11.921v-11.922h-11.921v11.922Zm-12.452,0h11.921v-11.922h-11.921v11.922Zm-12.452,0h11.921v-11.922h-11.921v11.922Zm-12.452,0h11.921v-11.922h-11.921v11.922Zm-12.452,0h11.921v-11.922h-11.921v11.922Zm-12.452,0h11.921v-11.922h-11.921v11.922Zm-12.452,0h11.921v-11.922h-11.921v11.922Zm-12.452,0h11.921v-11.922h-11.921v11.922Zm-12.453,0h11.922v-11.922h-11.922v11.922Zm-12.451,0h11.92v-11.922h-11.92v11.922Zm-12.452,0h11.921v-11.922H12.983v11.922Zm-12.452,0H12.452v-11.922H.531v11.922Zm373.564-12.453h11.921V13.004h-11.921v11.921Zm-12.451,0h11.92V13.004h-11.92v11.921Zm-12.452,0h11.921V13.004h-11.921v11.921Zm-12.453,0h11.922V13.004h-11.922v11.921Zm-12.452,0h11.921V13.004h-11.921v11.921Zm-12.452,0h11.921V13.004h-11.921v11.921Zm-12.452,0h11.921V13.004h-11.921v11.921Zm-12.452,0h11.921V13.004h-11.921v11.921Zm-12.451,0h11.92V13.004h-11.92v11.921Zm-12.453,0h11.922V13.004h-11.922v11.921Zm-12.452,0h11.921V13.004h-11.921v11.921Zm-12.452,0h11.921V13.004h-11.921v11.921Zm-12.452,0h11.921V13.004h-11.921v11.921Zm-12.452,0h11.921V13.004h-11.921v11.921Zm-12.451,0h11.92V13.004h-11.92v11.921Zm-12.453,0h11.922V13.004h-11.922v11.921Zm-12.452,0h11.921V13.004h-11.921v11.921Zm-12.452,0h11.921V13.004h-11.921v11.921Zm-12.452,0h11.921V13.004h-11.921v11.921Zm-12.452,0h11.921V13.004h-11.921v11.921Zm-12.452,0h11.921V13.004h-11.921v11.921Zm-12.452,0h11.921V13.004h-11.921v11.921Zm-12.452,0h11.921V13.004h-11.921v11.921Zm-12.452,0h11.921V13.004h-11.921v11.921Zm-12.452,0h11.921V13.004h-11.921v11.921Zm-12.452,0h11.921V13.004h-11.921v11.921Zm-12.452,0h11.921V13.004h-11.921v11.921Zm-12.453,0h11.922V13.004h-11.922v11.921Zm-12.451,0h11.92V13.004h-11.92v11.921Zm-12.452,0h11.921V13.004H12.983v11.921Zm-12.452,0H12.452V13.004H.531v11.921ZM374.096,12.473h11.921V.552h-11.921V12.473Zm-12.451,0h11.92V.552h-11.92V12.473Zm-12.452,0h11.921V.552h-11.921V12.473Zm-12.453,0h11.922V.552h-11.922V12.473Zm-12.452,0h11.921V.552h-11.921V12.473Zm-12.452,0h11.921V.552h-11.921V12.473Zm-12.452,0h11.921V.552h-11.921V12.473Zm-12.452,0h11.921V.552h-11.921V12.473Zm-12.451,0h11.92V.552h-11.92V12.473Zm-12.453,0h11.922V.552h-11.922V12.473Zm-12.452,0h11.921V.552h-11.921V12.473Zm-12.452,0h11.921V.552h-11.921V12.473Zm-12.452,0h11.921V.552h-11.921V12.473Zm-12.452,0h11.921V.552h-11.921V12.473Zm-12.451,0h11.92V.552h-11.92V12.473Zm-12.453,0h11.922V.552h-11.922V12.473Zm-12.452,0h11.921V.552h-11.921V12.473Zm-12.452,0h11.921V.552h-11.921V12.473Zm-12.452,0h11.921V.552h-11.921V12.473Zm-12.452,0h11.921V.552h-11.921V12.473Zm-12.452,0h11.921V.552h-11.921V12.473Zm-12.452,0h11.921V.552h-11.921V12.473Zm-12.452,0h11.921V.552h-11.921V12.473Zm-12.452,0h11.921V.552h-11.921V12.473Zm-12.452,0h11.921V.552h-11.921V12.473Zm-12.452,0h11.921V.552h-11.921V12.473Zm-12.452,0h11.921V.552h-11.921V12.473Zm-12.453,0h11.922V.552h-11.922V12.473Zm-12.451,0h11.92V.552h-11.92V12.473Zm-12.452,0h11.921V.552H12.983V12.473ZM.531,12.473H12.452V.552H.531V12.473Z" style="fill:aqua;"/></g></svg>