<?xml version="1.0" encoding="UTF-8"?><svg id="a" xmlns="http://www.w3.org/2000/svg" xmlns:xlink="http://www.w3.org/1999/xlink" viewBox="0 0 398 400"><defs><clipPath id="b"><rect width="398" height="400" style="fill:none;"/></clipPath></defs><g style="clip-path:url(#b);"><polygon points="0 0 0 400.736 399 400.736 399 0 0 0 0 0" style="fill:red;"/></g><polygon points="74 286 74 86 94 86 94 286 110 286 84 313 59 286 74 286 74 286" style="fill:#fff;"/><polygon points="300 113 300 313 320 313 320 113 336 113 310 86 285 113 300 113 300 113" style="fill:#fff;"/><path d="M79.447,366.528h1.826v10.208h2.046v-10.208h2.42v-1.606h-2.42v-1.54c0-.308,.036-.557,.11-.748,.073-.191,.201-.341,.385-.451,.183-.11,.433-.176,.748-.198,.315-.022,.715-.018,1.199,.011v-1.694c-.191-.015-.374-.026-.55-.033-.176-.007-.345-.011-.506-.011-.572,0-1.074,.051-1.507,.154-.433,.103-.796,.279-1.089,.528-.558,.484-.836,1.269-.836,2.354v1.628h-1.826v1.606h0Zm10.45-1.606h-2.024v11.814h2.046v-6.424c0-.557,.092-1.056,.275-1.496,.183-.44,.429-.814,.737-1.122s.667-.546,1.078-.715c.41-.169,.843-.253,1.298-.253,.176,0,.322,.007,.44,.022,.117,.015,.249,.044,.396,.088h.066v-1.936c-.118-.044-.231-.077-.341-.099-.11-.022-.246-.033-.407-.033-.792,0-1.481,.209-2.068,.627-.587,.418-1.064,.972-1.43,1.661h-.066v-2.134h0Zm13.42,11.66c.704-.323,1.305-.766,1.804-1.331,.498-.565,.88-1.225,1.144-1.98,.264-.755,.396-1.566,.396-2.431,0-.851-.132-1.654-.396-2.409-.264-.755-.646-1.415-1.144-1.98-.499-.565-1.1-1.008-1.804-1.331-.704-.323-1.504-.484-2.398-.484s-1.698,.161-2.409,.484c-.711,.323-1.316,.766-1.815,1.331-.499,.565-.884,1.225-1.155,1.98-.271,.755-.407,1.558-.407,2.409,0,.865,.135,1.676,.407,2.431,.271,.755,.656,1.415,1.155,1.98,.498,.565,1.104,1.008,1.815,1.331,.711,.322,1.514,.484,2.409,.484s1.694-.162,2.398-.484h0Zm-4.015-1.541c-.462-.235-.847-.558-1.155-.97-.308-.412-.539-.893-.693-1.445-.154-.551-.231-1.15-.231-1.797,0-.632,.077-1.228,.231-1.786,.154-.559,.385-1.048,.693-1.467,.308-.419,.693-.746,1.155-.981s.993-.353,1.595-.353,1.133,.118,1.595,.353c.462,.235,.847,.562,1.155,.981,.308,.419,.539,.908,.693,1.467,.154,.558,.231,1.154,.231,1.786,0,.647-.077,1.246-.231,1.797-.154,.552-.385,1.033-.693,1.445-.308,.412-.693,.735-1.155,.97-.462,.235-.994,.353-1.595,.353s-1.133-.118-1.595-.353h0Zm9.537,1.695h2.046v-7.282c0-.455,.088-.869,.264-1.243,.176-.374,.399-.7,.671-.979,.271-.279,.583-.495,.935-.649,.352-.154,.704-.231,1.056-.231,.616,0,1.107,.202,1.474,.605,.366,.403,.55,.972,.55,1.705v8.074h2.024v-7.282c0-.455,.077-.869,.231-1.243,.154-.374,.355-.7,.605-.979,.249-.279,.542-.495,.88-.649,.337-.154,.696-.231,1.078-.231,.601,0,1.107,.202,1.518,.605,.41,.403,.616,.972,.616,1.705v8.074h2.046v-8.25c0-1.247-.338-2.2-1.012-2.86-.675-.66-1.555-.99-2.64-.99-.719,0-1.401,.18-2.046,.539-.646,.359-1.181,.913-1.606,1.661h-.044c-.25-.733-.642-1.283-1.177-1.65-.536-.367-1.163-.55-1.881-.55-.763,0-1.445,.18-2.046,.539-.602,.359-1.086,.862-1.452,1.507h-.066v-1.76h-2.024v11.814h0Zm33.318-.858c.888-.792,1.397-1.899,1.529-3.322h-2.024c-.073,.88-.377,1.573-.913,2.079-.535,.506-1.265,.759-2.189,.759-.601,0-1.133-.118-1.595-.354-.462-.236-.847-.56-1.155-.972-.308-.413-.539-.896-.693-1.448-.154-.553-.231-1.154-.231-1.802,0-.634,.077-1.23,.231-1.791,.154-.56,.385-1.046,.693-1.459,.308-.412,.693-.737,1.155-.972,.462-.236,.994-.354,1.595-.354,.866,0,1.555,.224,2.068,.671,.514,.448,.844,1.068,.99,1.859h2.046c-.205-1.276-.751-2.284-1.639-3.025-.887-.741-2.042-1.111-3.465-1.111-.88,0-1.675,.161-2.387,.484-.711,.323-1.316,.766-1.815,1.331-.498,.565-.883,1.225-1.155,1.98-.271,.755-.407,1.558-.407,2.409,0,.865,.136,1.676,.407,2.431,.272,.755,.657,1.415,1.155,1.98,.499,.565,1.104,1.008,1.815,1.331,.712,.322,1.507,.484,2.387,.484,1.511,0,2.71-.396,3.597-1.188h0Zm5.621-10.956h-2.024v11.814h2.046v-6.424c0-.557,.092-1.056,.275-1.496,.184-.44,.429-.814,.737-1.122s.668-.546,1.078-.715c.411-.169,.844-.253,1.298-.253,.176,0,.323,.007,.44,.022,.118,.015,.25,.044,.396,.088h.066v-1.936c-.117-.044-.231-.077-.341-.099-.11-.022-.245-.033-.407-.033-.792,0-1.481,.209-2.068,.627-.586,.418-1.063,.972-1.43,1.661h-.066v-2.134h0Zm8.811,15.807c.316-.081,.609-.235,.88-.462,.272-.228,.528-.539,.77-.935,.242-.396,.488-.902,.737-1.518l5.016-12.892h-2.134l-2.354,6.556c-.117,.337-.234,.689-.352,1.056-.117,.367-.227,.711-.33,1.034-.117,.381-.227,.748-.33,1.1h-.044c-.102-.352-.205-.719-.308-1.1-.102-.323-.212-.667-.33-1.034-.117-.367-.234-.719-.352-1.056l-2.442-6.556h-2.222l4.51,11.22c.015,.029,0,.125-.044,.286-.044,.161-.095,.33-.154,.506-.058,.176-.11,.333-.154,.473-.044,.139-.066,.216-.066,.231-.205,.557-.447,.935-.726,1.133-.278,.198-.623,.297-1.034,.297-.249,0-.487-.019-.715-.055-.227-.037-.399-.092-.517-.165h-.088v1.76c.162,.073,.407,.132,.737,.176s.664,.066,1.001,.066c.382,0,.73-.041,1.045-.121h0Zm8.921,.011h2.046v-3.586c0-.455-.003-.847-.011-1.177-.007-.33-.018-.598-.033-.803h.066c.411,.631,.932,1.107,1.562,1.43,.631,.322,1.35,.484,2.156,.484,.792,0,1.507-.147,2.145-.44s1.181-.711,1.628-1.254c.448-.543,.789-1.195,1.023-1.958,.235-.763,.352-1.621,.352-2.574,0-.968-.124-1.837-.374-2.607-.249-.77-.597-1.423-1.045-1.958-.447-.535-.982-.946-1.606-1.232-.623-.286-1.309-.429-2.057-.429-.85,0-1.58,.187-2.189,.561-.608,.374-1.133,.898-1.573,1.573h-.066v-1.848h-2.024v15.818h0Zm3.894-5.698c-.454-.235-.828-.554-1.122-.957-.293-.403-.506-.88-.638-1.43-.132-.55-.198-1.133-.198-1.749,0-.631,.074-1.221,.22-1.771,.147-.55,.371-1.03,.671-1.441,.301-.411,.679-.733,1.133-.968,.455-.235,.998-.352,1.628-.352,.543,0,1.02,.114,1.43,.341,.411,.227,.752,.543,1.023,.946,.272,.403,.473,.884,.605,1.441,.132,.557,.198,1.159,.198,1.804s-.069,1.243-.209,1.793c-.139,.55-.344,1.023-.616,1.419-.271,.396-.612,.708-1.023,.935-.41,.227-.887,.341-1.43,.341-.66,0-1.217-.117-1.672-.352h0Zm8.162-8.514h1.848v7.903c0,.863,.249,1.475,.748,1.833,.499,.359,1.144,.545,1.936,.56,.543,0,1.093-.066,1.65-.198v-1.716h-.066c-.117,.029-.275,.062-.473,.099-.198,.037-.385,.055-.561,.055-.381,0-.678-.077-.891-.231-.213-.153-.319-.442-.319-.866v-7.439h2.442v-1.606h-2.442v-3.718h-2.024v3.718h-1.848v1.606h0Zm15.884,10.054c.704-.323,1.306-.766,1.804-1.331,.499-.565,.88-1.225,1.144-1.98,.264-.755,.396-1.566,.396-2.431,0-.851-.132-1.654-.396-2.409-.264-.755-.645-1.415-1.144-1.98-.498-.565-1.1-1.008-1.804-1.331-.704-.323-1.503-.484-2.398-.484s-1.697,.161-2.409,.484c-.711,.323-1.316,.766-1.815,1.331-.498,.565-.883,1.225-1.155,1.98-.271,.755-.407,1.558-.407,2.409,0,.865,.136,1.676,.407,2.431,.272,.755,.657,1.415,1.155,1.98,.499,.565,1.104,1.008,1.815,1.331,.712,.322,1.515,.484,2.409,.484s1.694-.162,2.398-.484h0Zm-4.015-1.541c-.462-.235-.847-.558-1.155-.97-.308-.412-.539-.893-.693-1.445-.154-.551-.231-1.15-.231-1.797,0-.632,.077-1.228,.231-1.786,.154-.559,.385-1.048,.693-1.467,.308-.419,.693-.746,1.155-.981,.462-.235,.994-.353,1.595-.353s1.133,.118,1.595,.353c.462,.235,.847,.562,1.155,.981,.308,.419,.539,.908,.693,1.467,.154,.558,.231,1.154,.231,1.786,0,.647-.077,1.246-.231,1.797-.154,.552-.385,1.033-.693,1.445-.308,.412-.693,.735-1.155,.97-.462,.235-.993,.353-1.595,.353s-1.133-.118-1.595-.353h0Zm14.663-8.513h1.848v7.903c0,.863,.249,1.475,.748,1.833,.498,.359,1.144,.545,1.936,.56,.542,0,1.092-.066,1.65-.198v-1.716h-.066c-.118,.029-.275,.062-.473,.099-.198,.037-.385,.055-.561,.055-.382,0-.679-.077-.891-.231-.213-.153-.319-.442-.319-.866v-7.439h2.442v-1.606h-2.442v-3.718h-2.024v3.718h-1.848v1.606h0Zm16.863,9.515c.902-.682,1.485-1.573,1.749-2.673h-2.002c-.191,.631-.554,1.126-1.089,1.485-.535,.359-1.214,.539-2.035,.539-.572,0-1.078-.103-1.518-.308-.44-.205-.814-.491-1.122-.858-.308-.367-.55-.799-.726-1.298-.176-.499-.286-1.034-.33-1.606h9.064c0-1.012-.121-1.929-.363-2.75s-.605-1.525-1.089-2.112c-.469-.572-1.041-1.019-1.716-1.342s-1.452-.484-2.332-.484c-.851,0-1.624,.161-2.321,.484-.697,.323-1.291,.766-1.782,1.331-.491,.565-.873,1.225-1.144,1.98-.271,.755-.407,1.558-.407,2.409,0,.865,.128,1.676,.385,2.431,.257,.755,.634,1.415,1.133,1.98,.499,.565,1.104,1.008,1.815,1.331,.711,.322,1.522,.484,2.431,.484,1.364,0,2.497-.341,3.399-1.023h0Zm-1.122-8.85c.565,.634,.876,1.52,.935,2.657h-6.842c.059-.525,.176-1.006,.352-1.443,.176-.438,.411-.817,.704-1.137,.293-.321,.645-.573,1.056-.755,.411-.182,.88-.273,1.408-.273,1.027,0,1.822,.317,2.387,.951h0Zm14.014,8.685c.887-.792,1.397-1.899,1.529-3.322h-2.024c-.073,.88-.378,1.573-.913,2.079-.535,.506-1.265,.759-2.189,.759-.601,0-1.133-.118-1.595-.354-.462-.236-.847-.56-1.155-.972-.308-.413-.539-.896-.693-1.448-.154-.553-.231-1.154-.231-1.802,0-.634,.077-1.23,.231-1.791,.154-.56,.385-1.046,.693-1.459,.308-.412,.693-.737,1.155-.972,.462-.236,.994-.354,1.595-.354,.865,0,1.555,.224,2.068,.671,.513,.448,.843,1.068,.99,1.859h2.046c-.205-1.276-.752-2.284-1.639-3.025-.887-.741-2.042-1.111-3.465-1.111-.88,0-1.676,.161-2.387,.484s-1.316,.766-1.815,1.331c-.499,.565-.884,1.225-1.155,1.98-.271,.755-.407,1.558-.407,2.409,0,.865,.136,1.676,.407,2.431,.271,.755,.656,1.415,1.155,1.98,.499,.565,1.104,1.008,1.815,1.331,.711,.322,1.507,.484,2.387,.484,1.511,0,2.71-.396,3.597-1.188h0Zm5.643-11.22v-4.29h-2.046v16.368h2.046v-7.194c0-.469,.077-.902,.231-1.298,.154-.396,.37-.733,.649-1.012s.612-.495,1.001-.649c.389-.154,.81-.231,1.265-.231,.807,0,1.441,.205,1.903,.616,.462,.411,.693,.997,.693,1.76v8.008h2.024v-8.25c0-1.247-.352-2.2-1.056-2.86-.704-.66-1.679-.99-2.926-.99-.865,0-1.602,.176-2.211,.528-.609,.352-1.133,.843-1.573,1.474h-.066c.015-.293,.029-.623,.044-.99s.022-.697,.022-.99h0Zm12.54,.264h-2.024v11.814h2.046v-7.194c0-.469,.077-.902,.231-1.298,.154-.396,.37-.733,.649-1.012,.278-.279,.612-.495,1.001-.649,.388-.154,.81-.231,1.265-.231,.806,0,1.441,.205,1.903,.616,.462,.411,.693,.997,.693,1.76v8.008h2.024v-8.25c0-1.247-.352-2.2-1.056-2.86-.704-.66-1.679-.99-2.926-.99-.866,0-1.599,.176-2.2,.528-.602,.352-1.115,.829-1.54,1.43h-.066v-1.672h0Zm18.084,11.66c.704-.323,1.305-.766,1.804-1.331,.498-.565,.88-1.225,1.144-1.98,.264-.755,.396-1.566,.396-2.431,0-.851-.132-1.654-.396-2.409-.264-.755-.646-1.415-1.144-1.98-.499-.565-1.1-1.008-1.804-1.331-.704-.323-1.504-.484-2.398-.484s-1.698,.161-2.409,.484c-.712,.323-1.317,.766-1.815,1.331-.499,.565-.884,1.225-1.155,1.98-.272,.755-.407,1.558-.407,2.409,0,.865,.135,1.676,.407,2.431,.271,.755,.656,1.415,1.155,1.98,.498,.565,1.103,1.008,1.815,1.331,.711,.322,1.514,.484,2.409,.484s1.694-.162,2.398-.484h0Zm-4.015-1.541c-.462-.235-.847-.558-1.155-.97-.308-.412-.539-.893-.693-1.445-.154-.551-.231-1.15-.231-1.797,0-.632,.077-1.228,.231-1.786,.154-.559,.385-1.048,.693-1.467,.308-.419,.693-.746,1.155-.981,.462-.235,.993-.353,1.595-.353s1.133,.118,1.595,.353,.847,.562,1.155,.981c.308,.419,.539,.908,.693,1.467,.154,.558,.231,1.154,.231,1.786,0,.647-.077,1.246-.231,1.797-.154,.552-.385,1.033-.693,1.445-.308,.412-.693,.735-1.155,.97-.462,.235-.994,.353-1.595,.353s-1.133-.118-1.595-.353h0Zm9.603,1.695h2.046v-16.368h-2.046v16.368h0Zm12.474-.154c.704-.323,1.305-.766,1.804-1.331,.498-.565,.88-1.225,1.144-1.98,.264-.755,.396-1.566,.396-2.431,0-.851-.132-1.654-.396-2.409-.264-.755-.646-1.415-1.144-1.98-.499-.565-1.1-1.008-1.804-1.331-.704-.323-1.504-.484-2.398-.484s-1.698,.161-2.409,.484c-.712,.323-1.317,.766-1.815,1.331-.499,.565-.884,1.225-1.155,1.98-.272,.755-.407,1.558-.407,2.409,0,.865,.135,1.676,.407,2.431,.271,.755,.656,1.415,1.155,1.98,.498,.565,1.103,1.008,1.815,1.331,.711,.322,1.514,.484,2.409,.484s1.694-.162,2.398-.484h0Zm-4.015-1.541c-.462-.235-.847-.558-1.155-.97-.308-.412-.539-.893-.693-1.445-.154-.551-.231-1.15-.231-1.797,0-.632,.077-1.228,.231-1.786,.154-.559,.385-1.048,.693-1.467,.308-.419,.693-.746,1.155-.981,.462-.235,.993-.353,1.595-.353s1.133,.118,1.595,.353,.847,.562,1.155,.981c.308,.419,.539,.908,.693,1.467,.154,.558,.231,1.154,.231,1.786,0,.647-.077,1.246-.231,1.797-.154,.552-.385,1.033-.693,1.445-.308,.412-.693,.735-1.155,.97-.462,.235-.994,.353-1.595,.353s-1.133-.118-1.595-.353h0Zm16.687,5.556c.645-.184,1.202-.466,1.672-.847,.454-.382,.806-.862,1.056-1.441,.249-.58,.374-1.265,.374-2.057v-11.33h-2.024v1.562h-.044c-.382-.601-.862-1.06-1.441-1.375-.58-.315-1.295-.473-2.145-.473-.69,0-1.342,.132-1.958,.396-.616,.264-1.155,.642-1.617,1.133-.462,.491-.825,1.096-1.089,1.815-.264,.719-.396,1.533-.396,2.442,0,.865,.128,1.65,.385,2.354,.256,.704,.612,1.313,1.067,1.826,.454,.513,1.001,.909,1.639,1.188,.638,.279,1.331,.418,2.079,.418,.836,0,1.529-.169,2.079-.506s1.03-.799,1.441-1.386h.044c-.015,.191-.026,.436-.033,.737-.008,.301-.011,.62-.011,.957v.329c0,1.005-.283,1.744-.847,2.217-.565,.473-1.375,.71-2.431,.71-.88,0-1.599-.134-2.156-.402-.558-.268-.88-.706-.968-1.314h-1.914c.117,1.056,.605,1.873,1.463,2.453,.858,.579,2.064,.869,3.619,.869,.792,0,1.51-.092,2.156-.275h0Zm-4.686-7.161c-.558-.733-.836-1.731-.836-2.992,0-1.247,.271-2.244,.814-2.992,.542-.748,1.356-1.122,2.442-1.122,1.188,0,2.064,.356,2.629,1.067,.564,.711,.847,1.69,.847,2.937,0,.601-.059,1.159-.176,1.672-.118,.513-.312,.957-.583,1.331-.272,.374-.627,.667-1.067,.88-.44,.213-.983,.319-1.628,.319-1.071,0-1.885-.367-2.442-1.1h0Zm13.122,7.293c.315-.081,.609-.235,.88-.462,.271-.228,.528-.539,.77-.935,.242-.396,.488-.902,.737-1.518l5.016-12.892h-2.134l-2.354,6.556c-.117,.337-.235,.689-.352,1.056-.117,.367-.227,.711-.33,1.034-.117,.381-.227,.748-.33,1.1h-.044c-.103-.352-.205-.719-.308-1.1-.103-.323-.213-.667-.33-1.034s-.235-.719-.352-1.056l-2.442-6.556h-2.222l4.51,11.22c.015,.029,0,.125-.044,.286-.044,.161-.095,.33-.154,.506-.059,.176-.11,.333-.154,.473-.044,.139-.066,.216-.066,.231-.205,.557-.447,.935-.726,1.133-.279,.198-.623,.297-1.034,.297-.249,0-.488-.019-.715-.055-.227-.037-.4-.092-.517-.165h-.088v1.76c.161,.073,.407,.132,.737,.176,.33,.044,.664,.066,1.001,.066,.381,0,.73-.041,1.045-.121h0Zm7.381-3.993h2.376v-2.42h-2.376v2.42h0Z" style="fill:#fff;"/><path d="M64.597,351.878c.887-.792,1.397-1.899,1.529-3.322h-2.024c-.074,.88-.378,1.573-.913,2.079-.536,.506-1.265,.759-2.189,.759-.602,0-1.133-.118-1.595-.354-.462-.236-.847-.56-1.155-.972-.308-.413-.539-.896-.693-1.448-.154-.553-.231-1.154-.231-1.802,0-.634,.077-1.23,.231-1.791,.154-.56,.385-1.046,.693-1.459,.308-.412,.693-.737,1.155-.972,.462-.236,.993-.354,1.595-.354,.865,0,1.554,.224,2.068,.671,.513,.448,.843,1.068,.99,1.859h2.046c-.206-1.276-.752-2.284-1.639-3.025-.888-.741-2.043-1.111-3.465-1.111-.88,0-1.676,.161-2.387,.484-.712,.323-1.317,.766-1.815,1.331-.499,.565-.884,1.225-1.155,1.98-.272,.755-.407,1.558-.407,2.409,0,.865,.135,1.676,.407,2.431,.271,.755,.656,1.415,1.155,1.98,.498,.565,1.103,1.008,1.815,1.331,.711,.322,1.507,.484,2.387,.484,1.51,0,2.709-.396,3.597-1.188h0Zm5.621-10.956h-2.024v11.814h2.046v-6.424c0-.557,.092-1.056,.275-1.496,.183-.44,.429-.814,.737-1.122,.308-.308,.667-.546,1.078-.715,.411-.169,.843-.253,1.298-.253,.176,0,.322,.007,.44,.022,.117,.015,.249,.044,.396,.088h.066v-1.936c-.117-.044-.231-.077-.341-.099-.11-.022-.246-.033-.407-.033-.792,0-1.482,.209-2.068,.627-.587,.418-1.064,.972-1.43,1.661h-.066v-2.134h0Zm8.811,15.807c.315-.081,.608-.235,.88-.462,.271-.228,.528-.539,.77-.935,.242-.396,.487-.902,.737-1.518l5.016-12.892h-2.134l-2.354,6.556c-.118,.337-.235,.689-.352,1.056-.118,.367-.228,.711-.33,1.034-.118,.381-.228,.748-.33,1.1h-.044c-.103-.352-.206-.719-.308-1.1-.103-.323-.213-.667-.33-1.034-.118-.367-.235-.719-.352-1.056l-2.442-6.556h-2.222l4.51,11.22c.014,.029,0,.125-.044,.286-.044,.161-.096,.33-.154,.506-.059,.176-.11,.333-.154,.473-.044,.139-.066,.216-.066,.231-.206,.557-.448,.935-.726,1.133-.279,.198-.624,.297-1.034,.297-.25,0-.488-.019-.715-.055-.228-.037-.4-.092-.517-.165h-.088v1.76c.161,.073,.407,.132,.737,.176s.663,.066,1.001,.066c.381,0,.729-.041,1.045-.121h0Zm8.921,.011h2.046v-3.586c0-.455-.004-.847-.011-1.177-.008-.33-.019-.598-.033-.803h.066c.41,.631,.931,1.107,1.562,1.43,.63,.322,1.349,.484,2.156,.484,.792,0,1.507-.147,2.145-.44s1.18-.711,1.628-1.254c.447-.543,.788-1.195,1.023-1.958,.234-.763,.352-1.621,.352-2.574,0-.968-.125-1.837-.374-2.607-.25-.77-.598-1.423-1.045-1.958-.448-.535-.983-.946-1.606-1.232-.624-.286-1.309-.429-2.057-.429-.851,0-1.581,.187-2.189,.561-.609,.374-1.133,.898-1.573,1.573h-.066v-1.848h-2.024v15.818h0Zm3.894-5.698c-.455-.235-.829-.554-1.122-.957-.294-.403-.506-.88-.638-1.43-.132-.55-.198-1.133-.198-1.749,0-.631,.073-1.221,.22-1.771,.146-.55,.37-1.03,.671-1.441,.3-.411,.678-.733,1.133-.968,.454-.235,.997-.352,1.628-.352,.542,0,1.019,.114,1.43,.341,.41,.227,.751,.543,1.023,.946,.271,.403,.473,.884,.605,1.441,.132,.557,.198,1.159,.198,1.804s-.07,1.243-.209,1.793c-.14,.55-.345,1.023-.616,1.419-.272,.396-.613,.708-1.023,.935-.411,.227-.888,.341-1.43,.341-.66,0-1.218-.117-1.672-.352h0Zm8.162-8.514h1.848v7.903c0,.863,.249,1.475,.748,1.833,.499,.359,1.144,.545,1.936,.56,.543,0,1.093-.066,1.65-.198v-1.716h-.066c-.117,.029-.275,.062-.473,.099-.198,.037-.385,.055-.561,.055-.381,0-.678-.077-.891-.231-.213-.153-.319-.442-.319-.866v-7.439h2.442v-1.606h-2.442v-3.718h-2.024v3.718h-1.848v1.606h0Zm15.884,10.054c.704-.323,1.305-.766,1.804-1.331,.499-.565,.88-1.225,1.144-1.98,.264-.755,.396-1.566,.396-2.431,0-.851-.132-1.654-.396-2.409-.264-.755-.645-1.415-1.144-1.98-.499-.565-1.1-1.008-1.804-1.331-.704-.323-1.503-.484-2.398-.484s-1.698,.161-2.409,.484c-.711,.323-1.316,.766-1.815,1.331-.499,.565-.884,1.225-1.155,1.98-.271,.755-.407,1.558-.407,2.409,0,.865,.136,1.676,.407,2.431,.271,.755,.656,1.415,1.155,1.98,.499,.565,1.104,1.008,1.815,1.331,.711,.322,1.514,.484,2.409,.484s1.694-.162,2.398-.484h0Zm-4.015-1.541c-.462-.235-.847-.558-1.155-.97-.308-.412-.539-.893-.693-1.445-.154-.551-.231-1.15-.231-1.797,0-.632,.077-1.228,.231-1.786,.154-.559,.385-1.048,.693-1.467,.308-.419,.693-.746,1.155-.981,.462-.235,.994-.353,1.595-.353s1.133,.118,1.595,.353,.847,.562,1.155,.981c.308,.419,.539,.908,.693,1.467,.154,.558,.231,1.154,.231,1.786,0,.647-.077,1.246-.231,1.797-.154,.552-.385,1.033-.693,1.445-.308,.412-.693,.735-1.155,.97s-.994,.353-1.595,.353-1.133-.118-1.595-.353h0Zm14.663-8.513h1.848v7.903c0,.863,.249,1.475,.748,1.833,.498,.359,1.144,.545,1.936,.56,.542,0,1.092-.066,1.65-.198v-1.716h-.066c-.118,.029-.275,.062-.473,.099-.198,.037-.385,.055-.561,.055-.382,0-.679-.077-.891-.231-.213-.153-.319-.442-.319-.866v-7.439h2.442v-1.606h-2.442v-3.718h-2.024v3.718h-1.848v1.606h0Zm15.884,10.054c.704-.323,1.305-.766,1.804-1.331,.499-.565,.88-1.225,1.144-1.98,.264-.755,.396-1.566,.396-2.431,0-.851-.132-1.654-.396-2.409-.264-.755-.645-1.415-1.144-1.98-.499-.565-1.1-1.008-1.804-1.331-.704-.323-1.503-.484-2.398-.484s-1.698,.161-2.409,.484-1.316,.766-1.815,1.331c-.499,.565-.884,1.225-1.155,1.98-.271,.755-.407,1.558-.407,2.409,0,.865,.136,1.676,.407,2.431,.271,.755,.656,1.415,1.155,1.98,.499,.565,1.104,1.008,1.815,1.331,.711,.322,1.514,.484,2.409,.484s1.694-.162,2.398-.484h0Zm-4.015-1.541c-.462-.235-.847-.558-1.155-.97-.308-.412-.539-.893-.693-1.445-.154-.551-.231-1.15-.231-1.797,0-.632,.077-1.228,.231-1.786,.154-.559,.385-1.048,.693-1.467,.308-.419,.693-.746,1.155-.981,.462-.235,.994-.353,1.595-.353s1.133,.118,1.595,.353,.847,.562,1.155,.981c.308,.419,.539,.908,.693,1.467,.154,.558,.231,1.154,.231,1.786,0,.647-.077,1.246-.231,1.797-.154,.552-.385,1.033-.693,1.445-.308,.412-.693,.735-1.155,.97s-.994,.353-1.595,.353-1.133-.118-1.595-.353h0Zm17.303,1.695h2.398l-5.038-7.568,4.51-4.246h-2.552l-5.126,5.038c.029-.293,.051-.62,.066-.979,.014-.359,.022-.642,.022-.847v-7.766h-2.046v16.368h2.046v-4.642l1.672-1.584,4.048,6.226h0Zm12.023-.693c.902-.682,1.485-1.573,1.749-2.673h-2.002c-.191,.631-.554,1.126-1.089,1.485-.536,.359-1.214,.539-2.035,.539-.572,0-1.078-.103-1.518-.308s-.814-.491-1.122-.858c-.308-.367-.55-.799-.726-1.298-.176-.499-.286-1.034-.33-1.606h9.064c0-1.012-.121-1.929-.363-2.75-.242-.821-.605-1.525-1.089-2.112-.47-.572-1.042-1.019-1.716-1.342-.675-.323-1.452-.484-2.332-.484-.851,0-1.625,.161-2.321,.484-.697,.323-1.291,.766-1.782,1.331-.492,.565-.873,1.225-1.144,1.98-.272,.755-.407,1.558-.407,2.409,0,.865,.128,1.676,.385,2.431,.256,.755,.634,1.415,1.133,1.98,.498,.565,1.103,1.008,1.815,1.331,.711,.322,1.521,.484,2.431,.484,1.364,0,2.497-.341,3.399-1.023h0Zm-1.122-8.85c.564,.634,.876,1.52,.935,2.657h-6.842c.058-.525,.176-1.006,.352-1.443,.176-.438,.41-.817,.704-1.137,.293-.321,.645-.573,1.056-.755,.41-.182,.88-.273,1.408-.273,1.026,0,1.822,.317,2.387,.951h0Zm7.315-2.271h-2.024v11.814h2.046v-7.194c0-.469,.077-.902,.231-1.298,.154-.396,.37-.733,.649-1.012,.278-.279,.612-.495,1.001-.649,.388-.154,.81-.231,1.265-.231,.806,0,1.441,.205,1.903,.616,.462,.411,.693,.997,.693,1.76v8.008h2.024v-8.25c0-1.247-.352-2.2-1.056-2.86-.704-.66-1.68-.99-2.926-.99-.866,0-1.599,.176-2.2,.528-.602,.352-1.115,.829-1.54,1.43h-.066v-1.672h0Zm16.984,11.935c.586-.154,1.089-.381,1.507-.682s.744-.678,.979-1.133c.234-.455,.352-.983,.352-1.584,0-.689-.118-1.25-.352-1.683-.235-.433-.554-.781-.957-1.045-.404-.264-.869-.469-1.397-.616-.528-.147-1.086-.279-1.672-.396-.499-.103-.943-.198-1.331-.286-.389-.088-.719-.198-.99-.33-.272-.132-.477-.297-.616-.495-.14-.198-.209-.451-.209-.759,0-.455,.179-.843,.539-1.166,.359-.323,.942-.484,1.749-.484,.85,0,1.492,.161,1.925,.484,.432,.323,.693,.792,.781,1.408h2.046c-.132-1.027-.58-1.855-1.342-2.486-.763-.631-1.885-.946-3.366-.946-1.379,0-2.446,.297-3.201,.891-.756,.594-1.133,1.397-1.133,2.409,0,.645,.121,1.173,.363,1.584,.242,.411,.564,.741,.968,.99,.403,.249,.872,.447,1.408,.594,.535,.147,1.089,.279,1.661,.396,1.041,.207,1.815,.441,2.321,.701,.506,.259,.759,.715,.759,1.368,0,.534-.209,.983-.627,1.346-.418,.363-1.097,.545-2.035,.545-.426,0-.822-.041-1.188-.124-.367-.082-.693-.212-.979-.392-.286-.179-.525-.418-.715-.717-.191-.299-.316-.665-.374-1.099h-2.068c.088,1.203,.579,2.16,1.474,2.871,.894,.711,2.163,1.067,3.806,1.067,.689,0,1.327-.077,1.914-.231h0Zm18.039,3.74c.645-.184,1.203-.466,1.672-.847,.455-.382,.807-.862,1.056-1.441,.249-.58,.374-1.265,.374-2.057v-11.33h-2.024v1.562h-.044c-.381-.601-.862-1.06-1.441-1.375-.579-.315-1.294-.473-2.145-.473-.689,0-1.342,.132-1.958,.396-.616,.264-1.155,.642-1.617,1.133-.462,.491-.825,1.096-1.089,1.815-.264,.719-.396,1.533-.396,2.442,0,.865,.128,1.65,.385,2.354,.257,.704,.612,1.313,1.067,1.826,.455,.513,1.001,.909,1.639,1.188,.638,.279,1.331,.418,2.079,.418,.836,0,1.529-.169,2.079-.506s1.03-.799,1.441-1.386h.044c-.015,.191-.026,.436-.033,.737-.007,.301-.011,.62-.011,.957v.329c0,1.005-.282,1.744-.847,2.217-.565,.473-1.375,.71-2.431,.71-.88,0-1.599-.134-2.156-.402-.557-.268-.88-.706-.968-1.314h-1.914c.117,1.056,.605,1.873,1.463,2.453,.858,.579,2.064,.869,3.619,.869,.792,0,1.511-.092,2.156-.275h0Zm-4.686-7.161c-.557-.733-.836-1.731-.836-2.992,0-1.247,.271-2.244,.814-2.992,.543-.748,1.357-1.122,2.442-1.122,1.188,0,2.064,.356,2.629,1.067,.565,.711,.847,1.69,.847,2.937,0,.601-.059,1.159-.176,1.672-.117,.513-.312,.957-.583,1.331-.271,.374-.627,.667-1.067,.88-.44,.213-.983,.319-1.628,.319-1.071,0-1.885-.367-2.442-1.1h0Zm19.151,2.607c.902-.682,1.485-1.573,1.749-2.673h-2.002c-.191,.631-.554,1.126-1.089,1.485-.536,.359-1.214,.539-2.035,.539-.572,0-1.078-.103-1.518-.308s-.814-.491-1.122-.858c-.308-.367-.55-.799-.726-1.298-.176-.499-.286-1.034-.33-1.606h9.064c0-1.012-.121-1.929-.363-2.75-.242-.821-.605-1.525-1.089-2.112-.47-.572-1.042-1.019-1.716-1.342-.675-.323-1.452-.484-2.332-.484-.851,0-1.625,.161-2.321,.484-.697,.323-1.291,.766-1.782,1.331-.492,.565-.873,1.225-1.144,1.98-.272,.755-.407,1.558-.407,2.409,0,.865,.128,1.676,.385,2.431,.256,.755,.634,1.415,1.133,1.98,.498,.565,1.103,1.008,1.815,1.331,.711,.322,1.521,.484,2.431,.484,1.364,0,2.497-.341,3.399-1.023h0Zm-1.122-8.85c.564,.634,.876,1.52,.935,2.657h-6.842c.058-.525,.176-1.006,.352-1.443,.176-.438,.41-.817,.704-1.137,.293-.321,.645-.573,1.056-.755,.41-.182,.88-.273,1.408-.273,1.026,0,1.822,.317,2.387,.951h0Zm4.345-.665h1.848v7.903c0,.863,.249,1.475,.748,1.833,.498,.359,1.144,.545,1.936,.56,.542,0,1.092-.066,1.65-.198v-1.716h-.066c-.118,.029-.275,.062-.473,.099-.198,.037-.385,.055-.561,.055-.382,0-.679-.077-.891-.231-.213-.153-.319-.442-.319-.866v-7.439h2.442v-1.606h-2.442v-3.718h-2.024v3.718h-1.848v1.606h0Zm13.574,0h1.848v7.903c0,.863,.249,1.475,.748,1.833,.498,.359,1.144,.545,1.936,.56,.542,0,1.092-.066,1.65-.198v-1.716h-.066c-.118,.029-.275,.062-.473,.099-.198,.037-.385,.055-.561,.055-.382,0-.679-.077-.891-.231-.213-.153-.319-.442-.319-.866v-7.439h2.442v-1.606h-2.442v-3.718h-2.024v3.718h-1.848v1.606h0Zm10.494-1.87v-4.29h-2.046v16.368h2.046v-7.194c0-.469,.077-.902,.231-1.298,.154-.396,.37-.733,.649-1.012,.278-.279,.612-.495,1.001-.649,.388-.154,.81-.231,1.265-.231,.806,0,1.441,.205,1.903,.616,.462,.411,.693,.997,.693,1.76v8.008h2.024v-8.25c0-1.247-.352-2.2-1.056-2.86-.704-.66-1.68-.99-2.926-.99-.866,0-1.603,.176-2.211,.528-.609,.352-1.133,.843-1.573,1.474h-.066c.014-.293,.029-.623,.044-.99,.014-.367,.022-.697,.022-.99h0Zm19.041,11.385c.902-.682,1.485-1.573,1.749-2.673h-2.002c-.191,.631-.554,1.126-1.089,1.485-.536,.359-1.214,.539-2.035,.539-.572,0-1.078-.103-1.518-.308-.44-.205-.814-.491-1.122-.858-.308-.367-.55-.799-.726-1.298-.176-.499-.286-1.034-.33-1.606h9.064c0-1.012-.121-1.929-.363-2.75-.242-.821-.605-1.525-1.089-2.112-.47-.572-1.042-1.019-1.716-1.342-.675-.323-1.452-.484-2.332-.484-.851,0-1.625,.161-2.321,.484-.697,.323-1.291,.766-1.782,1.331-.492,.565-.873,1.225-1.144,1.98-.272,.755-.407,1.558-.407,2.409,0,.865,.128,1.676,.385,2.431,.256,.755,.634,1.415,1.133,1.98,.498,.565,1.103,1.008,1.815,1.331,.711,.322,1.521,.484,2.431,.484,1.364,0,2.497-.341,3.399-1.023h0Zm-1.122-8.85c.564,.634,.876,1.52,.935,2.657h-6.842c.058-.525,.176-1.006,.352-1.443,.176-.438,.41-.817,.704-1.137,.293-.321,.645-.573,1.056-.755,.41-.182,.88-.273,1.408-.273,1.026,0,1.822,.317,2.387,.951h0Zm5.247-4.449h2.134v-2.376h-2.134v2.376h0Zm.044,13.992h2.046v-11.814h-2.046v11.814h0Zm6.885-11.814h-2.024v11.814h2.046v-6.424c0-.557,.092-1.056,.275-1.496,.184-.44,.429-.814,.737-1.122,.308-.308,.668-.546,1.078-.715,.411-.169,.844-.253,1.298-.253,.176,0,.323,.007,.44,.022,.118,.015,.25,.044,.396,.088h.066v-1.936c-.117-.044-.231-.077-.341-.099-.11-.022-.245-.033-.407-.033-.792,0-1.481,.209-2.068,.627-.586,.418-1.063,.972-1.43,1.661h-.066v-2.134h0Zm14.982,11.814h2.266l4.246-11.814h-2.112l-2.112,6.38c-.132,.396-.26,.814-.385,1.254-.125,.44-.238,.851-.341,1.232-.117,.44-.22,.865-.308,1.276h-.044c-.117-.411-.235-.836-.352-1.276-.103-.381-.22-.792-.352-1.232-.132-.44-.257-.858-.374-1.254l-2.068-6.38h-2.178l4.114,11.814h0Zm12.573,.077c.403-.11,.766-.257,1.089-.44,.323-.183,.609-.392,.858-.627,.249-.235,.469-.484,.66-.748h.022c.117,.631,.337,1.096,.66,1.397,.323,.301,.799,.451,1.43,.451,.249,0,.458-.019,.627-.055,.169-.037,.326-.077,.473-.121v-1.43h-.088c-.513,.117-.851,.059-1.012-.176-.161-.235-.242-.587-.242-1.056v-5.522c0-.792-.139-1.452-.418-1.98s-.667-.939-1.166-1.232c-.381-.22-.814-.381-1.298-.484-.484-.103-1.005-.154-1.562-.154-.792,0-1.485,.103-2.079,.308-.594,.205-1.089,.484-1.485,.836-.396,.352-.697,.755-.902,1.21-.205,.455-.315,.931-.33,1.43h1.98c.029-.704,.275-1.261,.737-1.672,.462-.411,1.162-.616,2.101-.616,.821,0,1.448,.183,1.881,.55,.433,.367,.649,.873,.649,1.518,0,.308-.066,.557-.198,.748-.132,.191-.323,.348-.572,.473-.249,.125-.55,.224-.902,.297-.352,.073-.748,.132-1.188,.176-.763,.088-1.456,.205-2.079,.352-.623,.147-1.159,.352-1.606,.616-.447,.264-.792,.616-1.034,1.056-.242,.44-.363,1.005-.363,1.694,0,.572,.103,1.067,.308,1.485,.205,.418,.488,.766,.847,1.045,.359,.279,.785,.488,1.276,.627s1.016,.209,1.573,.209c.499,0,.95-.055,1.353-.165h0Zm-1.716-1.408c-.286-.051-.539-.15-.759-.297-.22-.147-.396-.341-.528-.583-.132-.242-.198-.554-.198-.935,0-.411,.077-.744,.231-1.001,.154-.257,.37-.469,.649-.638,.279-.169,.616-.301,1.012-.396,.396-.095,.836-.187,1.32-.275,.484-.088,.964-.202,1.441-.341,.477-.139,.862-.304,1.155-.495v1.936c0,.337-.07,.689-.209,1.056s-.352,.7-.638,1.001c-.286,.301-.645,.55-1.078,.748-.433,.198-.942,.297-1.529,.297-.293,0-.583-.026-.869-.077h0Zm9.273,1.331h2.046v-16.368h-2.046v16.368h0Zm14.498,0v-11.814h-2.046v7.194c0,.455-.07,.88-.209,1.276-.14,.396-.338,.737-.594,1.023-.257,.286-.569,.51-.935,.671-.367,.161-.778,.242-1.232,.242-.822,0-1.456-.209-1.903-.627-.448-.418-.671-1.001-.671-1.749v-8.03h-2.046v8.14c0,1.247,.359,2.215,1.078,2.904,.718,.689,1.694,1.034,2.926,1.034,.85,0,1.551-.173,2.101-.517,.55-.345,1.037-.81,1.463-1.397h.044v1.65h2.024Zm11.363-.693c.902-.682,1.485-1.573,1.749-2.673h-2.002c-.191,.631-.554,1.126-1.089,1.485-.536,.359-1.214,.539-2.035,.539-.572,0-1.078-.103-1.518-.308-.44-.205-.814-.491-1.122-.858-.308-.367-.55-.799-.726-1.298-.176-.499-.286-1.034-.33-1.606h9.064c0-1.012-.121-1.929-.363-2.75-.242-.821-.605-1.525-1.089-2.112-.47-.572-1.042-1.019-1.716-1.342-.675-.323-1.452-.484-2.332-.484-.851,0-1.625,.161-2.321,.484-.697,.323-1.291,.766-1.782,1.331-.492,.565-.873,1.225-1.144,1.98-.272,.755-.407,1.558-.407,2.409,0,.865,.128,1.676,.385,2.431,.256,.755,.634,1.415,1.133,1.98,.498,.565,1.103,1.008,1.815,1.331,.711,.322,1.521,.484,2.431,.484,1.364,0,2.497-.341,3.399-1.023h0Zm-1.122-8.85c.564,.634,.876,1.52,.935,2.657h-6.842c.058-.525,.176-1.006,.352-1.443,.176-.438,.41-.817,.704-1.137,.293-.321,.645-.573,1.056-.755,.41-.182,.88-.273,1.408-.273,1.026,0,1.822,.317,2.387,.951h0Z" style="fill:#fff;"/><path d="M186.762,208.813c.403-.11,.766-.257,1.089-.44,.323-.183,.609-.392,.858-.627,.249-.235,.469-.484,.66-.748h.022c.117,.631,.337,1.096,.66,1.397,.323,.301,.799,.451,1.43,.451,.249,0,.458-.019,.627-.055,.169-.037,.326-.077,.473-.121v-1.43h-.088c-.513,.117-.851,.059-1.012-.176-.161-.235-.242-.587-.242-1.056v-5.522c0-.792-.139-1.452-.418-1.98-.279-.528-.667-.939-1.166-1.232-.381-.22-.814-.381-1.298-.484-.484-.103-1.005-.154-1.562-.154-.792,0-1.485,.103-2.079,.308-.594,.205-1.089,.484-1.485,.836s-.697,.755-.902,1.21c-.205,.455-.315,.931-.33,1.43h1.98c.029-.704,.275-1.261,.737-1.672,.462-.411,1.162-.616,2.101-.616,.821,0,1.448,.183,1.881,.55,.433,.367,.649,.873,.649,1.518,0,.308-.066,.557-.198,.748-.132,.191-.323,.348-.572,.473-.249,.125-.55,.224-.902,.297-.352,.073-.748,.132-1.188,.176-.763,.088-1.456,.205-2.079,.352-.623,.147-1.159,.352-1.606,.616-.447,.264-.792,.616-1.034,1.056s-.363,1.005-.363,1.694c0,.572,.103,1.067,.308,1.485,.205,.418,.488,.766,.847,1.045,.359,.279,.785,.488,1.276,.627,.491,.139,1.016,.209,1.573,.209,.499,0,.95-.055,1.353-.165h0Zm-1.716-1.408c-.286-.051-.539-.15-.759-.297-.22-.147-.396-.341-.528-.583-.132-.242-.198-.554-.198-.935,0-.411,.077-.744,.231-1.001,.154-.257,.37-.469,.649-.638,.279-.169,.616-.301,1.012-.396,.396-.095,.836-.187,1.32-.275,.484-.088,.964-.202,1.441-.341,.477-.139,.862-.304,1.155-.495v1.936c0,.337-.07,.689-.209,1.056-.139,.367-.352,.7-.638,1.001-.286,.301-.645,.55-1.078,.748-.433,.198-.942,.297-1.529,.297-.293,0-.583-.026-.869-.077h0Zm11.231-10.483h-2.024v11.814h2.046v-7.194c0-.469,.077-.902,.231-1.298,.154-.396,.37-.733,.649-1.012,.278-.279,.612-.495,1.001-.649,.388-.154,.81-.231,1.265-.231,.806,0,1.441,.205,1.903,.616,.462,.411,.693,.997,.693,1.76v8.008h2.024v-8.25c0-1.247-.352-2.2-1.056-2.86-.704-.66-1.68-.99-2.926-.99-.866,0-1.599,.176-2.2,.528-.602,.352-1.115,.829-1.54,1.43h-.066v-1.672h0Zm17.281,11.627c.608-.359,1.103-.862,1.485-1.507h.044v1.694h2.024v-16.368h-2.046v4.18c0,.396,.003,.792,.011,1.188,.007,.396,.025,.726,.055,.99h-.044c-.382-.631-.891-1.137-1.529-1.518-.638-.381-1.375-.572-2.211-.572-.734,0-1.416,.143-2.046,.429-.631,.286-1.177,.697-1.639,1.232-.462,.535-.825,1.188-1.089,1.958-.264,.77-.396,1.639-.396,2.607,0,.953,.121,1.815,.363,2.585,.242,.77,.59,1.423,1.045,1.958,.454,.535,1.004,.95,1.65,1.243,.645,.293,1.364,.44,2.156,.44,.836,0,1.558-.18,2.167-.539h0Zm-3.443-1.496c-.411-.227-.752-.543-1.023-.946-.272-.403-.477-.88-.616-1.43-.14-.55-.209-1.148-.209-1.793s.069-1.247,.209-1.804c.139-.557,.344-1.038,.616-1.441,.271-.403,.612-.719,1.023-.946,.41-.227,.887-.341,1.43-.341,.586,0,1.107,.11,1.562,.33,.454,.22,.836,.532,1.144,.935,.308,.403,.539,.884,.693,1.441,.154,.557,.231,1.166,.231,1.826,0,.645-.07,1.243-.209,1.793-.14,.55-.36,1.027-.66,1.43-.301,.403-.679,.719-1.133,.946-.455,.227-.998,.341-1.628,.341-.543,0-1.02-.114-1.43-.341h0Z" style="fill:#fff;"/><path d="M137.219,63.878c.887-.792,1.397-1.899,1.529-3.322h-2.024c-.074,.88-.378,1.573-.913,2.079-.536,.506-1.265,.759-2.189,.759-.602,0-1.133-.118-1.595-.354-.462-.236-.847-.56-1.155-.973-.308-.412-.539-.895-.693-1.448-.154-.553-.231-1.153-.231-1.802,0-.634,.077-1.23,.231-1.791,.154-.56,.385-1.046,.693-1.459,.308-.412,.693-.737,1.155-.973,.462-.236,.993-.354,1.595-.354,.865,0,1.554,.224,2.068,.672,.513,.448,.843,1.067,.99,1.858h2.046c-.206-1.276-.752-2.284-1.639-3.025-.888-.74-2.043-1.111-3.465-1.111-.88,0-1.676,.162-2.387,.484-.712,.323-1.317,.767-1.815,1.331-.499,.565-.884,1.225-1.155,1.98-.272,.756-.407,1.559-.407,2.409,0,.866,.135,1.676,.407,2.431,.271,.756,.656,1.416,1.155,1.98,.498,.565,1.103,1.009,1.815,1.331,.711,.322,1.507,.484,2.387,.484,1.51,0,2.709-.396,3.597-1.188h0Zm5.621-10.956h-2.024v11.814h2.046v-6.424c0-.557,.091-1.056,.275-1.496,.183-.44,.429-.814,.737-1.122,.308-.308,.667-.546,1.078-.715,.41-.168,.843-.253,1.298-.253,.176,0,.322,.008,.44,.022,.117,.015,.249,.044,.396,.088h.066v-1.936c-.118-.044-.231-.077-.341-.099-.11-.022-.246-.033-.407-.033-.792,0-1.482,.209-2.068,.627-.587,.418-1.064,.972-1.43,1.661h-.066v-2.134h0Zm8.81,15.807c.316-.081,.609-.235,.88-.462,.272-.228,.528-.539,.77-.935,.242-.396,.488-.902,.737-1.518l5.016-12.892h-2.134l-2.354,6.556c-.117,.338-.234,.69-.352,1.056-.117,.367-.227,.712-.33,1.034-.117,.382-.227,.748-.33,1.1h-.044c-.102-.352-.205-.718-.308-1.1-.102-.322-.212-.667-.33-1.034-.117-.366-.234-.718-.352-1.056l-2.442-6.556h-2.222l4.51,11.22c.015,.03,0,.125-.044,.286-.044,.162-.095,.33-.154,.506-.058,.176-.11,.333-.154,.473-.044,.139-.066,.216-.066,.231-.205,.557-.447,.935-.726,1.133-.278,.198-.623,.297-1.034,.297-.249,0-.487-.019-.715-.055-.227-.037-.399-.092-.517-.165h-.088v1.76c.162,.073,.407,.132,.737,.176,.33,.044,.664,.066,1.001,.066,.382,0,.73-.041,1.045-.121h0Zm8.921,.011h2.046v-3.586c0-.454-.003-.847-.011-1.177-.007-.33-.018-.597-.033-.803h.066c.411,.631,.932,1.108,1.562,1.43,.631,.322,1.35,.484,2.156,.484,.792,0,1.507-.147,2.145-.44,.638-.293,1.181-.711,1.628-1.254,.448-.542,.789-1.195,1.023-1.958,.235-.762,.352-1.62,.352-2.574,0-.968-.124-1.837-.374-2.607-.249-.77-.597-1.422-1.045-1.958-.447-.535-.982-.946-1.606-1.232-.623-.286-1.309-.429-2.057-.429-.85,0-1.58,.187-2.189,.561-.608,.374-1.133,.899-1.573,1.573h-.066v-1.848h-2.024v15.818h0Zm3.894-5.698c-.454-.234-.828-.553-1.122-.957-.293-.403-.506-.88-.638-1.43-.132-.55-.198-1.133-.198-1.749,0-.63,.074-1.221,.22-1.771,.147-.55,.371-1.03,.671-1.441,.301-.41,.679-.733,1.133-.968,.455-.234,.998-.352,1.628-.352,.543,0,1.02,.114,1.43,.341,.411,.228,.752,.543,1.023,.946,.272,.404,.473,.884,.605,1.441,.132,.558,.198,1.159,.198,1.804s-.069,1.243-.209,1.793c-.139,.55-.344,1.023-.616,1.419-.271,.396-.612,.708-1.023,.935-.41,.228-.887,.341-1.43,.341-.66,0-1.217-.117-1.672-.352h0Zm8.162-8.514h1.848v7.903c0,.864,.25,1.475,.748,1.833,.499,.358,1.144,.545,1.936,.56,.543,0,1.093-.066,1.65-.198v-1.716h-.066c-.117,.03-.275,.063-.473,.099-.198,.037-.385,.055-.561,.055-.381,0-.678-.077-.891-.23-.213-.154-.319-.443-.319-.867v-7.439h2.442v-1.606h-2.442v-3.718h-2.024v3.718h-1.848v1.606h0Zm15.884,10.054c.704-.322,1.306-.766,1.804-1.331,.499-.564,.88-1.224,1.144-1.98,.264-.755,.396-1.565,.396-2.431,0-.85-.132-1.653-.396-2.409-.264-.755-.645-1.415-1.144-1.98-.498-.564-1.1-1.008-1.804-1.331-.704-.322-1.503-.484-2.398-.484s-1.697,.162-2.409,.484c-.711,.323-1.316,.767-1.815,1.331-.498,.565-.883,1.225-1.155,1.98-.271,.756-.407,1.559-.407,2.409,0,.866,.136,1.676,.407,2.431,.272,.756,.657,1.416,1.155,1.98,.499,.565,1.104,1.009,1.815,1.331,.712,.322,1.515,.484,2.409,.484s1.694-.162,2.398-.484h0Zm-4.015-1.541c-.462-.235-.847-.559-1.155-.97-.308-.412-.539-.893-.693-1.444-.154-.551-.231-1.151-.231-1.797,0-.632,.077-1.228,.231-1.786,.154-.559,.385-1.047,.693-1.467,.308-.419,.693-.746,1.155-.981,.462-.235,.994-.353,1.595-.353s1.133,.118,1.595,.353c.462,.235,.847,.562,1.155,.981,.308,.419,.539,.908,.693,1.467,.154,.559,.231,1.154,.231,1.786,0,.647-.077,1.246-.231,1.797-.154,.551-.385,1.033-.693,1.444s-.693,.735-1.155,.97-.993,.353-1.595,.353-1.133-.118-1.595-.353h0Zm14.663-8.513h1.848v7.903c0,.864,.249,1.475,.748,1.833,.499,.358,1.144,.545,1.936,.56,.543,0,1.093-.066,1.65-.198v-1.716h-.066c-.117,.03-.275,.063-.473,.099-.198,.037-.385,.055-.561,.055-.381,0-.678-.077-.891-.23-.213-.154-.319-.443-.319-.867v-7.439h2.442v-1.606h-2.442v-3.718h-2.024v3.718h-1.848v1.606h0Zm15.884,10.054c.704-.322,1.306-.766,1.804-1.331,.499-.564,.88-1.224,1.144-1.98,.264-.755,.396-1.565,.396-2.431,0-.85-.132-1.653-.396-2.409-.264-.755-.645-1.415-1.144-1.98-.498-.564-1.1-1.008-1.804-1.331-.704-.322-1.503-.484-2.398-.484s-1.697,.162-2.409,.484c-.711,.323-1.316,.767-1.815,1.331-.498,.565-.883,1.225-1.155,1.98-.271,.756-.407,1.559-.407,2.409,0,.866,.136,1.676,.407,2.431,.272,.756,.657,1.416,1.155,1.98,.499,.565,1.104,1.009,1.815,1.331,.712,.322,1.515,.484,2.409,.484s1.694-.162,2.398-.484h0Zm-4.015-1.541c-.462-.235-.847-.559-1.155-.97-.308-.412-.539-.893-.693-1.444-.154-.551-.231-1.151-.231-1.797,0-.632,.077-1.228,.231-1.786,.154-.559,.385-1.047,.693-1.467,.308-.419,.693-.746,1.155-.981,.462-.235,.994-.353,1.595-.353s1.133,.118,1.595,.353c.462,.235,.847,.562,1.155,.981,.308,.419,.539,.908,.693,1.467,.154,.559,.231,1.154,.231,1.786,0,.647-.077,1.246-.231,1.797-.154,.551-.385,1.033-.693,1.444s-.693,.735-1.155,.97-.993,.353-1.595,.353-1.133-.118-1.595-.353h0Zm17.303,1.695h2.398l-5.038-7.568,4.51-4.246h-2.552l-5.126,5.038c.029-.293,.051-.619,.066-.979,.015-.359,.022-.641,.022-.847v-7.766h-2.046v16.368h2.046v-4.642l1.672-1.584,4.048,6.226h0Zm12.023-.693c.902-.682,1.485-1.573,1.749-2.673h-2.002c-.191,.631-.554,1.126-1.089,1.485-.536,.36-1.214,.539-2.035,.539-.572,0-1.078-.102-1.518-.308-.44-.205-.814-.491-1.122-.858-.308-.366-.55-.799-.726-1.298-.176-.498-.286-1.034-.33-1.606h9.064c0-1.012-.121-1.928-.363-2.75-.242-.821-.605-1.525-1.089-2.112-.47-.572-1.042-1.019-1.716-1.342-.675-.322-1.452-.484-2.332-.484-.851,0-1.625,.162-2.321,.484-.697,.323-1.291,.767-1.782,1.331-.492,.565-.873,1.225-1.144,1.98-.272,.756-.407,1.559-.407,2.409,0,.866,.128,1.676,.385,2.431,.256,.756,.634,1.416,1.133,1.98,.498,.565,1.103,1.009,1.815,1.331,.711,.322,1.521,.484,2.431,.484,1.364,0,2.497-.341,3.399-1.023h0Zm-1.122-8.85c.564,.634,.876,1.52,.935,2.657h-6.842c.058-.525,.176-1.006,.352-1.443,.176-.437,.41-.816,.704-1.137,.293-.321,.645-.572,1.056-.755,.41-.182,.88-.273,1.408-.273,1.026,0,1.822,.317,2.387,.951h0Zm7.315-2.271h-2.024v11.814h2.046v-7.194c0-.469,.077-.902,.231-1.298,.154-.396,.37-.733,.649-1.012,.278-.278,.612-.495,1.001-.649,.388-.154,.81-.231,1.265-.231,.806,0,1.441,.206,1.903,.616,.462,.411,.693,.998,.693,1.76v8.008h2.024v-8.25c0-1.246-.352-2.2-1.056-2.86-.704-.66-1.68-.99-2.926-.99-.866,0-1.599,.176-2.2,.528-.602,.352-1.115,.829-1.54,1.43h-.066v-1.672h0Zm16.984,11.935c.586-.154,1.089-.381,1.507-.682,.418-.3,.744-.678,.979-1.133,.234-.454,.352-.982,.352-1.584,0-.689-.118-1.25-.352-1.683-.235-.432-.554-.781-.957-1.045-.404-.264-.869-.469-1.397-.616-.528-.146-1.086-.278-1.672-.396-.499-.102-.943-.198-1.331-.286-.389-.088-.719-.198-.99-.33-.272-.132-.477-.297-.616-.495-.14-.198-.209-.451-.209-.759,0-.454,.179-.843,.539-1.166,.359-.322,.942-.484,1.749-.484,.85,0,1.492,.162,1.925,.484,.432,.323,.693,.792,.781,1.408h2.046c-.132-1.026-.58-1.855-1.342-2.486-.763-.63-1.885-.946-3.366-.946-1.379,0-2.446,.297-3.201,.891-.756,.594-1.133,1.397-1.133,2.409,0,.646,.121,1.174,.363,1.584,.242,.411,.564,.741,.968,.99,.403,.25,.872,.448,1.408,.594,.535,.147,1.089,.279,1.661,.396,1.041,.208,1.815,.441,2.321,.701,.506,.259,.759,.716,.759,1.368,0,.534-.209,.983-.627,1.346-.418,.363-1.097,.545-2.035,.545-.426,0-.822-.041-1.188-.123-.367-.082-.693-.213-.979-.392-.286-.18-.525-.418-.715-.717-.191-.299-.316-.665-.374-1.099h-2.068c.088,1.203,.579,2.16,1.474,2.871,.894,.712,2.163,1.067,3.806,1.067,.689,0,1.327-.077,1.914-.231h0Zm4.84,3.289c1.569-.206,2.354-1.269,2.354-3.19v-2.64h-2.376v2.42h1.1v.22c0,.689-.103,1.177-.308,1.463-.206,.286-.462,.48-.77,.583v1.144h0Z" style="fill:#fff;"/><path d="M77.599,39.328c.293-.278,.557-.597,.792-.957,.235-.359,.44-.737,.616-1.133,.176-.396,.311-.803,.407-1.221,.095-.418,.143-.832,.143-1.243h-2.244c-.044,.587-.173,1.141-.385,1.661-.213,.521-.506,.979-.88,1.375-.374,.396-.836,.712-1.386,.946-.55,.235-1.199,.352-1.947,.352-.822,0-1.57-.157-2.244-.473-.675-.315-1.251-.759-1.727-1.331-.477-.572-.844-1.261-1.1-2.068-.257-.806-.385-1.701-.385-2.684,0-.938,.121-1.811,.363-2.618,.242-.806,.594-1.503,1.056-2.09,.462-.586,1.03-1.045,1.705-1.375,.674-.33,1.444-.495,2.31-.495,1.261,0,2.269,.305,3.025,.913,.755,.609,1.228,1.419,1.419,2.431h2.244c-.117-.792-.348-1.514-.693-2.167-.345-.652-.81-1.213-1.397-1.683-.558-.454-1.214-.81-1.969-1.067-.755-.256-1.617-.385-2.585-.385-1.218,0-2.307,.22-3.267,.66-.961,.44-1.775,1.042-2.442,1.804-.667,.763-1.177,1.665-1.529,2.706-.352,1.042-.528,2.164-.528,3.366,0,1.232,.183,2.369,.55,3.41,.367,1.042,.883,1.94,1.551,2.695,.667,.756,1.474,1.346,2.42,1.771,.946,.425,2.005,.638,3.179,.638,2.126,0,3.769-.579,4.928-1.738h0Zm6.358-10.406h-2.024v11.814h2.046v-6.424c0-.557,.091-1.056,.275-1.496,.183-.44,.429-.814,.737-1.122,.308-.308,.667-.546,1.078-.715,.41-.168,.843-.253,1.298-.253,.176,0,.322,.008,.44,.022,.117,.015,.249,.044,.396,.088h.066v-1.936c-.118-.044-.231-.077-.341-.099-.11-.022-.246-.033-.407-.033-.792,0-1.482,.209-2.068,.627-.587,.418-1.064,.972-1.43,1.661h-.066v-2.134h0Zm8.811,15.807c.315-.081,.608-.235,.88-.462,.271-.228,.528-.539,.77-.935,.242-.396,.488-.902,.737-1.518l5.016-12.892h-2.134l-2.354,6.556c-.117,.338-.235,.69-.352,1.056-.118,.367-.228,.712-.33,1.034-.118,.382-.228,.748-.33,1.1h-.044c-.103-.352-.206-.718-.308-1.1-.103-.322-.213-.667-.33-1.034-.118-.366-.235-.718-.352-1.056l-2.442-6.556h-2.222l4.51,11.22c.014,.03,0,.125-.044,.286-.044,.162-.096,.33-.154,.506-.059,.176-.11,.333-.154,.473-.044,.139-.066,.216-.066,.231-.206,.557-.448,.935-.726,1.133-.279,.198-.624,.297-1.034,.297-.25,0-.488-.019-.715-.055-.227-.037-.4-.092-.517-.165h-.088v1.76c.161,.073,.407,.132,.737,.176s.663,.066,1.001,.066c.381,0,.729-.041,1.045-.121h0Zm8.921,.011h2.046v-3.586c0-.454-.004-.847-.011-1.177-.008-.33-.019-.597-.033-.803h.066c.41,.631,.931,1.108,1.562,1.43,.63,.322,1.349,.484,2.156,.484,.792,0,1.507-.147,2.145-.44,.638-.293,1.18-.711,1.628-1.254,.447-.542,.788-1.195,1.023-1.958,.234-.762,.352-1.62,.352-2.574,0-.968-.125-1.837-.374-2.607-.25-.77-.598-1.422-1.045-1.958-.448-.535-.983-.946-1.606-1.232-.624-.286-1.309-.429-2.057-.429-.851,0-1.581,.187-2.189,.561-.609,.374-1.133,.899-1.573,1.573h-.066v-1.848h-2.024v15.818h0Zm3.894-5.698c-.455-.234-.829-.553-1.122-.957-.294-.403-.506-.88-.638-1.43-.132-.55-.198-1.133-.198-1.749,0-.63,.073-1.221,.22-1.771,.146-.55,.37-1.03,.671-1.441,.3-.41,.678-.733,1.133-.968,.454-.234,.997-.352,1.628-.352,.542,0,1.019,.114,1.43,.341,.41,.228,.751,.543,1.023,.946,.271,.404,.473,.884,.605,1.441,.132,.558,.198,1.159,.198,1.804s-.07,1.243-.209,1.793c-.14,.55-.345,1.023-.616,1.419-.272,.396-.613,.708-1.023,.935-.411,.228-.888,.341-1.43,.341-.66,0-1.218-.117-1.672-.352h0Zm8.162-8.514h1.848v7.903c0,.864,.249,1.475,.748,1.833,.498,.358,1.144,.545,1.936,.56,.542,0,1.092-.066,1.65-.198v-1.716h-.066c-.118,.03-.275,.063-.473,.099-.198,.037-.385,.055-.561,.055-.382,0-.679-.077-.891-.23-.213-.154-.319-.443-.319-.867v-7.439h2.442v-1.606h-2.442v-3.718h-2.024v3.718h-1.848v1.606h0Zm15.884,10.054c.704-.322,1.305-.766,1.804-1.331,.498-.564,.88-1.224,1.144-1.98,.264-.755,.396-1.565,.396-2.431,0-.85-.132-1.653-.396-2.409-.264-.755-.646-1.415-1.144-1.98-.499-.564-1.1-1.008-1.804-1.331-.704-.322-1.504-.484-2.398-.484s-1.698,.162-2.409,.484c-.712,.323-1.317,.767-1.815,1.331-.499,.565-.884,1.225-1.155,1.98-.272,.756-.407,1.559-.407,2.409,0,.866,.135,1.676,.407,2.431,.271,.756,.656,1.416,1.155,1.98,.498,.565,1.103,1.009,1.815,1.331,.711,.322,1.514,.484,2.409,.484s1.694-.162,2.398-.484h0Zm-4.015-1.541c-.462-.235-.847-.559-1.155-.97-.308-.412-.539-.893-.693-1.444-.154-.551-.231-1.151-.231-1.798,0-.632,.077-1.227,.231-1.786,.154-.559,.385-1.047,.693-1.467,.308-.419,.693-.746,1.155-.981,.462-.235,.993-.353,1.595-.353s1.133,.118,1.595,.353c.462,.235,.847,.562,1.155,.981,.308,.419,.539,.908,.693,1.467,.154,.559,.231,1.154,.231,1.786,0,.647-.077,1.246-.231,1.798-.154,.551-.385,1.033-.693,1.444s-.693,.735-1.155,.97-.994,.353-1.595,.353-1.133-.118-1.595-.353h0Zm14.663-8.513h1.848v7.903c0,.864,.249,1.475,.748,1.833,.498,.358,1.144,.545,1.936,.56,.542,0,1.092-.066,1.65-.198v-1.716h-.066c-.118,.03-.275,.063-.473,.099-.198,.037-.385,.055-.561,.055-.382,0-.679-.077-.891-.23-.213-.154-.319-.443-.319-.867v-7.439h2.442v-1.606h-2.442v-3.718h-2.024v3.718h-1.848v1.606h0Zm16.863,9.515c.902-.682,1.485-1.573,1.749-2.673h-2.002c-.191,.631-.554,1.126-1.089,1.485-.536,.36-1.214,.539-2.035,.539-.572,0-1.078-.102-1.518-.308-.44-.205-.814-.491-1.122-.858-.308-.366-.55-.799-.726-1.298-.176-.498-.286-1.034-.33-1.606h9.064c0-1.012-.121-1.928-.363-2.75-.242-.821-.605-1.525-1.089-2.112-.47-.572-1.042-1.019-1.716-1.342-.675-.322-1.452-.484-2.332-.484-.851,0-1.625,.162-2.321,.484-.697,.323-1.291,.767-1.782,1.331-.492,.565-.873,1.225-1.144,1.98-.272,.756-.407,1.559-.407,2.409,0,.866,.128,1.676,.385,2.431,.256,.756,.634,1.416,1.133,1.98,.498,.565,1.103,1.009,1.815,1.331,.711,.322,1.521,.484,2.431,.484,1.364,0,2.497-.341,3.399-1.023h0Zm-1.122-8.85c.564,.634,.876,1.52,.935,2.657h-6.842c.058-.525,.176-1.006,.352-1.443,.176-.437,.41-.816,.704-1.137,.293-.321,.645-.572,1.056-.755,.41-.182,.88-.273,1.408-.273,1.026,0,1.822,.317,2.387,.951h0Zm14.014,8.685c.887-.792,1.397-1.899,1.529-3.322h-2.024c-.074,.88-.378,1.573-.913,2.079-.536,.506-1.265,.759-2.189,.759-.602,0-1.133-.118-1.595-.354-.462-.236-.847-.56-1.155-.973-.308-.412-.539-.895-.693-1.448-.154-.553-.231-1.153-.231-1.802,0-.634,.077-1.23,.231-1.791,.154-.56,.385-1.046,.693-1.459,.308-.412,.693-.737,1.155-.973,.462-.236,.993-.354,1.595-.354,.865,0,1.554,.224,2.068,.672,.513,.448,.843,1.067,.99,1.858h2.046c-.206-1.276-.752-2.284-1.639-3.025-.888-.74-2.043-1.111-3.465-1.111-.88,0-1.676,.162-2.387,.484-.712,.323-1.317,.767-1.815,1.331-.499,.565-.884,1.225-1.155,1.98-.272,.756-.407,1.559-.407,2.409,0,.866,.135,1.676,.407,2.431,.271,.756,.656,1.416,1.155,1.98,.498,.565,1.103,1.009,1.815,1.331,.711,.322,1.507,.484,2.387,.484,1.51,0,2.709-.396,3.597-1.188h0Zm5.643-11.22v-4.29h-2.046v16.368h2.046v-7.194c0-.469,.077-.902,.231-1.298,.154-.396,.37-.733,.649-1.012,.278-.278,.612-.495,1.001-.649,.388-.154,.81-.231,1.265-.231,.806,0,1.441,.206,1.903,.616,.462,.411,.693,.998,.693,1.76v8.008h2.024v-8.25c0-1.246-.352-2.2-1.056-2.86-.704-.66-1.68-.99-2.926-.99-.866,0-1.603,.176-2.211,.528-.609,.352-1.133,.844-1.573,1.474h-.066c.014-.293,.029-.623,.044-.99,.014-.366,.022-.696,.022-.99h0Zm12.54,.264h-2.024v11.814h2.046v-7.194c0-.469,.077-.902,.231-1.298,.154-.396,.37-.733,.649-1.012,.278-.278,.612-.495,1.001-.649,.388-.154,.81-.231,1.265-.231,.806,0,1.441,.206,1.903,.616,.462,.411,.693,.998,.693,1.76v8.008h2.024v-8.25c0-1.246-.352-2.2-1.056-2.86-.704-.66-1.68-.99-2.926-.99-.866,0-1.599,.176-2.2,.528-.602,.352-1.115,.829-1.54,1.43h-.066v-1.672h0Zm18.084,11.66c.704-.322,1.305-.766,1.804-1.331,.498-.564,.88-1.224,1.144-1.98,.264-.755,.396-1.565,.396-2.431,0-.85-.132-1.653-.396-2.409-.264-.755-.646-1.415-1.144-1.98-.499-.564-1.1-1.008-1.804-1.331-.704-.322-1.504-.484-2.398-.484s-1.698,.162-2.409,.484c-.712,.323-1.317,.767-1.815,1.331-.499,.565-.884,1.225-1.155,1.98-.272,.756-.407,1.559-.407,2.409,0,.866,.135,1.676,.407,2.431,.271,.756,.656,1.416,1.155,1.98,.498,.565,1.103,1.009,1.815,1.331,.711,.322,1.514,.484,2.409,.484s1.694-.162,2.398-.484h0Zm-4.015-1.541c-.462-.235-.847-.559-1.155-.97-.308-.412-.539-.893-.693-1.444s-.231-1.151-.231-1.798c0-.632,.077-1.227,.231-1.786,.154-.559,.385-1.047,.693-1.467,.308-.419,.693-.746,1.155-.981,.462-.235,.993-.353,1.595-.353s1.133,.118,1.595,.353c.462,.235,.847,.562,1.155,.981,.308,.419,.539,.908,.693,1.467,.154,.559,.231,1.154,.231,1.786,0,.647-.077,1.246-.231,1.798-.154,.551-.385,1.033-.693,1.444s-.693,.735-1.155,.97c-.462,.235-.994,.353-1.595,.353s-1.133-.118-1.595-.353h0Zm9.603,1.695h2.046V24.368h-2.046v16.368h0Zm12.473-.154c.704-.322,1.306-.766,1.804-1.331,.499-.564,.88-1.224,1.144-1.98,.264-.755,.396-1.565,.396-2.431,0-.85-.132-1.653-.396-2.409-.264-.755-.645-1.415-1.144-1.98-.498-.564-1.1-1.008-1.804-1.331-.704-.322-1.503-.484-2.398-.484s-1.697,.162-2.409,.484c-.711,.323-1.316,.767-1.815,1.331-.498,.565-.883,1.225-1.155,1.98-.271,.756-.407,1.559-.407,2.409,0,.866,.136,1.676,.407,2.431,.272,.756,.657,1.416,1.155,1.98,.499,.565,1.104,1.009,1.815,1.331,.712,.322,1.515,.484,2.409,.484s1.694-.162,2.398-.484h0Zm-4.015-1.541c-.462-.235-.847-.559-1.155-.97s-.539-.893-.693-1.444c-.154-.551-.231-1.151-.231-1.798,0-.632,.077-1.227,.231-1.786,.154-.559,.385-1.047,.693-1.467,.308-.419,.693-.746,1.155-.981,.462-.235,.994-.353,1.595-.353s1.133,.118,1.595,.353c.462,.235,.847,.562,1.155,.981,.308,.419,.539,.908,.693,1.467,.154,.559,.231,1.154,.231,1.786,0,.647-.077,1.246-.231,1.798-.154,.551-.385,1.033-.693,1.444-.308,.412-.693,.735-1.155,.97-.462,.235-.993,.353-1.595,.353s-1.133-.118-1.595-.353h0Zm16.687,5.556c.645-.184,1.203-.466,1.672-.847,.455-.382,.807-.862,1.056-1.441,.249-.58,.374-1.265,.374-2.057v-11.33h-2.024v1.562h-.044c-.381-.601-.862-1.059-1.441-1.375-.579-.315-1.294-.473-2.145-.473-.689,0-1.342,.132-1.958,.396-.616,.264-1.155,.642-1.617,1.133-.462,.492-.825,1.097-1.089,1.815-.264,.719-.396,1.533-.396,2.442,0,.866,.128,1.65,.385,2.354,.257,.704,.612,1.313,1.067,1.826,.455,.514,1.001,.91,1.639,1.188,.638,.279,1.331,.418,2.079,.418,.836,0,1.529-.168,2.079-.506,.55-.337,1.03-.799,1.441-1.386h.044c-.015,.191-.026,.437-.033,.737-.007,.301-.011,.62-.011,.957v.329c0,1.005-.282,1.744-.847,2.217-.565,.473-1.375,.71-2.431,.71-.88,0-1.599-.134-2.156-.402-.557-.268-.88-.706-.968-1.314h-1.914c.117,1.056,.605,1.873,1.463,2.453,.858,.579,2.064,.869,3.619,.869,.792,0,1.511-.092,2.156-.275h0Zm-4.686-7.161c-.557-.733-.836-1.73-.836-2.992,0-1.246,.271-2.244,.814-2.992,.543-.748,1.357-1.122,2.442-1.122,1.188,0,2.064,.356,2.629,1.067,.565,.712,.847,1.691,.847,2.937,0,.602-.059,1.159-.176,1.672-.117,.514-.312,.957-.583,1.331-.271,.374-.627,.668-1.067,.88-.44,.213-.983,.319-1.628,.319-1.071,0-1.885-.366-2.442-1.1h0Zm13.123,7.293c.315-.081,.608-.235,.88-.462,.271-.228,.528-.539,.77-.935,.242-.396,.487-.902,.737-1.518l5.016-12.892h-2.134l-2.354,6.556c-.118,.338-.235,.69-.352,1.056-.118,.367-.228,.712-.33,1.034-.118,.382-.228,.748-.33,1.1h-.044c-.103-.352-.206-.718-.308-1.1-.103-.322-.213-.667-.33-1.034-.118-.366-.235-.718-.352-1.056l-2.442-6.556h-2.222l4.51,11.22c.014,.03,0,.125-.044,.286-.044,.162-.096,.33-.154,.506-.059,.176-.11,.333-.154,.473-.044,.139-.066,.216-.066,.231-.206,.557-.448,.935-.726,1.133-.279,.198-.624,.297-1.034,.297-.25,0-.488-.019-.715-.055-.228-.037-.4-.092-.517-.165h-.088v1.76c.161,.073,.407,.132,.737,.176,.33,.044,.663,.066,1.001,.066,.381,0,.729-.041,1.045-.121h0Zm16.797-15.807h-2.024v11.814h2.046v-6.424c0-.557,.091-1.056,.275-1.496,.183-.44,.429-.814,.737-1.122,.308-.308,.667-.546,1.078-.715,.41-.168,.843-.253,1.298-.253,.176,0,.322,.008,.44,.022,.117,.015,.249,.044,.396,.088h.066v-1.936c-.118-.044-.231-.077-.341-.099s-.246-.033-.407-.033c-.792,0-1.482,.209-2.068,.627-.587,.418-1.064,.972-1.43,1.661h-.066v-2.134h0Zm15.884,11.814v-11.814h-2.046v7.194c0,.455-.07,.88-.209,1.276-.14,.396-.338,.737-.594,1.023-.257,.286-.569,.51-.935,.671-.367,.162-.778,.242-1.232,.242-.822,0-1.456-.209-1.903-.627-.448-.418-.671-1.001-.671-1.749v-8.03h-2.046v8.14c0,1.247,.359,2.215,1.078,2.904,.718,.69,1.694,1.034,2.926,1.034,.85,0,1.551-.173,2.101-.517,.55-.344,1.037-.81,1.463-1.397h.044v1.65h2.024Zm4.861-11.814h-2.024v11.814h2.046v-7.194c0-.469,.077-.902,.231-1.298,.154-.396,.371-.733,.649-1.012,.279-.278,.613-.495,1.001-.649,.389-.154,.811-.231,1.266-.231,.806,0,1.44,.206,1.902,.616,.462,.411,.693,.998,.693,1.76v8.008h2.024v-8.25c0-1.246-.352-2.2-1.056-2.86-.704-.66-1.679-.99-2.925-.99-.866,0-1.599,.176-2.201,.528-.601,.352-1.114,.829-1.54,1.43h-.066v-1.672h0Zm16.984,11.935c.587-.154,1.089-.381,1.507-.682,.418-.3,.745-.678,.979-1.133,.235-.454,.352-.982,.352-1.584,0-.689-.117-1.25-.352-1.683-.234-.432-.553-.781-.957-1.045-.403-.264-.869-.469-1.397-.616-.528-.146-1.085-.278-1.672-.396-.498-.102-.942-.198-1.331-.286-.388-.088-.718-.198-.99-.33-.271-.132-.476-.297-.616-.495-.139-.198-.209-.451-.209-.759,0-.454,.18-.843,.539-1.166,.36-.322,.943-.484,1.749-.484,.851,0,1.493,.162,1.925,.484,.433,.323,.693,.792,.781,1.408h2.046c-.132-1.026-.579-1.855-1.342-2.486-.762-.63-1.884-.946-3.366-.946-1.378,0-2.445,.297-3.201,.891-.755,.594-1.133,1.397-1.133,2.409,0,.646,.121,1.174,.363,1.584,.242,.411,.565,.741,.968,.99,.404,.25,.873,.448,1.408,.594,.536,.147,1.089,.279,1.661,.396,1.042,.208,1.815,.441,2.321,.701,.506,.259,.759,.716,.759,1.368,0,.534-.209,.983-.627,1.346-.418,.363-1.096,.545-2.035,.545-.425,0-.821-.041-1.188-.123-.366-.082-.693-.213-.979-.392-.286-.18-.524-.418-.715-.717-.19-.299-.315-.665-.374-1.099h-2.068c.088,1.203,.58,2.16,1.474,2.871,.895,.712,2.164,1.067,3.806,1.067,.69,0,1.328-.077,1.914-.231h0Zm18.436-.275c.704-.322,1.305-.766,1.804-1.331,.498-.564,.88-1.224,1.144-1.98,.264-.755,.396-1.565,.396-2.431,0-.85-.132-1.653-.396-2.409-.264-.755-.646-1.415-1.144-1.98-.499-.564-1.1-1.008-1.804-1.331-.704-.322-1.504-.484-2.398-.484s-1.698,.162-2.409,.484c-.712,.323-1.317,.767-1.815,1.331-.499,.565-.884,1.225-1.155,1.98-.272,.756-.407,1.559-.407,2.409,0,.866,.135,1.676,.407,2.431,.271,.756,.656,1.416,1.155,1.98,.498,.565,1.103,1.009,1.815,1.331,.711,.322,1.514,.484,2.409,.484s1.694-.162,2.398-.484h0Zm-4.015-1.541c-.462-.235-.847-.559-1.155-.97-.308-.412-.539-.893-.693-1.444-.154-.551-.231-1.151-.231-1.798,0-.632,.077-1.227,.231-1.786,.154-.559,.385-1.047,.693-1.467,.308-.419,.693-.746,1.155-.981,.462-.235,.993-.353,1.595-.353s1.133,.118,1.595,.353c.462,.235,.847,.562,1.155,.981,.308,.419,.539,.908,.693,1.467,.154,.559,.231,1.154,.231,1.786,0,.647-.077,1.246-.231,1.798-.154,.551-.385,1.033-.693,1.444s-.693,.735-1.155,.97-.994,.353-1.595,.353-1.133-.118-1.595-.353h0Zm11.561-10.119h-2.024v11.814h2.046v-7.194c0-.469,.077-.902,.231-1.298,.154-.396,.37-.733,.649-1.012,.278-.278,.612-.495,1.001-.649,.388-.154,.81-.231,1.265-.231,.806,0,1.441,.206,1.903,.616,.462,.411,.693,.998,.693,1.76v8.008h2.024v-8.25c0-1.246-.352-2.2-1.056-2.86-.704-.66-1.68-.99-2.926-.99-.866,0-1.599,.176-2.2,.528-.602,.352-1.115,.829-1.54,1.43h-.066v-1.672h0Z" style="fill:#fff;"/></svg>