<?xml version="1.0" encoding="UTF-8"?><svg id="a" xmlns="http://www.w3.org/2000/svg" viewBox="0 0 355.212 349.368"><path d="M342.203,293.369H13.009L177.607,8.279l164.596,285.09Zm-320.533-5H333.543L177.607,18.279,21.67,288.369Z"/><path d="M85.334,340.602h8.169c1.605,0,3.028-.254,4.271-.76,1.243-.506,2.279-1.218,3.11-2.136,.831-.917,1.462-2.025,1.892-3.325,.43-1.3,.645-2.742,.645-4.328,0-1.624-.215-3.096-.645-4.414-.43-1.319-1.061-2.451-1.892-3.397-.831-.946-1.845-1.677-3.038-2.193-1.194-.516-2.566-.774-4.113-.774h-8.399v21.327h0Zm3.984-3.382v-14.562h4.042c1.05,0,1.953,.176,2.708,.53,.755,.354,1.376,.856,1.863,1.505,.487,.649,.846,1.429,1.075,2.336,.229,.907,.344,1.916,.344,3.024,0,2.236-.492,3.989-1.476,5.26s-2.527,1.906-4.629,1.906h-3.927Zm26.472,3.484c.774-.236,1.458-.569,2.05-.996,.592-.427,1.085-.932,1.476-1.511,.391-.579,.684-1.211,.874-1.895h-3.554c-.248,.639-.655,1.139-1.218,1.498-.563,.358-1.286,.537-2.164,.537-1.28,0-2.269-.411-2.967-1.234-.698-.823-1.114-1.902-1.247-3.238h11.437c.019-1.433-.153-2.727-.516-3.884-.363-1.157-.917-2.136-1.663-2.938-.649-.688-1.409-1.218-2.279-1.591-.87-.373-1.868-.559-2.995-.559s-2.16,.205-3.096,.616-1.739,.979-2.408,1.706c-.669,.727-1.185,1.581-1.548,2.566-.363,.985-.545,2.05-.545,3.196,0,1.128,.176,2.183,.53,3.167,.354,.985,.864,1.839,1.534,2.566,.669,.727,1.486,1.3,2.451,1.72s2.06,.631,3.282,.631c.936,0,1.792-.119,2.566-.357h0Zm-.143-12.098c.641,.717,.999,1.706,1.075,2.967h-7.625c.153-1.204,.545-2.179,1.175-2.924,.631-.745,1.548-1.118,2.752-1.118,1.108,0,1.982,.358,2.623,1.075h0Zm17.156,12.011c.821-.297,1.534-.707,2.135-1.233,.602-.526,1.075-1.157,1.419-1.892,.344-.735,.545-1.552,.602-2.451h-3.554c-.096,1.013-.434,1.796-1.018,2.35-.583,.555-1.38,.831-2.394,.831-.669,0-1.257-.135-1.763-.404-.506-.268-.927-.638-1.261-1.109-.334-.47-.588-1.028-.76-1.671-.172-.644-.258-1.34-.258-2.09,0-.768,.086-1.479,.258-2.133,.172-.654,.426-1.22,.76-1.701,.334-.48,.755-.85,1.261-1.109,.506-.259,1.094-.388,1.763-.388,.917,0,1.658,.249,2.222,.747,.563,.497,.932,1.175,1.104,2.034h3.554c-.133-.821-.387-1.572-.76-2.25-.373-.678-.85-1.257-1.433-1.734-.583-.477-1.271-.85-2.064-1.118-.793-.268-1.677-.401-2.652-.401-1.185,0-2.25,.205-3.196,.616-.946,.411-1.753,.979-2.422,1.706-.669,.727-1.185,1.581-1.548,2.566-.363,.985-.545,2.05-.545,3.196,0,1.128,.182,2.183,.545,3.167,.363,.985,.884,1.839,1.562,2.566,.678,.727,1.495,1.3,2.451,1.72,.956,.42,2.025,.631,3.21,.631,1.032,0,1.959-.149,2.781-.444h0Zm16.124,.087c.774-.236,1.456-.569,2.05-.996,.592-.427,1.084-.932,1.476-1.511,.391-.579,.682-1.211,.874-1.895h-3.554c-.249,.639-.655,1.139-1.218,1.498-.565,.358-1.286,.537-2.164,.537-1.281,0-2.27-.411-2.967-1.234-.698-.823-1.114-1.902-1.247-3.238h11.437c.019-1.433-.153-2.727-.516-3.884-.364-1.157-.917-2.136-1.663-2.938-.651-.688-1.41-1.218-2.279-1.591-.87-.373-1.869-.559-2.995-.559s-2.16,.205-3.096,.616c-.937,.411-1.74,.979-2.408,1.706-.669,.727-1.185,1.581-1.548,2.566-.364,.985-.545,2.05-.545,3.196,0,1.128,.176,2.183,.53,3.167,.353,.985,.864,1.839,1.534,2.566,.668,.727,1.485,1.3,2.451,1.72,.965,.42,2.058,.631,3.282,.631,.936,0,1.792-.119,2.566-.357h0Zm-.143-12.098c.639,.717,.998,1.706,1.075,2.967h-7.625c.152-1.204,.545-2.179,1.175-2.924,.631-.745,1.548-1.118,2.752-1.118,1.108,0,1.982,.358,2.623,1.075h0Zm10.936-3.311h-3.554v15.307h3.64v-8.972c0-.535,.086-1.032,.258-1.491,.172-.459,.41-.856,.717-1.19,.305-.334,.668-.592,1.089-.774,.42-.182,.889-.272,1.405-.272,.936,0,1.657,.258,2.164,.774,.506,.516,.76,1.233,.76,2.15v9.775h3.64v-10.377c0-1.663-.464-2.967-1.39-3.913-.927-.946-2.222-1.419-3.884-1.419-1.089,0-2.031,.225-2.823,.674-.794,.449-1.439,1.104-1.935,1.964h-.086v-2.236h0Zm12.124,2.523h2.351v9.352c0,.668,.1,1.231,.301,1.688,.201,.457,.483,.824,.846,1.101,.364,.277,.803,.477,1.319,.601,.516,.123,1.081,.186,1.691,.186,.497,0,.947-.024,1.349-.072,.4-.047,.754-.099,1.059-.156v-2.811h-.172c-.152,.039-.338,.067-.559,.086-.219,.019-.424,.029-.615,.029-.516,0-.917-.1-1.205-.301-.287-.201-.429-.578-.429-1.132v-8.571h3.067v-2.523h-3.067v-4.873h-3.585v4.873h-2.351v2.523h0Zm15.078-2.523h-3.526v15.307h3.64v-7.701c0-1.475,.401-2.61,1.204-3.404,.803-.795,1.806-1.182,3.01-1.164,.363,0,.698,.039,1.003,.115h.115v-3.241c-.211-.095-.535-.142-.975-.142-1.949,0-3.411,.993-4.386,2.981h-.086v-2.752h0Zm20.839,15.307v-.258c-.172-.115-.311-.344-.416-.688-.105-.344-.158-.831-.158-1.462v-8.055c0-2.025-.727-3.478-2.179-4.357-.497-.325-1.085-.555-1.763-.688-.678-.133-1.458-.201-2.336-.201-1.089,0-2.035,.139-2.838,.416-.803,.277-1.476,.645-2.021,1.104-.545,.459-.956,.989-1.233,1.591-.277,.602-.426,1.228-.444,1.878h3.44c.039-.764,.311-1.366,.817-1.806,.506-.44,1.276-.659,2.308-.659,.917,0,1.605,.201,2.064,.601s.688,.933,.688,1.599c0,.685-.315,1.167-.946,1.442-.631,.277-1.577,.492-2.838,.644-.917,.115-1.759,.264-2.523,.444-.764,.182-1.423,.446-1.978,.79-.555,.345-.989,.8-1.304,1.364-.315,.565-.473,1.277-.473,2.138,0,.747,.133,1.402,.401,1.966,.268,.565,.631,1.039,1.089,1.422,.459,.383,1.008,.669,1.648,.86,.641,.192,1.333,.288,2.078,.288,1.223,0,2.207-.225,2.952-.674,.745-.449,1.366-1.008,1.863-1.677h.057c.039,.516,.1,.932,.186,1.247,.086,.315,.196,.559,.33,.731h3.526Zm-8.857-2.25c-.325-.066-.606-.179-.846-.341-.239-.162-.43-.38-.573-.655-.143-.275-.215-.613-.215-1.012,0-.836,.305-1.42,.917-1.753,.612-.331,1.481-.602,2.609-.811,.555-.115,1.099-.254,1.634-.416,.535-.162,.985-.358,1.347-.588v2.257c0,.437-.086,.859-.258,1.267-.172,.408-.42,.77-.745,1.082-.325,.314-.727,.57-1.204,.77-.477,.199-1.032,.3-1.663,.3-.344,0-.678-.033-1.003-.1h0Zm11.695,2.25h3.669v-21.327h-3.669v21.327h0Zm6.966-17.801h3.726v-3.526h-3.726v3.526h0Zm.057,17.801h3.64v-15.307h-3.64v15.307h0Zm6.421,0h12.956v-2.924h-5.561c-.325,0-.684,.01-1.075,.029-.393,.019-.751,.039-1.075,.057-.401,.019-.794,.039-1.175,.057v-.086c.287-.288,.582-.576,.889-.864,.248-.251,.516-.515,.803-.793,.287-.279,.535-.543,.745-.794l6.077-7.496v-2.494h-12.011v2.924h4.644c.287,0,.606-.004,.96-.014,.353-.01,.692-.033,1.018-.072,.363-.019,.735-.047,1.118-.086v.086c-.268,.249-.536,.509-.803,.778-.229,.231-.473,.48-.731,.75-.258,.269-.483,.509-.674,.721l-6.106,7.526v2.694h0Zm24.751,.102c.774-.236,1.458-.569,2.05-.996,.593-.427,1.085-.932,1.476-1.511,.393-.579,.684-1.211,.874-1.895h-3.554c-.248,.639-.654,1.139-1.218,1.498-.563,.358-1.284,.537-2.164,.537-1.28,0-2.269-.411-2.967-1.234-.697-.823-1.112-1.902-1.247-3.238h11.437c.02-1.433-.152-2.727-.516-3.884-.363-1.157-.917-2.136-1.663-2.938-.649-.688-1.409-1.218-2.279-1.591-.869-.373-1.867-.559-2.995-.559s-2.158,.205-3.096,.616c-.936,.411-1.739,.979-2.408,1.706-.668,.727-1.184,1.581-1.548,2.566-.363,.985-.545,2.05-.545,3.196,0,1.128,.178,2.183,.53,3.167,.354,.985,.866,1.839,1.534,2.566,.669,.727,1.486,1.3,2.451,1.72,.966,.42,2.06,.631,3.282,.631,.937,0,1.792-.119,2.565-.357h0Zm-.143-12.098c.641,.717,.999,1.706,1.075,2.967h-7.625c.153-1.204,.545-2.179,1.175-2.924,.631-.745,1.548-1.118,2.752-1.118,1.109,0,1.984,.358,2.623,1.075h0Zm16.038,11.796c.803-.459,1.443-1.137,1.921-2.035h.057v2.236h3.526v-21.327h-3.64v5.045c0,.573,.01,1.142,.029,1.706,.019,.563,.047,1.056,.086,1.476h-.057c-.497-.803-1.137-1.437-1.921-1.906-.784-.469-1.71-.702-2.78-.702-.975,0-1.868,.191-2.68,.573-.813,.383-1.515,.927-2.107,1.634-.592,.707-1.051,1.558-1.376,2.551-.325,.993-.487,2.103-.487,3.325,0,1.243,.158,2.365,.473,3.368,.315,1.003,.76,1.859,1.333,2.565,.573,.707,1.271,1.247,2.093,1.62,.821,.373,1.739,.559,2.752,.559,1.051,0,1.978-.229,2.78-.688h0Zm-4.816-3.676c-.612-.962-.917-2.21-.917-3.748,0-.75,.076-1.446,.229-2.09,.153-.643,.383-1.201,.688-1.671,.305-.472,.692-.836,1.161-1.096,.469-.259,1.008-.388,1.62-.388,.669,0,1.257,.129,1.763,.388,.506,.261,.927,.625,1.261,1.096,.334,.47,.588,1.028,.76,1.671,.172,.644,.258,1.35,.258,2.118,0,.75-.086,1.44-.258,2.075-.172,.634-.426,1.182-.76,1.644-.334,.46-.755,.816-1.261,1.066-.506,.249-1.094,.374-1.763,.374-1.243,0-2.168-.48-2.78-1.44h0Z"/><path d="M119.588,213.043h4.013l1.72-5.074h8.083l1.691,5.074h4.242l-7.768-21.327h-4.242l-7.74,21.327h0Zm8.399-12.928c.172-.497,.338-1.046,.502-1.648,.162-.602,.31-1.161,.444-1.677,.152-.612,.305-1.214,.459-1.806h.057c.115,.516,.238,1.061,.373,1.634,.115,.497,.252,1.046,.416,1.648,.162,.602,.348,1.218,.559,1.849l1.634,4.93h-6.134l1.691-4.93h0Zm16.997-2.379h-3.554v15.307h3.64v-8.972c0-.535,.086-1.032,.258-1.491,.172-.459,.411-.856,.717-1.19,.307-.334,.669-.592,1.089-.774,.421-.182,.889-.272,1.405-.272,.937,0,1.658,.258,2.164,.774,.507,.516,.76,1.233,.76,2.15v9.775h3.64v-10.377c0-1.663-.463-2.967-1.39-3.913-.926-.946-2.222-1.419-3.884-1.419-1.089,0-2.029,.225-2.823,.674-.793,.449-1.438,1.104-1.935,1.964h-.086v-2.236h0Zm17.357,20.323c.487-.135,.932-.368,1.333-.702,.401-.335,.764-.784,1.089-1.347,.325-.565,.649-1.267,.975-2.107l5.934-16.167h-3.669l-2.437,7.109c-.153,.477-.305,.989-.459,1.534-.153,.545-.297,1.056-.43,1.534-.153,.555-.297,1.118-.43,1.691h-.057c-.133-.555-.268-1.108-.401-1.663-.115-.477-.254-.993-.416-1.548-.162-.555-.32-1.071-.473-1.548l-2.522-7.109h-3.87l5.274,13.343c.076,.211,.129,.451,.158,.72,.029,.268,.043,.527,.043,.777s-.004,.469-.014,.661-.014,.325-.014,.403c-.153,.613-.411,1.049-.774,1.309-.363,.259-.85,.388-1.462,.388-.096,0-.219-.006-.373-.014-.153-.01-.311-.02-.473-.029-.162-.01-.305-.024-.43-.043-.125-.02-.205-.039-.244-.057h-.201v2.898c.057,.019,.211,.037,.459,.056,.248,.02,.516,.037,.803,.057,.287,.019,.563,.031,.831,.042,.268,.009,.459,.014,.573,.014,.631,0,1.19-.067,1.677-.201h0Zm17.557-22.932h6.65v17.916h3.984v-17.916h6.679v-3.411h-17.314v3.411h0Zm21.126,17.916h3.497l1.978-7.281c.096-.401,.201-.86,.315-1.376,.115-.516,.219-1.003,.315-1.462,.115-.535,.229-1.089,.344-1.663h.057c.096,.573,.201,1.128,.315,1.663,.096,.459,.201,.946,.315,1.462,.115,.516,.219,.975,.315,1.376l1.921,7.281h3.497l4.873-15.307h-3.669l-2.035,7.138c-.153,.477-.282,.985-.387,1.519-.105,.535-.205,1.032-.301,1.491-.096,.535-.191,1.079-.287,1.634h-.057c-.115-.555-.219-1.108-.315-1.663-.096-.477-.201-.985-.315-1.519-.115-.535-.229-1.022-.344-1.462l-1.949-7.138h-3.21l-1.892,7.138c-.133,.459-.258,.96-.373,1.505-.115,.545-.219,1.046-.315,1.505-.115,.535-.219,1.071-.315,1.605h-.057c-.096-.535-.191-1.079-.287-1.634-.096-.459-.201-.96-.315-1.505-.115-.545-.229-1.036-.344-1.476l-1.978-7.138h-3.784l4.787,15.307h0Zm29.496-.172c.955-.42,1.771-.993,2.451-1.72,.678-.727,1.198-1.581,1.562-2.566,.363-.985,.545-2.039,.545-3.167,0-1.147-.182-2.211-.545-3.196-.364-.985-.884-1.839-1.562-2.566-.679-.727-1.496-1.294-2.451-1.706-.956-.411-2.027-.616-3.21-.616s-2.26,.205-3.225,.616c-.966,.411-1.787,.979-2.465,1.706-.679,.727-1.204,1.581-1.577,2.566-.373,.985-.559,2.05-.559,3.196,0,1.128,.186,2.183,.559,3.167,.373,.985,.897,1.839,1.577,2.566,.678,.727,1.499,1.3,2.465,1.72,.965,.42,2.04,.631,3.225,.631s2.254-.211,3.21-.631h0Zm-5.016-2.494c-.516-.268-.946-.641-1.29-1.118-.344-.477-.602-1.042-.774-1.691-.172-.649-.258-1.357-.258-2.121s.086-1.476,.258-2.136c.172-.659,.43-1.233,.774-1.72,.344-.487,.774-.864,1.29-1.132,.516-.268,1.108-.401,1.777-.401s1.256,.133,1.763,.401c.506,.268,.932,.645,1.276,1.132,.344,.487,.606,1.061,.788,1.72,.181,.659,.272,1.372,.272,2.136s-.092,1.472-.272,2.121c-.182,.649-.444,1.214-.788,1.691s-.77,.85-1.276,1.118c-.507,.268-1.095,.401-1.763,.401s-1.261-.133-1.777-.401h0Z" style="fill:red;"/><path d="M150.243,175.779h4.013v-8.026h5.389c1.128,0,2.127-.158,2.995-.473,.87-.315,1.605-.76,2.207-1.333,.602-.573,1.061-1.266,1.376-2.078,.315-.813,.473-1.724,.473-2.737,0-.956-.158-1.82-.473-2.594-.315-.774-.76-1.466-1.333-2.078-.592-.649-1.341-1.147-2.25-1.491-.907-.344-1.964-.516-3.167-.516h-9.23v21.327h0Zm4.013-17.915h4.816c1.167,0,2.064,.282,2.695,.846,.631,.563,.946,1.39,.946,2.479,0,1.032-.31,1.853-.932,2.465-.621,.612-1.542,.917-2.766,.917h-4.758v-6.708h0Zm14.734,.115h3.726v-3.526h-3.726v3.526h0Zm.057,17.801h3.64v-15.307h-3.64v15.307h0Zm16.712,.014c.821-.297,1.534-.707,2.136-1.233,.602-.526,1.075-1.157,1.419-1.892,.344-.735,.545-1.552,.602-2.451h-3.554c-.096,1.013-.434,1.796-1.018,2.35-.583,.555-1.38,.831-2.394,.831-.669,0-1.257-.135-1.763-.404-.506-.268-.927-.638-1.261-1.109-.334-.47-.588-1.028-.76-1.671-.172-.644-.258-1.34-.258-2.09,0-.768,.086-1.479,.258-2.133,.172-.654,.426-1.22,.76-1.701,.334-.48,.755-.85,1.261-1.109,.506-.259,1.094-.388,1.763-.388,.917,0,1.658,.249,2.222,.747,.563,.497,.932,1.175,1.104,2.034h3.554c-.133-.821-.387-1.572-.76-2.25-.373-.678-.85-1.257-1.433-1.734-.583-.477-1.271-.85-2.064-1.118-.793-.268-1.677-.401-2.652-.401-1.185,0-2.25,.205-3.196,.616-.946,.411-1.753,.979-2.422,1.706s-1.185,1.581-1.548,2.565c-.363,.985-.545,2.05-.545,3.196,0,1.128,.182,2.183,.545,3.167,.363,.985,.884,1.839,1.562,2.566,.678,.727,1.495,1.3,2.451,1.72s2.025,.631,3.21,.631c1.032,0,1.959-.149,2.78-.444h0Zm16.54-.014h4.242l-6.278-9.717,5.618-5.59h-4.328l-5.762,5.991c.019-.44,.043-.993,.072-1.663,.029-.669,.043-1.366,.043-2.093v-8.255h-3.612v21.327h3.612v-5.532l1.806-1.806,4.586,7.338h0Z" style="fill:red;"/><path d="M269.078,98.46c.762,.729,1.568,1.274,2.416,1.634,.847,.36,1.733,.517,2.654,.47,.922-.047,1.846-.338,2.773-.873,.993-.573,1.714-1.233,2.167-1.979,.451-.746,.711-1.548,.78-2.403,.069-.856,0-1.749-.205-2.678-.206-.93-.467-1.877-.781-2.843-.264-.797-.486-1.523-.668-2.179-.183-.656-.292-1.244-.33-1.763-.037-.519,.02-.967,.175-1.343,.155-.376,.446-.687,.871-.933,.737-.426,1.486-.444,2.246-.055,.76,.389,1.44,1.104,2.042,2.147,.631,1.092,.897,2.108,.8,3.047-.097,.939-.555,1.733-1.373,2.381l1.935,3.351c1.599-1.166,2.537-2.629,2.812-4.387,.277-1.759-.212-3.722-1.463-5.89-.573-.993-1.211-1.839-1.913-2.537-.702-.698-1.449-1.227-2.242-1.585-.794-.359-1.615-.519-2.467-.479-.851,.039-1.717,.312-2.596,.82-.929,.536-1.598,1.149-2.008,1.838-.41,.689-.649,1.434-.717,2.235-.069,.801,.003,1.653,.215,2.557,.212,.904,.466,1.843,.764,2.819,.257,.823,.476,1.574,.658,2.252,.182,.678,.282,1.288,.298,1.83,.017,.542-.072,1.018-.264,1.427-.192,.409-.535,.756-1.029,1.041-.461,.267-.916,.402-1.363,.406-.449,.005-.881-.099-1.3-.309-.419-.211-.81-.509-1.175-.894-.364-.385-.691-.826-.977-1.322-1.642-2.847-1.344-5.082,.894-6.706l-1.992-3.451c-.924,.578-1.667,1.277-2.23,2.099-.563,.822-.926,1.731-1.088,2.73-.163,.999-.113,2.079,.149,3.24,.262,1.161,.761,2.379,1.498,3.654,.592,1.026,1.27,1.903,2.032,2.633h0Zm8.882,15.327c.668,.563,1.379,.975,2.136,1.233,.755,.258,1.539,.353,2.348,.282,.81-.069,1.617-.304,2.424-.704l-1.777-3.078c-.926,.424-1.773,.522-2.544,.294-.773-.228-1.41-.78-1.916-1.657-.335-.579-.513-1.156-.533-1.729-.02-.573,.09-1.122,.331-1.647,.239-.525,.596-1.023,1.068-1.494,.472-.471,1.031-.893,1.68-1.268,.666-.384,1.324-.665,1.976-.843,.652-.178,1.268-.242,1.853-.192,.582,.049,1.114,.229,1.591,.538,.477,.309,.884,.753,1.218,1.332,.459,.794,.613,1.56,.464,2.297-.149,.737-.552,1.395-1.21,1.973l1.777,3.078c.645-.527,1.168-1.121,1.569-1.783,.4-.662,.662-1.365,.785-2.108,.122-.744,.1-1.526-.064-2.346-.165-.821-.49-1.653-.977-2.497-.593-1.026-1.304-1.846-2.133-2.46-.828-.614-1.724-1.029-2.687-1.245-.965-.216-1.962-.236-2.997-.058-1.033,.178-2.047,.553-3.04,1.126-.976,.564-1.8,1.249-2.471,2.055-.671,.806-1.151,1.685-1.44,2.636-.289,.951-.378,1.945-.264,2.982,.113,1.038,.466,2.069,1.059,3.096,.516,.894,1.108,1.622,1.774,2.187h0Zm10.146,17.543l.224-.129c.013-.206,.142-.441,.387-.704,.245-.264,.642-.553,1.188-.869l6.976-4.027c1.753-1.012,2.649-2.368,2.683-4.065,.033-.593-.062-1.217-.285-1.87-.224-.655-.555-1.363-.995-2.124-.545-.943-1.138-1.693-1.779-2.25-.641-.556-1.297-.956-1.966-1.198-.669-.242-1.334-.333-1.994-.271-.659,.06-1.276,.245-1.847,.553l1.72,2.98c.681-.35,1.337-.414,1.972-.196,.633,.219,1.208,.775,1.724,1.668,.459,.795,.629,1.491,.512,2.088-.116,.598-.463,1.062-1.041,1.396-.595,.343-1.168,.31-1.723-.099-.555-.407-1.213-1.119-1.975-2.136-.559-.737-1.108-1.392-1.647-1.962-.54-.57-1.098-1.01-1.673-1.319-.576-.307-1.187-.456-1.833-.447-.646,.009-1.343,.229-2.088,.659-.648,.374-1.148,.817-1.503,1.331-.355,.513-.583,1.065-.687,1.654-.102,.589-.076,1.207,.079,1.857,.155,.651,.419,1.299,.791,1.943,.611,1.059,1.297,1.799,2.06,2.22,.761,.421,1.555,.679,2.383,.775l.029,.05c-.429,.291-.757,.552-.987,.784-.229,.232-.386,.449-.467,.651l1.763,3.054h0Zm-2.481-8.796c-.106-.315-.148-.616-.126-.903,.02-.288,.113-.563,.281-.824,.166-.262,.421-.493,.768-.692,.724-.418,1.382-.446,1.975-.082,.593,.363,1.263,.98,2.008,1.853,.377,.423,.768,.824,1.177,1.207s.803,.674,1.182,.873l-1.955,1.129c-.378,.218-.787,.354-1.227,.41-.439,.056-.876,.02-1.31-.105-.434-.125-.856-.344-1.267-.658-.413-.314-.775-.744-1.091-1.29-.172-.298-.311-.605-.416-.919h0Zm3.9,11.252l1.835,3.178,18.469-10.663-1.835-3.177-18.469,10.663h0Zm10.233,17.725l.222-.129c.014-.206,.143-.441,.388-.704,.245-.264,.641-.552,1.188-.867l6.976-4.027c1.753-1.013,2.649-2.369,2.683-4.066,.033-.592-.062-1.215-.285-1.87-.224-.654-.555-1.362-.995-2.123-.545-.945-1.138-1.694-1.779-2.25-.641-.556-1.297-.956-1.966-1.198-.669-.242-1.334-.334-1.994-.272-.659,.06-1.277,.245-1.849,.553l1.72,2.98c.681-.35,1.339-.414,1.974-.195,.633,.218,1.208,.774,1.724,1.668,.459,.794,.629,1.491,.512,2.087-.116,.598-.464,1.063-1.041,1.396-.595,.343-1.168,.311-1.723-.097-.555-.408-1.213-1.121-1.975-2.137-.559-.737-1.108-1.39-1.647-1.962-.54-.57-1.098-1.01-1.673-1.317-.576-.308-1.187-.457-1.833-.449-.648,.01-1.343,.229-2.09,.661-.646,.373-1.147,.816-1.502,1.33-.355,.515-.585,1.066-.687,1.654-.102,.589-.076,1.208,.079,1.859,.155,.649,.417,1.297,.79,1.942,.612,1.059,1.299,1.8,2.06,2.22,.762,.421,1.556,.679,2.385,.775l.029,.05c-.429,.291-.757,.553-.987,.785-.229,.231-.386,.449-.467,.651l1.763,3.053h0Zm-2.481-8.796c-.106-.314-.148-.615-.128-.903,.02-.288,.115-.562,.281-.824,.168-.261,.423-.492,.77-.692,.724-.417,1.382-.444,1.975-.082,.593,.364,1.263,.982,2.008,1.853,.376,.423,.768,.826,1.177,1.208,.408,.381,.803,.672,1.182,.873l-1.955,1.128c-.378,.218-.787,.355-1.227,.41-.44,.056-.876,.021-1.31-.103-.434-.125-.857-.345-1.268-.658-.411-.315-.774-.745-1.089-1.291-.172-.298-.311-.603-.416-.919h0Zm9.458,20.738c.728,.517,1.542,.847,2.441,.99,.9,.143,1.86,.096,2.882-.14,1.02-.238,2.07-.666,3.146-1.287,1.059-.612,1.939-1.303,2.643-2.072,.702-.77,1.217-1.579,1.542-2.429,.327-.85,.451-1.723,.377-2.617-.076-.894-.357-1.764-.844-2.608-.545-.943-1.224-1.632-2.037-2.067-.814-.436-1.693-.666-2.637-.695l-.043-.075c.367-.168,.804-.387,1.31-.656,.506-.271,1.023-.559,1.554-.864l4.369-2.522-1.82-3.153-18.469,10.663,1.763,3.054,1.91-1.104,.043,.075c-.565,.856-.833,1.749-.803,2.68,.032,.932,.304,1.845,.82,2.737,.506,.877,1.124,1.574,1.853,2.091h0Zm-.245-5.932c-.024-.56,.075-1.102,.292-1.625,.219-.523,.56-1.019,1.023-1.485,.464-.466,1.019-.886,1.668-1.261,.632-.364,1.268-.638,1.906-.818,.639-.182,1.244-.249,1.814-.204,.569,.046,1.105,.222,1.604,.53,.499,.308,.92,.76,1.264,1.354,.307,.53,.462,1.059,.466,1.585,.004,.527-.12,1.041-.375,1.541-.255,.5-.622,.977-1.104,1.432-.482,.454-1.046,.869-1.694,1.243-1.331,.77-2.567,1.129-3.705,1.081-1.138-.05-2.012-.605-2.623-1.664-.335-.579-.515-1.148-.537-1.708h0Zm3.4,11.54l1.835,3.178,18.47-10.663-1.835-3.178-18.47,10.663h0Zm8.217,14.437c.593,.552,1.223,.977,1.889,1.277,.666,.3,1.347,.473,2.045,.523,.698,.049,1.39-.014,2.078-.191l-1.777-3.079c-.678,.105-1.313,.003-1.905-.305-.593-.31-1.109-.844-1.548-1.605-.641-1.109-.78-2.171-.416-3.186,.364-1.016,1.091-1.916,2.181-2.699l5.719,9.904c1.25-.699,2.285-1.496,3.106-2.388,.818-.893,1.39-1.863,1.713-2.909,.271-.907,.35-1.83,.238-2.769-.112-.939-.45-1.898-1.013-2.874-.563-.976-1.258-1.767-2.081-2.373-.826-.605-1.718-1.016-2.682-1.231-.963-.216-1.962-.236-2.995-.059-1.035,.178-2.048,.553-3.04,1.126-.977,.565-1.803,1.245-2.478,2.044-.676,.798-1.161,1.668-1.456,2.61-.294,.943-.383,1.936-.264,2.983,.119,1.046,.483,2.098,1.095,3.157,.469,.811,.999,1.492,1.591,2.044h0Zm10.407-6.173c-.301,.913-.977,1.717-2.032,2.414l-3.812-6.603c1.119-.47,2.16-.618,3.12-.444,.96,.173,1.741,.783,2.343,1.825,.555,.96,.682,1.896,.381,2.809h0Z"/><path d="M50.059,164.495c.25-1.025,.319-1.995,.207-2.909-.112-.914-.419-1.759-.92-2.534-.501-.774-1.215-1.43-2.142-1.965-.993-.573-1.926-.869-2.798-.887-.872-.017-1.696,.158-2.472,.526-.776,.368-1.515,.874-2.216,1.516-.702,.644-1.393,1.343-2.071,2.098-.558,.626-1.076,1.182-1.553,1.668-.477,.486-.931,.874-1.362,1.167-.431,.292-.848,.466-1.251,.519-.403,.054-.817-.042-1.244-.287-.737-.426-1.128-1.065-1.171-1.918-.043-.853,.236-1.8,.838-2.842,.631-1.094,1.377-1.832,2.239-2.217,.862-.384,1.778-.384,2.749-.001l1.935-3.351c-1.81-.801-3.545-.883-5.206-.242-1.661,.642-3.117,2.045-4.369,4.214-.573,.993-.987,1.968-1.241,2.924-.254,.957-.338,1.869-.252,2.735,.086,.867,.359,1.658,.818,2.376,.46,.718,1.129,1.33,2.008,1.837,.929,.536,1.794,.81,2.595,.82,.801,.011,1.566-.155,2.294-.496,.728-.341,1.43-.828,2.107-1.465,.677-.635,1.363-1.326,2.059-2.071,.585-.633,1.126-1.198,1.622-1.696,.496-.497,.974-.889,1.435-1.174,.461-.285,.917-.447,1.368-.484,.45-.039,.923,.086,1.417,.371,.462,.267,.806,.592,1.034,.977,.228,.386,.355,.811,.382,1.278,.027,.469-.036,.956-.187,1.465-.151,.509-.37,1.012-.656,1.508-1.643,2.846-3.728,3.706-6.255,2.578l-1.992,3.451c.962,.512,1.94,.805,2.933,.881,.993,.077,1.962-.063,2.908-.421,.946-.358,1.857-.942,2.731-1.75,.874-.808,1.68-1.849,2.416-3.123,.592-1.026,1.013-2.052,1.263-3.077h0Zm8.816-15.151c.181-.788,.235-1.546,.161-2.273-.074-.727-.264-1.405-.57-2.034-.306-.629-.707-1.197-1.204-1.704l-1.777,3.079c.43,.535,.659,1.137,.688,1.803,.029,.668-.177,1.382-.616,2.143-.64,1.109-1.491,1.76-2.552,1.954-1.061,.192-2.204,.013-3.427-.539l5.719-9.905c-1.232-.734-2.439-1.231-3.622-1.496-1.183-.262-2.308-.272-3.376-.029-.921,.219-1.76,.612-2.517,1.178-.758,.568-1.418,1.339-1.982,2.315-.564,.976-.902,1.974-1.014,2.99-.112,1.016-.021,1.995,.273,2.937,.295,.943,.777,1.817,1.448,2.624s1.503,1.496,2.496,2.07c.977,.563,1.979,.939,3.008,1.124,1.029,.186,2.025,.172,2.989-.044,.963-.216,1.868-.636,2.715-1.263,.846-.625,1.576-1.468,2.187-2.527,.468-.811,.793-1.611,.974-2.401h0Zm-10.55-5.925c.941-.196,1.976-.011,3.107,.553l-3.812,6.603c-.966-.734-1.614-1.561-1.944-2.48-.33-.919-.194-1.9,.408-2.942,.554-.96,1.302-1.538,2.242-1.734h0Zm18.979-8.852c.154-.86,.155-1.681,0-2.465-.154-.784-.464-1.509-.929-2.176-.465-.665-1.072-1.247-1.822-1.747l-1.777,3.079c.829,.59,1.338,1.276,1.527,2.057,.189,.783,.03,1.611-.477,2.488-.335,.58-.745,1.022-1.231,1.326-.486,.304-1.017,.483-1.591,.537-.575,.054-1.184-.006-1.827-.178-.643-.173-1.289-.447-1.939-.821-.666-.386-1.238-.814-1.718-1.29-.48-.476-.844-.979-1.093-1.508-.249-.53-.359-1.079-.33-1.648,.029-.568,.21-1.141,.544-1.721,.459-.794,1.044-1.31,1.757-1.549,.713-.239,1.484-.219,2.313,.06l1.777-3.079c-.778-.294-1.555-.45-2.328-.467-.774-.016-1.513,.109-2.219,.374-.705,.267-1.372,.676-2,1.23-.628,.553-1.186,1.251-1.673,2.095-.592,1.026-.947,2.051-1.064,3.076-.117,1.025-.028,2.008,.266,2.951,.295,.942,.777,1.816,1.448,2.623,.671,.807,1.503,1.496,2.496,2.07,.977,.563,1.982,.934,3.015,1.112,1.034,.178,2.035,.155,3.003-.07,.968-.224,1.873-.645,2.715-1.263,.842-.618,1.559-1.439,2.151-2.465,.516-.893,.851-1.77,1.005-2.63h0Zm9.948-17.261l-13.256-7.653-1.806,3.128,7.77,4.486c.927,.535,1.539,1.241,1.838,2.12,.298,.879,.189,1.764-.326,2.659-.459,.794-1.027,1.283-1.706,1.463-.679,.183-1.415,.044-2.21-.414l-8.49-4.902-1.82,3.152,8.937,5.16c1.44,.831,2.809,1.088,4.109,.767,1.299-.32,2.369-1.208,3.21-2.664,.545-.943,.806-1.835,.783-2.676-.022-.84-.259-1.71-.71-2.61l.029-.05,1.887,1.089,1.763-3.054h0Zm-9.831-13.586l-1.763,3.053,13.256,7.653,1.82-3.152-6.668-3.85c-1.277-.738-2.06-1.653-2.347-2.745-.287-1.092-.121-2.155,.497-3.188,.181-.314,.382-.585,.601-.811l.057-.099-2.806-1.62c-.187,.135-.391,.393-.61,.773-.975,1.688-.845,3.451,.389,5.289l-.043,.075-2.383-1.376h0Zm21.837-7.004c.181-.789,.235-1.547,.161-2.273-.074-.726-.264-1.404-.57-2.034-.306-.629-.707-1.197-1.204-1.705l-1.777,3.078c.43,.535,.659,1.137,.688,1.804,.029,.668-.177,1.382-.616,2.143-.64,1.109-1.491,1.76-2.552,1.952-1.061,.193-2.204,.013-3.427-.539l5.719-9.905c-1.232-.733-2.439-1.231-3.622-1.495-1.183-.263-2.308-.273-3.376-.029-.921,.219-1.76,.612-2.517,1.178-.758,.567-1.418,1.338-1.982,2.315-.564,.977-.902,1.973-1.014,2.989-.112,1.017-.021,1.996,.273,2.938,.295,.943,.777,1.817,1.448,2.623,.671,.807,1.503,1.496,2.496,2.07,.977,.564,1.979,.939,3.008,1.125,1.029,.186,2.025,.171,2.989-.045,.964-.216,1.869-.637,2.715-1.263,.846-.625,1.576-1.468,2.187-2.527,.468-.811,.793-1.611,.974-2.4h0Zm-10.55-5.925c.94-.196,1.976-.012,3.107,.552l-3.812,6.603c-.966-.734-1.614-1.561-1.944-2.48-.33-.919-.194-1.899,.408-2.942,.554-.96,1.302-1.538,2.242-1.734h0Z"/></svg>