<?xml version="1.0" encoding="UTF-8"?><svg id="a" xmlns="http://www.w3.org/2000/svg" viewBox="0 0 800 174.236"><path d="M419.213,135.303c-3.011,0-6.206-1.045-6.206-5.285,0-4.547,3.257-5.407,8.357-6.329,2.704-.492,5.592-1.29,7.251-2.335v5.285c0,3.81-2.827,8.664-9.402,8.664h0Zm9.402-1.352h.184c.614,3.503,2.212,5.162,5.715,5.162,1.352,0,2.274-.246,3.072-.492v-3.994h-.246c-2.888,.614-3.503-.799-3.503-3.441v-15.424c0-4.424-1.659-7.312-4.424-8.971-2.089-1.229-4.854-1.782-7.988-1.782-8.91,0-13.15,4.977-13.396,10.569h5.53c.184-3.933,2.704-6.268,7.927-6.268,4.547,0,7.067,2.089,7.067,5.653,0,3.38-3.134,4.117-7.988,4.732-8.234,1.045-13.58,2.704-13.58,10.385,0,6.329,4.854,9.402,10.815,9.402,5.592,0,8.726-2.642,10.815-5.53h0Zm37.175,4.854h6.698l-14.072-20.586,12.597-12.412h-7.128l-14.809,15.117c.123-1.536,.246-4.24,.246-5.531v-22.306h-5.715v45.718h5.715v-11.859l5.223-4.977,11.245,16.837h0Zm24.701-3.503c-3.011,0-6.206-1.045-6.206-5.285,0-4.547,3.257-5.407,8.357-6.329,2.704-.492,5.592-1.29,7.251-2.335v5.285c0,3.81-2.827,8.664-9.402,8.664h0Zm9.402-1.352h.184c.614,3.503,2.212,5.162,5.715,5.162,1.352,0,2.274-.246,3.072-.492v-3.994h-.246c-2.888,.614-3.503-.799-3.503-3.441v-15.424c0-4.424-1.659-7.312-4.424-8.971-2.089-1.229-4.854-1.782-7.988-1.782-8.91,0-13.15,4.977-13.396,10.569h5.53c.184-3.933,2.704-6.268,7.927-6.268,4.547,0,7.067,2.089,7.067,5.653,0,3.38-3.134,4.117-7.988,4.732-8.234,1.045-13.58,2.704-13.58,10.385,0,6.329,4.854,9.402,10.815,9.402,5.592,0,8.726-2.642,10.815-5.53h0Zm12.781,4.854h5.469v-22.798c0-3.81,1.782-6.206,3.994-6.206,2.089,0,3.195,1.168,3.195,3.994v25.01h5.469v-22.798c0-3.81,1.598-6.206,3.933-6.206,1.966,0,3.195,1.168,3.195,3.994v25.01h5.469v-25.501c0-5.653-2.396-8.295-6.821-8.295-2.581,0-4.977,1.475-6.575,4.916h-.061c-.983-3.441-2.949-4.916-5.592-4.916-2.888,0-4.793,1.229-6.268,4.486h-.123v-3.687h-5.285v32.998h0Zm51.001,.922c9.463,0,14.809-7.742,14.809-17.39,0-9.586-5.346-17.329-14.809-17.329-9.524,0-14.932,7.742-14.932,17.329,0,9.647,5.407,17.39,14.932,17.39h0Zm-.061-4.67c-6.268,0-9.033-5.592-9.033-12.72s2.765-12.782,9.033-12.782,9.033,5.653,9.033,12.782-2.765,12.72-9.033,12.72h0Zm47.683,3.257v-4.67h-.184c-1.966,.492-3.38,.799-5.899,.799-3.871,0-5.285-1.168-5.285-4.24v-19.971h10.815v-4.424h-10.815v-10.385h-5.653v10.385h-7.62v4.424h7.62v20.831c0,5.285,2.704,8.234,9.586,8.234,3.625,0,5.715-.492,7.435-.983h0Zm23.656,1.413c9.463,0,14.809-7.742,14.809-17.39,0-9.586-5.346-17.329-14.809-17.329-9.524,0-14.932,7.742-14.932,17.329,0,9.647,5.408,17.39,14.932,17.39h0Zm-.061-4.67c-6.268,0-9.033-5.592-9.033-12.72s2.765-12.782,9.033-12.782,9.033,5.653,9.033,12.782-2.765,12.72-9.033,12.72h0Zm26.483-11.184h18.312v-5.162h-18.312v5.162h0Zm30.847,14.932h5.96v-24.088c0-8.664-.369-12.351-.369-12.351h.184s1.782,5.285,4.301,11.061l11.122,25.378h6.698v-45.718h-5.961v23.78c0,8.849,.492,12.536,.492,12.536h-.246s-1.721-5.469-4.24-11.122l-11.184-25.194h-6.759v45.718h0Zm47.744-3.503c-3.011,0-6.206-1.045-6.206-5.285,0-4.547,3.257-5.407,8.357-6.329,2.704-.492,5.592-1.29,7.251-2.335v5.285c0,3.81-2.827,8.664-9.402,8.664h0Zm9.402-1.352h.184c.614,3.503,2.212,5.162,5.715,5.162,1.352,0,2.274-.246,3.072-.492v-3.994h-.246c-2.888,.614-3.502-.799-3.502-3.441v-15.424c0-4.424-1.659-7.312-4.424-8.971-2.089-1.229-4.854-1.782-7.988-1.782-8.91,0-13.15,4.977-13.396,10.569h5.53c.184-3.933,2.704-6.268,7.927-6.268,4.547,0,7.067,2.089,7.067,5.653,0,3.38-3.134,4.117-7.988,4.732-8.234,1.045-13.58,2.704-13.58,10.385,0,6.329,4.854,9.402,10.815,9.402,5.592,0,8.726-2.642,10.815-5.53h0Zm20.092,16.345c4.24,0,6.882-1.536,9.586-8.48l14.01-36.009h-5.96l-6.575,18.312c-1.29,3.687-2.827,8.91-2.827,8.91h-.123s-1.413-5.162-2.765-8.91l-6.821-18.312h-6.206l12.597,31.339c.123,.369-1.168,4.056-1.168,4.178-1.168,3.134-2.642,3.994-4.916,3.994-1.413,0-2.827-.246-3.441-.615h-.246v4.916c.922,.369,3.011,.676,4.854,.676h0Z"/><path d="M419.213,63.613c-3.011,0-6.206-1.045-6.206-5.285,0-4.547,3.257-5.407,8.357-6.329,2.704-.492,5.592-1.29,7.251-2.335v5.285c0,3.81-2.827,8.664-9.402,8.664h0Zm9.402-1.352h.184c.614,3.503,2.212,5.162,5.715,5.162,1.352,0,2.274-.246,3.072-.492v-3.994h-.246c-2.888,.614-3.503-.799-3.503-3.441v-15.423c0-4.424-1.659-7.312-4.424-8.971-2.089-1.229-4.854-1.782-7.988-1.782-8.91,0-13.15,4.977-13.396,10.569h5.53c.184-3.933,2.704-6.268,7.927-6.268,4.547,0,7.067,2.089,7.067,5.653,0,3.38-3.134,4.117-7.988,4.731-8.234,1.045-13.58,2.704-13.58,10.385,0,6.329,4.854,9.402,10.815,9.402,5.592,0,8.726-2.642,10.815-5.53h0Zm40.125,4.363v-4.67h-.184c-1.966,.492-3.38,.799-5.899,.799-3.871,0-5.285-1.168-5.285-4.24v-19.971h10.815v-4.424h-10.815v-10.385h-5.653v10.385h-7.62v4.424h7.62v20.831c0,5.285,2.704,8.234,9.586,8.234,3.625,0,5.715-.492,7.435-.983h0Zm23.656,1.413c9.463,0,14.809-7.742,14.809-17.39,0-9.586-5.346-17.328-14.809-17.328-9.524,0-14.932,7.742-14.932,17.328,0,9.647,5.407,17.39,14.932,17.39h0Zm-.061-4.67c-6.268,0-9.033-5.592-9.033-12.72s2.765-12.781,9.033-12.781,9.033,5.653,9.033,12.781-2.765,12.72-9.033,12.72h0Zm36.193,4.731c7.742,0,13.273-3.441,13.273-10.139,0-7.681-5.776-9.156-12.351-10.446-5.592-1.106-8.664-1.782-8.664-5.223,0-2.519,1.905-4.609,6.391-4.609,4.731,0,7.066,1.905,7.558,5.285h5.715c-.737-5.715-4.855-9.586-13.15-9.586-7.681,0-12.105,3.564-12.105,9.217,0,7.251,5.838,8.603,12.29,9.955,5.838,1.168,8.603,2.089,8.603,5.715,0,2.95-2.212,5.223-7.435,5.223-4.731,0-8.418-1.598-9.094-6.391h-5.776c.492,6.698,5.653,10.999,14.748,10.999h0Zm27.773-21.077c0-5.285,3.38-8.91,8.111-8.91,4.24,0,6.759,2.396,6.759,6.636v22.367h5.653v-23.043c0-6.882-3.994-10.753-10.569-10.753-4.547,0-7.681,2.089-9.955,5.592h-.184c.123-1.598,.184-3.933,.184-5.53v-11.982h-5.776v45.717h5.776v-20.094h0Zm42.214-18.987h6.329v-6.636h-6.329v6.636h0Zm6.022,39.081V34.118h-15.362v4.977h9.647v28.02h5.715Zm21.199-14.932h18.312v-5.162h-18.312v5.162h0Zm45.225,15.854c8.971,0,15.423-4.977,15.423-13.519,0-9.77-6.759-12.474-13.949-14.072-7.681-1.721-10.999-3.011-10.999-7.988,0-4.547,3.441-7.005,8.418-7.005,5.285,0,8.541,2.704,9.156,8.541h6.083c-.799-8.111-5.592-13.457-15.239-13.457-8.357,0-14.317,4.609-14.317,12.228,0,8.234,6.022,10.938,12.72,12.535,8.971,2.151,11.982,3.441,11.982,9.402,0,5.53-3.994,8.295-9.156,8.295-6.575,0-10.262-3.195-10.876-10.692h-6.206c.369,9.34,6.083,15.731,16.96,15.731h0Zm33.366-4.424c-3.011,0-6.206-1.045-6.206-5.285,0-4.547,3.257-5.407,8.357-6.329,2.704-.492,5.592-1.29,7.251-2.335v5.285c0,3.81-2.827,8.664-9.402,8.664h0Zm9.402-1.352h.184c.614,3.503,2.212,5.162,5.715,5.162,1.352,0,2.273-.246,3.072-.492v-3.994h-.246c-2.888,.614-3.503-.799-3.503-3.441v-15.423c0-4.424-1.659-7.312-4.424-8.971-2.089-1.229-4.854-1.782-7.988-1.782-8.91,0-13.15,4.977-13.396,10.569h5.53c.184-3.933,2.704-6.268,7.927-6.268,4.547,0,7.067,2.089,7.067,5.653,0,3.38-3.134,4.117-7.988,4.731-8.234,1.045-13.58,2.704-13.58,10.385,0,6.329,4.854,9.402,10.815,9.402,5.592,0,8.726-2.642,10.815-5.53h0Zm20.093,16.345c4.24,0,6.882-1.536,9.586-8.48l14.01-36.009h-5.961l-6.575,18.312c-1.29,3.687-2.827,8.91-2.827,8.91h-.123s-1.413-5.162-2.765-8.91l-6.821-18.312h-6.206l12.597,31.339c.123,.369-1.168,4.056-1.168,4.178-1.168,3.134-2.642,3.994-4.916,3.994-1.413,0-2.827-.246-3.441-.614h-.246v4.916c.922,.369,3.011,.676,4.854,.676h0Z"/><path d="M25.803,139.727c9.463,0,14.809-7.742,14.809-17.39,0-9.586-5.346-17.329-14.809-17.329-9.524,0-14.932,7.742-14.932,17.329,0,9.647,5.407,17.39,14.932,17.39h0Zm-.061-4.67c-6.268,0-9.033-5.592-9.033-12.72s2.765-12.782,9.033-12.782,9.033,5.653,9.033,12.782-2.765,12.72-9.033,12.72h0Zm37.544,4.731c7.927,0,12.781-6.759,12.781-17.39,0-10.877-5.1-17.39-12.658-17.39-4.301,0-7.497,2.519-9.463,6.022h-.123c.061-1.413,.184-3.81,.184-6.268v-11.675h-5.715v45.718h5.592v-4.67h.184c1.843,3.687,5.223,5.653,9.217,5.653h0Zm-.86-4.731c-5.776,0-8.726-5.407-8.726-12.597,0-7.005,2.765-12.659,8.787-12.659,5.223,0,7.742,5.407,7.742,12.659s-2.519,12.597-7.804,12.597h0Zm39.879,3.748v-45.718h-15.362v4.977h9.647v40.74h5.715Zm32.26,.983c7.927,0,12.781-6.759,12.781-17.39,0-10.877-5.1-17.39-12.658-17.39-4.301,0-7.497,2.519-9.463,6.022h-.123c.061-1.413,.184-3.81,.184-6.268v-11.675h-5.715v45.718h5.592v-4.67h.184c1.843,3.687,5.223,5.653,9.217,5.653h0Zm-.86-4.731c-5.776,0-8.726-5.407-8.726-12.597,0-7.005,2.765-12.659,8.787-12.659,5.223,0,7.742,5.407,7.742,12.659s-2.519,12.597-7.804,12.597h0Zm27.159-16.346c0-5.285,3.503-8.91,8.234-8.91,4.24,0,6.759,2.396,6.759,6.636v22.367h5.653v-23.043c0-6.882-3.994-10.753-10.569-10.753-4.547,0-7.742,2.151-10.016,5.469h-.184v-4.67h-5.53v32.998h5.653v-20.094h0Zm44.057,16.346c-6.206,0-8.726-5.592-8.726-12.535,0-7.005,2.765-12.659,8.787-12.659,5.285,0,7.865,5.407,7.865,12.659,0,7.189-2.704,12.535-7.927,12.535h0Zm-8.418,4.916c0-2.458-.061-4.363-.123-5.53h.123c1.966,3.503,5.223,5.346,9.217,5.346,7.988,0,12.966-6.821,12.966-17.39,0-10.877-5.162-17.39-12.781-17.39-4.178,0-7.189,2.212-9.34,5.96h-.184v-5.162h-5.592v44.182h5.715v-10.016h0Zm40.678-.43c4.486,0,7.251-2.089,9.463-5.346h.123v4.609h5.592v-32.998h-5.715v20.094c0,5.1-3.011,8.971-7.681,8.971-4.24,0-6.698-2.458-6.698-6.636v-22.429h-5.715v22.736c0,6.882,4.117,10.999,10.63,10.999h0Zm39.018-4.486c-6.206,0-8.726-5.592-8.726-12.535,0-7.005,2.765-12.659,8.787-12.659,5.285,0,7.865,5.407,7.865,12.659,0,7.189-2.704,12.535-7.927,12.535h0Zm-8.418,4.916c0-2.458-.061-4.363-.123-5.53h.123c1.966,3.503,5.223,5.346,9.217,5.346,7.988,0,12.966-6.821,12.966-17.39,0-10.877-5.162-17.39-12.781-17.39-4.178,0-7.189,2.212-9.34,5.96h-.184v-5.162h-5.592v44.182h5.715v-10.016h0Z"/><path d="M37.785,66.624v-4.67h-.184c-1.966,.492-3.38,.799-5.899,.799-3.871,0-5.285-1.168-5.285-4.24v-19.971h10.815v-4.424h-10.815v-10.385h-5.653v10.385h-7.62v4.424h7.62v20.831c0,5.285,2.704,8.234,9.586,8.234,3.625,0,5.715-.492,7.435-.983h0Zm25.5,1.475c7.927,0,12.781-6.759,12.781-17.39,0-10.876-5.1-17.39-12.658-17.39-4.301,0-7.497,2.519-9.463,6.022h-.123c.061-1.413,.184-3.81,.184-6.268v-11.675h-5.715v45.717h5.592v-4.67h.184c1.843,3.687,5.223,5.653,9.217,5.653h0Zm-.86-4.731c-5.776,0-8.726-5.407-8.726-12.597,0-7.005,2.765-12.658,8.787-12.658,5.223,0,7.742,5.407,7.742,12.658s-2.519,12.597-7.804,12.597h0Zm32.198,4.486c4.486,0,7.251-2.089,9.463-5.346h.123v4.609h5.592V34.118h-5.715v20.094c0,5.1-3.011,8.971-7.681,8.971-4.24,0-6.698-2.458-6.698-6.636v-22.429h-5.715v22.736c0,6.882,4.117,10.999,10.631,10.999h0Zm39.019-4.486c-6.206,0-8.726-5.592-8.726-12.535,0-7.005,2.765-12.658,8.787-12.658,5.285,0,7.865,5.407,7.865,12.658,0,7.189-2.704,12.535-7.927,12.535h0Zm-8.418,4.916c0-2.458-.061-4.363-.123-5.53h.123c1.966,3.503,5.223,5.346,9.217,5.346,7.988,0,12.966-6.821,12.966-17.39,0-10.876-5.162-17.39-12.781-17.39-4.178,0-7.189,2.212-9.34,5.96h-.184v-5.162h-5.592v44.181h5.715v-10.016h0Zm55.118-1.659v-4.67h-.184c-1.966,.492-3.38,.799-5.899,.799-3.871,0-5.285-1.168-5.285-4.24v-19.971h10.815v-4.424h-10.815v-10.385h-5.653v10.385h-7.62v4.424h7.62v20.831c0,5.285,2.704,8.234,9.586,8.234,3.625,0,5.715-.492,7.435-.983h0Zm22.858-38.589h6.329v-6.636h-6.329v6.636h0Zm6.022,39.081V34.118h-15.362v4.977h9.647v28.02h5.715Zm29.617-39.081h6.329v-6.636h-6.329v6.636h0Zm-4.977,49.527c8.48,0,10.999-3.625,10.999-9.709V34.118h-15.362v4.977h9.647v28.45c0,3.625-1.229,5.039-6.268,5.039-1.843,0-3.687-.369-4.793-.799h-.184v4.854c1.659,.553,3.687,.922,5.96,.922h0Z"/></svg>