<?xml version="1.0" encoding="UTF-8"?><svg id="a" xmlns="http://www.w3.org/2000/svg" viewBox="0 0 350 350"><path d="M25.602,127.766l.646-1.869-5.535-1.911,1.253-3.63c.505-1.464,.529-2.681,.07-3.652-.459-.971-1.313-1.672-2.562-2.104-.546-.188-1.066-.273-1.561-.254-.495,.019-.971,.118-1.427,.299-.546,.205-1.024,.537-1.434,.998-.41,.461-.741,1.054-.991,1.78l-1.961,5.681,13.503,4.662h0Zm-11.242-5.974l1.216-3.52c.288-.835,.711-1.413,1.27-1.736,.558-.321,1.236-.345,2.035-.069,.762,.263,1.282,.69,1.559,1.28,.277,.59,.257,1.345-.061,2.264l-1.191,3.448-4.828-1.667h0Zm7.064-12.949l-3.421-1.522-.726,1.632,13.052,5.805,.726-1.632-5.737-2.551c-.374-.167-.692-.382-.953-.645-.261-.263-.453-.555-.577-.876-.123-.321-.178-.664-.163-1.029,.015-.364,.103-.728,.264-1.09,.286-.643,.675-1.076,1.166-1.299,.491-.223,1.041-.199,1.649,.071l6.386,2.841,.718-1.614-6.579-2.926c-.994-.442-1.879-.5-2.655-.173-.776,.328-1.385,.988-1.827,1.982-.307,.691-.428,1.341-.363,1.951,.065,.61,.271,1.202,.618,1.777l-.023,.052c-.229-.115-.487-.244-.774-.386-.287-.141-.548-.264-.782-.368h0Zm3.322-10.996l.859-1.652-1.84-.956-.859,1.652,1.84,.956h0Zm10.852,5.599l.824-1.584-9.148-4.756-.824,1.584,9.148,4.756h0Zm2.667-5.004l.881-1.554-12.426-7.046-.881,1.553,12.426,7.046h0Zm6.335-10.662c.099-.669,.06-1.32-.117-1.953-.176-.633-.478-1.226-.905-1.779-.427-.552-.957-1.034-1.591-1.446-.622-.404-1.273-.69-1.951-.855-.678-.166-1.343-.2-1.993-.104-.65,.097-1.261,.326-1.832,.688-.571,.362-1.069,.87-1.494,1.525-.425,.655-.689,1.319-.791,1.993-.102,.674-.065,1.328,.111,1.961,.176,.634,.476,1.229,.9,1.787,.424,.558,.947,1.039,1.57,1.443,.633,.411,1.291,.698,1.973,.858,.682,.161,1.348,.193,1.998,.096,.65-.096,1.263-.328,1.837-.696,.574-.367,1.074-.878,1.5-1.533,.425-.655,.687-1.317,.786-1.985h0Zm-3.037,2.206c-.392,.226-.811,.354-1.259,.384-.448,.03-.91-.03-1.387-.18-.477-.149-.952-.378-1.425-.685-.463-.301-.862-.64-1.197-1.018s-.584-.78-.744-1.204c-.16-.425-.217-.862-.169-1.312,.048-.45,.214-.895,.5-1.335,.286-.44,.625-.773,1.017-1,.392-.226,.814-.353,1.267-.379,.453-.026,.921,.037,1.403,.19,.482,.153,.954,.379,1.417,.68,.474,.308,.875,.649,1.206,1.024,.33,.375,.573,.773,.728,1.194,.155,.421,.209,.857,.161,1.307-.048,.45-.214,.895-.5,1.335-.286,.44-.625,.773-1.017,1h0Zm10.316-11.875c.208-.487,.32-.955,.336-1.404,.017-.449-.069-.876-.257-1.281-.188-.405-.489-.769-.904-1.09-.475-.369-.925-.588-1.349-.658-.424-.07-.835-.036-1.232,.101-.398,.137-.789,.348-1.172,.633-.383,.286-.773,.599-1.168,.941-.338,.289-.641,.544-.91,.765-.269,.221-.521,.39-.757,.506-.236,.117-.46,.17-.671,.16-.211-.01-.423-.097-.635-.262-.313-.243-.485-.575-.515-.996-.03-.42,.171-.909,.602-1.465,.455-.586,.91-.942,1.364-1.068,.454-.125,.917-.054,1.389,.215l1.095-1.41c-.778-.458-1.589-.593-2.432-.405-.843,.189-1.661,.793-2.453,1.814-.738,.951-1.104,1.845-1.099,2.684,.005,.839,.357,1.529,1.055,2.07,.445,.345,.874,.545,1.286,.597,.413,.053,.813,.007,1.201-.138,.388-.144,.775-.362,1.163-.653,.388-.29,.775-.602,1.162-.933,.7-.607,1.275-1.015,1.725-1.225,.45-.21,.9-.14,1.349,.209,.368,.286,.566,.67,.592,1.153,.027,.483-.211,1.048-.713,1.695-.228,.293-.468,.544-.721,.753-.253,.209-.518,.364-.794,.465-.277,.101-.569,.138-.877,.109-.308-.029-.628-.138-.958-.33l-1.107,1.426c.876,.583,1.799,.757,2.768,.52,.969-.236,1.893-.92,2.772-2.053,.369-.475,.657-.956,.865-1.443h0Zm8.058-9.887c.201-.645,.264-1.294,.188-1.948-.076-.653-.282-1.285-.619-1.897-.336-.612-.785-1.17-1.348-1.675-.552-.496-1.15-.878-1.795-1.148-.644-.269-1.295-.406-1.953-.412-.657-.005-1.296,.126-1.916,.395-.62,.269-1.191,.694-1.713,1.275-.522,.581-.885,1.197-1.09,1.846-.205,.65-.27,1.302-.194,1.955,.076,.653,.28,1.288,.612,1.905,.332,.617,.775,1.173,1.327,1.669,.562,.505,1.167,.889,1.816,1.153,.649,.264,1.302,.399,1.959,.405,.657,.006,1.298-.128,1.923-.402,.624-.274,1.197-.701,1.719-1.282,.522-.581,.883-1.194,1.084-1.839h0Zm-3.342,1.709c-.422,.163-.857,.224-1.304,.184-.447-.04-.894-.171-1.342-.392-.448-.222-.882-.521-1.302-.898-.411-.369-.752-.766-1.025-1.191-.273-.426-.456-.861-.548-1.305-.093-.444-.081-.885,.036-1.322,.117-.437,.35-.851,.701-1.242,.351-.39,.737-.667,1.159-.83,.422-.163,.859-.222,1.311-.178,.452,.044,.904,.179,1.356,.405,.452,.226,.884,.523,1.294,.892,.42,.377,.764,.777,1.032,1.198,.268,.422,.446,.852,.534,1.292,.088,.44,.073,.879-.043,1.316-.117,.437-.351,.851-.701,1.241-.351,.391-.737,.667-1.159,.83h0Zm10.272-3.793l1.3-1.225-2.146-2.278c-.272-.289-.509-.536-.711-.741-.202-.205-.369-.368-.502-.49l.042-.039c.638,.155,1.254,.146,1.848-.026,.594-.172,1.147-.5,1.659-.983,.503-.474,.869-.995,1.099-1.563,.23-.568,.324-1.158,.284-1.771-.04-.612-.215-1.231-.522-1.856-.307-.625-.746-1.24-1.317-1.846-.579-.615-1.179-1.092-1.798-1.432-.619-.34-1.231-.546-1.836-.618-.605-.072-1.19-.013-1.757,.178-.567,.191-1.088,.511-1.563,.958-.54,.509-.892,1.065-1.055,1.666-.163,.602-.182,1.249-.058,1.941l-.042,.039-1.106-1.174-1.286,1.211,9.466,10.048h0Zm-.936-5.95c-.429,.123-.858,.144-1.286,.064-.428-.08-.848-.256-1.261-.526-.413-.27-.804-.601-1.173-.993-.377-.4-.684-.819-.92-1.257-.236-.437-.381-.876-.436-1.317-.055-.44-.008-.872,.14-1.293,.148-.421,.423-.82,.824-1.198,.345-.325,.715-.538,1.112-.639,.397-.101,.802-.105,1.216-.011,.414,.094,.829,.278,1.247,.553,.418,.275,.819,.618,1.205,1.027,.386,.41,.7,.831,.94,1.264,.241,.433,.393,.856,.458,1.27,.065,.414,.035,.816-.09,1.206-.125,.39-.36,.748-.704,1.072-.419,.395-.844,.654-1.273,.777h0Zm3.002-14.837l-2.331-2.93-1.397,1.112,8.893,11.179,1.397-1.112-3.909-4.913c-.255-.32-.438-.658-.548-1.012-.11-.354-.145-.702-.107-1.044,.039-.341,.149-.671,.331-.987,.182-.316,.428-.598,.738-.845,.551-.438,1.096-.643,1.634-.613,.539,.03,1.015,.305,1.43,.826l4.351,5.469,1.382-1.1-4.483-5.634c-.677-.851-1.436-1.311-2.275-1.38-.839-.068-1.685,.237-2.536,.914-.591,.47-.999,.991-1.223,1.562-.225,.571-.315,1.192-.273,1.861l-.045,.036c-.15-.208-.319-.442-.508-.7-.189-.258-.363-.488-.523-.688h0Zm7.979-8.247l1.524-1.07-1.191-1.697-1.524,1.07,1.191,1.697h0Zm7.049,9.972l1.461-1.026-5.925-8.438-1.461,1.026,5.925,8.438h0Zm10.77-7.987c.297-.995,.169-2.051-.384-3.168l-1.504,.926c.348,.688,.439,1.342,.273,1.963-.166,.621-.593,1.143-1.279,1.566-.447,.275-.896,.431-1.347,.467-.451,.036-.886-.029-1.303-.194-.418-.166-.81-.418-1.178-.759-.367-.34-.7-.751-.996-1.233-.29-.471-.506-.949-.648-1.436-.142-.487-.193-.954-.153-1.401,.04-.448,.178-.865,.413-1.251,.235-.387,.576-.717,1.023-.993,.643-.396,1.258-.545,1.844-.447,.586,.098,1.115,.407,1.586,.928l1.52-.936c-.737-.854-1.604-1.353-2.602-1.498-.998-.144-2.026,.109-3.083,.76-.654,.403-1.171,.887-1.552,1.452-.381,.565-.628,1.172-.74,1.82-.112,.648-.096,1.315,.048,2,.144,.686,.411,1.344,.8,1.976,.396,.643,.868,1.183,1.415,1.62,.547,.437,1.136,.752,1.764,.943,.629,.192,1.282,.245,1.958,.158,.676-.086,1.341-.33,1.995-.733,1.122-.691,1.832-1.534,2.129-2.529h0Zm8.429-3.776c.268-.247,.49-.507,.666-.779,.176-.272,.313-.549,.412-.831,.099-.282,.169-.564,.21-.845l.017-.009c.345,.441,.703,.713,1.074,.816,.37,.103,.8,.027,1.288-.227,.193-.1,.348-.199,.464-.295,.115-.096,.221-.191,.317-.284l-.575-1.107-.069,.035c-.35,.298-.635,.388-.854,.271-.219-.116-.423-.357-.612-.72l-2.223-4.276c-.319-.613-.693-1.068-1.121-1.365-.429-.297-.895-.458-1.399-.485-.384-.017-.784,.033-1.2,.148-.416,.116-.84,.285-1.271,.51-.614,.319-1.109,.677-1.486,1.075-.378,.398-.649,.813-.814,1.245-.165,.432-.235,.866-.211,1.3,.024,.435,.131,.848,.32,1.24l1.533-.797c-.26-.557-.294-1.087-.102-1.591,.192-.504,.652-.945,1.379-1.323,.636-.331,1.195-.441,1.678-.331,.482,.11,.854,.415,1.113,.914,.124,.239,.174,.458,.148,.659-.025,.201-.109,.4-.252,.597-.143,.197-.336,.395-.579,.593-.243,.199-.526,.403-.849,.614-.555,.375-1.045,.745-1.468,1.11-.424,.365-.756,.739-.996,1.123-.24,.385-.365,.796-.376,1.234-.01,.438,.124,.924,.401,1.458,.231,.443,.509,.785,.837,1.026,.327,.241,.686,.397,1.076,.468,.391,.071,.804,.062,1.241-.028,.436-.09,.87-.247,1.302-.471,.386-.201,.713-.425,.981-.672h0Zm-1.896-.4c-.242,.076-.477,.101-.707,.076-.229-.025-.444-.105-.643-.239-.2-.134-.376-.349-.53-.644-.165-.318-.24-.607-.224-.868,.016-.26,.098-.512,.246-.755,.147-.242,.356-.481,.624-.714,.268-.233,.572-.481,.911-.744s.666-.544,.979-.844c.313-.3,.544-.582,.695-.848l.779,1.499c.136,.261,.224,.562,.263,.902,.04,.34,.01,.684-.091,1.032-.1,.348-.278,.686-.533,1.013-.256,.328-.611,.609-1.065,.846-.227,.118-.461,.215-.704,.29h0Zm9.145-3.239l1.631-.726-5.805-13.052-1.632,.726,5.806,13.052h0Zm5.252-2.293l1.657-.665-5.322-13.257-1.657,.665,5.322,13.257h0Zm8.534,.445c.237-.156,.435-.367,.595-.632,.159-.265,.282-.595,.369-.991,.086-.396,.145-.883,.175-1.462l.466-12.064-1.761,.608-.074,6.079c-.001,.312,.003,.636,.01,.971,.008,.336,.015,.652,.023,.947,.011,.348,.025,.682,.041,1.001l-.037,.013c-.185-.261-.374-.534-.567-.82-.177-.237-.366-.49-.567-.759-.201-.269-.398-.526-.591-.771l-3.882-4.713-1.833,.633,6.917,7.971c.02,.02,.035,.103,.045,.248,.009,.146,.015,.299,.017,.461,0,.162,.004,.306,.007,.434,.004,.127,.008,.197,.012,.209-.011,.518-.103,.899-.276,1.142-.174,.243-.43,.423-.769,.539-.206,.071-.407,.124-.605,.158-.198,.034-.356,.038-.474,.011l-.072,.025,.501,1.452c.154,.014,.373-.007,.658-.065,.285-.058,.566-.135,.845-.231,.314-.109,.59-.241,.827-.398h0Zm11.48-16.436l1.574-.353,1.509,6.73c.165,.735,.494,1.208,.987,1.418,.493,.21,1.079,.245,1.756,.107,.462-.104,.918-.265,1.367-.484l-.327-1.461-.057,.013c-.094,.048-.222,.106-.384,.175-.161,.069-.317,.12-.467,.154-.325,.073-.592,.064-.803-.026-.21-.09-.356-.316-.437-.677l-1.42-6.335,2.079-.466-.307-1.368-2.079,.466-.71-3.166-1.724,.387,.71,3.166-1.573,.353,.306,1.368h0Zm10.746-3.937l-.589-3.697-1.764,.281,2.247,14.107,1.763-.281-.987-6.2c-.064-.404-.058-.788,.021-1.15,.078-.362,.218-.683,.42-.961,.202-.278,.46-.511,.774-.697,.314-.186,.667-.31,1.059-.373,.695-.111,1.27-.021,1.724,.27,.455,.291,.734,.765,.839,1.422l1.099,6.902,1.744-.278-1.132-7.11c-.171-1.074-.605-1.848-1.302-2.32-.698-.472-1.584-.623-2.658-.452-.746,.119-1.357,.372-1.833,.758-.477,.387-.861,.883-1.154,1.486l-.057,.009c-.027-.255-.06-.541-.097-.859-.038-.318-.077-.603-.117-.856h0Zm19.694,7.637c.735-.658,1.179-1.475,1.329-2.45l-1.741,.144c-.121,.562-.401,1.019-.841,1.37-.44,.351-1.017,.556-1.731,.615-.497,.041-.945-.012-1.342-.159-.398-.147-.744-.369-1.038-.666-.294-.297-.535-.656-.724-1.077-.189-.421-.323-.879-.402-1.373l7.883-.65c-.072-.88-.243-1.669-.513-2.366-.269-.697-.635-1.283-1.098-1.759-.45-.464-.979-.812-1.589-1.044-.61-.232-1.298-.317-2.063-.254-.74,.061-1.402,.257-1.984,.587-.583,.331-1.068,.759-1.455,1.285-.387,.526-.671,1.128-.853,1.804-.182,.677-.242,1.385-.181,2.125,.062,.753,.232,1.448,.509,2.087,.277,.639,.653,1.186,1.128,1.641,.474,.456,1.032,.798,1.674,1.027,.641,.229,1.358,.312,2.149,.247,1.186-.098,2.147-.476,2.883-1.133h0Zm-1.611-7.617c.537,.511,.871,1.259,1.004,2.244l-5.951,.491c.013-.461,.081-.888,.203-1.28,.121-.393,.298-.74,.531-1.04,.232-.3,.52-.544,.864-.732,.344-.188,.746-.301,1.205-.339,.893-.074,1.608,.145,2.144,.656h0Zm8.912,11.451c.275-.072,.53-.208,.766-.408,.235-.2,.457-.473,.666-.82,.209-.347,.421-.79,.635-1.329l4.306-11.279-1.862,.012-2.018,5.734c-.101,.295-.201,.603-.301,.924-.101,.321-.195,.622-.283,.904-.1,.334-.194,.654-.282,.962h-.038c-.092-.306-.183-.626-.275-.958-.091-.281-.189-.581-.294-.901-.104-.319-.208-.626-.313-.92l-2.167-5.708-1.939,.012,3.998,9.767c.013,.026,0,.109-.037,.25-.038,.141-.082,.289-.132,.442s-.094,.292-.131,.414c-.038,.122-.057,.189-.057,.202-.176,.487-.385,.819-.627,.993-.242,.174-.543,.263-.901,.265-.218,.001-.426-.013-.624-.044-.199-.031-.35-.078-.452-.141h-.077s.01,1.536,.01,1.536c.141,.063,.356,.113,.644,.149,.288,.037,.579,.054,.874,.052,.332-.002,.636-.039,.911-.111h0Zm12.178-17.518l-1.917-.109-.116,2.032,.862,.049-.013,.23c-.028,.498-.139,.857-.33,1.077-.193,.22-.412,.361-.659,.424l-.054,.939c.257-.011,.507-.067,.75-.169,.243-.102,.46-.253,.651-.453,.191-.201,.349-.451,.476-.752,.126-.301,.201-.662,.225-1.083l.125-2.185h0Zm5.503,4.379l-1.759-.167-.976,10.264,1.777,.169,.531-5.581c.046-.484,.167-.91,.363-1.277,.195-.367,.44-.672,.733-.914,.293-.242,.625-.419,.996-.532,.37-.112,.753-.15,1.148-.112,.153,.014,.28,.033,.381,.056,.1,.022,.213,.059,.337,.109l.057,.005,.16-1.682c-.099-.048-.194-.086-.288-.114s-.211-.049-.351-.062c-.688-.065-1.304,.059-1.849,.374-.544,.315-1.004,.756-1.379,1.325l-.058-.005,.177-1.854h0Zm13.09,11.512c.871-.464,1.495-1.152,1.874-2.064l-1.726-.275c-.251,.517-.631,.894-1.142,1.13-.511,.236-1.12,.298-1.828,.185-.493-.078-.915-.236-1.266-.474-.351-.237-.634-.535-.849-.893-.215-.358-.364-.764-.448-1.218-.083-.454-.104-.93-.064-1.43l7.812,1.244c.139-.872,.161-1.679,.065-2.42-.096-.741-.312-1.397-.649-1.97-.326-.557-.758-1.021-1.295-1.392-.537-.371-1.185-.616-1.943-.737-.733-.117-1.422-.084-2.067,.099-.645,.183-1.218,.484-1.718,.903-.502,.419-.921,.936-1.258,1.549-.338,.614-.565,1.287-.682,2.02-.118,.746-.119,1.462,0,2.148,.117,.686,.352,1.307,.704,1.862,.352,.555,.813,1.021,1.382,1.396,.569,.375,1.245,.626,2.029,.751,1.175,.187,2.199,.049,3.07-.415h0Zm.247-7.781c.4,.624,.547,1.43,.441,2.418l-5.896-.939c.122-.444,.289-.843,.501-1.195,.212-.353,.466-.647,.763-.883,.297-.236,.634-.405,1.013-.505,.379-.101,.796-.115,1.251-.042,.885,.141,1.527,.524,1.927,1.147h0Zm10.217,14.228l1.715,.499,.874-3.005c.11-.381,.203-.711,.277-.989,.074-.278,.13-.505,.168-.681l.056,.016c.19,.629,.51,1.155,.96,1.579,.45,.424,1.013,.734,1.689,.931,.664,.193,1.299,.244,1.905,.154s1.162-.308,1.67-.654c.507-.346,.951-.81,1.334-1.392,.382-.582,.69-1.272,.922-2.071,.236-.811,.343-1.57,.322-2.276-.022-.706-.155-1.338-.399-1.895-.244-.558-.593-1.032-1.046-1.424-.452-.392-.992-.678-1.619-.861-.713-.207-1.37-.228-1.971-.063s-1.168,.477-1.701,.935l-.056-.016,.451-1.549-1.697-.493-3.854,13.256h0Zm4.652-3.826c-.324-.307-.56-.666-.707-1.075-.148-.409-.21-.861-.186-1.354,.023-.493,.11-.998,.26-1.514,.153-.528,.359-1.005,.616-1.431,.256-.425,.561-.773,.913-1.044,.352-.271,.747-.449,1.185-.535,.438-.086,.922-.052,1.45,.102,.455,.132,.827,.344,1.116,.634,.288,.291,.497,.638,.627,1.042,.129,.404,.181,.856,.156,1.355-.026,.499-.117,1.019-.274,1.56-.157,.541-.361,1.025-.612,1.452-.251,.427-.538,.773-.862,1.039-.324,.266-.686,.444-1.085,.534-.4,.091-.827,.07-1.282-.063-.553-.161-.991-.395-1.315-.702h0Zm12.817,5.878c.363,.038,.705,.033,1.025-.015,.32-.048,.619-.127,.896-.24,.277-.112,.534-.246,.773-.401l.018,.007c-.104,.55-.071,.999,.097,1.345,.167,.346,.508,.619,1.021,.818,.203,.079,.379,.129,.528,.153,.149,.023,.29,.04,.423,.051l.451-1.164-.072-.028c-.455-.066-.711-.22-.768-.462-.058-.242-.012-.554,.136-.936l1.74-4.494c.25-.645,.344-1.226,.284-1.743-.061-.518-.248-.974-.561-1.37-.241-.299-.542-.567-.904-.803-.361-.236-.769-.442-1.222-.618-.645-.25-1.241-.384-1.789-.405-.549-.02-1.039,.051-1.472,.212-.434,.162-.806,.395-1.116,.701-.31,.305-.55,.659-.719,1.06l1.611,.624c.246-.564,.622-.94,1.127-1.128,.505-.188,1.14-.135,1.904,.161,.668,.259,1.121,.606,1.358,1.04,.236,.435,.253,.915,.049,1.44-.097,.251-.229,.433-.396,.546-.168,.114-.373,.182-.615,.205-.242,.023-.518,.009-.828-.043-.309-.051-.65-.128-1.022-.231-.649-.169-1.25-.292-1.803-.369-.554-.077-1.054-.079-1.501-.005-.448,.074-.839,.252-1.174,.534-.336,.282-.613,.703-.83,1.264-.18,.466-.253,.901-.217,1.306,.035,.405,.155,.777,.36,1.117,.204,.34,.485,.644,.841,.912,.356,.268,.76,.49,1.214,.666,.406,.157,.79,.254,1.153,.292h0Zm-.953-1.687c-.216-.132-.391-.292-.524-.481-.133-.189-.215-.402-.246-.641-.031-.239,.014-.513,.134-.823,.129-.334,.297-.581,.503-.742,.206-.16,.449-.265,.73-.315,.279-.049,.596-.05,.948-.003,.352,.047,.739,.111,1.161,.192,.422,.081,.848,.14,1.28,.177,.432,.037,.797,.024,1.096-.039l-.61,1.576c-.106,.275-.274,.539-.503,.794-.229,.254-.507,.459-.835,.614-.327,.155-.698,.244-1.113,.269-.414,.025-.86-.055-1.338-.24-.239-.093-.466-.204-.683-.337h0Zm14.344-3.954l-1.606-.737-4.304,9.369,1.622,.746,2.341-5.094c.203-.442,.457-.804,.763-1.086,.306-.282,.637-.489,.993-.621,.357-.132,.729-.19,1.116-.174,.387,.016,.761,.107,1.121,.272,.14,.064,.253,.124,.341,.178,.088,.055,.182,.126,.282,.214l.053,.024,.705-1.535c-.077-.078-.155-.145-.234-.203-.08-.057-.183-.116-.311-.174-.628-.289-1.251-.374-1.868-.256-.618,.118-1.198,.383-1.74,.796l-.052-.024,.778-1.692h0Zm5.682,4.246l1.422,.761-3.256,6.081c-.355,.664-.415,1.237-.179,1.719,.236,.481,.655,.89,1.259,1.228,.417,.223,.867,.399,1.351,.527l.707-1.32-.051-.027c-.103-.026-.237-.065-.405-.119-.167-.053-.319-.116-.454-.189-.294-.157-.491-.339-.591-.544-.1-.206-.063-.472,.112-.798l3.064-5.723,1.879,1.006,.662-1.236-1.879-1.006,1.531-2.861-1.557-.834-1.531,2.861-1.422-.761-.662,1.236h0Zm14.746,19.056c.666,.115,1.318,.091,1.955-.069,.637-.161,1.238-.448,1.8-.862,.562-.414,1.057-.932,1.484-1.556,.419-.612,.719-1.256,.902-1.93,.182-.674,.232-1.337,.152-1.99-.081-.652-.296-1.268-.644-1.848-.348-.579-.844-1.09-1.488-1.531-.644-.441-1.302-.72-1.974-.839-.671-.118-1.326-.097-1.963,.064-.637,.161-1.24,.447-1.808,.857-.568,.41-1.061,.922-1.48,1.534-.427,.623-.729,1.274-.905,1.951-.177,.678-.225,1.343-.144,1.995,.08,.652,.297,1.27,.651,1.853,.353,.583,.852,1.095,1.496,1.536,.644,.441,1.3,.719,1.966,.833h0Zm-2.132-3.089c-.217-.397-.335-.82-.354-1.268-.019-.448,.052-.909,.213-1.382,.161-.473,.401-.943,.72-1.408,.311-.455,.66-.846,1.046-1.173,.387-.326,.794-.565,1.222-.715,.429-.15,.867-.196,1.316-.137,.448,.058,.889,.235,1.323,.532,.433,.296,.757,.643,.974,1.04,.217,.397,.333,.822,.348,1.276,.016,.454-.059,.919-.223,1.398-.165,.478-.403,.945-.714,1.4-.319,.466-.67,.859-1.053,1.181-.382,.321-.786,.554-1.211,.699-.424,.145-.861,.188-1.31,.13-.448-.058-.889-.236-1.322-.532-.434-.297-.758-.643-.975-1.04h0Zm11.993-.629l1.258,.977-5.462,7.037,1.41,1.095,5.463-7.038,1.668,1.295,.86-1.107-1.669-1.295,.824-1.062c.165-.212,.324-.365,.477-.457,.152-.092,.321-.127,.506-.105,.186,.022,.393,.11,.622,.264,.229,.154,.503,.37,.821,.649l.906-1.168c-.124-.112-.244-.218-.361-.317-.118-.099-.232-.192-.343-.278-.395-.306-.769-.54-1.122-.7-.353-.161-.697-.234-1.033-.219-.643,.035-1.255,.427-1.836,1.175l-.871,1.122-1.259-.977-.859,1.107h0Zm9.44,19.838c.32,.175,.637,.303,.951,.384,.313,.08,.62,.122,.919,.126,.298,.004,.588-.02,.867-.07l.014,.013c-.308,.467-.452,.893-.432,1.277,.02,.384,.229,.768,.625,1.15,.157,.151,.299,.266,.427,.345,.128,.079,.252,.149,.371,.211l.866-.898-.055-.053c-.394-.237-.57-.479-.529-.724,.04-.245,.203-.515,.488-.81l3.346-3.468c.48-.497,.792-.996,.937-1.497,.145-.501,.15-.994,.015-1.48-.107-.369-.281-.733-.522-1.09-.242-.358-.538-.706-.888-1.043-.497-.48-.995-.835-1.492-1.066-.498-.231-.978-.356-1.44-.375-.462-.019-.895,.052-1.299,.213-.405,.161-.763,.394-1.074,.698l1.243,1.2c.445-.424,.937-.625,1.476-.604,.539,.022,1.104,.318,1.693,.886,.516,.498,.799,.993,.848,1.485,.05,.492-.121,.941-.512,1.347-.187,.193-.379,.31-.578,.35-.198,.04-.414,.023-.645-.05-.233-.073-.481-.193-.747-.36-.266-.167-.55-.37-.853-.609-.532-.407-1.039-.753-1.519-1.039-.48-.286-.941-.481-1.382-.586-.441-.105-.87-.093-1.289,.037-.419,.13-.837,.411-1.254,.844-.347,.359-.583,.732-.707,1.119-.124,.387-.158,.777-.101,1.17,.056,.393,.197,.782,.421,1.167,.224,.385,.511,.747,.862,1.084,.313,.302,.629,.541,.949,.716h0Zm-.224-1.924c-.149-.205-.248-.421-.297-.646-.049-.225-.042-.454,.022-.686,.063-.232,.211-.468,.442-.707,.249-.258,.499-.421,.752-.489,.252-.068,.516-.07,.794-.008,.277,.063,.569,.185,.875,.365,.307,.18,.639,.389,.996,.627,.357,.238,.728,.458,1.112,.659,.383,.201,.725,.331,1.025,.389l-1.173,1.216c-.205,.212-.462,.391-.771,.537-.31,.146-.646,.227-1.008,.242-.361,.016-.738-.046-1.13-.183-.392-.138-.772-.385-1.14-.74-.185-.178-.351-.369-.499-.575h0Zm16.741,6.263l1.034,1.238-5.294,4.422c-.578,.483-.848,.992-.809,1.527,.039,.534,.275,1.071,.708,1.61,.304,.363,.656,.695,1.056,.994l1.149-.96-.036-.044c-.086-.062-.196-.149-.331-.261-.136-.112-.253-.227-.351-.345-.214-.255-.328-.497-.344-.726-.017-.228,.118-.461,.402-.699l4.982-4.162,1.366,1.636,1.076-.898-1.366-1.636,2.49-2.08-1.132-1.356-2.491,2.08-1.034-1.238-1.075,.899h0Zm8.153,7.866l-1.049-1.421-8.294,6.125,1.061,1.436,4.51-3.331c.391-.289,.789-.483,1.193-.583,.404-.099,.794-.121,1.169-.064,.376,.057,.73,.185,1.061,.386,.331,.201,.615,.461,.851,.78,.091,.124,.162,.23,.213,.32,.05,.09,.098,.198,.143,.324l.034,.046,1.359-1.004c-.03-.105-.065-.202-.107-.291-.041-.089-.104-.19-.188-.303-.41-.556-.915-.932-1.512-1.127-.598-.195-1.234-.243-1.908-.143l-.034-.046,1.498-1.107h0Zm.412,18.793l8.646-5.617-.973-1.497-5.265,3.42c-.332,.216-.677,.367-1.033,.454-.356,.086-.7,.103-1.031,.052-.331-.052-.643-.174-.936-.365-.292-.192-.546-.454-.762-.786-.391-.601-.54-1.165-.446-1.691,.093-.526,.413-.967,.961-1.323l5.877-3.818-.973-1.497-5.958,3.87c-.912,.593-1.45,1.316-1.612,2.17-.163,.854,.048,1.731,.634,2.633,.404,.622,.864,1.053,1.377,1.292,.514,.239,1.087,.374,1.718,.406l.021,.032-1.207,.785,.962,1.481h0Zm4.693,8.477c.365,.383,.75,.672,1.156,.864,.406,.193,.832,.283,1.279,.271,.446-.012,.899-.144,1.359-.398,.526-.29,.906-.616,1.138-.978,.231-.361,.363-.752,.395-1.171,.032-.42-.007-.862-.117-1.328-.111-.465-.245-.947-.402-1.444-.132-.424-.246-.804-.342-1.138-.097-.334-.151-.633-.165-.896-.013-.263,.026-.49,.119-.679,.093-.19,.257-.35,.492-.479,.348-.191,.72-.218,1.118-.079,.398,.139,.767,.516,1.107,1.133,.358,.65,.505,1.209,.441,1.675-.064,.466-.313,.863-.747,1.19l.862,1.564c.729-.533,1.174-1.224,1.335-2.073,.16-.849-.071-1.839-.695-2.971-.581-1.054-1.257-1.744-2.03-2.071-.772-.327-1.545-.278-2.318,.149-.494,.272-.846,.587-1.058,.945-.212,.358-.328,.744-.349,1.157-.021,.413,.025,.855,.139,1.326,.113,.471,.246,.95,.397,1.436,.28,.883,.427,1.573,.442,2.069,.015,.496-.227,.882-.726,1.156-.408,.225-.839,.255-1.293,.088-.454-.166-.878-.608-1.274-1.326-.179-.325-.314-.645-.406-.96-.091-.315-.129-.619-.112-.913,.016-.294,.098-.577,.247-.849,.148-.272,.375-.521,.682-.749l-.871-1.581c-.882,.574-1.407,1.353-1.573,2.336-.167,.983,.095,2.102,.787,3.358,.291,.527,.618,.982,.983,1.366h0Zm10.57,.809l.673,1.466-6.267,2.88c-.685,.314-1.079,.735-1.181,1.261-.103,.526-.015,1.106,.262,1.739,.197,.43,.45,.842,.758,1.236l1.361-.625-.024-.052c-.067-.083-.15-.195-.251-.339-.102-.144-.184-.285-.248-.425-.139-.303-.187-.566-.142-.791,.044-.224,.234-.414,.571-.568l5.899-2.711,.89,1.937,1.273-.586-.89-1.936,2.949-1.355-.738-1.605-2.948,1.355-.673-1.466-1.274,.585h0Zm-4.484,11.747l.686,1.649,13.19-5.484-.685-1.649-13.191,5.484h0Zm5.234,12.215c.82,.55,1.721,.777,2.703,.681l-.57-1.651c-.575,.022-1.086-.136-1.535-.476-.449-.339-.791-.847-1.025-1.525-.162-.472-.222-.918-.178-1.34,.044-.421,.173-.811,.388-1.17,.215-.358,.503-.681,.864-.968,.361-.288,.772-.531,1.231-.73l2.582,7.477c.835-.288,1.556-.649,2.165-1.083,.609-.433,1.086-.933,1.432-1.5,.338-.55,.544-1.149,.618-1.798,.074-.648-.014-1.335-.265-2.061-.242-.702-.596-1.294-1.06-1.777-.465-.483-1-.846-1.605-1.091-.606-.244-1.259-.371-1.96-.38-.7-.008-1.401,.109-2.103,.351-.714,.246-1.346,.583-1.896,1.01-.55,.427-.987,.926-1.31,1.499-.324,.572-.518,1.197-.581,1.876-.064,.679,.034,1.393,.293,2.143,.388,1.125,.992,1.963,1.812,2.513h0Zm6.981-3.447c-.363,.647-1.004,1.156-1.925,1.528l-1.949-5.644c.449-.101,.879-.141,1.29-.12,.411,.02,.791,.106,1.139,.256,.348,.151,.656,.37,.923,.657,.267,.286,.476,.648,.627,1.083,.292,.847,.257,1.594-.105,2.24h0Zm-4.657,14.111c.26,.46,.564,.834,.911,1.12,.347,.285,.738,.476,1.174,.573,.436,.097,.907,.079,1.415-.055,.582-.154,1.029-.378,1.342-.672,.312-.295,.536-.642,.669-1.041,.132-.399,.202-.837,.208-1.316,.006-.478-.007-.978-.038-1.499-.025-.443-.043-.839-.055-1.187-.012-.347,.007-.65,.058-.908,.051-.259,.144-.469,.28-.63,.136-.162,.334-.277,.594-.346,.384-.101,.752-.036,1.104,.195,.352,.232,.618,.688,.798,1.368,.19,.718,.196,1.295,.02,1.732-.176,.437-.514,.762-1.014,.973l.456,1.727c.837-.34,1.436-.903,1.799-1.687,.362-.784,.378-1.801,.048-3.051-.307-1.163-.795-1.997-1.464-2.502-.67-.506-1.431-.645-2.285-.42-.545,.144-.964,.364-1.256,.659-.293,.296-.5,.642-.62,1.038-.121,.395-.183,.836-.188,1.32-.004,.484,.008,.981,.036,1.49,.057,.925,.032,1.63-.074,2.114-.107,.485-.435,.8-.986,.946-.451,.119-.876,.042-1.275-.23-.4-.271-.704-.804-.913-1.595-.095-.36-.149-.703-.161-1.03-.012-.328,.025-.633,.113-.914,.088-.281,.236-.536,.446-.763,.21-.228,.491-.414,.844-.56l-.46-1.745c-.996,.342-1.694,.969-2.095,1.883-.401,.913-.418,2.063-.052,3.449,.153,.582,.36,1.103,.621,1.564h0Zm2.406,11.362c.225,.479,.5,.874,.824,1.185,.325,.311,.701,.531,1.128,.66s.899,.146,1.415,.051c.592-.11,1.055-.3,1.389-.57,.334-.27,.582-.599,.744-.987,.163-.388,.265-.82,.307-1.297,.042-.476,.067-.975,.074-1.497,.009-.445,.021-.841,.034-1.188,.014-.348,.056-.648,.126-.902,.07-.254,.179-.456,.327-.607,.148-.151,.354-.251,.618-.3,.39-.072,.753,.02,1.087,.277,.333,.257,.565,.732,.693,1.424,.135,.73,.098,1.306-.11,1.729-.208,.422-.569,.721-1.084,.894l.325,1.756c.86-.277,1.5-.792,1.92-1.547,.42-.755,.513-1.768,.277-3.039-.219-1.183-.643-2.051-1.273-2.605-.629-.554-1.379-.75-2.247-.59-.554,.103-.988,.291-1.302,.563-.314,.273-.546,.603-.695,.988-.151,.386-.246,.82-.287,1.303-.04,.483-.066,.979-.076,1.488-.012,.927-.09,1.628-.232,2.103-.143,.476-.494,.765-1.054,.869-.458,.085-.876-.023-1.255-.324-.378-.301-.641-.855-.79-1.66-.068-.365-.096-.711-.083-1.039,.012-.328,.072-.628,.181-.902,.108-.274,.276-.517,.502-.728,.226-.211,.521-.376,.884-.495l-.329-1.775c-1.018,.266-1.761,.84-2.229,1.721-.469,.88-.573,2.026-.312,3.435,.11,.592,.277,1.127,.503,1.606h0Zm2.064,17.975c.17,.501,.398,.925,.685,1.27,.287,.346,.636,.607,1.046,.784s.877,.247,1.401,.21c.6-.042,1.081-.178,1.444-.408,.362-.231,.646-.53,.851-.897,.206-.367,.356-.785,.452-1.254,.095-.468,.176-.962,.243-1.479,.059-.441,.115-.833,.168-1.176,.053-.344,.129-.638,.227-.882,.099-.245,.23-.433,.394-.567,.164-.133,.38-.209,.648-.228,.396-.027,.745,.105,1.048,.399,.302,.293,.478,.791,.527,1.493,.052,.74-.05,1.309-.304,1.705-.255,.396-.648,.652-1.178,.766l.124,1.781c.885-.177,1.58-.617,2.083-1.319,.502-.703,.709-1.699,.619-2.988-.084-1.2-.407-2.111-.97-2.733-.563-.622-1.285-.901-2.166-.84-.562,.039-1.015,.177-1.357,.412-.343,.236-.611,.537-.803,.903-.193,.366-.337,.787-.432,1.262-.095,.475-.177,.965-.244,1.47-.118,.919-.274,1.607-.469,2.063-.196,.457-.577,.705-1.145,.744-.465,.033-.869-.122-1.21-.464-.342-.342-.541-.922-.598-1.739-.026-.37-.015-.717,.035-1.041,.049-.325,.143-.617,.282-.877,.139-.259,.332-.482,.581-.666,.249-.184,.56-.315,.934-.392l-.125-1.8c-1.042,.149-1.845,.635-2.41,1.457-.565,.822-.798,1.948-.698,3.379,.042,.6,.147,1.15,.317,1.652h0Zm-3.123,8.054c.069,.275,.201,.532,.398,.77,.197,.238,.468,.464,.812,.678,.344,.213,.784,.43,1.321,.651l11.223,4.449,.012-1.862-5.709-2.091c-.294-.104-.6-.209-.919-.313-.32-.105-.62-.203-.901-.294-.332-.104-.652-.202-.958-.294v-.038c.308-.088,.628-.176,.962-.263,.282-.088,.583-.182,.904-.282,.32-.101,.628-.201,.923-.302l5.735-2.095,.013-1.939-9.817,3.874c-.026,.013-.109,0-.249-.04-.141-.039-.288-.085-.441-.137-.153-.052-.291-.098-.412-.137-.121-.039-.188-.059-.201-.059-.485-.182-.814-.396-.985-.64-.171-.244-.256-.545-.254-.904,.002-.217,.019-.425,.052-.623,.034-.199,.083-.349,.147-.451v-.076s-1.535-.01-1.535-.01c-.065,.14-.118,.354-.158,.642-.04,.288-.061,.579-.063,.873-.002,.333,.031,.637,.1,.913h0Zm2.768,14.919c.092,.521,.253,.974,.485,1.359,.231,.385,.536,.696,.915,.933,.379,.237,.829,.377,1.353,.42,.599,.049,1.096-.013,1.489-.186,.393-.173,.719-.425,.977-.757,.259-.332,.471-.722,.636-1.171,.166-.449,.32-.924,.465-1.426,.124-.426,.239-.805,.344-1.137,.104-.332,.224-.611,.358-.837,.134-.227,.292-.394,.475-.501,.182-.107,.407-.149,.675-.127,.395,.033,.72,.216,.975,.552,.255,.336,.354,.855,.296,1.556-.061,.74-.248,1.287-.559,1.64-.312,.353-.739,.546-1.281,.578l-.147,1.78c.903-.041,1.656-.371,2.259-.989,.603-.618,.958-1.572,1.064-2.86,.099-1.199-.083-2.149-.545-2.848-.463-.7-1.134-1.086-2.014-1.158-.562-.047-1.03,.021-1.404,.202-.375,.181-.685,.438-.931,.771s-.452,.727-.617,1.182c-.166,.455-.321,.927-.464,1.416-.255,.891-.514,1.547-.776,1.969-.262,.421-.677,.609-1.244,.562-.465-.039-.84-.253-1.126-.642-.286-.39-.395-.993-.328-1.809,.03-.37,.094-.712,.192-1.025,.098-.313,.235-.587,.412-.823,.176-.236,.401-.426,.675-.57,.274-.145,.601-.227,.983-.247l.148-1.799c-1.053-.009-1.92,.349-2.603,1.077-.683,.726-1.083,1.805-1.201,3.233-.049,.6-.028,1.16,.064,1.682h0Zm8.445,6.38l-.234,1.595-6.825-.999c-.745-.109-1.305,.029-1.677,.415-.373,.385-.615,.919-.728,1.601-.069,.468-.081,.951-.038,1.45l1.482,.217,.008-.057c-.01-.106-.019-.246-.025-.421-.007-.176,0-.34,.023-.492,.048-.329,.152-.576,.312-.74,.159-.164,.422-.22,.789-.166l6.423,.94-.308,2.109,1.386,.203,.309-2.109,3.211,.47,.255-1.748-3.21-.47,.233-1.595-1.386-.203h0Zm-11.024,14.832c.42,.893,1.076,1.552,1.967,1.975l.361-1.709c-.504-.277-.861-.676-1.071-1.198-.211-.522-.242-1.133-.094-1.835,.103-.488,.282-.902,.537-1.24,.254-.339,.566-.607,.935-.804,.368-.197,.781-.325,1.239-.386,.457-.06,.935-.057,1.431,.008l-1.634,7.74c.864,.182,1.668,.244,2.413,.186,.745-.059,1.412-.242,2-.549,.573-.298,1.058-.706,1.455-1.224,.397-.518,.676-1.152,.834-1.904,.154-.726,.155-1.416,.005-2.069s-.421-1.24-.815-1.761c-.393-.522-.888-.967-1.484-1.334-.596-.368-1.258-.629-1.984-.782-.739-.156-1.454-.193-2.145-.11-.692,.083-1.323,.286-1.895,.611-.572,.323-1.06,.76-1.464,1.309-.404,.55-.688,1.212-.852,1.989-.245,1.165-.159,2.194,.261,3.087h0Zm7.759,.638c-.643,.367-1.455,.474-2.437,.319l1.234-5.843c.437,.145,.827,.332,1.168,.561,.342,.229,.624,.498,.844,.806,.222,.309,.373,.655,.454,1.038,.082,.384,.075,.801-.02,1.252-.185,.876-.6,1.499-1.243,1.867h0Zm-9.458,4.523l-.541,1.702,6.056,1.925c.378,.12,.7,.303,.965,.548,.264,.246,.476,.518,.636,.817s.258,.616,.293,.949c.035,.334,.006,.647-.087,.94-.163,.512-.461,.867-.893,1.066-.432,.198-.953,.2-1.563,.007l-6.716-2.135-.535,1.684,6.057,1.925c.378,.12,.702,.293,.973,.52,.27,.227,.488,.481,.654,.762,.166,.281,.268,.582,.307,.904,.039,.321,.008,.64-.093,.957-.159,.501-.46,.868-.904,1.103-.444,.235-.971,.256-1.581,.062l-6.715-2.135-.541,1.702,6.861,2.181c1.037,.329,1.919,.301,2.647-.086,.727-.386,1.234-1.031,1.521-1.934,.19-.598,.221-1.212,.093-1.844-.129-.632-.448-1.223-.957-1.775l.011-.036c.676-.014,1.237-.195,1.684-.543,.446-.349,.764-.822,.954-1.419,.202-.635,.233-1.249,.093-1.844-.14-.596-.43-1.131-.87-1.606l.018-.055,1.464,.465,.535-1.684-9.826-3.123h0Zm-8.437,15.74c-.343,1.337,.263,2.319,1.819,2.943l2.138,.859,.772-1.925-1.96-.786-.357,.89-.178-.071c-.559-.224-.92-.466-1.085-.725-.165-.26-.239-.53-.222-.813l-.927-.372h0Z" style="fill:red;"/><path d="M316.519,247.106c-.11,.517-.131,.998-.061,1.442,.07,.444,.236,.847,.498,1.208,.262,.362,.627,.661,1.096,.897,.537,.271,1.02,.4,1.45,.388,.429-.013,.826-.125,1.19-.335,.364-.211,.707-.493,1.029-.847,.322-.353,.644-.736,.966-1.147,.276-.348,.525-.656,.746-.924,.222-.269,.437-.483,.646-.642,.21-.16,.419-.255,.628-.285,.209-.031,.434,.014,.674,.135,.354,.179,.586,.472,.697,.879,.11,.406,.006,.924-.311,1.553-.334,.662-.712,1.099-1.134,1.309-.421,.21-.889,.229-1.404,.055l-.804,1.594c.851,.301,1.673,.278,2.464-.068,.791-.346,1.478-1.097,2.061-2.251,.542-1.074,.73-2.022,.564-2.844-.166-.822-.643-1.432-1.432-1.83-.503-.254-.962-.367-1.377-.34-.415,.027-.799,.149-1.152,.365s-.691,.504-1.016,.864c-.325,.359-.645,.739-.961,1.138-.572,.73-1.058,1.241-1.459,1.533-.401,.292-.856,.31-1.364,.054-.417-.21-.684-.549-.803-1.018-.119-.468,.007-1.069,.376-1.8,.167-.331,.355-.624,.563-.877,.208-.253,.438-.456,.69-.609,.253-.152,.533-.244,.84-.275,.308-.031,.643,.016,1.004,.141l.813-1.611c-.972-.405-1.911-.398-2.817,.02-.906,.417-1.682,1.266-2.327,2.546-.271,.537-.462,1.064-.573,1.582h0Zm-6.149,11.317c-.083,.671-.028,1.321,.163,1.95,.191,.629,.507,1.214,.948,1.756,.44,.542,.982,1.011,1.625,1.407,.632,.389,1.289,.659,1.971,.808,.682,.15,1.347,.168,1.995,.057,.648-.113,1.253-.356,1.815-.732,.562-.375,1.048-.896,1.457-1.56,.41-.665,.657-1.336,.743-2.012,.086-.676,.033-1.329-.158-1.958-.192-.629-.506-1.217-.943-1.764-.437-.548-.972-1.016-1.604-1.405-.643-.396-1.307-.667-1.993-.81-.685-.145-1.352-.161-2-.048-.647,.112-1.254,.358-1.819,.739-.566,.381-1.053,.904-1.463,1.569-.409,.665-.655,1.333-.737,2.003h0Zm2.982-2.278c.386-.236,.803-.374,1.25-.414,.447-.041,.91,.008,1.39,.146,.48,.138,.961,.355,1.442,.651,.469,.289,.877,.619,1.221,.989,.345,.37,.602,.765,.773,1.186,.17,.421,.237,.857,.2,1.308-.036,.45-.192,.899-.467,1.346-.275,.447-.606,.788-.993,1.024-.386,.236-.805,.372-1.258,.409-.452,.037-.921-.015-1.406-.156-.486-.141-.964-.357-1.433-.646-.481-.296-.891-.627-1.23-.994-.34-.367-.591-.759-.757-1.176-.165-.418-.229-.852-.192-1.303,.037-.451,.193-.899,.468-1.346,.275-.447,.606-.788,.992-1.024h0Zm-2.923,17.883l-.989,1.274-5.449-4.229c-.595-.462-1.15-.617-1.664-.465-.514,.152-.988,.497-1.422,1.035-.29,.374-.539,.788-.746,1.244l1.183,.918,.035-.046c.043-.097,.104-.223,.185-.379,.081-.156,.168-.295,.262-.416,.205-.263,.416-.427,.636-.491,.22-.064,.476,.017,.768,.244l5.129,3.981-1.307,1.683,1.107,.86,1.307-1.684,2.563,1.99,1.083-1.395-2.563-1.99,.989-1.274-1.107-.86h0Zm-5.764,9.87l2.815,2.468,1.177-1.342-10.741-9.418-1.177,1.343,4.721,4.139c.308,.27,.548,.57,.719,.898,.171,.329,.268,.665,.29,1.009,.023,.343-.027,.686-.15,1.03-.122,.343-.314,.664-.576,.963-.464,.529-.964,.827-1.499,.894-.535,.067-1.053-.119-1.554-.557l-5.255-4.608-1.164,1.328,5.414,4.747c.818,.717,1.646,1.035,2.484,.952,.838-.082,1.616-.532,2.333-1.35,.498-.568,.807-1.153,.926-1.755,.119-.602,.098-1.229-.062-1.88l.038-.043c.184,.178,.392,.377,.624,.598,.232,.22,.444,.415,.637,.584h0Zm-20.121,6.755c-.154,.975,.02,1.888,.521,2.739l1.257-1.213c-.262-.512-.334-1.043-.216-1.593,.119-.55,.436-1.074,.952-1.572,.359-.346,.739-.588,1.14-.726,.4-.138,.809-.185,1.224-.141,.416,.043,.83,.169,1.243,.375,.412,.207,.806,.476,1.18,.809l-5.692,5.492c.613,.636,1.244,1.138,1.894,1.508,.65,.369,1.304,.591,1.964,.666,.641,.075,1.272,.009,1.891-.197,.619-.206,1.205-.576,1.758-1.109,.534-.516,.922-1.086,1.164-1.71,.242-.625,.346-1.264,.313-1.916-.034-.653-.194-1.298-.482-1.937-.287-.639-.688-1.226-1.204-1.76-.524-.543-1.096-.974-1.715-1.293-.619-.319-1.256-.505-1.911-.557-.655-.053-1.304,.035-1.947,.264-.642,.228-1.248,.618-1.82,1.169-.856,.827-1.361,1.727-1.514,2.702h0Zm6.067,4.878c-.739-.056-1.471-.423-2.197-1.102l4.297-4.146c.281,.365,.499,.739,.653,1.12,.155,.381,.237,.761,.247,1.141,.01,.379-.058,.75-.206,1.114-.147,.363-.387,.704-.718,1.024-.645,.622-1.337,.905-2.076,.849h0Zm-14.121-3.153c-.166,.23-.276,.497-.331,.802-.054,.304-.052,.656,.008,1.057,.059,.4,.178,.876,.355,1.429l3.854,11.441,1.429-1.194-2.091-5.708c-.11-.292-.229-.593-.355-.904-.127-.312-.246-.604-.358-.878-.135-.321-.266-.628-.394-.921l.029-.025c.266,.179,.54,.367,.822,.565,.249,.158,.516,.328,.799,.508,.284,.179,.56,.35,.827,.51l5.304,3.025,1.488-1.243-9.298-4.992c-.027-.012-.07-.083-.131-.216-.061-.133-.121-.275-.18-.425-.059-.151-.113-.285-.161-.403-.049-.118-.077-.182-.085-.192-.175-.488-.224-.876-.148-1.165,.076-.288,.251-.548,.526-.777,.167-.14,.337-.261,.51-.364,.173-.102,.319-.162,.439-.178l.058-.049-.984-1.179c-.149,.041-.347,.139-.592,.294-.246,.155-.482,.327-.708,.516-.255,.213-.466,.435-.632,.666h0Zm-16.351,17.27c-.272,1.001-.119,2.054,.461,3.158l1.481-.963c-.364-.679-.471-1.33-.32-1.955s.565-1.157,1.241-1.596c.44-.286,.885-.453,1.336-.5,.45-.047,.886,.007,1.307,.163,.422,.155,.82,.399,1.196,.73,.375,.331,.717,.734,1.025,1.209,.302,.464,.529,.937,.683,1.42,.153,.483,.215,.949,.186,1.397-.029,.449-.157,.869-.383,1.261-.226,.393-.559,.732-.999,1.018-.633,.411-1.244,.575-1.833,.491-.588-.084-1.124-.38-1.608-.889l-1.497,.973c.757,.836,1.636,1.314,2.638,1.434,1.001,.12,2.023-.158,3.064-.834,.644-.418,1.149-.915,1.517-1.489,.367-.575,.599-1.187,.695-1.837,.097-.651,.065-1.317-.096-1.998-.16-.682-.443-1.335-.847-1.957-.412-.633-.896-1.162-1.454-1.586-.558-.424-1.153-.724-1.787-.9-.633-.176-1.287-.213-1.961-.111-.674,.102-1.333,.363-1.977,.781-1.105,.718-1.795,1.578-2.068,2.58h0Zm-8.464,3.993c-.265,.25-.484,.512-.657,.787-.173,.273-.307,.552-.402,.836-.095,.283-.161,.565-.199,.847l-.017,.009c-.35-.437-.712-.705-1.084-.803-.372-.099-.8-.018-1.286,.242-.191,.103-.345,.203-.459,.301-.115,.097-.22,.193-.314,.288l.589,1.1,.067-.036c.347-.302,.631-.396,.851-.282,.221,.114,.428,.352,.622,.713l2.274,4.248c.327,.61,.706,1.06,1.138,1.352,.432,.291,.9,.447,1.404,.467,.384,.012,.783-.042,1.198-.162,.415-.121,.837-.295,1.265-.525,.61-.326,1.101-.691,1.473-1.093,.372-.403,.639-.821,.798-1.255,.16-.434,.225-.869,.196-1.303-.029-.434-.141-.847-.335-1.236l-1.524,.816c.268,.553,.308,1.083,.122,1.59-.186,.506-.64,.952-1.363,1.339-.632,.338-1.19,.455-1.674,.352-.483-.104-.858-.404-1.124-.901-.127-.237-.179-.456-.156-.657,.023-.201,.105-.401,.245-.599,.141-.199,.331-.399,.572-.601,.24-.201,.521-.409,.841-.624,.551-.382,1.036-.758,1.455-1.128,.419-.369,.747-.748,.982-1.135,.235-.388,.355-.8,.36-1.239,.005-.438-.134-.922-.418-1.452-.236-.44-.518-.779-.849-1.016-.33-.237-.691-.389-1.082-.455-.391-.067-.804-.052-1.24,.043-.435,.095-.867,.258-1.296,.487-.384,.206-.708,.434-.973,.685h0Zm1.9,.376c.241-.078,.477-.107,.706-.084,.23,.022,.445,.099,.647,.231,.201,.132,.38,.344,.537,.638,.169,.315,.247,.604,.235,.865-.013,.261-.092,.514-.237,.758-.145,.244-.35,.485-.615,.722-.266,.236-.566,.488-.903,.755-.336,.267-.658,.552-.968,.856-.309,.303-.537,.589-.685,.857l-.797-1.49c-.139-.26-.23-.559-.274-.898-.044-.34-.018-.684,.078-1.033,.096-.35,.27-.689,.522-1.02,.251-.331,.602-.617,1.054-.858,.225-.121,.459-.221,.7-.299h0Zm-6.532,13.611l1.614-.717-4.19-9.421-1.631,.726,2.551,5.736c.167,.374,.259,.747,.276,1.117,.018,.371-.035,.716-.158,1.037-.124,.321-.313,.612-.568,.873-.255,.261-.564,.472-.927,.633-.643,.286-1.222,.347-1.736,.184-.514-.164-.906-.55-1.177-1.158l-2.84-6.386-1.614,.718,2.926,6.579c.442,.994,1.061,1.629,1.856,1.906,.796,.276,1.691,.193,2.685-.249,.69-.307,1.212-.707,1.567-1.201,.355-.494,.595-1.056,.721-1.686l.052-.024,.593,1.333h0Zm-16.966,5.341l-1.519,.482-2.698-8.49-1.702,.541,2.699,8.49-2.013,.64,.424,1.336,2.013-.64,.407,1.281c.082,.256,.117,.473,.107,.651-.011,.178-.078,.337-.201,.477-.124,.14-.314,.261-.57,.362-.257,.102-.59,.204-1,.308l.447,1.409c.163-.038,.318-.078,.467-.118,.148-.04,.289-.082,.423-.124,.476-.152,.881-.327,1.213-.527,.333-.2,.588-.442,.766-.727,.336-.55,.36-1.276,.073-2.179l-.43-1.354,1.519-.483-.425-1.335h0Zm-17.993-3.488c-.619,.768-.923,1.646-.913,2.634l1.695-.425c.027-.575,.229-1.071,.606-1.488,.377-.418,.913-.714,1.609-.889,.484-.121,.934-.142,1.35-.061,.416,.08,.793,.243,1.132,.488,.338,.245,.635,.56,.89,.945,.255,.385,.461,.815,.62,1.29l-7.673,1.923c.215,.857,.512,1.607,.891,2.251,.379,.644,.836,1.163,1.37,1.557,.519,.384,1.098,.641,1.737,.772,.64,.129,1.332,.101,2.077-.085,.72-.181,1.341-.482,1.862-.903,.522-.421,.93-.922,1.226-1.505,.297-.582,.479-1.222,.549-1.918,.069-.698,.013-1.406-.167-2.126-.184-.733-.464-1.392-.842-1.976-.377-.586-.837-1.064-1.379-1.436-.542-.372-1.148-.62-1.819-.742-.67-.122-1.391-.087-2.16,.106-1.155,.29-2.042,.819-2.661,1.588h0Zm2.828,7.253c-.613-.417-1.064-1.1-1.355-2.05l5.792-1.452c.061,.456,.064,.889,.008,1.296-.056,.408-.174,.778-.355,1.112-.18,.334-.425,.621-.734,.863-.309,.241-.687,.418-1.134,.53-.869,.218-1.61,.118-2.222-.299h0Zm-15.46-4.866c-.684,.712-1.064,1.56-1.141,2.544l1.725-.274c.078-.57,.323-1.047,.735-1.43,.412-.383,.972-.631,1.68-.744,.493-.078,.943-.059,1.351,.058,.407,.116,.769,.311,1.085,.585,.315,.274,.583,.613,.803,1.019,.22,.406,.389,.852,.505,1.339l-7.812,1.244c.139,.872,.369,1.645,.69,2.32,.322,.675,.731,1.232,1.229,1.671,.483,.429,1.038,.736,1.663,.921,.626,.185,1.318,.218,2.076,.097,.734-.116,1.378-.362,1.934-.735,.557-.374,1.008-.838,1.354-1.392,.346-.554,.584-1.176,.714-1.864,.13-.688,.137-1.399,.02-2.132-.119-.746-.341-1.426-.666-2.042-.324-.616-.74-1.133-1.248-1.551-.507-.418-1.089-.718-1.747-.898-.657-.18-1.377-.209-2.161-.084-1.176,.188-2.106,.637-2.789,1.348h0Zm2.181,7.474c-.573-.469-.964-1.19-1.17-2.162l5.897-.939c.021,.461-.014,.891-.106,1.292-.091,.401-.241,.76-.45,1.077-.209,.317-.478,.582-.807,.795-.329,.214-.721,.357-1.176,.429-.885,.141-1.614-.023-2.188-.492h0Zm-7.412-7.401l-1.775,.192,1.533,14.202,1.775-.191-1.533-14.203h0Zm-16.589,.963c-.351,.099-.667,.228-.948,.39-.28,.162-.528,.346-.745,.552-.216,.206-.407,.425-.572,.657h-.019c-.106-.55-.3-.955-.584-1.216-.283-.26-.7-.389-1.25-.385-.218,.001-.4,.018-.547,.051-.147,.033-.284,.069-.412,.108l.008,1.248h.077c.447-.106,.742-.056,.884,.148,.142,.204,.214,.51,.217,.92l.03,4.819c.005,.691,.13,1.267,.376,1.726,.246,.459,.588,.815,1.024,1.069,.335,.189,.713,.328,1.136,.415,.423,.087,.878,.129,1.364,.126,.691-.005,1.295-.098,1.812-.281,.518-.182,.948-.428,1.292-.738,.343-.309,.604-.663,.78-1.06,.177-.398,.271-.815,.28-1.25l-1.728,.011c-.021,.614-.233,1.102-.633,1.463-.401,.361-1.011,.544-1.831,.549-.716,.005-1.265-.152-1.644-.469-.38-.318-.571-.759-.575-1.322-.002-.268,.055-.487,.169-.654,.114-.167,.279-.306,.496-.416,.217-.11,.479-.198,.786-.264,.307-.066,.652-.119,1.036-.16,.665-.081,1.269-.187,1.812-.319,.543-.131,1.009-.313,1.398-.546,.389-.233,.688-.542,.897-.927,.209-.386,.311-.879,.307-1.481-.003-.499-.095-.93-.277-1.294-.181-.364-.429-.666-.745-.907-.315-.242-.687-.422-1.117-.54-.429-.119-.887-.177-1.374-.174-.435,.003-.828,.053-1.18,.151h0Zm1.506,1.22c.25,.043,.471,.128,.664,.255,.193,.126,.347,.295,.464,.506,.116,.21,.176,.481,.178,.814,.002,.359-.063,.65-.196,.875s-.321,.412-.563,.561c-.242,.148-.536,.265-.881,.351-.345,.085-.729,.168-1.151,.247-.422,.08-.84,.181-1.255,.306-.415,.124-.75,.27-1.006,.438l-.01-1.689c-.002-.295,.057-.603,.176-.923,.12-.321,.304-.614,.552-.877,.247-.264,.56-.484,.936-.659,.377-.175,.821-.264,1.333-.268,.256-.001,.509,.019,.759,.063h0Zm-23.072-2.287c-.574,.195-1.078,.505-1.51,.928-.431,.423-.785,.958-1.061,1.604-.276,.647-.458,1.383-.548,2.21-.09,.84-.067,1.606,.071,2.296,.138,.691,.376,1.29,.714,1.796,.338,.507,.761,.913,1.269,1.219,.507,.305,1.086,.493,1.735,.563,.751,.081,1.425-.023,2.023-.312,.598-.29,1.091-.691,1.481-1.202l.057,.006c-.036,.215-.079,.494-.128,.836-.05,.342-.096,.711-.139,1.105l-.392,3.627,1.776,.192,1.533-14.203-1.757-.189-.156,1.451-.057-.007c-.269-.608-.668-1.092-1.196-1.451-.527-.36-1.135-.577-1.822-.651s-1.318-.013-1.893,.182h0Zm3.268,1.753c.373,.24,.671,.548,.894,.927,.224,.378,.376,.813,.458,1.304,.082,.492,.093,1.018,.033,1.578-.059,.547-.178,1.052-.357,1.516-.179,.463-.418,.859-.717,1.187-.299,.328-.657,.573-1.074,.734-.416,.161-.898,.212-1.445,.153-.471-.051-.871-.194-1.2-.429-.328-.235-.588-.54-.78-.914-.191-.375-.318-.81-.38-1.306-.063-.496-.063-1.024-.003-1.584,.06-.56,.174-1.072,.34-1.537,.166-.465,.385-.86,.659-1.184,.273-.325,.595-.567,.966-.726,.372-.16,.793-.214,1.263-.163,.522,.056,.97,.204,1.343,.444h0Zm-11.285,9.32l-1.836-.316-.352,2.044,1.836,.316,.352-2.044h0Zm2.033-12.04l-1.759-.303-1.75,10.161,1.76,.303,1.749-10.161h0Zm-6.967,7.827l-1.574-.353,1.51-6.73c.165-.735,.069-1.303-.287-1.704-.356-.401-.87-.682-1.542-.846-.462-.104-.943-.153-1.443-.147l-.327,1.461,.056,.013c.105-.003,.246,0,.421,.006,.176,.007,.339,.027,.489,.06,.325,.073,.563,.195,.714,.367,.152,.171,.188,.438,.107,.799l-1.421,6.335-2.08-.467-.306,1.368,2.079,.466-.71,3.166,1.724,.387,.71-3.166,1.573,.353,.307-1.368h0Zm-19.681-14.582c-.604,.063-1.164,.252-1.679,.568-.516,.317-.98,.759-1.393,1.327-.412,.569-.755,1.246-1.026,2.033-.276,.798-.424,1.549-.444,2.254-.019,.704,.079,1.34,.296,1.909,.216,.569,.538,1.06,.964,1.471,.427,.411,.949,.724,1.566,.937,.714,.246,1.395,.295,2.042,.146,.647-.149,1.218-.429,1.712-.841l.054,.019c-.083,.201-.187,.464-.312,.786-.124,.323-.252,.671-.381,1.046l-1.191,3.449,1.688,.582,4.662-13.502-1.669-.577-.477,1.38-.054-.019c-.127-.653-.407-1.214-.841-1.682-.434-.468-.978-.815-1.632-1.041-.653-.225-1.281-.307-1.885-.245h0Zm2.794,2.438c.31,.317,.532,.685,.665,1.103s.185,.876,.155,1.374c-.029,.498-.136,1.012-.32,1.545-.179,.52-.408,.986-.686,1.398-.277,.412-.599,.745-.964,.998-.364,.253-.768,.411-1.21,.476-.442,.064-.923,.006-1.443-.174-.448-.154-.806-.383-1.074-.685-.268-.303-.453-.658-.556-1.066-.103-.408-.129-.86-.08-1.358,.05-.497,.167-1.012,.351-1.544,.184-.533,.408-1.007,.674-1.423,.266-.416,.568-.752,.906-1.007,.339-.256,.707-.42,1.105-.492,.397-.073,.82-.032,1.267,.122,.497,.172,.9,.416,1.21,.733h0Zm-15.606-6.987c-.958,.236-1.733,.749-2.324,1.54l1.605,.69c.371-.44,.832-.711,1.385-.815,.554-.103,1.159-.013,1.818,.27,.458,.197,.829,.454,1.11,.771,.282,.316,.484,.674,.604,1.074,.121,.4,.165,.831,.134,1.291-.03,.461-.127,.928-.289,1.402l-7.266-3.126c-.349,.811-.569,1.587-.658,2.329-.089,.742-.041,1.432,.145,2.069,.179,.621,.483,1.176,.913,1.668,.429,.491,.997,.889,1.702,1.192,.682,.294,1.358,.431,2.028,.413,.67-.019,1.299-.17,1.888-.453,.588-.283,1.122-.681,1.6-1.193,.478-.512,.863-1.109,1.157-1.791,.298-.693,.475-1.387,.529-2.081,.055-.694-.02-1.354-.225-1.978-.205-.625-.537-1.189-.996-1.693s-1.053-.913-1.782-1.227c-1.093-.47-2.119-.588-3.078-.352h0Zm-2.152,7.482c-.234-.703-.179-1.521,.166-2.453l5.485,2.36c-.227,.401-.488,.746-.779,1.036-.292,.289-.611,.513-.957,.668-.346,.156-.715,.237-1.107,.241-.392,.005-.8-.084-1.223-.266-.823-.354-1.351-.883-1.585-1.586h0Zm-5.754-2l-1.431-.744,3.181-6.12c.348-.669,.401-1.242,.159-1.721-.241-.478-.666-.882-1.274-1.212-.42-.219-.872-.389-1.357-.511l-.691,1.328,.051,.027c.103,.024,.239,.062,.406,.114,.169,.051,.321,.112,.457,.183,.296,.154,.495,.333,.597,.537,.103,.205,.069,.471-.102,.8l-2.994,5.76-1.891-.983-.647,1.243,1.891,.983-1.497,2.879,1.568,.815,1.496-2.879,1.431,.744,.647-1.243h0Zm-7.408-3.863l-1.393-.812,3.474-5.958c.38-.651,.461-1.222,.242-1.711-.218-.49-.623-.914-1.213-1.273-.409-.239-.853-.431-1.331-.576l-.754,1.293,.05,.029c.102,.03,.235,.074,.4,.134,.165,.059,.314,.128,.447,.205,.288,.168,.478,.356,.57,.565,.093,.21,.046,.474-.141,.794l-3.27,5.608-1.841-1.073-.706,1.211,1.841,1.073-1.634,2.803,1.526,.89,1.634-2.803,1.393,.812,.706-1.211h0Zm-9.656-15.778c-.985,.058-1.84,.423-2.564,1.094l1.454,.969c.444-.365,.947-.549,1.51-.551,.563-.001,1.142,.197,1.739,.594,.415,.277,.733,.597,.953,.959,.22,.362,.353,.751,.399,1.166,.046,.415,.012,.847-.101,1.294-.113,.447-.293,.889-.538,1.326l-6.581-4.389c-.49,.735-.846,1.459-1.068,2.173-.222,.713-.299,1.4-.232,2.061,.064,.642,.263,1.244,.596,1.805,.334,.561,.82,1.054,1.459,1.48,.618,.412,1.258,.67,1.92,.773,.662,.103,1.308,.068,1.938-.104,.63-.172,1.227-.466,1.789-.883,.563-.418,1.05-.935,1.462-1.553,.419-.628,.718-1.278,.898-1.951,.18-.673,.225-1.335,.136-1.986-.088-.652-.313-1.267-.673-1.846-.36-.578-.87-1.088-1.531-1.528-.99-.66-1.978-.962-2.963-.903h0Zm-3.47,6.969c-.103-.734,.1-1.528,.608-2.382l4.968,3.313c-.296,.353-.615,.645-.954,.877-.339,.233-.693,.394-1.062,.485-.368,.091-.746,.103-1.132,.037-.386-.067-.771-.228-1.155-.484-.745-.497-1.169-1.112-1.273-1.846h0Zm-8.19-3.477l1.395,1.083,6.322-8.144-1.41-1.095-3.438,4.429c-.298,.384-.628,.679-.99,.884-.362,.205-.731,.331-1.109,.379-.377,.047-.752,.019-1.126-.084-.373-.104-.717-.277-1.03-.52-.121-.094-.218-.178-.292-.251-.073-.073-.148-.164-.226-.272l-.046-.036-1.036,1.335c.057,.093,.118,.177,.182,.251s.152,.154,.263,.24c.546,.424,1.133,.649,1.761,.675,.628,.025,1.253-.101,1.875-.38l.046,.035-1.142,1.471h0Zm-7.214-19.805c-.32-.175-.637-.303-.951-.384-.314-.08-.62-.122-.919-.126-.299-.004-.588,.02-.868,.07l-.014-.013c.309-.468,.453-.893,.432-1.278-.02-.384-.229-.767-.625-1.149-.157-.151-.299-.266-.427-.346-.128-.079-.252-.149-.37-.21l-.867,.898,.055,.053c.394,.237,.57,.479,.529,.724-.041,.245-.203,.515-.488,.81l-3.346,3.468c-.48,.497-.792,.996-.937,1.497-.145,.5-.149,.993-.014,1.48,.106,.369,.28,.733,.522,1.09,.242,.358,.538,.706,.888,1.044,.497,.48,.995,.835,1.492,1.066,.498,.231,.977,.356,1.439,.375,.462,.019,.895-.052,1.3-.213,.405-.162,.763-.394,1.074-.699l-1.244-1.199c-.445,.424-.937,.625-1.476,.603-.539-.022-1.103-.317-1.693-.886-.516-.498-.798-.993-.848-1.486-.049-.492,.121-.941,.512-1.346,.187-.194,.379-.31,.578-.35,.199-.04,.414-.023,.646,.05,.232,.072,.481,.192,.746,.36,.266,.167,.55,.37,.853,.609,.532,.407,1.039,.753,1.519,1.039,.481,.285,.941,.481,1.382,.586,.441,.105,.871,.093,1.289-.037,.419-.129,.837-.411,1.255-.844,.347-.359,.582-.732,.706-1.119,.124-.387,.158-.777,.101-1.169-.057-.393-.197-.782-.422-1.167-.224-.385-.511-.747-.861-1.085-.313-.302-.63-.541-.95-.716h0Zm.225,1.924c.149,.206,.247,.421,.297,.647,.049,.225,.042,.454-.022,.686-.064,.232-.211,.467-.442,.707-.249,.258-.499,.421-.752,.489-.252,.067-.517,.07-.794,.007-.277-.063-.569-.185-.876-.365-.306-.18-.638-.389-.996-.627-.357-.238-.728-.458-1.112-.659-.384-.201-.725-.331-1.025-.389l1.173-1.216c.205-.212,.462-.391,.771-.536,.31-.146,.646-.227,1.007-.242,.362-.016,.739,.045,1.13,.183,.392,.138,.772,.385,1.14,.74,.184,.178,.351,.369,.499,.575h0Zm-10.762-12.801c-.555-.245-1.135-.358-1.74-.339-.604,.019-1.227,.174-1.867,.463-.64,.289-1.273,.707-1.899,1.256-.635,.557-1.136,1.136-1.502,1.738-.366,.602-.596,1.203-.69,1.805-.094,.602-.058,1.187,.109,1.756,.167,.568,.465,1.098,.896,1.589,.498,.568,1.065,.948,1.701,1.139,.636,.191,1.271,.231,1.904,.118l.038,.044c-.172,.133-.392,.309-.661,.528-.268,.218-.552,.458-.85,.719l-2.743,2.405,1.177,1.343,10.741-9.417-1.165-1.328-1.097,.961-.038-.043c.214-.63,.248-1.256,.103-1.877-.145-.622-.445-1.193-.901-1.713-.456-.519-.961-.902-1.517-1.147h0Zm1.219,3.502c.113,.429,.123,.858,.031,1.288-.092,.429-.274,.852-.546,1.27-.272,.417-.62,.812-1.044,1.183-.414,.363-.843,.655-1.289,.875-.445,.22-.889,.349-1.332,.388-.442,.039-.871-.023-1.287-.186-.415-.163-.805-.452-1.168-.866-.312-.356-.51-.732-.593-1.127-.083-.396-.068-.796,.045-1.202,.113-.405,.314-.811,.604-1.218,.29-.408,.646-.797,1.07-1.168,.424-.372,.854-.672,1.291-.902,.437-.23,.866-.372,1.286-.426,.421-.054,.822-.014,1.203,.12,.381,.134,.728,.379,1.04,.735,.346,.395,.575,.807,.688,1.236h0Zm-9.22-13.473c-.591-.327-1.215-.519-1.87-.576-.655-.058-1.316,.017-1.983,.223-.667,.206-1.304,.534-1.912,.982-.597,.441-1.092,.95-1.486,1.527-.393,.577-.659,1.187-.797,1.83-.138,.643-.138,1.295,0,1.957,.139,.661,.44,1.306,.904,1.934,.464,.628,.994,1.108,1.589,1.44,.595,.333,1.221,.527,1.875,.584,.655,.058,1.318-.014,1.989-.215,.671-.201,1.305-.523,1.902-.964,.608-.448,1.106-.964,1.495-1.546,.39-.582,.654-1.194,.791-1.837,.138-.643,.136-1.298-.007-1.964-.142-.667-.445-1.314-.909-1.943-.464-.628-.992-1.105-1.583-1.432h0Zm1,3.617c.075,.447,.047,.885-.082,1.314-.129,.43-.347,.842-.655,1.236-.307,.394-.688,.758-1.142,1.094-.444,.328-.902,.582-1.374,.764-.472,.181-.935,.273-1.389,.274-.454,0-.883-.1-1.288-.302-.405-.203-.763-.515-1.075-.937-.312-.422-.505-.857-.579-1.303-.074-.446-.044-.886,.09-1.32,.135-.433,.358-.849,.67-1.246,.312-.398,.69-.761,1.134-1.089,.454-.335,.915-.592,1.382-.769,.467-.178,.925-.266,1.373-.263,.449,.003,.875,.105,1.28,.308,.405,.202,.763,.515,1.074,.937,.312,.422,.505,.856,.579,1.302h0Zm-9.103-16.001l-8.713,5.512,.955,1.509,5.306-3.356c.335-.212,.682-.359,1.039-.441,.357-.082,.701-.095,1.032-.04,.331,.056,.641,.182,.931,.377,.29,.195,.541,.46,.753,.796,.383,.605,.525,1.171,.426,1.696-.099,.525-.425,.962-.977,1.311l-5.922,3.746,.955,1.509,6.003-3.798c.919-.582,1.466-1.298,1.639-2.15,.173-.851-.028-1.732-.603-2.64-.397-.627-.851-1.064-1.362-1.309-.511-.245-1.082-.387-1.713-.427l-.021-.032,1.217-.77-.944-1.493h0Zm-9.598,1.201l-.761-1.422,6.081-3.255c.664-.356,1.032-.799,1.102-1.331,.071-.531-.052-1.105-.367-1.72-.224-.417-.501-.813-.832-1.188l-1.32,.707,.027,.051c.071,.078,.161,.186,.271,.323,.11,.137,.201,.273,.273,.409,.157,.293,.221,.553,.19,.78-.031,.227-.209,.428-.536,.603l-5.723,3.064-1.006-1.879-1.236,.662,1.006,1.879-2.861,1.531,.834,1.557,2.861-1.531,.761,1.422,1.236-.662h0Zm-6.961-13.811l-.637-1.482,6.336-2.725c.692-.298,1.096-.709,1.212-1.232,.115-.524,.042-1.105-.219-1.745-.187-.435-.43-.853-.728-1.255l-1.376,.592,.023,.053c.064,.084,.145,.199,.242,.345,.098,.146,.177,.29,.238,.431,.132,.306,.173,.57,.123,.793-.05,.224-.245,.409-.585,.555l-5.963,2.566-.842-1.958-1.288,.554,.842,1.958-2.981,1.282,.698,1.623,2.981-1.283,.637,1.482,1.288-.554h0Zm-5.561-9.935l.597,1.662,9.703-3.485-.604-1.681-5.276,1.895c-.458,.165-.894,.237-1.31,.216-.415-.021-.795-.112-1.139-.274-.344-.163-.646-.387-.905-.675-.259-.287-.457-.618-.591-.991-.052-.145-.089-.268-.112-.368-.022-.101-.037-.218-.045-.352l-.02-.054-1.59,.571c-.001,.11,.005,.213,.019,.31,.014,.097,.045,.211,.093,.344,.234,.65,.609,1.155,1.125,1.513,.516,.359,1.112,.587,1.786,.685l.019,.054-1.753,.63h0Zm5.02-18.173l-9.9,2.878,.498,1.715,6.029-1.753c.381-.111,.755-.156,1.12-.136,.366,.021,.7,.104,1.002,.249,.302,.145,.566,.352,.79,.62,.225,.268,.392,.593,.503,.974,.2,.688,.18,1.27-.062,1.747-.241,.477-.675,.806-1.302,.988l-6.729,1.957,.499,1.715,6.822-1.984c1.045-.303,1.768-.84,2.171-1.611,.403-.77,.454-1.671,.154-2.704-.207-.712-.523-1.257-.945-1.634-.423-.377-.932-.672-1.527-.886l-.011-.037,1.383-.402-.493-1.696h0Zm-2.037-9.531c-.237-.473-.522-.861-.854-1.163-.332-.303-.713-.514-1.144-.632-.43-.118-.902-.124-1.416-.015-.588,.124-1.046,.326-1.374,.604-.327,.278-.567,.614-.72,1.006-.153,.392-.244,.826-.274,1.304-.03,.477-.042,.977-.037,1.499,.002,.444,0,.84-.004,1.188-.005,.348-.04,.649-.103,.905-.064,.255-.168,.46-.312,.615-.144,.155-.347,.26-.61,.315-.388,.082-.752,0-1.093-.25-.34-.248-.583-.717-.729-1.406-.153-.726-.131-1.303,.066-1.731,.198-.428,.551-.735,1.062-.921l-.369-1.747c-.853,.298-1.48,.829-1.881,1.594-.401,.765-.468,1.78-.201,3.045,.249,1.177,.695,2.035,1.338,2.573,.643,.538,1.397,.715,2.261,.533,.551-.117,.98-.315,1.287-.596,.307-.28,.531-.615,.671-1.005,.14-.389,.225-.825,.253-1.309,.029-.484,.042-.98,.039-1.49-.01-.926,.05-1.629,.18-2.108,.13-.479,.474-.777,1.031-.895,.456-.096,.877,.001,1.263,.293,.386,.291,.663,.838,.832,1.639,.077,.364,.113,.709,.109,1.037-.004,.328-.057,.63-.158,.906-.102,.277-.263,.524-.484,.74-.221,.217-.511,.39-.871,.518l.373,1.766c1.011-.292,1.74-.884,2.186-1.777,.446-.892,.521-2.039,.225-3.442-.124-.588-.305-1.119-.542-1.593h0Zm-9.835-3.741l-.233-1.595,6.825-.999c.746-.109,1.242-.402,1.488-.878,.247-.476,.326-1.057,.239-1.742-.068-.469-.195-.935-.379-1.4l-1.482,.217,.008,.057c.04,.097,.089,.229,.145,.396,.057,.166,.096,.325,.118,.477,.048,.33,.02,.596-.086,.799-.106,.203-.342,.331-.708,.385l-6.424,.94-.309-2.109-1.387,.203,.309,2.109-3.211,.47,.256,1.747,3.211-.469,.234,1.595,1.387-.203h0Zm-4.507-8.872l-.176-1.854-2.064,.196,.176,1.854,2.064-.196h0Zm12.153-1.195l-.169-1.778-10.264,.977,.169,1.778,10.264-.977h0Zm-10.923-7.011l.078,1.765,10.3-.457-.079-1.784-6.272,.278c-.409,.019-.789-.032-1.141-.151s-.654-.294-.907-.526c-.254-.232-.455-.515-.605-.848-.149-.333-.233-.698-.25-1.094-.031-.703,.124-1.264,.464-1.683,.34-.419,.843-.643,1.508-.672l6.982-.31-.078-1.765-7.193,.319c-1.087,.049-1.904,.392-2.453,1.032-.548,.639-.798,1.502-.75,2.589,.033,.755,.215,1.387,.545,1.898,.33,.511,.766,.94,1.306,1.287l.003,.058-1.458,.064h0Zm13.592-17.47c-.135-.569-.36-1.066-.674-1.49-.315-.411-.72-.737-1.216-.977-.496-.239-1.088-.375-1.779-.405l-9.878-.438-.078,1.764,1.362,.061-.002,.038c-.539,.31-.957,.711-1.255,1.203-.297,.493-.462,1.111-.495,1.852-.027,.601,.063,1.175,.27,1.723,.206,.547,.515,1.031,.925,1.453,.411,.422,.924,.762,1.54,1.02,.616,.258,1.321,.404,2.114,.44,.755,.033,1.444-.048,2.067-.245,.624-.196,1.168-.483,1.633-.86,.465-.376,.832-.837,1.099-1.383,.268-.545,.416-1.144,.445-1.796,.032-.729-.088-1.34-.361-1.832-.273-.493-.657-.93-1.153-1.31l.002-.039c.166,.02,.38,.04,.641,.057,.262,.019,.54,.034,.834,.047l.287,.013c.876,.039,1.509,.314,1.9,.824,.391,.511,.566,1.226,.525,2.147-.034,.767-.179,1.389-.434,1.864-.255,.476-.65,.74-1.183,.793l-.074,1.669c.925-.061,1.657-.455,2.195-1.181,.538-.725,.838-1.766,.898-3.121,.031-.691-.022-1.321-.156-1.891h0Zm-6.425,3.809c-.661,.458-1.541,.662-2.641,.613-1.087-.048-1.946-.323-2.577-.825-.631-.502-.926-1.226-.884-2.173,.046-1.035,.39-1.786,1.032-2.251,.642-.464,1.507-.673,2.593-.624,.524,.023,1.008,.096,1.451,.218,.443,.122,.822,.308,1.138,.559,.315,.252,.558,.573,.726,.965,.169,.392,.24,.869,.215,1.431-.041,.934-.392,1.63-1.053,2.087h0Zm-7.853-18.89l.27-1.843-2.052-.3-.27,1.842,2.052,.301h0Zm12.088,1.73l.259-1.767-10.202-1.493-.259,1.767,10.202,1.493h0Zm-8.039-6.579l.293-1.586,6.782,1.256c.741,.137,1.305,.02,1.692-.351,.387-.371,.649-.895,.788-1.572,.086-.466,.117-.948,.092-1.448l-1.473-.272-.01,.056c.007,.106,.01,.246,.01,.422,0,.176-.014,.339-.042,.49-.061,.328-.174,.57-.339,.728-.166,.158-.431,.204-.795,.136l-6.384-1.181,.388-2.096-1.378-.255-.388,2.095-3.191-.59-.322,1.737,3.191,.59-.294,1.586,1.378,.255h0Zm10.457-6.983l.454-2.023-2.061-.462-.454,2.023,2.061,.462h0Z" style="fill:#f0f;"/></svg>