<?xml version="1.0" encoding="UTF-8"?><svg id="a" xmlns="http://www.w3.org/2000/svg" viewBox="0 0 773 592"><polygon points=".072 0 .072 592 773.072 592 773.072 0 .072 0 .072 0"/><g><path d="M40.975,543.722c0,.511-.039,.825-.392,.825s-.432-.275-.432-.825v-18.409c0-.51,.078-.785,.432-.785s.392,.314,.392,.785v6.398h4.396v-6.045c0-3.14-1.335-4.945-4.671-4.945h-.471c-3.493,0-4.789,2.198-4.789,5.966v16.25c0,3.376,1.374,5.496,4.867,5.496h.667c3.062,0,4.396-2.473,4.396-4.868v-8.36h-4.396v8.517h0Zm16.093-18.095c0-2.708-1.609-4.946-5.142-4.946-3.572,0-5.142,2.238-5.142,4.946v17.781c0,2.709,1.609,5.025,5.142,5.025s5.142-2.316,5.142-5.025v-17.781h0Zm-4.71,17.86c0,.51-.079,.785-.432,.785s-.432-.275-.432-.785v-17.978c0-.51,.079-.785,.432-.785s.432,.314,.432,.785v17.978h0Zm6.28-22.57v27.241h3.768v-16.29l.393,2.944,1.648,13.346h4.004v-27.241h-3.768v14.68l-.393-3.022-1.295-11.658h-4.357Zm19.743,0h-8.478v3.964h2.002v23.277h4.475v-23.277h2.002v-3.964h0Zm1.413,0v27.241h7.379v-4.082h-2.905v-8.165h2.159v-4.16h-2.159v-6.791h2.708v-4.043h-7.183Zm8.871,0v27.241h3.768v-16.29l.393,2.944,1.649,13.346h4.004v-27.241h-3.768v14.68l-.393-3.022-1.295-11.658h-4.357Zm19.744,0h-8.479v3.964h2.002v23.277h4.475v-23.277h2.002v-3.964h0Zm2.394,30.224c.432-.864,.981-2.316,.981-4.043v-3.611h-3.807v4.671h1.413c0,1.099-.314,2.198-.51,2.983h1.923Zm10.794-30.224h-4.475v27.241h4.475v-27.241h0Zm1.648,0v27.241h3.768v-16.29l.392,2.944,1.649,13.346h4.004v-27.241h-3.768v14.68l-.393-3.022-1.295-11.658h-4.357Zm16.917,22.805c0,.511-.039,.825-.393,.825s-.431-.275-.431-.825v-18.409c0-.51,.078-.785,.431-.785s.393,.314,.393,.785v6.398h4.396v-6.045c0-3.14-1.334-4.945-4.671-4.945h-.471c-3.493,0-4.789,2.198-4.789,5.966v16.25c0,3.376,1.374,5.496,4.868,5.496h.667c3.062,0,4.396-2.473,4.396-4.868v-8.36h-4.396v8.517h0Zm5.888-22.805v27.241h7.183v-4.318h-2.709v-22.923h-4.474Zm18.605,0h-4.671v22.413c0,.51-.039,.824-.393,.824-.274,0-.353-.275-.353-.824v-22.413h-4.671v22.374c0,2.983,1.295,5.142,4.789,5.142h.549c3.455,0,4.75-2.238,4.75-5.142v-22.374h0Zm1.609,27.241h6.594c2.238,0,3.376-1.727,3.376-4.318v-18.684c0-3.022-1.374-4.239-3.925-4.239h-6.045v27.241h0Zm4.475-23.512h.353c.392,0,.51,.275,.51,.785v17.938c0,.628-.118,.903-.51,.903h-.353v-19.626h0Zm11.579-3.729h-4.475v27.241h4.475v-27.241h0Zm1.648,0v27.241h3.768v-16.29l.393,2.944,1.648,13.346h4.004v-27.241h-3.768v14.68l-.393-3.022-1.295-11.658h-4.357Zm15.386,27.516c1.57,0,2.394-.982,2.748-1.531,.118,.353,.196,.903,.235,1.256h3.18v-15.662h-4.985v3.219h.706v8.125c0,.55-.196,.864-.589,.864s-.588-.314-.588-.825v-18.801c0-.432,.117-.628,.392-.628,.393,0,.393,.274,.393,.628v6.673h4.435v-6.556c0-2.59-1.334-4.514-4.632-4.514h-.51c-3.611,0-4.789,2.238-4.789,4.946v17.938c0,2.866,1.06,4.868,4.004,4.868h0Zm18.448-11.58l2.63-15.936h-4.004l-.51,6.948-.236,3.218-.196-3.218-.55-6.948h-4.435l2.826,15.936v11.305h4.475v-11.305h0Zm13.542-11.226c0-2.708-1.609-4.946-5.142-4.946-3.572,0-5.142,2.238-5.142,4.946v17.781c0,2.709,1.609,5.025,5.142,5.025s5.142-2.316,5.142-5.025v-17.781h0Zm-4.71,17.86c0,.51-.079,.785-.432,.785s-.432-.275-.432-.785v-17.978c0-.51,.079-.785,.432-.785s.432,.314,.432,.785v17.978h0Zm16.328-22.57h-4.671v22.413c0,.51-.039,.824-.392,.824-.275,0-.353-.275-.353-.824v-22.413h-4.671v22.374c0,2.983,1.295,5.142,4.788,5.142h.55c3.454,0,4.749-2.238,4.749-5.142v-22.374h0Zm6.084,14.876h.157c.432,0,.55,.197,.55,.707v10.402c0,.589,.235,1.02,.51,1.256h4.357v-.118c-.196-.314-.314-.51-.314-1.138v-10.873c0-1.766-.707-2.198-1.806-2.591,1.256-.51,1.767-1.53,1.767-3.061v-6.163c0-2.316-1.374-3.297-3.494-3.297h-6.202v27.241h4.475v-12.365h0Zm0-11.657h.236c.392,0,.471,.196,.471,.628v6.947c0,.471-.118,.668-.471,.668h-.236v-8.243h0Zm15.661,15.897h-1.02l.353-7.851,.157-3.611,.157,3.611,.353,7.851h0Zm-1.334,4.003h1.648l.196,4.122h4.397l-2.395-27.241h-5.691l-2.198,27.241h3.846l.197-4.122h0Zm12.717-.314c0,.511-.039,.825-.392,.825s-.432-.275-.432-.825v-18.409c0-.51,.079-.785,.432-.785s.392,.314,.392,.785v6.398h4.397v-6.045c0-3.14-1.335-4.945-4.671-4.945h-.471c-3.494,0-4.789,2.198-4.789,5.966v16.25c0,3.376,1.374,5.496,4.867,5.496h.667c3.062,0,4.397-2.473,4.397-4.868v-8.36h-4.397v8.517h0Zm14.053-22.805h-8.479v3.964h2.002v23.277h4.475v-23.277h2.002v-3.964h0Zm5.887,0h-4.475v27.241h4.475v-27.241h0Zm11.854,4.71c0-2.708-1.61-4.946-5.142-4.946-3.572,0-5.142,2.238-5.142,4.946v17.781c0,2.709,1.609,5.025,5.142,5.025s5.142-2.316,5.142-5.025v-17.781h0Zm-4.71,17.86c0,.51-.079,.785-.432,.785s-.432-.275-.432-.785v-17.978c0-.51,.078-.785,.432-.785s.432,.314,.432,.785v17.978h0Zm6.28-22.57v27.241h3.768v-16.29l.392,2.944,1.649,13.346h4.004v-27.241h-3.768v14.68l-.393-3.022-1.295-11.658h-4.357Zm16.642,10.166h4.279v-6.437c0-2.905-1.61-4.004-4.632-4.004h-.118c-3.493,0-4.749,1.963-4.749,4.475v5.063c.039,2.12,.471,3.533,2.355,4.868l2.159,1.53c.667,.511,.785,.825,.785,1.61v5.613c0,.392-.079,.706-.432,.706h-.039c-.393,0-.511-.314-.511-.628v-7.261h-4.396v7.575c0,2.748,1.609,4.24,4.71,4.24h.236c3.454,0,5.142-1.924,5.142-5.142v-5.574c0-2.12-.589-3.454-2.551-4.828l-2.395-1.688c-.471-.275-.549-.628-.549-1.138v-5.574c0-.353,.117-.51,.353-.51,.275,0,.353,.117,.353,.51v6.594h0Zm14.994,8.95h-1.02l.353-7.851,.157-3.611,.157,3.611,.353,7.851h0Zm-1.334,4.003h1.648l.196,4.122h4.397l-2.395-27.241h-5.691l-2.198,27.241h3.846l.197-4.122h0Zm7.497-23.119v27.241h3.768v-16.29l.392,2.944,1.649,13.346h4.004v-27.241h-3.769v14.68l-.392-3.022-1.295-11.658h-4.357Zm11.461,27.241h6.594c2.237,0,3.376-1.727,3.376-4.318v-18.684c0-3.022-1.374-4.239-3.925-4.239h-6.045v27.241h0Zm4.474-23.512h.354c.392,0,.51,.275,.51,.785v17.938c0,.628-.118,.903-.51,.903h-.354v-19.626h0Zm10.912,23.512h6.712c2.198,0,3.415-1.492,3.415-4.2v-8.125c0-2.316-1.531-3.062-2.355-3.258,.785-.196,1.963-.824,1.963-3.023v-5.142c0-2.472-1.217-3.493-2.984-3.493h-6.751v27.241h0Zm4.75-23.983c.431,0,.471,.235,.471,.667v6.359c0,.432-.118,.667-.471,.667h-.275v-7.693h.275Zm.117,10.716c.354,0,.511,.235,.511,.706v8.636c0,.431-.079,.667-.511,.667h-.392v-10.009h.392Zm6.751-13.974v27.241h7.379v-4.082h-2.904v-8.165h2.159v-4.16h-2.159v-6.791h2.708v-4.043h-7.183Zm18.802,0h-4.475v10.48h-.981v-10.48h-4.475v27.241h4.475v-12.286h.981v12.286h4.475v-27.241h0Zm6.672,19.116h-1.02l.353-7.851,.157-3.611,.157,3.611,.353,7.851h0Zm-1.334,4.003h1.648l.196,4.122h4.397l-2.395-27.241h-5.691l-2.198,27.241h3.846l.197-4.122h0Zm8.517,4.122h6.045l2.355-27.241h-4.357l-.706,14.523-.197,5.299-.196-5.299-.785-14.523h-4.789l2.63,27.241h0Zm14.17-27.241h-4.475v27.241h4.475v-27.241h0Zm11.853,4.71c0-2.708-1.609-4.946-5.142-4.946-3.572,0-5.142,2.238-5.142,4.946v17.781c0,2.709,1.61,5.025,5.142,5.025s5.142-2.316,5.142-5.025v-17.781h0Zm-4.71,17.86c0,.51-.078,.785-.432,.785s-.431-.275-.431-.785v-17.978c0-.51,.078-.785,.431-.785s.432,.314,.432,.785v17.978h0Zm10.755-7.694h.157c.432,0,.55,.197,.55,.707v10.402c0,.589,.235,1.02,.51,1.256h4.357v-.118c-.196-.314-.314-.51-.314-1.138v-10.873c0-1.766-.707-2.198-1.806-2.591,1.256-.51,1.767-1.53,1.767-3.061v-6.163c0-2.316-1.374-3.297-3.494-3.297h-6.202v27.241h4.475v-12.365h0Zm0-11.657h.236c.392,0,.471,.196,.471,.628v6.947c0,.471-.118,.668-.471,.668h-.236v-8.243h0Zm12.011,6.947h4.278v-6.437c0-2.905-1.609-4.004-4.631-4.004h-.118c-3.494,0-4.75,1.963-4.75,4.475v5.063c.04,2.12,.471,3.533,2.355,4.868l2.159,1.53c.668,.511,.785,.825,.785,1.61v5.613c0,.392-.078,.706-.431,.706h-.04c-.392,0-.51-.314-.51-.628v-7.261h-4.396v7.575c0,2.748,1.609,4.24,4.71,4.24h.236c3.454,0,5.142-1.924,5.142-5.142v-5.574c0-2.12-.589-3.454-2.552-4.828l-2.394-1.688c-.471-.275-.55-.628-.55-1.138v-5.574c0-.353,.118-.51,.354-.51,.274,0,.353,.117,.353,.51v6.594h0Zm9.852,12.404h-3.807v4.671h3.807v-4.671h0Zm21.156-22.57h-4.396l-.393,11.854-.157,6.084-.274-6.045-.55-11.893h-4.357l-.51,11.893-.275,6.045-.196-6.005-.393-11.933h-4.671l2.12,27.241h5.456l.471-11.501,.157-4.828,.157,4.828,.471,11.501h5.142l2.198-27.241h0Zm11.226,0h-4.475v10.48h-.981v-10.48h-4.475v27.241h4.475v-12.286h.981v12.286h4.475v-27.241h0Zm8.596,15.936l2.63-15.936h-4.004l-.51,6.948-.236,3.218-.196-3.218-.55-6.948h-4.435l2.826,15.936v11.305h4.475v-11.305h0Zm11.618,11.58c1.57,0,2.394-.982,2.748-1.531,.117,.353,.196,.903,.235,1.256h3.18v-15.662h-4.985v3.219h.706v8.125c0,.55-.196,.864-.589,.864s-.588-.314-.588-.825v-18.801c0-.432,.117-.628,.392-.628,.393,0,.393,.274,.393,.628v6.673h4.435v-6.556c0-2.59-1.335-4.514-4.632-4.514h-.51c-3.611,0-4.789,2.238-4.789,4.946v17.938c0,2.866,1.06,4.868,4.004,4.868h0Zm12.168-27.516h-4.475v27.241h4.475v-27.241h0Zm3.924,27.241h6.045l2.355-27.241h-4.357l-.706,14.523-.197,5.299-.196-5.299-.785-14.523h-4.789l2.63,27.241h0Zm9.695-27.241v27.241h7.379v-4.082h-2.904v-8.165h2.159v-4.16h-2.159v-6.791h2.708v-4.043h-7.183Zm20.686,0h-8.479v3.964h2.002v23.277h4.475v-23.277h2.002v-3.964h0Zm11.343,0h-4.475v10.48h-.981v-10.48h-4.475v27.241h4.475v-12.286h.981v12.286h4.475v-27.241h0Zm1.649,0v27.241h7.379v-4.082h-2.905v-8.165h2.159v-4.16h-2.159v-6.791h2.709v-4.043h-7.183Zm8.87,27.241h3.729v-15.858l.353,4.357,.982,11.501h1.609l.942-11.501,.393-4.357-.04,4.553v11.305h3.886v-27.241h-5.181l-.55,10.245-.157,2.904-.156-2.904-.589-10.245h-5.221v27.241h0Zm22.334-8.125h-1.021l.354-7.851,.157-3.611,.157,3.611,.353,7.851h0Zm-1.335,4.003h1.649l.196,4.122h4.396l-2.394-27.241h-5.691l-2.199,27.241h3.847l.196-4.122h0Zm22.06-23.119h-4.396l-.393,11.854-.157,6.084-.274-6.045-.55-11.893h-4.357l-.51,11.893-.275,6.045-.196-6.005-.393-11.933h-4.671l2.12,27.241h5.456l.471-11.501,.157-4.828,.157,4.828,.471,11.501h5.142l2.198-27.241h0Zm5.103,19.116h-1.021l.353-7.851,.157-3.611,.157,3.611,.354,7.851h0Zm-1.335,4.003h1.649l.196,4.122h4.396l-2.394-27.241h-5.692l-2.198,27.241h3.847l.196-4.122h0Zm12.757-7.183l2.63-15.936h-4.004l-.51,6.948-.236,3.218-.196-3.218-.549-6.948h-4.436l2.826,15.936v11.305h4.475v-11.305h0Zm7.693,11.305h4.475v-12.365h2.159v-4.121h-2.159v-6.751h2.865v-4.004h-7.34v27.241h0Zm18.919-22.531c0-2.708-1.609-4.946-5.142-4.946-3.572,0-5.142,2.238-5.142,4.946v17.781c0,2.709,1.61,5.025,5.142,5.025s5.142-2.316,5.142-5.025v-17.781h0Zm-4.71,17.86c0,.51-.078,.785-.432,.785s-.431-.275-.431-.785v-17.978c0-.51,.078-.785,.431-.785s.432,.314,.432,.785v17.978h0Zm10.755-7.694h.157c.432,0,.55,.197,.55,.707v10.402c0,.589,.235,1.02,.51,1.256h4.357v-.118c-.196-.314-.314-.51-.314-1.138v-10.873c0-1.766-.707-2.198-1.806-2.591,1.256-.51,1.767-1.53,1.767-3.061v-6.163c0-2.316-1.374-3.297-3.494-3.297h-6.202v27.241h4.475v-12.365h0Zm0-11.657h.236c.392,0,.471,.196,.471,.628v6.947c0,.471-.118,.668-.471,.668h-.236v-8.243h0Zm10.637,24.022h4.475v-12.365h2.158v-4.121h-2.158v-6.751h2.865v-4.004h-7.34v27.241h0Zm13.306-12.365h.157c.432,0,.549,.197,.549,.707v10.402c0,.589,.236,1.02,.511,1.256h4.357v-.118c-.197-.314-.315-.51-.315-1.138v-10.873c0-1.766-.706-2.198-1.805-2.591,1.256-.51,1.766-1.53,1.766-3.061v-6.163c0-2.316-1.374-3.297-3.493-3.297h-6.202v27.241h4.475v-12.365h0Zm0-11.657h.235c.393,0,.471,.196,.471,.628v6.947c0,.471-.117,.668-.471,.668h-.235v-8.243h0Zm6.829-3.219v27.241h7.38v-4.082h-2.905v-8.165h2.159v-4.16h-2.159v-6.791h2.708v-4.043h-7.183Zm8.871,0v27.241h7.379v-4.082h-2.904v-8.165h2.159v-4.16h-2.159v-6.791h2.708v-4.043h-7.183Zm14.523,21.432v-3.808c0-1.295,.196-1.413,1.649-4.121,1.374-2.395,1.609-2.983,1.609-4.828v-4.475c0-2.434-1.374-4.436-4.514-4.436h-.157c-3.807,0-4.592,2.356-4.592,4.357v6.281h4.082v-6.555c0-.393,.039-.628,.392-.628,.314,0,.393,.235,.393,.628v4.828c0,1.413-.157,1.609-1.06,3.415-1.138,2.276-1.452,2.629-1.452,4.082v5.26h3.65Zm.079,.942h-3.808v4.867h3.808v-4.867h0Z" style="fill:#fff;"/><path d="M72.317,488.491h-8.478v3.965h2.002v23.276h4.475v-23.276h2.002v-3.965h0Zm11.579,4.711c0-2.709-1.609-4.946-5.142-4.946-3.572,0-5.142,2.237-5.142,4.946v17.781c0,2.708,1.609,5.024,5.142,5.024s5.142-2.316,5.142-5.024v-17.781h0Zm-4.71,17.859c0,.511-.078,.785-.432,.785s-.432-.274-.432-.785v-17.977c0-.51,.078-.785,.432-.785s.432,.314,.432,.785v17.977h0Zm6.28,4.671h6.594c2.237,0,3.376-1.727,3.376-4.317v-18.684c0-3.023-1.374-4.24-3.925-4.24h-6.045v27.241h0Zm4.475-23.512h.353c.393,0,.51,.275,.51,.785v17.939c0,.628-.118,.902-.51,.902h-.353v-19.626h0Zm11.894,15.387h-1.021l.353-7.85,.157-3.611,.157,3.611,.354,7.85h0Zm-1.335,4.004h1.649l.196,4.121h4.396l-2.394-27.241h-5.692l-2.198,27.241h3.847l.196-4.121h0Zm12.757-7.183l2.63-15.937h-4.004l-.51,6.948-.236,3.219-.196-3.219-.55-6.948h-4.435l2.826,15.937v11.304h4.475v-11.304h0Zm4.553,14.287c.432-.863,.982-2.315,.982-4.043v-3.611h-3.808v4.671h1.413c0,1.099-.314,2.198-.51,2.983h1.923Zm11.776-7.418c0,.51-.04,.824-.393,.824s-.432-.275-.432-.824v-18.409c0-.511,.079-.785,.432-.785s.393,.314,.393,.785v6.398h4.396v-6.045c0-3.14-1.335-4.946-4.671-4.946h-.471c-3.494,0-4.789,2.198-4.789,5.967v16.25c0,3.375,1.374,5.495,4.867,5.495h.668c3.061,0,4.396-2.473,4.396-4.867v-8.361h-4.396v8.518h0Zm16.093-18.095c0-2.709-1.61-4.946-5.142-4.946-3.572,0-5.142,2.237-5.142,4.946v17.781c0,2.708,1.609,5.024,5.142,5.024s5.142-2.316,5.142-5.024v-17.781h0Zm-4.71,17.859c0,.511-.079,.785-.432,.785s-.432-.274-.432-.785v-17.977c0-.51,.078-.785,.432-.785s.432,.314,.432,.785v17.977h0Zm6.28-22.57v27.241h3.768v-16.289l.392,2.944,1.649,13.345h4.004v-27.241h-3.768v14.681l-.393-3.023-1.295-11.658h-4.357Zm19.743,0h-8.478v3.965h2.001v23.276h4.475v-23.276h2.002v-3.965h0Zm1.413,0v27.241h7.379v-4.082h-2.905v-8.164h2.159v-4.161h-2.159v-6.791h2.709v-4.043h-7.183Zm8.87,0v27.241h3.769v-16.289l.392,2.944,1.649,13.345h4.003v-27.241h-3.768v14.681l-.392-3.023-1.296-11.658h-4.357Zm19.744,0h-8.479v3.965h2.002v23.276h4.475v-23.276h2.002v-3.965h0Zm9.694,0h-4.474v27.241h4.474v-27.241h0Zm6.83,10.167h4.278v-6.438c0-2.904-1.609-4.003-4.632-4.003h-.117c-3.494,0-4.75,1.962-4.75,4.474v5.064c.039,2.12,.471,3.533,2.355,4.867l2.159,1.531c.667,.51,.785,.824,.785,1.609v5.613c0,.393-.078,.707-.432,.707h-.039c-.392,0-.51-.314-.51-.628v-7.262h-4.396v7.576c0,2.748,1.609,4.239,4.71,4.239h.235c3.455,0,5.142-1.923,5.142-5.142v-5.574c0-2.119-.588-3.454-2.551-4.828l-2.394-1.688c-.471-.274-.55-.628-.55-1.138v-5.574c0-.353,.118-.51,.353-.51,.275,0,.354,.118,.354,.51v6.595h0Zm9.969-10.167v27.241h3.769v-16.289l.392,2.944,1.649,13.345h4.003v-27.241h-3.768v14.681l-.392-3.023-1.296-11.658h-4.357Zm21.667,4.711c0-2.709-1.609-4.946-5.142-4.946-3.572,0-5.142,2.237-5.142,4.946v17.781c0,2.708,1.609,5.024,5.142,5.024s5.142-2.316,5.142-5.024v-17.781h0Zm-4.71,17.859c0,.511-.079,.785-.432,.785s-.432-.274-.432-.785v-17.977c0-.51,.079-.785,.432-.785s.432,.314,.432,.785v17.977h0Zm14.523-22.57h-8.478v3.965h2.002v23.276h4.474v-23.276h2.002v-3.965h0Zm15.269,0h-4.671v22.413c0,.511-.04,.825-.393,.825-.275,0-.353-.275-.353-.825v-22.413h-4.671v22.374c0,2.983,1.295,5.142,4.789,5.142h.549c3.454,0,4.75-2.237,4.75-5.142v-22.374h0Zm6.79,10.167h4.278v-6.438c0-2.904-1.609-4.003-4.631-4.003h-.118c-3.493,0-4.75,1.962-4.75,4.474v5.064c.04,2.12,.471,3.533,2.356,4.867l2.158,1.531c.668,.51,.785,.824,.785,1.609v5.613c0,.393-.078,.707-.431,.707h-.04c-.392,0-.51-.314-.51-.628v-7.262h-4.396v7.576c0,2.748,1.609,4.239,4.71,4.239h.236c3.454,0,5.142-1.923,5.142-5.142v-5.574c0-2.119-.589-3.454-2.552-4.828l-2.394-1.688c-.471-.274-.55-.628-.55-1.138v-5.574c0-.353,.118-.51,.354-.51,.274,0,.353,.118,.353,.51v6.595h0Zm6.162-10.167v27.241h7.38v-4.082h-2.905v-8.164h2.159v-4.161h-2.159v-6.791h2.709v-4.043h-7.184Zm8.871,27.241h6.594c2.238,0,3.376-1.727,3.376-4.317v-18.684c0-3.023-1.374-4.24-3.925-4.24h-6.045v27.241h0Zm4.475-23.512h.353c.393,0,.51,.275,.51,.785v17.939c0,.628-.117,.902-.51,.902h-.353v-19.626h0Zm18.919-3.729h-8.478v3.965h2.002v23.276h4.474v-23.276h2.002v-3.965h0Zm11.58,4.711c0-2.709-1.61-4.946-5.142-4.946-3.572,0-5.142,2.237-5.142,4.946v17.781c0,2.708,1.609,5.024,5.142,5.024s5.142-2.316,5.142-5.024v-17.781h0Zm-4.711,17.859c0,.511-.078,.785-.431,.785s-.432-.274-.432-.785v-17.977c0-.51,.078-.785,.432-.785s.431,.314,.431,.785v17.977h0Zm15.269-12.403h4.279v-6.438c0-2.904-1.61-4.003-4.632-4.003h-.118c-3.493,0-4.749,1.962-4.749,4.474v5.064c.039,2.12,.471,3.533,2.355,4.867l2.159,1.531c.667,.51,.785,.824,.785,1.609v5.613c0,.393-.079,.707-.432,.707h-.039c-.393,0-.511-.314-.511-.628v-7.262h-4.396v7.576c0,2.748,1.609,4.239,4.71,4.239h.236c3.454,0,5.142-1.923,5.142-5.142v-5.574c0-2.119-.589-3.454-2.552-4.828l-2.394-1.688c-.471-.274-.549-.628-.549-1.138v-5.574c0-.353,.117-.51,.353-.51,.275,0,.353,.118,.353,.51v6.595h0Zm6.163-10.167v27.241h7.379v-4.082h-2.905v-8.164h2.159v-4.161h-2.159v-6.791h2.709v-4.043h-7.183Zm8.87,0v27.241h7.183v-4.317h-2.708v-22.924h-4.475Zm8.674,0v27.241h7.184v-4.317h-2.709v-22.924h-4.475Zm17.506,19.116h-1.02l.353-7.85,.157-3.611,.157,3.611,.353,7.85h0Zm-1.334,4.004h1.648l.197,4.121h4.396l-2.395-27.241h-5.691l-2.198,27.241h3.846l.197-4.121h0Zm7.497-23.12v27.241h3.768v-16.289l.392,2.944,1.649,13.345h4.004v-27.241h-3.768v14.681l-.393-3.023-1.295-11.658h-4.357Zm18.409,15.937l2.629-15.937h-4.003l-.511,6.948-.235,3.219-.196-3.219-.55-6.948h-4.435l2.826,15.937v11.304h4.475v-11.304h0Zm12.167-15.937h-8.478v3.965h2.002v23.276h4.475v-23.276h2.001v-3.965h0Zm11.344,0h-4.475v10.481h-.981v-10.481h-4.475v27.241h4.475v-12.286h.981v12.286h4.475v-27.241h0Zm6.123,0h-4.475v27.241h4.475v-27.241h0Zm1.648,0v27.241h3.768v-16.289l.393,2.944,1.648,13.345h4.004v-27.241h-3.768v14.681l-.393-3.023-1.295-11.658h-4.357Zm15.386,27.516c1.57,0,2.395-.981,2.748-1.531,.118,.354,.196,.903,.235,1.256h3.18v-15.661h-4.985v3.218h.706v8.126c0,.549-.196,.863-.588,.863s-.589-.314-.589-.824v-18.802c0-.432,.118-.628,.392-.628,.393,0,.393,.275,.393,.628v6.673h4.435v-6.555c0-2.591-1.334-4.514-4.631-4.514h-.511c-3.611,0-4.788,2.237-4.788,4.946v17.938c0,2.865,1.059,4.867,4.003,4.867h0Zm11.5-.275h6.712c2.199,0,3.415-1.491,3.415-4.2v-8.125c0-2.316-1.53-3.061-2.355-3.258,.785-.196,1.963-.824,1.963-3.022v-5.142c0-2.473-1.217-3.494-2.983-3.494h-6.752v27.241h0Zm4.75-23.983c.432,0,.471,.236,.471,.668v6.358c0,.432-.118,.668-.471,.668h-.275v-7.694h.275Zm.118,10.716c.353,0,.51,.236,.51,.707v8.635c0,.432-.079,.667-.51,.667h-.393v-10.009h.393Zm6.75-13.974v27.241h7.38v-4.082h-2.905v-8.164h2.159v-4.161h-2.159v-6.791h2.708v-4.043h-7.183Zm15.583,15.937l2.63-15.937h-4.004l-.51,6.948-.235,3.219-.197-3.219-.549-6.948h-4.436l2.827,15.937v11.304h4.474v-11.304h0Zm13.542-11.226c0-2.709-1.609-4.946-5.142-4.946-3.572,0-5.142,2.237-5.142,4.946v17.781c0,2.708,1.61,5.024,5.142,5.024s5.142-2.316,5.142-5.024v-17.781h0Zm-4.71,17.859c0,.511-.078,.785-.432,.785s-.431-.274-.431-.785v-17.977c0-.51,.078-.785,.431-.785s.432,.314,.432,.785v17.977h0Zm6.28-22.57v27.241h3.769v-16.289l.392,2.944,1.649,13.345h4.003v-27.241h-3.768v14.681l-.392-3.023-1.296-11.658h-4.357Zm11.462,27.241h6.594c2.237,0,3.376-1.727,3.376-4.317v-18.684c0-3.023-1.374-4.24-3.926-4.24h-6.044v27.241h0Zm4.474-23.512h.354c.392,0,.51,.275,.51,.785v17.939c0,.628-.118,.902-.51,.902h-.354v-19.626h0Zm15.387-3.729h-4.475v27.241h4.475v-27.241h0Zm9.93,0h-8.479v3.965h2.002v23.276h4.475v-23.276h2.002v-3.965h0Zm6.476,10.167h4.279v-6.438c0-2.904-1.609-4.003-4.632-4.003h-.118c-3.493,0-4.749,1.962-4.749,4.474v5.064c.039,2.12,.471,3.533,2.355,4.867l2.159,1.531c.667,.51,.785,.824,.785,1.609v5.613c0,.393-.079,.707-.432,.707h-.039c-.393,0-.51-.314-.51-.628v-7.262h-4.397v7.576c0,2.748,1.61,4.239,4.711,4.239h.235c3.454,0,5.142-1.923,5.142-5.142v-5.574c0-2.119-.589-3.454-2.551-4.828l-2.395-1.688c-.471-.274-.549-.628-.549-1.138v-5.574c0-.353,.118-.51,.353-.51,.275,0,.353,.118,.353,.51v6.595h0Zm6.163-10.167v27.241h7.379v-4.082h-2.904v-8.164h2.158v-4.161h-2.158v-6.791h2.708v-4.043h-7.183Zm8.87,0v27.241h7.184v-4.317h-2.709v-22.924h-4.475Zm8.675,27.241h4.474v-12.364h2.159v-4.122h-2.159v-6.751h2.866v-4.004h-7.34v27.241h0Zm10.205-4.671h-3.807v4.671h3.807v-4.671h0Zm5.338-22.57v27.241h7.379v-4.082h-2.904v-8.164h2.158v-4.161h-2.158v-6.791h2.708v-4.043h-7.183Zm11.03,27.241h6.045l2.355-27.241h-4.357l-.707,14.524-.196,5.299-.196-5.299-.785-14.524h-4.789l2.63,27.241h0Zm9.695-27.241v27.241h7.379v-4.082h-2.905v-8.164h2.159v-4.161h-2.159v-6.791h2.709v-4.043h-7.183Zm13.345,14.877h.157c.432,0,.55,.196,.55,.706v10.402c0,.589,.235,1.021,.51,1.256h4.357v-.117c-.196-.314-.314-.511-.314-1.139v-10.873c0-1.766-.707-2.198-1.806-2.59,1.256-.51,1.767-1.531,1.767-3.062v-6.162c0-2.316-1.374-3.298-3.494-3.298h-6.202v27.241h4.475v-12.364h0Zm0-11.658h.236c.392,0,.471,.196,.471,.628v6.948c0,.471-.118,.667-.471,.667h-.236v-8.243h0Zm13.228,12.718l2.63-15.937h-4.004l-.51,6.948-.236,3.219-.196-3.219-.55-6.948h-4.435l2.826,15.937v11.304h4.475v-11.304h0Zm12.168-15.937h-8.479v3.965h2.002v23.276h4.475v-23.276h2.002v-3.965h0Zm11.343,0h-4.475v10.481h-.981v-10.481h-4.475v27.241h4.475v-12.286h.981v12.286h4.475v-27.241h0Zm6.123,0h-4.474v27.241h4.474v-27.241h0Zm1.648,0v27.241h3.768v-16.289l.393,2.944,1.649,13.345h4.003v-27.241h-3.768v14.681l-.392-3.023-1.296-11.658h-4.357Zm15.387,27.516c1.57,0,2.394-.981,2.747-1.531,.118,.354,.196,.903,.236,1.256h3.179v-15.661h-4.985v3.218h.707v8.126c0,.549-.197,.863-.589,.863s-.589-.314-.589-.824v-18.802c0-.432,.118-.628,.393-.628,.392,0,.392,.275,.392,.628v6.673h4.436v-6.555c0-2.591-1.335-4.514-4.632-4.514h-.51c-3.612,0-4.789,2.237-4.789,4.946v17.938c0,2.865,1.06,4.867,4.004,4.867h0Zm15.974-27.516h-4.474v27.241h4.474v-27.241h0Zm6.83,10.167h4.278v-6.438c0-2.904-1.609-4.003-4.632-4.003h-.117c-3.494,0-4.75,1.962-4.75,4.474v5.064c.039,2.12,.471,3.533,2.355,4.867l2.159,1.531c.667,.51,.785,.824,.785,1.609v5.613c0,.393-.078,.707-.432,.707h-.039c-.392,0-.51-.314-.51-.628v-7.262h-4.396v7.576c0,2.748,1.609,4.239,4.71,4.239h.235c3.455,0,5.142-1.923,5.142-5.142v-5.574c0-2.119-.588-3.454-2.551-4.828l-2.394-1.688c-.471-.274-.55-.628-.55-1.138v-5.574c0-.353,.118-.51,.353-.51,.275,0,.354,.118,.354,.51v6.595h0Z" style="fill:#fff;"/><path d="M81.03,456.066v27.241h3.768v-16.29l.392,2.944,1.649,13.346h4.004v-27.241h-3.768v14.68l-.393-3.022-1.295-11.658h-4.357Zm11.461,0v27.241h7.379v-4.082h-2.904v-8.165h2.159v-4.161h-2.159v-6.79h2.708v-4.043h-7.183Zm8.871,0v27.241h7.183v-4.318h-2.709v-22.923h-4.474Zm12.481,27.241h6.712c2.198,0,3.415-1.492,3.415-4.2v-8.125c0-2.316-1.531-3.062-2.355-3.258,.785-.197,1.963-.825,1.963-3.023v-5.142c0-2.473-1.217-3.493-2.983-3.493h-6.752v27.241h0Zm4.75-23.983c.432,0,.471,.235,.471,.667v6.359c0,.432-.118,.667-.471,.667h-.275v-7.693h.275Zm.118,10.716c.353,0,.51,.235,.51,.706v8.636c0,.431-.079,.667-.51,.667h-.393v-10.009h.393Zm16.799-13.974h-4.671v22.413c0,.51-.039,.824-.393,.824-.274,0-.353-.275-.353-.824v-22.413h-4.671v22.374c0,2.983,1.295,5.142,4.789,5.142h.549c3.454,0,4.75-2.238,4.75-5.142v-22.374h0Zm1.609,27.241h6.594c2.238,0,3.376-1.727,3.376-4.318v-18.684c0-3.022-1.374-4.239-3.925-4.239h-6.045v27.241h0Zm4.475-23.512h.353c.392,0,.51,.275,.51,.785v17.938c0,.628-.118,.903-.51,.903h-.353v-19.626h0Zm7.104,23.512h6.594c2.238,0,3.376-1.727,3.376-4.318v-18.684c0-3.022-1.374-4.239-3.925-4.239h-6.045v27.241h0Zm4.475-23.512h.353c.392,0,.51,.275,.51,.785v17.938c0,.628-.118,.903-.51,.903h-.353v-19.626h0Zm11.579-3.729h-4.475v27.241h4.475v-27.241h0Zm1.648,0v27.241h7.379v-4.082h-2.904v-8.165h2.158v-4.161h-2.158v-6.79h2.708v-4.043h-7.183Zm13.973,10.166h4.279v-6.437c0-2.905-1.61-4.004-4.632-4.004h-.118c-3.493,0-4.749,1.963-4.749,4.475v5.063c.039,2.12,.471,3.533,2.355,4.868l2.159,1.53c.667,.511,.785,.825,.785,1.61v5.613c0,.392-.079,.706-.432,.706h-.039c-.393,0-.511-.314-.511-.628v-7.261h-4.396v7.575c0,2.748,1.61,4.24,4.71,4.24h.236c3.454,0,5.142-1.924,5.142-5.142v-5.574c0-2.12-.589-3.454-2.551-4.828l-2.395-1.688c-.471-.275-.549-.628-.549-1.138v-5.574c0-.353,.117-.51,.353-.51,.275,0,.353,.117,.353,.51v6.594h0Zm17.978-10.166h-8.479v3.964h2.002v23.277h4.475v-23.277h2.002v-3.964h0Zm11.579,4.71c0-2.708-1.609-4.946-5.142-4.946-3.572,0-5.142,2.238-5.142,4.946v17.781c0,2.709,1.609,5.025,5.142,5.025s5.142-2.316,5.142-5.025v-17.781h0Zm-4.71,17.86c0,.51-.079,.785-.432,.785s-.432-.275-.432-.785v-17.978c0-.51,.079-.785,.432-.785s.432,.314,.432,.785v17.978h0Zm16.446-7.144c1.963,.078,3.337-.942,3.337-4.2v-7.458c0-2.826-1.296-3.768-3.337-3.768h-6.359v27.241h4.475v-11.815h1.884Zm-1.884-12.207h.236c.392,0,.471,.196,.471,.628v7.418c0,.471-.118,.668-.471,.668h-.236v-8.714h0Zm11.187,11.657h.157c.432,0,.549,.197,.549,.707v10.402c0,.588,.236,1.02,.511,1.256h4.357v-.118c-.197-.314-.314-.51-.314-1.138v-10.873c0-1.766-.707-2.198-1.806-2.591,1.256-.51,1.766-1.531,1.766-3.061v-6.163c0-2.316-1.373-3.297-3.493-3.297h-6.202v27.241h4.475v-12.365h0Zm0-11.657h.235c.393,0,.471,.196,.471,.628v6.947c0,.471-.117,.667-.471,.667h-.235v-8.242h0Zm17.035,1.491c0-2.708-1.609-4.946-5.142-4.946-3.572,0-5.142,2.238-5.142,4.946v17.781c0,2.709,1.609,5.025,5.142,5.025s5.142-2.316,5.142-5.025v-17.781h0Zm-4.71,17.86c0,.51-.079,.785-.432,.785s-.432-.275-.432-.785v-17.978c0-.51,.079-.785,.432-.785s.432,.314,.432,.785v17.978h0Zm6.28,4.671h6.594c2.238,0,3.376-1.727,3.376-4.318v-18.684c0-3.022-1.374-4.239-3.925-4.239h-6.045v27.241h0Zm4.475-23.512h.353c.392,0,.51,.275,.51,.785v17.938c0,.628-.118,.903-.51,.903h-.353v-19.626h0Zm17.153-3.729h-4.671v22.413c0,.51-.04,.824-.393,.824-.275,0-.353-.275-.353-.824v-22.413h-4.671v22.374c0,2.983,1.295,5.142,4.788,5.142h.55c3.454,0,4.75-2.238,4.75-5.142v-22.374h0Zm7.065,22.805c0,.511-.04,.825-.393,.825s-.432-.275-.432-.825v-18.409c0-.51,.079-.785,.432-.785s.393,.314,.393,.785v6.398h4.396v-6.045c0-3.14-1.335-4.945-4.671-4.945h-.471c-3.494,0-4.789,2.198-4.789,5.966v16.25c0,3.376,1.374,5.496,4.867,5.496h.668c3.061,0,4.396-2.473,4.396-4.868v-8.36h-4.396v8.517h0Zm5.887-22.805v27.241h7.38v-4.082h-2.905v-8.165h2.159v-4.161h-2.159v-6.79h2.708v-4.043h-7.183Zm17.859,10.166h4.279v-6.437c0-2.905-1.609-4.004-4.632-4.004h-.118c-3.493,0-4.749,1.963-4.749,4.475v5.063c.039,2.12,.471,3.533,2.355,4.868l2.159,1.53c.667,.511,.785,.825,.785,1.61v5.613c0,.392-.079,.706-.432,.706h-.039c-.393,0-.51-.314-.51-.628v-7.261h-4.397v7.575c0,2.748,1.61,4.24,4.711,4.24h.235c3.454,0,5.142-1.924,5.142-5.142v-5.574c0-2.12-.589-3.454-2.551-4.828l-2.395-1.688c-.471-.275-.549-.628-.549-1.138v-5.574c0-.353,.118-.51,.353-.51,.275,0,.353,.117,.353,.51v6.594h0Zm16.368-5.456c0-2.708-1.609-4.946-5.142-4.946-3.571,0-5.142,2.238-5.142,4.946v17.781c0,2.709,1.61,5.025,5.142,5.025s5.142-2.316,5.142-5.025v-17.781h0Zm-4.71,17.86c0,.51-.078,.785-.432,.785s-.431-.275-.431-.785v-17.978c0-.51,.078-.785,.431-.785s.432,.314,.432,.785v17.978h0Zm11.069-3.454h-1.02l.353-7.851,.157-3.611,.157,3.611,.353,7.851h0Zm-1.334,4.003h1.648l.197,4.122h4.396l-2.395-27.241h-5.691l-2.198,27.241h3.847l.196-4.122h0Zm13.856-7.693c1.962,.078,3.336-.942,3.336-4.2v-7.458c0-2.826-1.295-3.768-3.336-3.768h-6.359v27.241h4.475v-11.815h1.884Zm-1.884-12.207h.235c.393,0,.471,.196,.471,.628v7.418c0,.471-.118,.668-.471,.668h-.235v-8.714h0Zm20.724,1.491c0-2.708-1.609-4.946-5.142-4.946-3.572,0-5.142,2.238-5.142,4.946v17.781c0,2.709,1.61,5.025,5.142,5.025s5.142-2.316,5.142-5.025v-17.781h0Zm-4.71,17.86c0,.51-.078,.785-.432,.785s-.431-.275-.431-.785v-17.978c0-.51,.078-.785,.431-.785s.432,.314,.432,.785v17.978h0Zm12.639-7.144c1.963,.078,3.337-.942,3.337-4.2v-7.458c0-2.826-1.296-3.768-3.337-3.768h-6.359v27.241h4.475v-11.815h1.884Zm-1.884-12.207h.236c.392,0,.471,.196,.471,.628v7.418c0,.471-.118,.668-.471,.668h-.236v-8.714h0Zm6.712-3.219v27.241h7.38v-4.082h-2.905v-8.165h2.159v-4.161h-2.159v-6.79h2.708v-4.043h-7.183Zm13.346,14.876h.157c.431,0,.549,.197,.549,.707v10.402c0,.588,.236,1.02,.51,1.256h4.357v-.118c-.196-.314-.314-.51-.314-1.138v-10.873c0-1.766-.706-2.198-1.805-2.591,1.256-.51,1.766-1.531,1.766-3.061v-6.163c0-2.316-1.374-3.297-3.493-3.297h-6.202v27.241h4.475v-12.365h0Zm0-11.657h.235c.393,0,.471,.196,.471,.628v6.947c0,.471-.118,.667-.471,.667h-.235v-8.242h0Zm11.853,15.897h-1.02l.353-7.851,.157-3.611,.157,3.611,.353,7.851h0Zm-1.334,4.003h1.648l.197,4.122h4.396l-2.395-27.241h-5.691l-2.198,27.241h3.847l.196-4.122h0Zm12.482-12.953h4.279v-6.437c0-2.905-1.61-4.004-4.632-4.004h-.118c-3.493,0-4.749,1.963-4.749,4.475v5.063c.039,2.12,.471,3.533,2.355,4.868l2.159,1.53c.667,.511,.785,.825,.785,1.61v5.613c0,.392-.079,.706-.432,.706h-.039c-.393,0-.511-.314-.511-.628v-7.261h-4.396v7.575c0,2.748,1.61,4.24,4.711,4.24h.235c3.454,0,5.142-1.924,5.142-5.142v-5.574c0-2.12-.589-3.454-2.551-4.828l-2.395-1.688c-.471-.275-.549-.628-.549-1.138v-5.574c0-.353,.118-.51,.353-.51,.275,0,.353,.117,.353,.51v6.594h0Zm14.445-10.166h-4.475v27.241h4.475v-27.241h0Zm1.648,0v27.241h3.768v-16.29l.392,2.944,1.649,13.346h4.004v-27.241h-3.768v14.68l-.393-3.022-1.295-11.658h-4.357Zm25.474,4.71c0-2.708-1.61-4.946-5.142-4.946-3.572,0-5.142,2.238-5.142,4.946v17.781c0,2.709,1.609,5.025,5.142,5.025s5.142-2.316,5.142-5.025v-17.781h0Zm-4.711,17.86c0,.51-.078,.785-.431,.785s-.432-.275-.432-.785v-17.978c0-.51,.078-.785,.432-.785s.431,.314,.431,.785v17.978h0Zm10.755-7.694h.157c.432,0,.55,.197,.55,.707v10.402c0,.588,.235,1.02,.51,1.256h4.357v-.118c-.196-.314-.314-.51-.314-1.138v-10.873c0-1.766-.706-2.198-1.805-2.591,1.256-.51,1.766-1.531,1.766-3.061v-6.163c0-2.316-1.374-3.297-3.493-3.297h-6.202v27.241h4.474v-12.365h0Zm0-11.657h.236c.392,0,.471,.196,.471,.628v6.947c0,.471-.118,.667-.471,.667h-.236v-8.242h0Zm6.83,24.022h6.594c2.238,0,3.376-1.727,3.376-4.318v-18.684c0-3.022-1.374-4.239-3.925-4.239h-6.045v27.241h0Zm4.475-23.512h.353c.392,0,.51,.275,.51,.785v17.938c0,.628-.118,.903-.51,.903h-.353v-19.626h0Zm7.104-3.729v27.241h7.379v-4.082h-2.904v-8.165h2.159v-4.161h-2.159v-6.79h2.708v-4.043h-7.183Zm13.345,14.876h.157c.432,0,.55,.197,.55,.707v10.402c0,.588,.235,1.02,.51,1.256h4.357v-.118c-.196-.314-.314-.51-.314-1.138v-10.873c0-1.766-.706-2.198-1.805-2.591,1.256-.51,1.766-1.531,1.766-3.061v-6.163c0-2.316-1.374-3.297-3.494-3.297h-6.201v27.241h4.474v-12.365h0Zm0-11.657h.236c.392,0,.471,.196,.471,.628v6.947c0,.471-.118,.667-.471,.667h-.236v-8.242h0Zm18.645-3.219h-8.478v3.964h2.001v23.277h4.475v-23.277h2.002v-3.964h0Zm11.579,4.71c0-2.708-1.609-4.946-5.142-4.946-3.572,0-5.142,2.238-5.142,4.946v17.781c0,2.709,1.609,5.025,5.142,5.025s5.142-2.316,5.142-5.025v-17.781h0Zm-4.71,17.86c0,.51-.079,.785-.432,.785s-.432-.275-.432-.785v-17.978c0-.51,.079-.785,.432-.785s.432,.314,.432,.785v17.978h0Zm15.269-12.404h4.278v-6.437c0-2.905-1.609-4.004-4.632-4.004h-.117c-3.494,0-4.75,1.963-4.75,4.475v5.063c.039,2.12,.471,3.533,2.355,4.868l2.159,1.53c.668,.511,.785,.825,.785,1.61v5.613c0,.392-.078,.706-.432,.706h-.039c-.392,0-.51-.314-.51-.628v-7.261h-4.396v7.575c0,2.748,1.609,4.24,4.71,4.24h.235c3.455,0,5.143-1.924,5.143-5.142v-5.574c0-2.12-.589-3.454-2.552-4.828l-2.394-1.688c-.471-.275-.55-.628-.55-1.138v-5.574c0-.353,.118-.51,.353-.51,.275,0,.354,.117,.354,.51v6.594h0Zm6.162-10.166v27.241h7.38v-4.082h-2.905v-8.165h2.159v-4.161h-2.159v-6.79h2.708v-4.043h-7.183Zm8.871,0v27.241h7.183v-4.318h-2.708v-22.923h-4.475Zm8.674,0v27.241h7.183v-4.318h-2.708v-22.923h-4.475Zm12.482,27.241h3.729v-15.858l.353,4.357,.981,11.501h1.61l.942-11.501,.392-4.357-.039,4.553v11.305h3.886v-27.241h-5.181l-.55,10.245-.157,2.904-.157-2.904-.589-10.245h-5.22v27.241h0Zm23.707-22.531c0-2.708-1.609-4.946-5.142-4.946-3.572,0-5.142,2.238-5.142,4.946v17.781c0,2.709,1.61,5.025,5.142,5.025s5.142-2.316,5.142-5.025v-17.781h0Zm-4.71,17.86c0,.51-.078,.785-.432,.785s-.431-.275-.431-.785v-17.978c0-.51,.078-.785,.431-.785s.432,.314,.432,.785v17.978h0Zm10.755-7.694h.157c.432,0,.55,.197,.55,.707v10.402c0,.588,.235,1.02,.51,1.256h4.357v-.118c-.196-.314-.314-.51-.314-1.138v-10.873c0-1.766-.707-2.198-1.806-2.591,1.256-.51,1.767-1.531,1.767-3.061v-6.163c0-2.316-1.374-3.297-3.494-3.297h-6.202v27.241h4.475v-12.365h0Zm0-11.657h.236c.392,0,.471,.196,.471,.628v6.947c0,.471-.118,.667-.471,.667h-.236v-8.242h0Zm6.83-3.219v27.241h7.379v-4.082h-2.905v-8.165h2.159v-4.161h-2.159v-6.79h2.709v-4.043h-7.183Zm17.859,10.166h4.278v-6.437c0-2.905-1.609-4.004-4.631-4.004h-.118c-3.494,0-4.75,1.963-4.75,4.475v5.063c.04,2.12,.471,3.533,2.355,4.868l2.159,1.53c.668,.511,.785,.825,.785,1.61v5.613c0,.392-.078,.706-.431,.706h-.04c-.392,0-.51-.314-.51-.628v-7.261h-4.396v7.575c0,2.748,1.609,4.24,4.71,4.24h.236c3.454,0,5.142-1.924,5.142-5.142v-5.574c0-2.12-.589-3.454-2.552-4.828l-2.394-1.688c-.471-.275-.55-.628-.55-1.138v-5.574c0-.353,.118-.51,.354-.51,.274,0,.353,.117,.353,.51v6.594h0Zm16.368-5.456c0-2.708-1.61-4.946-5.142-4.946-3.572,0-5.142,2.238-5.142,4.946v17.781c0,2.709,1.609,5.025,5.142,5.025s5.142-2.316,5.142-5.025v-17.781h0Zm-4.71,17.86c0,.51-.079,.785-.432,.785s-.432-.275-.432-.785v-17.978c0-.51,.079-.785,.432-.785s.432,.314,.432,.785v17.978h0Zm11.069-3.454h-1.021l.353-7.851,.157-3.611,.157,3.611,.354,7.851h0Zm-1.335,4.003h1.649l.196,4.122h4.396l-2.394-27.241h-5.692l-2.198,27.241h3.847l.196-4.122h0Zm13.856-7.693c1.963,.078,3.336-.942,3.336-4.2v-7.458c0-2.826-1.295-3.768-3.336-3.768h-6.359v27.241h4.475v-11.815h1.884Zm-1.884-12.207h.235c.393,0,.472,.196,.472,.628v7.418c0,.471-.118,.668-.472,.668h-.235v-8.714h0Zm7.144,19.351h-3.807v4.671h3.807v-4.671h0Zm5.338,4.671h6.712c2.198,0,3.415-1.492,3.415-4.2v-8.125c0-2.316-1.531-3.062-2.355-3.258,.785-.197,1.962-.825,1.962-3.023v-5.142c0-2.473-1.216-3.493-2.983-3.493h-6.751v27.241h0Zm4.749-23.983c.432,0,.471,.235,.471,.667v6.359c0,.432-.117,.667-.471,.667h-.274v-7.693h.274Zm.118,10.716c.353,0,.51,.235,.51,.706v8.636c0,.431-.078,.667-.51,.667h-.392v-10.009h.392Zm16.799-13.974h-4.671v22.413c0,.51-.039,.824-.392,.824-.275,0-.353-.275-.353-.824v-22.413h-4.671v22.374c0,2.983,1.295,5.142,4.788,5.142h.55c3.454,0,4.749-2.238,4.749-5.142v-22.374h0Zm9.892,0h-8.479v3.964h2.002v23.277h4.475v-23.277h2.002v-3.964h0Z" style="fill:#fff;"/><path d="M106.526,423.64v27.241h7.379v-4.082h-2.905v-8.164h2.159v-4.161h-2.159v-6.791h2.709v-4.043h-7.183Zm10.244,12.836l-1.727,14.405h4.396l.825-11.069,.824,11.069h4.553l-1.884-14.405,1.452-12.836h-4.278l-.55,10.088-.628-10.088h-4.592l1.609,12.836h0Zm10.127-12.836v27.241h7.379v-4.082h-2.904v-8.164h2.159v-4.161h-2.159v-6.791h2.708v-4.043h-7.183Zm14.17,22.806c0,.51-.039,.824-.393,.824s-.432-.275-.432-.824v-18.409c0-.511,.079-.785,.432-.785s.393,.314,.393,.785v6.398h4.396v-6.045c0-3.14-1.335-4.946-4.671-4.946h-.471c-3.493,0-4.789,2.198-4.789,5.966v16.251c0,3.375,1.374,5.495,4.868,5.495h.667c3.061,0,4.396-2.473,4.396-4.867v-8.361h-4.396v8.518h0Zm15.936-22.806h-4.671v22.413c0,.511-.039,.825-.393,.825-.274,0-.353-.275-.353-.825v-22.413h-4.671v22.374c0,2.983,1.296,5.142,4.789,5.142h.549c3.455,0,4.75-2.237,4.75-5.142v-22.374h0Zm9.891,0h-8.478v3.965h2.002v23.276h4.474v-23.276h2.002v-3.965h0Zm5.888,0h-4.475v27.241h4.475v-27.241h0Zm3.924,27.241h6.045l2.355-27.241h-4.357l-.706,14.524-.197,5.299-.196-5.299-.785-14.524h-4.789l2.63,27.241h0Zm9.695-27.241v27.241h7.379v-4.082h-2.904v-8.164h2.159v-4.161h-2.159v-6.791h2.708v-4.043h-7.183Zm13.973,10.167h4.279v-6.438c0-2.904-1.609-4.003-4.632-4.003h-.118c-3.493,0-4.749,1.962-4.749,4.474v5.064c.039,2.119,.471,3.532,2.355,4.867l2.159,1.531c.667,.51,.785,.824,.785,1.609v5.613c0,.393-.079,.707-.432,.707h-.039c-.393,0-.51-.314-.51-.628v-7.262h-4.397v7.576c0,2.747,1.61,4.239,4.711,4.239h.235c3.454,0,5.142-1.923,5.142-5.142v-5.574c0-2.119-.589-3.454-2.551-4.828l-2.395-1.688c-.471-.274-.549-.628-.549-1.138v-5.574c0-.353,.118-.51,.353-.51,.275,0,.353,.118,.353,.51v6.595h0Zm9.97,17.074h4.475v-12.364h2.159v-4.122h-2.159v-6.751h2.865v-4.004h-7.34v27.241h0Zm13.306-12.364h.157c.432,0,.55,.196,.55,.706v10.402c0,.589,.235,1.021,.51,1.256h4.357v-.118c-.196-.314-.314-.51-.314-1.138v-10.873c0-1.766-.707-2.198-1.806-2.59,1.256-.511,1.767-1.531,1.767-3.062v-6.162c0-2.316-1.374-3.298-3.494-3.298h-6.202v27.241h4.475v-12.364h0Zm0-11.658h.236c.392,0,.471,.196,.471,.628v6.948c0,.471-.118,.667-.471,.667h-.236v-8.243h0Zm17.035,1.492c0-2.709-1.609-4.946-5.142-4.946-3.572,0-5.142,2.237-5.142,4.946v17.781c0,2.708,1.609,5.024,5.142,5.024s5.142-2.316,5.142-5.024v-17.781h0Zm-4.71,17.859c0,.511-.079,.785-.432,.785s-.432-.274-.432-.785v-17.977c0-.51,.079-.785,.432-.785s.432,.314,.432,.785v17.977h0Zm6.28,4.671h3.729v-15.858l.353,4.357,.982,11.501h1.609l.942-11.501,.393-4.357-.04,4.554v11.304h3.886v-27.241h-5.181l-.55,10.245-.157,2.905-.157-2.905-.588-10.245h-5.221v27.241h0Zm17.31,0h3.729v-15.858l.353,4.357,.981,11.501h1.609l.943-11.501,.392-4.357-.039,4.554v11.304h3.886v-27.241h-5.182l-.549,10.245-.157,2.905-.157-2.905-.589-10.245h-5.22v27.241h0Zm18.526-8.125h-1.02l.353-7.85,.157-3.612,.157,3.612,.353,7.85h0Zm-1.334,4.004h1.648l.196,4.121h4.397l-2.395-27.241h-5.691l-2.198,27.241h3.846l.197-4.121h0Zm7.497-23.12v27.241h3.768v-16.289l.392,2.944,1.649,13.345h4.004v-27.241h-3.768v14.681l-.393-3.023-1.295-11.658h-4.357Zm21.509,0h-4.671v22.413c0,.511-.039,.825-.392,.825-.275,0-.353-.275-.353-.825v-22.413h-4.671v22.374c0,2.983,1.295,5.142,4.788,5.142h.55c3.454,0,4.749-2.237,4.749-5.142v-22.374h0Zm1.609,27.241h4.475v-12.364h2.159v-4.122h-2.159v-6.751h2.865v-4.004h-7.34v27.241h0Zm12.836-8.125h-1.021l.354-7.85,.157-3.612,.157,3.612,.353,7.85h0Zm-1.335,4.004h1.649l.196,4.121h4.396l-2.394-27.241h-5.692l-2.198,27.241h3.847l.196-4.121h0Zm12.718-.314c0,.51-.039,.824-.393,.824s-.431-.275-.431-.824v-18.409c0-.511,.078-.785,.431-.785s.393,.314,.393,.785v6.398h4.396v-6.045c0-3.14-1.334-4.946-4.671-4.946h-.471c-3.493,0-4.789,2.198-4.789,5.966v16.251c0,3.375,1.374,5.495,4.868,5.495h.667c3.062,0,4.396-2.473,4.396-4.867v-8.361h-4.396v8.518h0Zm14.052-22.806h-8.478v3.965h2.002v23.276h4.475v-23.276h2.001v-3.965h0Zm11.462,0h-4.671v22.413c0,.511-.04,.825-.393,.825-.275,0-.353-.275-.353-.825v-22.413h-4.671v22.374c0,2.983,1.295,5.142,4.789,5.142h.549c3.454,0,4.75-2.237,4.75-5.142v-22.374h0Zm6.083,14.877h.157c.432,0,.55,.196,.55,.706v10.402c0,.589,.235,1.021,.51,1.256h4.357v-.118c-.196-.314-.314-.51-.314-1.138v-10.873c0-1.766-.706-2.198-1.805-2.59,1.256-.511,1.766-1.531,1.766-3.062v-6.162c0-2.316-1.374-3.298-3.494-3.298h-6.201v27.241h4.474v-12.364h0Zm0-11.658h.236c.392,0,.471,.196,.471,.628v6.948c0,.471-.118,.667-.471,.667h-.236v-8.243h0Zm11.305-3.219h-4.475v27.241h4.475v-27.241h0Zm1.648,0v27.241h3.768v-16.289l.392,2.944,1.649,13.345h4.004v-27.241h-3.769v14.681l-.392-3.023-1.295-11.658h-4.357Zm15.386,27.516c1.57,0,2.394-.981,2.748-1.531,.117,.353,.196,.903,.235,1.256h3.179v-15.661h-4.985v3.218h.707v8.126c0,.549-.196,.863-.589,.863s-.589-.314-.589-.824v-18.802c0-.432,.118-.628,.393-.628,.392,0,.392,.275,.392,.628v6.673h4.436v-6.555c0-2.591-1.335-4.514-4.632-4.514h-.51c-3.611,0-4.789,2.237-4.789,4.946v17.938c0,2.865,1.06,4.867,4.004,4.867h0Zm16.956-4.71c0,.51-.039,.824-.393,.824s-.431-.275-.431-.824v-18.409c0-.511,.078-.785,.431-.785s.393,.314,.393,.785v6.398h4.396v-6.045c0-3.14-1.334-4.946-4.671-4.946h-.471c-3.493,0-4.789,2.198-4.789,5.966v16.251c0,3.375,1.374,5.495,4.868,5.495h.667c3.062,0,4.396-2.473,4.396-4.867v-8.361h-4.396v8.518h0Zm16.093-18.095c0-2.709-1.609-4.946-5.142-4.946-3.572,0-5.142,2.237-5.142,4.946v17.781c0,2.708,1.61,5.024,5.142,5.024s5.142-2.316,5.142-5.024v-17.781h0Zm-4.71,17.859c0,.511-.079,.785-.432,.785s-.432-.274-.432-.785v-17.977c0-.51,.079-.785,.432-.785s.432,.314,.432,.785v17.977h0Zm6.28,4.671h3.729v-15.858l.353,4.357,.982,11.501h1.609l.942-11.501,.393-4.357-.04,4.554v11.304h3.886v-27.241h-5.181l-.549,10.245-.157,2.905-.157-2.905-.589-10.245h-5.221v27.241h0Zm19.861-11.815c1.963,.079,3.337-.942,3.337-4.2v-7.457c0-2.827-1.296-3.769-3.337-3.769h-6.359v27.241h4.475v-11.815h1.884Zm-1.884-12.207h.236c.392,0,.471,.196,.471,.628v7.419c0,.471-.118,.667-.471,.667h-.236v-8.714h0Zm10.795,15.897h-1.021l.354-7.85,.157-3.612,.157,3.612,.353,7.85h0Zm-1.335,4.004h1.649l.196,4.121h4.396l-2.394-27.241h-5.691l-2.199,27.241h3.847l.196-4.121h0Zm7.498-23.12v27.241h3.768v-16.289l.392,2.944,1.649,13.345h4.004v-27.241h-3.769v14.681l-.392-3.023-1.295-11.658h-4.357Zm15.935,0h-4.474v27.241h4.474v-27.241h0Zm1.648,0v27.241h7.38v-4.082h-2.905v-8.164h2.159v-4.161h-2.159v-6.791h2.709v-4.043h-7.184Zm13.974,10.167h4.278v-6.438c0-2.904-1.609-4.003-4.631-4.003h-.118c-3.494,0-4.75,1.962-4.75,4.474v5.064c.04,2.119,.471,3.532,2.356,4.867l2.158,1.531c.668,.51,.785,.824,.785,1.609v5.613c0,.393-.078,.707-.431,.707h-.04c-.392,0-.51-.314-.51-.628v-7.262h-4.396v7.576c0,2.747,1.609,4.239,4.71,4.239h.236c3.454,0,5.142-1.923,5.142-5.142v-5.574c0-2.119-.589-3.454-2.552-4.828l-2.394-1.688c-.471-.274-.55-.628-.55-1.138v-5.574c0-.353,.118-.51,.354-.51,.274,0,.353,.118,.353,.51v6.595h0Zm13.895,17.349c1.57,0,2.394-.981,2.747-1.531,.118,.353,.197,.903,.236,1.256h3.179v-15.661h-4.985v3.218h.707v8.126c0,.549-.196,.863-.589,.863s-.589-.314-.589-.824v-18.802c0-.432,.118-.628,.393-.628,.392,0,.392,.275,.392,.628v6.673h4.436v-6.555c0-2.591-1.335-4.514-4.632-4.514h-.51c-3.611,0-4.789,2.237-4.789,4.946v17.938c0,2.865,1.06,4.867,4.004,4.867h0Zm17.898-22.805c0-2.709-1.609-4.946-5.142-4.946-3.572,0-5.142,2.237-5.142,4.946v17.781c0,2.708,1.609,5.024,5.142,5.024s5.142-2.316,5.142-5.024v-17.781h0Zm-4.71,17.859c0,.511-.079,.785-.432,.785s-.432-.274-.432-.785v-17.977c0-.51,.079-.785,.432-.785s.432,.314,.432,.785v17.977h0Zm14.523-22.57h-8.478v3.965h2.002v23.276h4.475v-23.276h2.001v-3.965h0Zm13.228,0h-8.478v3.965h2.002v23.276h4.474v-23.276h2.002v-3.965h0Zm11.344,0h-4.475v10.481h-.981v-10.481h-4.475v27.241h4.475v-12.286h.981v12.286h4.475v-27.241h0Zm1.648,0v27.241h7.379v-4.082h-2.904v-8.164h2.159v-4.161h-2.159v-6.791h2.708v-4.043h-7.183Zm13.345,0h-4.474v27.241h4.474v-27.241h0Zm6.123,14.877h.157c.432,0,.55,.196,.55,.706v10.402c0,.589,.235,1.021,.51,1.256h4.357v-.118c-.196-.314-.314-.51-.314-1.138v-10.873c0-1.766-.707-2.198-1.806-2.59,1.256-.511,1.767-1.531,1.767-3.062v-6.162c0-2.316-1.374-3.298-3.494-3.298h-6.202v27.241h4.475v-12.364h0Zm0-11.658h.236c.392,0,.471,.196,.471,.628v6.948c0,.471-.118,.667-.471,.667h-.236v-8.243h0Zm18.645-3.219h-8.479v3.965h2.002v23.276h4.475v-23.276h2.002v-3.965h0Zm3.806,27.241h6.045l2.355-27.241h-4.357l-.706,14.524-.197,5.299-.196-5.299-.785-14.524h-4.789l2.63,27.241h0Zm18.958-4.435c0,.51-.039,.824-.392,.824s-.432-.275-.432-.824v-18.409c0-.511,.079-.785,.432-.785s.392,.314,.392,.785v6.398h4.397v-6.045c0-3.14-1.335-4.946-4.671-4.946h-.471c-3.494,0-4.789,2.198-4.789,5.966v16.251c0,3.375,1.374,5.495,4.867,5.495h.667c3.062,0,4.397-2.473,4.397-4.867v-8.361h-4.397v8.518h0Zm15.819-22.806h-4.475v10.481h-.981v-10.481h-4.475v27.241h4.475v-12.286h.981v12.286h4.475v-27.241h0Zm6.673,19.116h-1.021l.353-7.85,.157-3.612,.157,3.612,.354,7.85h0Zm-1.335,4.004h1.648l.197,4.121h4.396l-2.394-27.241h-5.692l-2.198,27.241h3.847l.196-4.121h0Zm7.497-23.12v27.241h3.768v-16.289l.393,2.944,1.648,13.345h4.004v-27.241h-3.768v14.681l-.393-3.023-1.295-11.658h-4.357Zm11.343,14.249v3.847h4.475v-3.847h-4.475Z" style="fill:#fff;"/><path d="M121.511,401.381h4.278v-6.437c0-2.905-1.609-4.004-4.632-4.004h-.117c-3.494,0-4.75,1.963-4.75,4.475v5.063c.039,2.12,.471,3.533,2.355,4.868l2.159,1.53c.667,.511,.785,.825,.785,1.61v5.613c0,.392-.078,.706-.432,.706h-.039c-.392,0-.51-.314-.51-.628v-7.261h-4.396v7.575c0,2.748,1.609,4.239,4.71,4.239h.235c3.455,0,5.142-1.923,5.142-5.142v-5.573c0-2.12-.588-3.455-2.551-4.828l-2.394-1.688c-.471-.275-.55-.628-.55-1.138v-5.574c0-.354,.118-.511,.353-.511,.275,0,.354,.118,.354,.511v6.594h0Zm6.162-10.166v27.241h7.379v-4.083h-2.904v-8.164h2.159v-4.161h-2.159v-6.79h2.708v-4.043h-7.183Zm8.871,0v27.241h7.183v-4.318h-2.709v-22.923h-4.474Zm8.674,0v27.241h7.183v-4.318h-2.708v-22.923h-4.475Zm20.489,0h-8.478v3.964h2.002v23.277h4.475v-23.277h2.001v-3.964h0Zm11.344,0h-4.475v10.48h-.981v-10.48h-4.475v27.241h4.475v-12.286h.981v12.286h4.475v-27.241h0Zm6.123,0h-4.475v27.241h4.475v-27.241h0Zm1.648,0v27.241h3.768v-16.29l.393,2.944,1.648,13.346h4.004v-27.241h-3.768v14.68l-.393-3.022-1.295-11.658h-4.357Zm15.386,27.515c1.57,0,2.395-.981,2.748-1.53,.118,.353,.196,.902,.235,1.256h3.18v-15.662h-4.985v3.219h.706v8.125c0,.55-.196,.863-.589,.863s-.588-.313-.588-.824v-18.801c0-.432,.117-.629,.392-.629,.393,0,.393,.275,.393,.629v6.672h4.435v-6.555c0-2.59-1.334-4.514-4.632-4.514h-.51c-3.611,0-4.789,2.238-4.789,4.946v17.938c0,2.866,1.06,4.867,4.004,4.867h0Zm12.874-17.349h4.279v-6.437c0-2.905-1.61-4.004-4.632-4.004h-.118c-3.493,0-4.749,1.963-4.749,4.475v5.063c.039,2.12,.471,3.533,2.355,4.868l2.159,1.53c.667,.511,.785,.825,.785,1.61v5.613c0,.392-.079,.706-.432,.706h-.039c-.393,0-.511-.314-.511-.628v-7.261h-4.396v7.575c0,2.748,1.61,4.239,4.71,4.239h.236c3.454,0,5.142-1.923,5.142-5.142v-5.573c0-2.12-.589-3.455-2.551-4.828l-2.395-1.688c-.471-.275-.549-.628-.549-1.138v-5.574c0-.354,.117-.511,.353-.511,.275,0,.353,.118,.353,.511v6.594h0Zm9.852,12.404h-3.807v4.671h3.807v-4.671h0Zm9.813-22.57h-4.475v27.241h4.475v-27.241h0Zm1.648,0v27.241h3.768v-16.29l.393,2.944,1.648,13.346h4.004v-27.241h-3.768v14.68l-.393-3.022-1.295-11.658h-4.357Zm23.276,0h-8.478v3.964h2.002v23.277h4.474v-23.277h2.002v-3.964h0Zm11.344,0h-4.475v10.48h-.981v-10.48h-4.475v27.241h4.475v-12.286h.981v12.286h4.475v-27.241h0Zm1.648,0v27.241h7.379v-4.083h-2.904v-8.164h2.158v-4.161h-2.158v-6.79h2.708v-4.043h-7.183Zm19.037,15.426c1.962,.078,3.336-.942,3.336-4.2v-7.458c0-2.826-1.295-3.768-3.336-3.768h-6.359v27.241h4.475v-11.815h1.884Zm-1.884-12.208h.235c.393,0,.471,.197,.471,.628v7.419c0,.471-.118,.667-.471,.667h-.235v-8.714h0Zm10.794,15.898h-1.02l.353-7.851,.157-3.611,.157,3.611,.353,7.851h0Zm-1.334,4.003h1.648l.197,4.122h4.396l-2.395-27.241h-5.691l-2.198,27.241h3.847l.196-4.122h0Zm12.482-12.953h4.279v-6.437c0-2.905-1.61-4.004-4.632-4.004h-.118c-3.493,0-4.749,1.963-4.749,4.475v5.063c.039,2.12,.471,3.533,2.355,4.868l2.159,1.53c.667,.511,.785,.825,.785,1.61v5.613c0,.392-.079,.706-.432,.706h-.039c-.393,0-.51-.314-.51-.628v-7.261h-4.397v7.575c0,2.748,1.61,4.239,4.711,4.239h.235c3.454,0,5.142-1.923,5.142-5.142v-5.573c0-2.12-.589-3.455-2.551-4.828l-2.395-1.688c-.471-.275-.549-.628-.549-1.138v-5.574c0-.354,.118-.511,.353-.511,.275,0,.353,.118,.353,.511v6.594h0Zm13.974-10.166h-8.478v3.964h2.002v23.277h4.474v-23.277h2.002v-3.964h0Zm2.394,30.224c.432-.864,.982-2.316,.982-4.043v-3.611h-3.808v4.671h1.413c0,1.099-.314,2.198-.51,2.983h1.923Zm14.327-30.224h-8.478v3.964h2.002v23.277h4.475v-23.277h2.001v-3.964h0Zm11.344,0h-4.475v10.48h-.981v-10.48h-4.475v27.241h4.475v-12.286h.981v12.286h4.475v-27.241h0Zm1.648,0v27.241h7.38v-4.083h-2.905v-8.164h2.159v-4.161h-2.159v-6.79h2.708v-4.043h-7.183Zm18.134,22.805c0,.51-.039,.825-.392,.825s-.432-.275-.432-.825v-18.409c0-.51,.078-.785,.432-.785s.392,.314,.392,.785v6.398h4.396v-6.045c0-3.14-1.334-4.945-4.671-4.945h-.471c-3.493,0-4.788,2.198-4.788,5.966v16.25c0,3.376,1.373,5.495,4.867,5.495h.667c3.062,0,4.396-2.472,4.396-4.867v-8.36h-4.396v8.517h0Zm16.093-18.095c0-2.708-1.609-4.946-5.142-4.946-3.572,0-5.142,2.238-5.142,4.946v17.781c0,2.709,1.61,5.024,5.142,5.024s5.142-2.315,5.142-5.024v-17.781h0Zm-4.71,17.86c0,.51-.078,.785-.432,.785s-.431-.275-.431-.785v-17.978c0-.51,.078-.785,.431-.785s.432,.314,.432,.785v17.978h0Zm6.28-22.57v27.241h3.768v-16.29l.393,2.944,1.649,13.346h4.003v-27.241h-3.768v14.68l-.392-3.022-1.296-11.658h-4.357Zm19.744,0h-8.479v3.964h2.002v23.277h4.475v-23.277h2.002v-3.964h0Zm1.412,0v27.241h7.38v-4.083h-2.905v-8.164h2.159v-4.161h-2.159v-6.79h2.708v-4.043h-7.183Zm8.871,0v27.241h3.768v-16.29l.393,2.944,1.648,13.346h4.004v-27.241h-3.768v14.68l-.393-3.022-1.295-11.658h-4.357Zm19.743,0h-8.478v3.964h2.002v23.277h4.474v-23.277h2.002v-3.964h0Zm21.039,0h-4.397l-.392,11.854-.157,6.084-.275-6.045-.549-11.893h-4.357l-.511,11.893-.274,6.045-.197-6.006-.392-11.932h-4.671l2.119,27.241h5.456l.472-11.501,.157-4.828,.157,4.828,.471,11.501h5.142l2.198-27.241h0Zm5.102,19.116h-1.02l.353-7.851,.157-3.611,.157,3.611,.353,7.851h0Zm-1.334,4.003h1.648l.197,4.122h4.396l-2.395-27.241h-5.691l-2.198,27.241h3.846l.197-4.122h0Zm12.482-12.953h4.279v-6.437c0-2.905-1.61-4.004-4.632-4.004h-.118c-3.493,0-4.749,1.963-4.749,4.475v5.063c.039,2.12,.471,3.533,2.355,4.868l2.159,1.53c.667,.511,.785,.825,.785,1.61v5.613c0,.392-.079,.706-.432,.706h-.039c-.393,0-.511-.314-.511-.628v-7.261h-4.396v7.575c0,2.748,1.609,4.239,4.71,4.239h.236c3.454,0,5.142-1.923,5.142-5.142v-5.573c0-2.12-.589-3.455-2.551-4.828l-2.395-1.688c-.471-.275-.549-.628-.549-1.138v-5.574c0-.354,.117-.511,.353-.511,.275,0,.353,.118,.353,.511v6.594h0Zm20.018-10.166h-4.671v22.413c0,.51-.039,.824-.392,.824-.275,0-.353-.275-.353-.824v-22.413h-4.671v22.373c0,2.984,1.295,5.142,4.788,5.142h.55c3.454,0,4.749-2.237,4.749-5.142v-22.373h0Zm6.791,10.166h4.278v-6.437c0-2.905-1.609-4.004-4.632-4.004h-.117c-3.494,0-4.75,1.963-4.75,4.475v5.063c.039,2.12,.471,3.533,2.355,4.868l2.159,1.53c.667,.511,.785,.825,.785,1.61v5.613c0,.392-.078,.706-.432,.706h-.039c-.392,0-.51-.314-.51-.628v-7.261h-4.396v7.575c0,2.748,1.609,4.239,4.71,4.239h.235c3.455,0,5.142-1.923,5.142-5.142v-5.573c0-2.12-.588-3.455-2.551-4.828l-2.394-1.688c-.471-.275-.55-.628-.55-1.138v-5.574c0-.354,.118-.511,.353-.511,.275,0,.354,.118,.354,.511v6.594h0Zm6.162-10.166v27.241h7.38v-4.083h-2.905v-8.164h2.159v-4.161h-2.159v-6.79h2.708v-4.043h-7.183Zm8.871,27.241h6.594c2.238,0,3.376-1.727,3.376-4.318v-18.684c0-3.022-1.374-4.239-3.925-4.239h-6.045v27.241h0Zm4.475-23.512h.353c.392,0,.51,.275,.51,.785v17.938c0,.628-.118,.903-.51,.903h-.353v-19.626h0Zm18.919-3.729h-8.478v3.964h2.001v23.277h4.475v-23.277h2.002v-3.964h0Zm11.579,4.71c0-2.708-1.609-4.946-5.142-4.946-3.572,0-5.142,2.238-5.142,4.946v17.781c0,2.709,1.61,5.024,5.142,5.024s5.142-2.315,5.142-5.024v-17.781h0Zm-4.71,17.86c0,.51-.078,.785-.432,.785s-.431-.275-.431-.785v-17.978c0-.51,.078-.785,.431-.785s.432,.314,.432,.785v17.978h0Zm15.269-12.404h4.278v-6.437c0-2.905-1.609-4.004-4.631-4.004h-.118c-3.494,0-4.75,1.963-4.75,4.475v5.063c.04,2.12,.471,3.533,2.356,4.868l2.158,1.53c.668,.511,.785,.825,.785,1.61v5.613c0,.392-.078,.706-.431,.706h-.04c-.392,0-.51-.314-.51-.628v-7.261h-4.396v7.575c0,2.748,1.609,4.239,4.71,4.239h.236c3.454,0,5.142-1.923,5.142-5.142v-5.573c0-2.12-.589-3.455-2.552-4.828l-2.394-1.688c-.471-.275-.55-.628-.55-1.138v-5.574c0-.354,.118-.511,.354-.511,.274,0,.353,.118,.353,.511v6.594h0Zm6.162-10.166v27.241h7.38v-4.083h-2.905v-8.164h2.159v-4.161h-2.159v-6.79h2.708v-4.043h-7.183Zm8.871,0v27.241h7.183v-4.318h-2.708v-22.923h-4.475Zm8.674,0v27.241h7.183v-4.318h-2.708v-22.923h-4.475Zm17.663,10.166h4.279v-6.437c0-2.905-1.61-4.004-4.632-4.004h-.118c-3.493,0-4.749,1.963-4.749,4.475v5.063c.039,2.12,.471,3.533,2.355,4.868l2.158,1.53c.668,.511,.786,.825,.786,1.61v5.613c0,.392-.079,.706-.432,.706h-.039c-.393,0-.511-.314-.511-.628v-7.261h-4.396v7.575c0,2.748,1.609,4.239,4.71,4.239h.236c3.454,0,5.142-1.923,5.142-5.142v-5.573c0-2.12-.589-3.455-2.552-4.828l-2.394-1.688c-.471-.275-.55-.628-.55-1.138v-5.574c0-.354,.118-.511,.354-.511,.275,0,.353,.118,.353,.511v6.594h0Zm13.974-10.166h-8.479v3.964h2.002v23.277h4.475v-23.277h2.002v-3.964h0Zm11.461,0h-4.671v22.413c0,.51-.039,.824-.392,.824-.275,0-.354-.275-.354-.824v-22.413h-4.671v22.373c0,2.984,1.296,5.142,4.789,5.142h.55c3.454,0,4.749-2.237,4.749-5.142v-22.373h0Zm1.609,27.241h4.475v-12.365h2.159v-4.121h-2.159v-6.751h2.865v-4.004h-7.34v27.241h0Zm8.831,0h4.475v-12.365h2.159v-4.121h-2.159v-6.751h2.865v-4.004h-7.34v27.241h0Zm12.011-4.671h-3.807v4.671h3.807v-4.671h0Zm0-10.991h-3.807v4.632h3.807v-4.632h0Z" style="fill:#fff;"/><path d="M140.412,386.03h6.712c2.198,0,3.415-1.491,3.415-4.2v-8.125c0-2.316-1.531-3.062-2.355-3.258,.785-.196,1.962-.824,1.962-3.022v-5.142c0-2.473-1.217-3.494-2.983-3.494h-6.751v27.241h0Zm4.749-23.983c.432,0,.471,.236,.471,.667v6.359c0,.432-.117,.668-.471,.668h-.275v-7.694h.275Zm.118,10.716c.353,0,.51,.235,.51,.706v8.636c0,.432-.078,.667-.51,.667h-.393v-10.009h.393Zm6.751-13.974v27.241h7.379v-4.082h-2.905v-8.164h2.159v-4.161h-2.159v-6.791h2.709v-4.043h-7.183Zm17.035,0h-8.478v3.965h2.002v23.276h4.474v-23.276h2.002v-3.965h0Zm17.349,0h-4.396l-.393,11.854-.157,6.084-.275-6.044-.549-11.894h-4.357l-.51,11.894-.275,6.044-.196-6.005-.393-11.933h-4.671l2.12,27.241h5.456l.471-11.501,.157-4.828,.157,4.828,.471,11.501h5.142l2.198-27.241h0Zm1.295,0v27.241h7.379v-4.082h-2.905v-8.164h2.159v-4.161h-2.159v-6.791h2.709v-4.043h-7.183Zm8.87,0v27.241h7.38v-4.082h-2.905v-8.164h2.159v-4.161h-2.159v-6.791h2.708v-4.043h-7.183Zm8.871,0v27.241h3.768v-16.289l.393,2.943,1.648,13.346h4.004v-27.241h-3.768v14.68l-.393-3.022-1.295-11.658h-4.357Zm23.276,0h-8.478v3.965h2.002v23.276h4.474v-23.276h2.002v-3.965h0Zm11.344,0h-4.475v10.481h-.981v-10.481h-4.475v27.241h4.475v-12.286h.981v12.286h4.475v-27.241h0Zm1.648,0v27.241h7.379v-4.082h-2.904v-8.164h2.158v-4.161h-2.158v-6.791h2.708v-4.043h-7.183Zm22.883,4.71c0-2.708-1.609-4.945-5.142-4.945-3.572,0-5.142,2.237-5.142,4.945v17.782c0,2.708,1.61,5.024,5.142,5.024s5.142-2.316,5.142-5.024v-17.782h0Zm-4.71,17.86c0,.51-.078,.785-.432,.785s-.431-.275-.431-.785v-17.977c0-.511,.078-.785,.431-.785s.432,.314,.432,.785v17.977h0Zm6.28-22.57v27.241h7.184v-4.318h-2.709v-22.923h-4.475Zm8.675,27.241h6.594c2.237,0,3.376-1.727,3.376-4.318v-18.684c0-3.022-1.374-4.239-3.926-4.239h-6.044v27.241h0Zm4.474-23.512h.354c.392,0,.51,.275,.51,.785v17.938c0,.628-.118,.903-.51,.903h-.354v-19.626h0Zm26.731-3.729h-4.397l-.392,11.854-.157,6.084-.275-6.044-.549-11.894h-4.357l-.511,11.894-.274,6.044-.197-6.005-.392-11.933h-4.671l2.119,27.241h5.456l.471-11.501,.157-4.828,.157,4.828,.471,11.501h5.142l2.199-27.241h0Zm11.225,4.71c0-2.708-1.609-4.945-5.142-4.945-3.571,0-5.142,2.237-5.142,4.945v17.782c0,2.708,1.61,5.024,5.142,5.024s5.142-2.316,5.142-5.024v-17.782h0Zm-4.71,17.86c0,.51-.078,.785-.432,.785s-.431-.275-.431-.785v-17.977c0-.511,.078-.785,.431-.785s.432,.314,.432,.785v17.977h0Zm10.755-7.693h.157c.432,0,.55,.196,.55,.706v10.402c0,.589,.235,1.021,.51,1.256h4.357v-.118c-.196-.314-.314-.51-.314-1.138v-10.873c0-1.766-.707-2.198-1.806-2.59,1.256-.511,1.767-1.531,1.767-3.062v-6.163c0-2.315-1.374-3.297-3.494-3.297h-6.201v27.241h4.474v-12.364h0Zm0-11.658h.236c.392,0,.471,.196,.471,.628v6.948c0,.471-.118,.667-.471,.667h-.236v-8.243h0Zm6.83-3.219v27.241h7.183v-4.318h-2.709v-22.923h-4.474Zm8.674,27.241h6.594c2.238,0,3.376-1.727,3.376-4.318v-18.684c0-3.022-1.374-4.239-3.925-4.239h-6.045v27.241h0Zm4.475-23.512h.353c.392,0,.51,.275,.51,.785v17.938c0,.628-.118,.903-.51,.903h-.353v-19.626h0Zm15.936,15.387h-1.021l.353-7.85,.157-3.612,.157,3.612,.354,7.85h0Zm-1.335,4.004h1.649l.196,4.121h4.396l-2.394-27.241h-5.692l-2.198,27.241h3.847l.196-4.121h0Zm7.497-23.12v27.241h3.768v-16.289l.393,2.943,1.648,13.346h4.004v-27.241h-3.768v14.68l-.393-3.022-1.295-11.658h-4.357Zm11.461,27.241h6.595c2.237,0,3.375-1.727,3.375-4.318v-18.684c0-3.022-1.374-4.239-3.925-4.239h-6.045v27.241h0Zm4.475-23.512h.353c.393,0,.51,.275,.51,.785v17.938c0,.628-.117,.903-.51,.903h-.353v-19.626h0Zm21.117,.981c0-2.708-1.609-4.945-5.142-4.945-3.572,0-5.142,2.237-5.142,4.945v17.782c0,2.708,1.609,5.024,5.142,5.024s5.142-2.316,5.142-5.024v-17.782h0Zm-4.71,17.86c0,.51-.079,.785-.432,.785s-.432-.275-.432-.785v-17.977c0-.511,.079-.785,.432-.785s.432,.314,.432,.785v17.977h0Zm16.329-22.57h-4.671v22.413c0,.51-.04,.824-.393,.824-.275,0-.353-.274-.353-.824v-22.413h-4.671v22.374c0,2.983,1.295,5.142,4.789,5.142h.549c3.454,0,4.75-2.237,4.75-5.142v-22.374h0Zm6.083,14.877h.157c.432,0,.55,.196,.55,.706v10.402c0,.589,.235,1.021,.51,1.256h4.357v-.118c-.196-.314-.314-.51-.314-1.138v-10.873c0-1.766-.706-2.198-1.805-2.59,1.256-.511,1.766-1.531,1.766-3.062v-6.163c0-2.315-1.374-3.297-3.494-3.297h-6.201v27.241h4.474v-12.364h0Zm0-11.658h.236c.392,0,.471,.196,.471,.628v6.948c0,.471-.118,.667-.471,.667h-.236v-8.243h0Zm12.011,6.948h4.279v-6.438c0-2.904-1.61-4.004-4.632-4.004h-.118c-3.493,0-4.749,1.963-4.749,4.475v5.064c.039,2.119,.471,3.532,2.355,4.867l2.159,1.531c.667,.51,.785,.824,.785,1.609v5.613c0,.393-.079,.707-.432,.707h-.039c-.393,0-.511-.314-.511-.628v-7.262h-4.396v7.576c0,2.747,1.609,4.239,4.71,4.239h.236c3.454,0,5.142-1.923,5.142-5.142v-5.574c0-2.12-.589-3.454-2.552-4.828l-2.394-1.688c-.471-.274-.549-.628-.549-1.138v-5.574c0-.353,.117-.51,.353-.51,.275,0,.353,.118,.353,.51v6.595h0Zm14.445-10.167h-4.475v27.241h4.475v-27.241h0Zm6.829,10.167h4.278v-6.438c0-2.904-1.609-4.004-4.631-4.004h-.118c-3.494,0-4.75,1.963-4.75,4.475v5.064c.04,2.119,.471,3.532,2.355,4.867l2.159,1.531c.668,.51,.785,.824,.785,1.609v5.613c0,.393-.078,.707-.431,.707h-.04c-.392,0-.51-.314-.51-.628v-7.262h-4.396v7.576c0,2.747,1.609,4.239,4.71,4.239h.236c3.454,0,5.142-1.923,5.142-5.142v-5.574c0-2.12-.589-3.454-2.552-4.828l-2.394-1.688c-.471-.274-.55-.628-.55-1.138v-5.574c0-.353,.118-.51,.354-.51,.274,0,.353,.118,.353,.51v6.595h0Zm17.977-10.167h-8.478v3.965h2.002v23.276h4.475v-23.276h2.001v-3.965h0Zm11.344,0h-4.475v10.481h-.981v-10.481h-4.475v27.241h4.475v-12.286h.981v12.286h4.475v-27.241h0Zm6.672,19.116h-1.02l.353-7.85,.157-3.612,.157,3.612,.353,7.85h0Zm-1.334,4.004h1.648l.197,4.121h4.396l-2.395-27.241h-5.691l-2.198,27.241h3.847l.196-4.121h0Zm14.68-23.12h-8.478v3.965h2.001v23.276h4.475v-23.276h2.002v-3.965h0Zm21.039,0h-4.397l-.392,11.854-.157,6.084-.275-6.044-.549-11.894h-4.357l-.511,11.894-.274,6.044-.197-6.005-.392-11.933h-4.671l2.119,27.241h5.456l.471-11.501,.157-4.828,.157,4.828,.471,11.501h5.142l2.199-27.241h0Zm1.294,0v27.241h7.38v-4.082h-2.905v-8.164h2.159v-4.161h-2.159v-6.791h2.708v-4.043h-7.183Zm12.678,0v27.241h3.768v-16.289l.393,2.943,1.649,13.346h4.003v-27.241h-3.768v14.68l-.392-3.022-1.296-11.658h-4.357Zm21.667,4.71c0-2.708-1.609-4.945-5.142-4.945-3.572,0-5.142,2.237-5.142,4.945v17.782c0,2.708,1.609,5.024,5.142,5.024s5.142-2.316,5.142-5.024v-17.782h0Zm-4.71,17.86c0,.51-.079,.785-.432,.785s-.432-.275-.432-.785v-17.977c0-.511,.079-.785,.432-.785s.432,.314,.432,.785v17.977h0Zm10.087-22.57v27.241h7.183v-4.318h-2.708v-22.923h-4.475Zm18.763,4.71c0-2.708-1.61-4.945-5.142-4.945-3.572,0-5.143,2.237-5.143,4.945v17.782c0,2.708,1.61,5.024,5.143,5.024s5.142-2.316,5.142-5.024v-17.782h0Zm-4.711,17.86c0,.51-.078,.785-.431,.785s-.432-.275-.432-.785v-17.977c0-.511,.078-.785,.432-.785s.431,.314,.431,.785v17.977h0Zm6.28-22.57v27.241h3.769v-16.289l.392,2.943,1.649,13.346h4.004v-27.241h-3.769v14.68l-.392-3.022-1.296-11.658h-4.357Zm15.387,27.516c1.57,0,2.394-.981,2.747-1.531,.118,.353,.197,.903,.236,1.256h3.179v-15.661h-4.985v3.218h.707v8.125c0,.55-.196,.864-.589,.864s-.589-.314-.589-.824v-18.802c0-.432,.118-.628,.393-.628,.392,0,.392,.275,.392,.628v6.673h4.436v-6.555c0-2.591-1.335-4.514-4.632-4.514h-.51c-3.611,0-4.789,2.237-4.789,4.945v17.939c0,2.865,1.06,4.867,4.004,4.867h0Zm7.693-27.516v27.241h7.379v-4.082h-2.905v-8.164h2.159v-4.161h-2.159v-6.791h2.709v-4.043h-7.183Zm13.345,14.877h.157c.432,0,.55,.196,.55,.706v10.402c0,.589,.235,1.021,.51,1.256h4.357v-.118c-.196-.314-.314-.51-.314-1.138v-10.873c0-1.766-.707-2.198-1.806-2.59,1.256-.511,1.767-1.531,1.767-3.062v-6.163c0-2.315-1.374-3.297-3.494-3.297h-6.202v27.241h4.475v-12.364h0Zm0-11.658h.236c.392,0,.471,.196,.471,.628v6.948c0,.471-.118,.667-.471,.667h-.236v-8.243h0Z" style="fill:#fff;"/><path d="M159.96,326.364v27.241h3.768v-16.29l.393,2.944,1.648,13.346h4.004v-27.241h-3.768v14.68l-.393-3.022-1.295-11.658h-4.357Zm21.667,4.71c0-2.708-1.61-4.946-5.142-4.946-3.572,0-5.142,2.238-5.142,4.946v17.781c0,2.708,1.609,5.024,5.142,5.024s5.142-2.316,5.142-5.024v-17.781h0Zm-4.71,17.86c0,.51-.079,.785-.432,.785s-.432-.275-.432-.785v-17.978c0-.51,.078-.785,.432-.785s.432,.314,.432,.785v17.978h0Zm14.523-22.57h-8.478v3.964h2.001v23.277h4.475v-23.277h2.002v-3.964h0Zm5.22,0v27.241h7.379v-4.083h-2.904v-8.164h2.159v-4.161h-2.159v-6.79h2.708v-4.043h-7.183Zm8.871,0v27.241h3.768v-16.29l.392,2.944,1.649,13.346h4.004v-27.241h-3.769v14.68l-.392-3.022-1.295-11.658h-4.357Zm21.666,4.71c0-2.708-1.609-4.946-5.142-4.946-3.572,0-5.142,2.238-5.142,4.946v17.781c0,2.708,1.61,5.024,5.142,5.024s5.142-2.316,5.142-5.024v-17.781h0Zm-4.71,17.86c0,.51-.078,.785-.432,.785s-.432-.275-.432-.785v-17.978c0-.51,.079-.785,.432-.785s.432,.314,.432,.785v17.978h0Zm16.329-22.57h-4.671v22.413c0,.51-.039,.824-.393,.824-.275,0-.353-.275-.353-.824v-22.413h-4.671v22.373c0,2.983,1.295,5.142,4.789,5.142h.549c3.454,0,4.75-2.237,4.75-5.142v-22.373h0Zm5.534,27.515c1.57,0,2.394-.981,2.748-1.53,.117,.353,.196,.902,.235,1.256h3.18v-15.662h-4.985v3.219h.706v8.125c0,.549-.196,.863-.589,.863s-.588-.314-.588-.824v-18.802c0-.431,.117-.628,.392-.628,.393,0,.393,.275,.393,.628v6.673h4.435v-6.555c0-2.59-1.334-4.514-4.632-4.514h-.51c-3.611,0-4.789,2.238-4.789,4.946v17.938c0,2.866,1.06,4.867,4.004,4.867h0Zm17.624-27.515h-4.475v10.48h-.981v-10.48h-4.475v27.241h4.475v-12.286h.981v12.286h4.475v-27.241h0Zm5.338,22.57h-3.808v4.671h3.808v-4.671h0Zm1.962-16.015c.275-.707,.785-2.238,.785-3.611v-2.944h-3.258v3.846h.942c0,.903-.274,2.002-.431,2.709h1.962Zm9.774,20.686h6.712c2.198,0,3.415-1.492,3.415-4.2v-8.126c0-2.315-1.531-3.061-2.355-3.257,.785-.197,1.962-.825,1.962-3.023v-5.142c0-2.473-1.217-3.493-2.983-3.493h-6.751v27.241h0Zm4.749-23.983c.432,0,.471,.235,.471,.667v6.359c0,.431-.118,.667-.471,.667h-.275v-7.693h.275Zm.118,10.715c.353,0,.51,.236,.51,.707v8.635c0,.432-.078,.668-.51,.668h-.393v-10.01h.393Zm16.799-13.973h-4.671v22.413c0,.51-.039,.824-.392,.824-.275,0-.354-.275-.354-.824v-22.413h-4.671v22.373c0,2.983,1.296,5.142,4.789,5.142h.55c3.454,0,4.749-2.237,4.749-5.142v-22.373h0Zm9.891,0h-8.478v3.964h2.002v23.277h4.475v-23.277h2.001v-3.964h0Zm10.245,19.115h-1.021l.353-7.85,.157-3.611,.157,3.611,.354,7.85h0Zm-1.335,4.004h1.649l.196,4.122h4.396l-2.394-27.241h-5.692l-2.198,27.241h3.847l.196-4.122h0Zm11.972-8.243h.157c.432,0,.549,.196,.549,.707v10.402c0,.588,.236,1.02,.511,1.256h4.357v-.118c-.197-.314-.314-.51-.314-1.138v-10.873c0-1.767-.707-2.198-1.806-2.591,1.256-.51,1.766-1.531,1.766-3.062v-6.162c0-2.316-1.373-3.297-3.493-3.297h-6.202v27.241h4.475v-12.365h0Zm0-11.658h.235c.393,0,.471,.197,.471,.628v6.948c0,.471-.117,.667-.471,.667h-.235v-8.243h0Zm6.829-3.218v27.241h7.38v-4.083h-2.905v-8.164h2.159v-4.161h-2.159v-6.79h2.708v-4.043h-7.183Zm8.871,0v27.241h3.768v-16.29l.393,2.944,1.648,13.346h4.004v-27.241h-3.768v14.68l-.393-3.022-1.295-11.658h-4.357Zm13.777,6.555c.275-.707,.785-2.238,.785-3.611v-2.944h-3.258v3.846h.942c0,.903-.275,2.002-.432,2.709h1.963Zm10.558-6.555h-8.478v3.964h2.002v23.277h4.474v-23.277h2.002v-3.964h0Zm13.228,0h-8.479v3.964h2.002v23.277h4.475v-23.277h2.002v-3.964h0Zm11.343,0h-4.474v10.48h-.982v-10.48h-4.474v27.241h4.474v-12.286h.982v12.286h4.474v-27.241h0Zm1.649,0v27.241h7.379v-4.083h-2.905v-8.164h2.159v-4.161h-2.159v-6.79h2.709v-4.043h-7.183Zm15.583,15.936l2.629-15.936h-4.003l-.511,6.947-.235,3.219-.196-3.219-.55-6.947h-4.435l2.826,15.936v11.305h4.475v-11.305h0Zm9.342,5.495v-3.807c0-1.295,.196-1.413,1.648-4.122,1.374-2.394,1.609-2.983,1.609-4.828v-4.474c0-2.434-1.373-4.436-4.513-4.436h-.157c-3.808,0-4.593,2.355-4.593,4.357v6.28h4.082v-6.555c0-.392,.039-.628,.393-.628,.314,0,.392,.236,.392,.628v4.828c0,1.413-.157,1.61-1.06,3.415-1.138,2.277-1.452,2.63-1.452,4.083v5.259h3.651Zm.078,.942h-3.807v4.868h3.807v-4.868h0Zm13.424-3.258h-1.021l.353-7.85,.157-3.611,.157,3.611,.354,7.85h0Zm-1.335,4.004h1.649l.196,4.122h4.396l-2.394-27.241h-5.692l-2.198,27.241h3.847l.196-4.122h0Zm7.497-23.119v27.241h3.768v-16.29l.393,2.944,1.648,13.346h4.004v-27.241h-3.768v14.68l-.393-3.022-1.295-11.658h-4.357Zm21.667,4.71c0-2.708-1.61-4.946-5.142-4.946-3.572,0-5.142,2.238-5.142,4.946v17.781c0,2.708,1.609,5.024,5.142,5.024s5.142-2.316,5.142-5.024v-17.781h0Zm-4.71,17.86c0,.51-.079,.785-.432,.785s-.432-.275-.432-.785v-17.978c0-.51,.078-.785,.432-.785s.432,.314,.432,.785v17.978h0Zm14.523-22.57h-8.478v3.964h2.001v23.277h4.475v-23.277h2.002v-3.964h0Zm11.343,0h-4.474v10.48h-.982v-10.48h-4.474v27.241h4.474v-12.286h.982v12.286h4.474v-27.241h0Zm1.649,0v27.241h7.379v-4.083h-2.905v-8.164h2.159v-4.161h-2.159v-6.79h2.709v-4.043h-7.183Zm13.345,14.876h.157c.432,0,.55,.196,.55,.707v10.402c0,.588,.235,1.02,.51,1.256h4.357v-.118c-.196-.314-.314-.51-.314-1.138v-10.873c0-1.767-.707-2.198-1.806-2.591,1.256-.51,1.767-1.531,1.767-3.062v-6.162c0-2.316-1.374-3.297-3.494-3.297h-6.202v27.241h4.475v-12.365h0Zm0-11.658h.236c.392,0,.471,.197,.471,.628v6.948c0,.471-.118,.667-.471,.667h-.236v-8.243h0Zm10.637,24.023h6.594c2.238,0,3.376-1.727,3.376-4.318v-18.684c0-3.022-1.374-4.239-3.925-4.239h-6.045v27.241h0Zm4.475-23.512h.353c.392,0,.51,.274,.51,.785v17.938c0,.628-.118,.903-.51,.903h-.353v-19.626h0Zm11.579-3.729h-4.475v27.241h4.475v-27.241h0Zm1.648,27.241h4.474v-12.365h2.159v-4.121h-2.159v-6.752h2.866v-4.003h-7.34v27.241h0Zm8.831,0h4.475v-12.365h2.158v-4.121h-2.158v-6.752h2.865v-4.003h-7.34v27.241h0Zm8.831-27.241v27.241h7.379v-4.083h-2.904v-8.164h2.159v-4.161h-2.159v-6.79h2.708v-4.043h-7.183Zm13.345,14.876h.157c.432,0,.55,.196,.55,.707v10.402c0,.588,.236,1.02,.51,1.256h4.357v-.118c-.196-.314-.314-.51-.314-1.138v-10.873c0-1.767-.706-2.198-1.805-2.591,1.256-.51,1.766-1.531,1.766-3.062v-6.162c0-2.316-1.374-3.297-3.493-3.297h-6.202v27.241h4.474v-12.365h0Zm0-11.658h.236c.392,0,.471,.197,.471,.628v6.948c0,.471-.118,.667-.471,.667h-.236v-8.243h0Zm6.83-3.218v27.241h7.379v-4.083h-2.904v-8.164h2.159v-4.161h-2.159v-6.79h2.708v-4.043h-7.183Zm8.871,0v27.241h3.768v-16.29l.392,2.944,1.649,13.346h4.004v-27.241h-3.769v14.68l-.392-3.022-1.295-11.658h-4.357Zm16.917,22.805c0,.51-.04,.824-.393,.824s-.432-.274-.432-.824v-18.409c0-.51,.079-.785,.432-.785s.393,.314,.393,.785v6.398h4.396v-6.045c0-3.14-1.335-4.946-4.671-4.946h-.471c-3.494,0-4.789,2.199-4.789,5.967v16.25c0,3.376,1.374,5.495,4.867,5.495h.668c3.061,0,4.396-2.473,4.396-4.867v-8.361h-4.396v8.518h0Zm5.887-22.805v27.241h7.38v-4.083h-2.905v-8.164h2.159v-4.161h-2.159v-6.79h2.708v-4.043h-7.183Z" style="fill:#fff;"/><path d="M192.442,309.874l2.629-15.936h-4.003l-.511,6.948-.235,3.218-.196-3.218-.55-6.948h-4.435l2.826,15.936v11.305h4.475v-11.305h0Zm13.542-11.226c0-2.708-1.61-4.945-5.142-4.945-3.572,0-5.142,2.237-5.142,4.945v17.782c0,2.708,1.609,5.024,5.142,5.024s5.142-2.316,5.142-5.024v-17.782h0Zm-4.711,17.86c0,.51-.078,.785-.431,.785s-.432-.275-.432-.785v-17.977c0-.511,.078-.785,.432-.785s.431,.314,.431,.785v17.977h0Zm16.329-22.57h-4.671v22.413c0,.51-.039,.824-.392,.824-.275,0-.354-.274-.354-.824v-22.413h-4.671v22.374c0,2.983,1.296,5.142,4.789,5.142h.55c3.454,0,4.749-2.238,4.749-5.142v-22.374h0Zm5.417,0v27.241h3.768v-16.29l.392,2.944,1.649,13.346h4.004v-27.241h-3.769v14.68l-.392-3.022-1.296-11.658h-4.356Zm11.461,0v27.241h7.379v-4.082h-2.905v-8.165h2.159v-4.16h-2.159v-6.791h2.709v-4.043h-7.183Zm8.87,0v27.241h7.38v-4.082h-2.905v-8.165h2.159v-4.16h-2.159v-6.791h2.708v-4.043h-7.183Zm8.871,27.241h6.594c2.238,0,3.376-1.727,3.376-4.318v-18.684c0-3.022-1.374-4.239-3.925-4.239h-6.045v27.241h0Zm4.475-23.512h.353c.392,0,.51,.275,.51,.785v17.938c0,.628-.118,.903-.51,.903h-.353v-19.626h0Zm18.919-3.729h-8.478v3.965h2.002v23.276h4.474v-23.276h2.002v-3.965h0Zm11.579,4.71c0-2.708-1.609-4.945-5.142-4.945-3.571,0-5.142,2.237-5.142,4.945v17.782c0,2.708,1.61,5.024,5.142,5.024s5.142-2.316,5.142-5.024v-17.782h0Zm-4.71,17.86c0,.51-.078,.785-.432,.785s-.431-.275-.431-.785v-17.977c0-.511,.078-.785,.431-.785s.432,.314,.432,.785v17.977h0Zm15.269-12.404h4.278v-6.437c0-2.905-1.609-4.004-4.631-4.004h-.118c-3.493,0-4.75,1.963-4.75,4.475v5.064c.04,2.119,.472,3.532,2.356,4.867l2.158,1.531c.668,.51,.786,.824,.786,1.609v5.613c0,.393-.079,.707-.432,.707h-.039c-.393,0-.511-.314-.511-.628v-7.262h-4.396v7.576c0,2.747,1.609,4.239,4.71,4.239h.236c3.454,0,5.142-1.924,5.142-5.142v-5.574c0-2.12-.589-3.454-2.552-4.828l-2.394-1.688c-.471-.275-.55-.628-.55-1.138v-5.574c0-.353,.118-.51,.354-.51,.274,0,.353,.118,.353,.51v6.594h0Zm6.162-10.166v27.241h7.38v-4.082h-2.905v-8.165h2.159v-4.16h-2.159v-6.791h2.709v-4.043h-7.184Zm8.871,0v27.241h7.183v-4.318h-2.708v-22.923h-4.475Zm8.674,0v27.241h7.183v-4.318h-2.708v-22.923h-4.475Zm17.663,10.166h4.279v-6.437c0-2.905-1.61-4.004-4.632-4.004h-.118c-3.493,0-4.749,1.963-4.749,4.475v5.064c.039,2.119,.471,3.532,2.355,4.867l2.159,1.531c.667,.51,.785,.824,.785,1.609v5.613c0,.393-.079,.707-.432,.707h-.039c-.393,0-.511-.314-.511-.628v-7.262h-4.396v7.576c0,2.747,1.609,4.239,4.71,4.239h.236c3.454,0,5.142-1.924,5.142-5.142v-5.574c0-2.12-.589-3.454-2.551-4.828l-2.395-1.688c-.471-.275-.549-.628-.549-1.138v-5.574c0-.353,.117-.51,.353-.51,.275,0,.353,.118,.353,.51v6.594h0Zm16.368-5.456c0-2.708-1.609-4.945-5.142-4.945-3.572,0-5.142,2.237-5.142,4.945v17.782c0,2.708,1.609,5.024,5.142,5.024s5.142-2.316,5.142-5.024v-17.782h0Zm-4.71,17.86c0,.51-.079,.785-.432,.785s-.432-.275-.432-.785v-17.977c0-.511,.079-.785,.432-.785s.432,.314,.432,.785v17.977h0Zm6.28,4.671h3.729v-15.858l.353,4.357,.982,11.501h1.609l.942-11.501,.393-4.357-.04,4.553v11.305h3.886v-27.241h-5.181l-.55,10.245-.157,2.905-.157-2.905-.588-10.245h-5.221v27.241h0Zm13.502-27.241v27.241h7.38v-4.082h-2.905v-8.165h2.159v-4.16h-2.159v-6.791h2.709v-4.043h-7.184Zm17.036,0h-8.479v3.965h2.002v23.276h4.475v-23.276h2.002v-3.965h0Zm11.343,0h-4.474v10.48h-.982v-10.48h-4.474v27.241h4.474v-12.286h.982v12.286h4.474v-27.241h0Zm6.123,0h-4.474v27.241h4.474v-27.241h0Zm1.648,0v27.241h3.769v-16.29l.392,2.944,1.649,13.346h4.003v-27.241h-3.768v14.68l-.392-3.022-1.296-11.658h-4.357Zm15.387,27.516c1.57,0,2.394-.981,2.747-1.531,.118,.353,.197,.903,.236,1.256h3.179v-15.662h-4.985v3.219h.707v8.125c0,.55-.196,.864-.589,.864s-.589-.314-.589-.824v-18.802c0-.432,.118-.628,.393-.628,.392,0,.392,.275,.392,.628v6.673h4.436v-6.555c0-2.591-1.335-4.514-4.632-4.514h-.51c-3.611,0-4.789,2.237-4.789,4.945v17.939c0,2.865,1.06,4.867,4.004,4.867h0Zm10.44,2.708c.432-.863,.981-2.316,.981-4.043v-3.611h-3.807v4.671h1.413c0,1.099-.314,2.198-.51,2.983h1.923Zm.981-18.645h-3.807v4.632h3.807v-4.632h0Zm5.377-11.579v27.241h3.769v-16.29l.392,2.944,1.649,13.346h4.003v-27.241h-3.768v14.68l-.392-3.022-1.296-11.658h-4.357Zm16.486,19.116h-1.021l.353-7.851,.157-3.611,.157,3.611,.354,7.851h0Zm-1.335,4.004h1.649l.196,4.121h4.396l-2.394-27.241h-5.692l-2.198,27.241h3.847l.196-4.121h0Zm11.972-8.243h.157c.432,0,.55,.196,.55,.706v10.402c0,.589,.235,1.021,.51,1.256h4.357v-.118c-.196-.314-.314-.51-.314-1.138v-10.873c0-1.766-.707-2.198-1.806-2.59,1.256-.511,1.767-1.531,1.767-3.062v-6.163c0-2.316-1.374-3.297-3.494-3.297h-6.202v27.241h4.475v-12.364h0Zm0-11.658h.235c.393,0,.472,.196,.472,.628v6.947c0,.471-.118,.668-.472,.668h-.235v-8.243h0Zm11.304,11.658h.157c.432,0,.55,.196,.55,.706v10.402c0,.589,.235,1.021,.51,1.256h4.357v-.118c-.196-.314-.314-.51-.314-1.138v-10.873c0-1.766-.707-2.198-1.806-2.59,1.256-.511,1.767-1.531,1.767-3.062v-6.163c0-2.316-1.374-3.297-3.494-3.297h-6.202v27.241h4.475v-12.364h0Zm0-11.658h.236c.392,0,.471,.196,.471,.628v6.947c0,.471-.118,.668-.471,.668h-.236v-8.243h0Zm11.854,15.897h-1.021l.354-7.851,.157-3.611,.157,3.611,.353,7.851h0Zm-1.335,4.004h1.649l.196,4.121h4.396l-2.394-27.241h-5.691l-2.199,27.241h3.847l.196-4.121h0Zm14.681-23.12h-8.479v3.965h2.002v23.276h4.475v-23.276h2.002v-3.965h0Zm5.887,0h-4.475v27.241h4.475v-27.241h0Zm3.925,27.241h6.044l2.356-27.241h-4.357l-.707,14.523-.196,5.299-.196-5.299-.786-14.523h-4.788l2.63,27.241h0Zm9.694-27.241v27.241h7.38v-4.082h-2.905v-8.165h2.159v-4.16h-2.159v-6.791h2.708v-4.043h-7.183Zm13.974,10.166h4.278v-6.437c0-2.905-1.609-4.004-4.631-4.004h-.118c-3.494,0-4.75,1.963-4.75,4.475v5.064c.04,2.119,.471,3.532,2.356,4.867l2.158,1.531c.668,.51,.785,.824,.785,1.609v5.613c0,.393-.078,.707-.431,.707h-.04c-.392,0-.51-.314-.51-.628v-7.262h-4.396v7.576c0,2.747,1.609,4.239,4.71,4.239h.236c3.454,0,5.142-1.924,5.142-5.142v-5.574c0-2.12-.589-3.454-2.552-4.828l-2.394-1.688c-.471-.275-.55-.628-.55-1.138v-5.574c0-.353,.118-.51,.354-.51,.274,0,.353,.118,.353,.51v6.594h0Zm14.994,8.95h-1.021l.354-7.851,.157-3.611,.157,3.611,.353,7.851h0Zm-1.335,4.004h1.649l.196,4.121h4.396l-2.394-27.241h-5.692l-2.198,27.241h3.847l.196-4.121h0Zm11.972-8.243h.157c.432,0,.55,.196,.55,.706v10.402c0,.589,.235,1.021,.51,1.256h4.357v-.118c-.196-.314-.314-.51-.314-1.138v-10.873c0-1.766-.707-2.198-1.806-2.59,1.256-.511,1.767-1.531,1.767-3.062v-6.163c0-2.316-1.374-3.297-3.494-3.297h-6.202v27.241h4.475v-12.364h0Zm0-11.658h.236c.392,0,.471,.196,.471,.628v6.947c0,.471-.118,.668-.471,.668h-.236v-8.243h0Zm6.83-3.219v27.241h7.379v-4.082h-2.905v-8.165h2.159v-4.16h-2.159v-6.791h2.709v-4.043h-7.183Z" style="fill:#fff;"/><path d="M208.73,277.449l2.63-15.936h-4.003l-.511,6.947-.235,3.219-.196-3.219-.55-6.947h-4.435l2.826,15.936v11.304h4.474v-11.304h0Zm13.543-11.226c0-2.709-1.61-4.946-5.142-4.946-3.572,0-5.142,2.237-5.142,4.946v17.781c0,2.708,1.609,5.024,5.142,5.024s5.142-2.316,5.142-5.024v-17.781h0Zm-4.711,17.859c0,.511-.078,.786-.431,.786s-.432-.275-.432-.786v-17.977c0-.51,.078-.785,.432-.785s.431,.314,.431,.785v17.977h0Zm16.329-22.569h-4.671v22.412c0,.511-.039,.825-.392,.825-.275,0-.354-.275-.354-.825v-22.412h-4.671v22.373c0,2.983,1.296,5.142,4.789,5.142h.55c3.454,0,4.749-2.237,4.749-5.142v-22.373h0Zm9.342,27.24h3.729v-15.857l.353,4.357,.981,11.5h1.609l.943-11.5,.392-4.357-.039,4.553v11.304h3.886v-27.24h-5.182l-.549,10.244-.157,2.905-.157-2.905-.589-10.244h-5.22v27.24h0Zm17.977-27.24h-4.475v27.24h4.475v-27.24h0Zm5.573,27.515c1.57,0,2.394-.981,2.748-1.531,.117,.354,.196,.903,.235,1.256h3.179v-15.661h-4.985v3.219h.707v8.125c0,.549-.196,.863-.589,.863s-.589-.314-.589-.824v-18.802c0-.431,.118-.628,.393-.628,.392,0,.392,.275,.392,.628v6.673h4.436v-6.555c0-2.591-1.335-4.514-4.632-4.514h-.51c-3.611,0-4.789,2.237-4.789,4.946v17.938c0,2.865,1.06,4.867,4.004,4.867h0Zm17.623-27.515h-4.474v10.48h-.982v-10.48h-4.474v27.24h4.474v-12.285h.982v12.285h4.474v-27.24h0Zm9.931,0h-8.478v3.964h2.001v23.276h4.475v-23.276h2.002v-3.964h0Zm14.326,10.166h4.279v-6.437c0-2.905-1.61-4.004-4.632-4.004h-.118c-3.493,0-4.749,1.962-4.749,4.475v5.063c.039,2.12,.471,3.533,2.355,4.867l2.159,1.531c.667,.51,.785,.824,.785,1.609v5.614c0,.392-.079,.706-.432,.706h-.039c-.393,0-.51-.314-.51-.628v-7.262h-4.397v7.576c0,2.748,1.61,4.239,4.711,4.239h.235c3.454,0,5.142-1.923,5.142-5.142v-5.574c0-2.119-.589-3.454-2.551-4.828l-2.395-1.687c-.471-.275-.549-.628-.549-1.139v-5.573c0-.354,.118-.511,.353-.511,.275,0,.353,.118,.353,.511v6.594h0Zm10.991,8.949h-1.02l.353-7.85,.157-3.611,.157,3.611,.353,7.85h0Zm-1.334,4.004h1.648l.196,4.121h4.397l-2.395-27.24h-5.691l-2.198,27.24h3.846l.197-4.121h0Zm12.757-7.183l2.629-15.936h-4.003l-.511,6.947-.235,3.219-.196-3.219-.55-6.947h-4.435l2.826,15.936v11.304h4.475v-11.304h0Zm5.534,6.633h-3.807v4.671h3.807v-4.671h0Zm13.581-22.569c-.275,.706-.785,2.237-.785,3.611v2.944h3.258v-3.886h-.942c0-.864,.275-1.963,.432-2.669h-1.963Zm7.772,19.115h-1.02l.353-7.85,.157-3.611,.157,3.611,.353,7.85h0Zm-1.334,4.004h1.648l.196,4.121h4.397l-2.395-27.24h-5.691l-2.198,27.24h3.846l.197-4.121h0Zm14.68-23.119h-8.479v3.964h2.002v23.276h4.475v-23.276h2.002v-3.964h0Zm17.427,0h-8.478v3.964h2.002v23.276h4.474v-23.276h2.002v-3.964h0Zm11.344,0h-4.475v10.48h-.981v-10.48h-4.475v27.24h4.475v-12.285h.981v12.285h4.475v-27.24h0Zm1.648,0v27.24h7.379v-4.082h-2.904v-8.164h2.158v-4.161h-2.158v-6.79h2.708v-4.043h-7.183Zm16.603,0v27.24h7.379v-4.082h-2.904v-8.164h2.159v-4.161h-2.159v-6.79h2.708v-4.043h-7.183Zm8.871,0v27.24h3.768v-16.289l.392,2.944,1.649,13.345h4.004v-27.24h-3.768v14.68l-.393-3.023-1.295-11.657h-4.357Zm11.461,27.24h6.594c2.238,0,3.376-1.727,3.376-4.317v-18.684c0-3.023-1.374-4.239-3.925-4.239h-6.045v27.24h0Zm4.475-23.511h.353c.392,0,.51,.274,.51,.785v17.938c0,.628-.118,.903-.51,.903h-.353v-19.626h0Zm25.042,.981c0-2.709-1.609-4.946-5.142-4.946-3.572,0-5.142,2.237-5.142,4.946v17.781c0,2.708,1.609,5.024,5.142,5.024s5.142-2.316,5.142-5.024v-17.781h0Zm-4.71,17.859c0,.511-.079,.786-.432,.786s-.432-.275-.432-.786v-17.977c0-.51,.079-.785,.432-.785s.432,.314,.432,.785v17.977h0Zm6.28,4.671h4.475v-12.364h2.159v-4.121h-2.159v-6.752h2.865v-4.003h-7.34v27.24h0Zm24.846-27.24h-8.479v3.964h2.002v23.276h4.475v-23.276h2.002v-3.964h0Zm11.343,0h-4.475v10.48h-.981v-10.48h-4.475v27.24h4.475v-12.285h.981v12.285h4.475v-27.24h0Zm1.648,0v27.24h7.38v-4.082h-2.905v-8.164h2.159v-4.161h-2.159v-6.79h2.709v-4.043h-7.184Zm16.604,27.24h6.594c2.237,0,3.376-1.727,3.376-4.317v-18.684c0-3.023-1.374-4.239-3.926-4.239h-6.044v27.24h0Zm4.474-23.511h.354c.392,0,.51,.274,.51,.785v17.938c0,.628-.118,.903-.51,.903h-.354v-19.626h0Zm11.894,15.386h-1.021l.353-7.85,.157-3.611,.157,3.611,.354,7.85h0Zm-1.335,4.004h1.649l.196,4.121h4.396l-2.394-27.24h-5.692l-2.198,27.24h3.847l.196-4.121h0Zm12.757-7.183l2.63-15.936h-4.004l-.51,6.947-.236,3.219-.196-3.219-.549-6.947h-4.436l2.826,15.936v11.304h4.475v-11.304h0Zm4.554,14.288c.431-.864,.981-2.316,.981-4.043v-3.612h-3.808v4.671h1.413c0,1.1-.314,2.199-.51,2.984h1.924Z" style="fill:#fff;"/><path d="M216.837,229.087v27.241h3.768v-16.29l.392,2.944,1.649,13.346h4.004v-27.241h-3.768v14.68l-.393-3.022-1.295-11.658h-4.357Zm11.461,0v27.241h7.379v-4.082h-2.904v-8.165h2.158v-4.16h-2.158v-6.791h2.708v-4.043h-7.183Zm10.244,12.835l-1.727,14.406h4.396l.825-11.069,.824,11.069h4.553l-1.884-14.406,1.453-12.835h-4.279l-.549,10.088-.629-10.088h-4.592l1.609,12.835h0Zm18.292-12.835h-8.479v3.965h2.002v23.276h4.475v-23.276h2.002v-3.965h0Zm5.22,27.241h6.594c2.238,0,3.376-1.727,3.376-4.318v-18.684c0-3.022-1.374-4.239-3.925-4.239h-6.045v27.241h0Zm4.475-23.512h.353c.392,0,.51,.275,.51,.785v17.938c0,.628-.118,.903-.51,.903h-.353v-19.626h0Zm7.104-3.729v27.241h7.379v-4.082h-2.904v-8.165h2.159v-4.16h-2.159v-6.791h2.708v-4.043h-7.183Zm14.17,22.805c0,.511-.04,.825-.393,.825s-.432-.275-.432-.825v-18.409c0-.51,.079-.785,.432-.785s.393,.314,.393,.785v6.398h4.396v-6.044c0-3.141-1.335-4.946-4.671-4.946h-.471c-3.493,0-4.789,2.198-4.789,5.966v16.25c0,3.376,1.374,5.496,4.867,5.496h.668c3.061,0,4.396-2.473,4.396-4.868v-8.36h-4.396v8.517h0Zm10.676-3.689h-1.02l.353-7.851,.157-3.611,.157,3.611,.353,7.851h0Zm-1.334,4.003h1.648l.197,4.122h4.396l-2.395-27.241h-5.691l-2.198,27.241h3.846l.197-4.122h0Zm7.497,4.122h6.594c2.238,0,3.376-1.727,3.376-4.318v-18.684c0-3.022-1.374-4.239-3.925-4.239h-6.045v27.241h0Zm4.475-23.512h.353c.392,0,.51,.275,.51,.785v17.938c0,.628-.118,.903-.51,.903h-.353v-19.626h0Zm7.104-3.729v27.241h7.379v-4.082h-2.904v-8.165h2.159v-4.16h-2.159v-6.791h2.708v-4.043h-7.183Zm17.702,19.116h-1.02l.353-7.851,.157-3.611,.157,3.611,.353,7.851h0Zm-1.334,4.003h1.648l.196,4.122h4.397l-2.395-27.241h-5.691l-2.198,27.241h3.846l.197-4.122h0Zm7.497-23.119v27.241h3.768v-16.29l.392,2.944,1.649,13.346h4.004v-27.241h-3.769v14.68l-.392-3.022-1.295-11.658h-4.357Zm11.461,27.241h6.594c2.237,0,3.376-1.727,3.376-4.318v-18.684c0-3.022-1.374-4.239-3.925-4.239h-6.045v27.241h0Zm4.474-23.512h.354c.392,0,.51,.275,.51,.785v17.938c0,.628-.118,.903-.51,.903h-.354v-19.626h0Zm10.912,23.512h6.712c2.198,0,3.415-1.492,3.415-4.2v-8.125c0-2.316-1.531-3.062-2.355-3.258,.785-.196,1.963-.824,1.963-3.023v-5.142c0-2.472-1.217-3.493-2.984-3.493h-6.751v27.241h0Zm4.75-23.983c.431,0,.471,.235,.471,.667v6.359c0,.432-.118,.667-.471,.667h-.275v-7.693h.275Zm.117,10.716c.354,0,.511,.235,.511,.706v8.636c0,.432-.079,.667-.511,.667h-.392v-10.009h.392Zm6.751-13.974v27.241h7.38v-4.082h-2.905v-8.165h2.159v-4.16h-2.159v-6.791h2.708v-4.043h-7.183Zm15.583,15.936l2.63-15.936h-4.004l-.51,6.948-.236,3.218-.196-3.218-.549-6.948h-4.436l2.826,15.936v11.305h4.475v-11.305h0Zm13.542-11.226c0-2.708-1.609-4.945-5.142-4.945-3.572,0-5.142,2.237-5.142,4.945v17.781c0,2.709,1.609,5.025,5.142,5.025s5.142-2.316,5.142-5.025v-17.781h0Zm-4.71,17.86c0,.51-.079,.785-.432,.785s-.432-.275-.432-.785v-17.977c0-.511,.079-.785,.432-.785s.432,.313,.432,.785v17.977h0Zm6.28-22.57v27.241h3.768v-16.29l.393,2.944,1.648,13.346h4.004v-27.241h-3.768v14.68l-.393-3.022-1.295-11.658h-4.357Zm11.461,27.241h6.595c2.237,0,3.375-1.727,3.375-4.318v-18.684c0-3.022-1.374-4.239-3.925-4.239h-6.045v27.241h0Zm4.475-23.512h.353c.393,0,.511,.275,.511,.785v17.938c0,.628-.118,.903-.511,.903h-.353v-19.626h0Zm10.677,18.841h-3.808v4.671h3.808v-4.671h0Zm4.964-22.57c-.275,.707-.785,2.237-.785,3.611v2.944h3.258v-3.886h-.942c0-.863,.275-1.962,.432-2.669h-1.963Zm3.964,0v27.241h3.769v-16.29l.392,2.944,1.649,13.346h4.003v-27.241h-3.768v14.68l-.392-3.022-1.296-11.658h-4.357Zm21.667,4.71c0-2.708-1.609-4.945-5.142-4.945-3.572,0-5.142,2.237-5.142,4.945v17.781c0,2.709,1.609,5.025,5.142,5.025s5.142-2.316,5.142-5.025v-17.781h0Zm-4.71,17.86c0,.51-.079,.785-.432,.785s-.432-.275-.432-.785v-17.977c0-.511,.079-.785,.432-.785s.432,.313,.432,.785v17.977h0Zm6.28-22.57v27.241h3.768v-16.29l.393,2.944,1.648,13.346h4.004v-27.241h-3.768v14.68l-.393-3.022-1.295-11.658h-4.357Zm16.642,10.166h4.279v-6.437c0-2.905-1.609-4.004-4.632-4.004h-.118c-3.493,0-4.749,1.963-4.749,4.475v5.064c.039,2.119,.471,3.532,2.355,4.867l2.159,1.531c.667,.51,.785,.824,.785,1.609v5.613c0,.392-.079,.706-.432,.706h-.039c-.393,0-.51-.314-.51-.628v-7.261h-4.397v7.575c0,2.748,1.61,4.24,4.711,4.24h.235c3.454,0,5.142-1.924,5.142-5.142v-5.574c0-2.12-.589-3.454-2.551-4.828l-2.395-1.688c-.471-.275-.549-.628-.549-1.138v-5.574c0-.353,.118-.51,.353-.51,.275,0,.353,.117,.353,.51v6.594h0Zm6.163-10.166v27.241h7.379v-4.082h-2.904v-8.165h2.158v-4.16h-2.158v-6.791h2.708v-4.043h-7.183Zm8.871,0v27.241h3.768v-16.29l.392,2.944,1.649,13.346h4.004v-27.241h-3.769v14.68l-.392-3.022-1.295-11.658h-4.357Zm16.642,10.166h4.278v-6.437c0-2.905-1.609-4.004-4.631-4.004h-.118c-3.494,0-4.75,1.963-4.75,4.475v5.064c.04,2.119,.471,3.532,2.355,4.867l2.159,1.531c.668,.51,.785,.824,.785,1.609v5.613c0,.392-.078,.706-.431,.706h-.04c-.392,0-.51-.314-.51-.628v-7.261h-4.396v7.575c0,2.748,1.609,4.24,4.71,4.24h.236c3.454,0,5.142-1.924,5.142-5.142v-5.574c0-2.12-.589-3.454-2.552-4.828l-2.394-1.688c-.471-.275-.55-.628-.55-1.138v-5.574c0-.353,.118-.51,.354-.51,.274,0,.353,.117,.353,.51v6.594h0Zm6.162-10.166v27.241h7.38v-4.082h-2.905v-8.165h2.159v-4.16h-2.159v-6.791h2.708v-4.043h-7.183Zm11.579,30.224c.432-.863,.982-2.316,.982-4.043v-3.611h-3.808v4.671h1.413c0,1.099-.314,2.198-.51,2.983h1.923Zm2.944-23.669c.275-.706,.785-2.237,.785-3.611v-2.944h-3.257v3.847h.942c0,.903-.275,2.002-.432,2.708h1.962Z" style="fill:#fff;"/><path d="M242.548,196.661v27.241h3.768v-16.289l.393,2.944,1.648,13.345h4.004v-27.241h-3.768v14.681l-.393-3.023-1.295-11.658h-4.357Zm16.485,19.116h-1.02l.353-7.85,.157-3.611,.157,3.611,.353,7.85h0Zm-1.334,4.004h1.648l.197,4.121h4.396l-2.395-27.241h-5.691l-2.198,27.241h3.846l.197-4.121h0Zm7.497-23.12v27.241h3.768v-16.289l.393,2.944,1.648,13.345h4.004v-27.241h-3.768v14.681l-.393-3.023-1.295-11.658h-4.357Zm19.743,0h-8.478v3.965h2.001v23.276h4.475v-23.276h2.002v-3.965h0Zm5.22,27.241h3.729v-15.857l.353,4.357,.982,11.5h1.609l.942-11.5,.392-4.357-.039,4.553v11.304h3.886v-27.241h-5.181l-.55,10.245-.157,2.905-.157-2.905-.588-10.245h-5.221v27.241h0Zm18.527-8.125h-1.021l.353-7.85,.157-3.611,.157,3.611,.354,7.85h0Zm-1.335,4.004h1.649l.196,4.121h4.396l-2.394-27.241h-5.692l-2.198,27.241h3.847l.196-4.121h0Zm11.972-8.243h.157c.432,0,.549,.196,.549,.707v10.401c0,.589,.236,1.021,.511,1.256h4.357v-.117c-.197-.314-.314-.511-.314-1.139v-10.872c0-1.767-.707-2.199-1.806-2.591,1.256-.51,1.766-1.531,1.766-3.062v-6.162c0-2.316-1.374-3.298-3.493-3.298h-6.202v27.241h4.475v-12.364h0Zm0-11.658h.235c.393,0,.471,.196,.471,.628v6.948c0,.471-.117,.667-.471,.667h-.235v-8.243h0Zm11.304,24.022v-9.145l-.039-2.473,.274,2.473,1.139,9.145h4.71l-2.473-14.405,1.845-12.836h-4.396l-.825,7.772-.274,2.63,.039-2.63v-7.772h-4.475v27.241h4.475Zm7.222-27.241v27.241h7.38v-4.082h-2.905v-8.164h2.159v-4.161h-2.159v-6.791h2.708v-4.043h-7.183Zm17.036,0h-8.479v3.965h2.002v23.276h4.475v-23.276h2.002v-3.965h0Zm5.887,0h-4.475v27.241h4.475v-27.241h0Zm1.648,0v27.241h3.768v-16.289l.393,2.944,1.649,13.345h4.003v-27.241h-3.768v14.681l-.392-3.023-1.296-11.658h-4.357Zm15.387,27.516c1.57,0,2.394-.981,2.747-1.531,.118,.354,.196,.903,.236,1.256h3.179v-15.661h-4.985v3.219h.707v8.125c0,.549-.197,.863-.589,.863s-.589-.314-.589-.824v-18.802c0-.432,.118-.628,.393-.628,.392,0,.392,.275,.392,.628v6.673h4.436v-6.555c0-2.591-1.335-4.514-4.632-4.514h-.51c-3.612,0-4.789,2.237-4.789,4.946v17.938c0,2.865,1.06,4.867,4.004,4.867h0Zm11.5-.275h3.729v-15.857l.353,4.357,.981,11.5h1.609l.943-11.5,.392-4.357-.039,4.553v11.304h3.886v-27.241h-5.182l-.549,10.245-.157,2.905-.157-2.905-.589-10.245h-5.22v27.241h0Zm13.502-27.241v27.241h7.379v-4.082h-2.904v-8.164h2.158v-4.161h-2.158v-6.791h2.708v-4.043h-7.183Zm17.035,0h-8.478v3.965h2.002v23.276h4.474v-23.276h2.002v-3.965h0Zm11.344,0h-4.475v10.481h-.981v-10.481h-4.475v27.241h4.475v-12.285h.981v12.285h4.475v-27.241h0Zm11.854,4.711c0-2.709-1.61-4.946-5.142-4.946-3.572,0-5.142,2.237-5.142,4.946v17.781c0,2.708,1.609,5.024,5.142,5.024s5.142-2.316,5.142-5.024v-17.781h0Zm-4.711,17.859c0,.511-.078,.785-.431,.785s-.432-.274-.432-.785v-17.977c0-.51,.078-.785,.432-.785s.431,.314,.431,.785v17.977h0Zm6.281,4.671h6.594c2.237,0,3.376-1.727,3.376-4.317v-18.684c0-3.023-1.374-4.24-3.926-4.24h-6.044v27.241h0Zm4.474-23.512h.354c.392,0,.51,.275,.51,.785v17.939c0,.628-.118,.902-.51,.902h-.354v-19.626h0Zm21.118,.982c0-2.709-1.61-4.946-5.142-4.946-3.572,0-5.142,2.237-5.142,4.946v17.781c0,2.708,1.609,5.024,5.142,5.024s5.142-2.316,5.142-5.024v-17.781h0Zm-4.711,17.859c0,.511-.078,.785-.431,.785s-.432-.274-.432-.785v-17.977c0-.51,.078-.785,.432-.785s.431,.314,.431,.785v17.977h0Zm6.281,4.671h4.474v-12.364h2.159v-4.121h-2.159v-6.752h2.866v-4.004h-7.34v27.241h0Zm20.646-27.241h-8.479v3.965h2.002v23.276h4.475v-23.276h2.002v-3.965h0Zm11.343,0h-4.474v10.481h-.982v-10.481h-4.474v27.241h4.474v-12.285h.982v12.285h4.474v-27.241h0Zm1.649,0v27.241h7.379v-4.082h-2.905v-8.164h2.159v-4.161h-2.159v-6.791h2.709v-4.043h-7.183Z" style="fill:#fff;"/><path d="M266.229,174.402h4.278v-6.437c0-2.905-1.609-4.004-4.632-4.004h-.117c-3.494,0-4.75,1.963-4.75,4.475v5.063c.039,2.12,.471,3.533,2.355,4.868l2.159,1.53c.667,.511,.785,.825,.785,1.61v5.613c0,.392-.078,.706-.432,.706h-.039c-.392,0-.51-.314-.51-.628v-7.261h-4.396v7.575c0,2.748,1.609,4.24,4.71,4.24h.235c3.454,0,5.142-1.924,5.142-5.142v-5.574c0-2.12-.589-3.454-2.551-4.828l-2.394-1.688c-.471-.275-.55-.628-.55-1.138v-5.574c0-.353,.118-.51,.353-.51,.275,0,.354,.117,.354,.51v6.594h0Zm6.162-10.166v27.241h7.379v-4.082h-2.904v-8.165h2.159v-4.161h-2.159v-6.79h2.708v-4.043h-7.183Zm8.871,0v27.241h3.768v-16.29l.392,2.944,1.649,13.346h4.004v-27.241h-3.769v14.68l-.392-3.022-1.295-11.658h-4.357Zm16.642,10.166h4.278v-6.437c0-2.905-1.609-4.004-4.631-4.004h-.118c-3.493,0-4.749,1.963-4.749,4.475v5.063c.039,2.12,.471,3.533,2.355,4.868l2.159,1.53c.667,.511,.785,.825,.785,1.61v5.613c0,.392-.079,.706-.432,.706h-.039c-.393,0-.511-.314-.511-.628v-7.261h-4.396v7.575c0,2.748,1.609,4.24,4.71,4.24h.236c3.454,0,5.142-1.924,5.142-5.142v-5.574c0-2.12-.589-3.454-2.552-4.828l-2.394-1.688c-.471-.275-.549-.628-.549-1.138v-5.574c0-.353,.117-.51,.353-.51,.275,0,.353,.117,.353,.51v6.594h0Zm6.162-10.166v27.241h7.38v-4.082h-2.905v-8.165h2.159v-4.161h-2.159v-6.79h2.709v-4.043h-7.184Zm12.561,22.57h-3.808v4.671h3.808v-4.671h0Zm9.812-22.57h-4.474v27.241h4.474v-27.241h0Zm9.931,0h-8.479v3.964h2.002v23.277h4.475v-23.277h2.002v-3.964h0Zm21.038,0h-4.396l-.393,11.854-.157,6.084-.275-6.045-.549-11.893h-4.357l-.51,11.893-.275,6.045-.196-6.005-.393-11.933h-4.671l2.12,27.241h5.456l.471-11.501,.157-4.828,.157,4.828,.471,11.501h5.142l2.198-27.241h0Zm5.769,0h-4.474v27.241h4.474v-27.241h0Zm1.648,0v27.241h7.184v-4.318h-2.709v-22.923h-4.475Zm8.675,0v27.241h7.183v-4.318h-2.709v-22.923h-4.474Zm12.481,27.241h6.712c2.198,0,3.415-1.492,3.415-4.2v-8.125c0-2.316-1.531-3.062-2.355-3.258,.785-.196,1.963-.825,1.963-3.023v-5.142c0-2.472-1.217-3.493-2.983-3.493h-6.752v27.241h0Zm4.75-23.983c.432,0,.471,.235,.471,.667v6.359c0,.432-.118,.667-.471,.667h-.275v-7.693h.275Zm.118,10.716c.353,0,.51,.235,.51,.706v8.636c0,.431-.079,.667-.51,.667h-.393v-10.009h.393Zm6.75-13.974v27.241h7.38v-4.082h-2.905v-8.165h2.159v-4.161h-2.159v-6.79h2.708v-4.043h-7.183Zm20.686,0h-8.478v3.964h2.002v23.277h4.474v-23.277h2.002v-3.964h0Zm11.344,0h-4.475v10.48h-.982v-10.48h-4.474v27.241h4.474v-12.286h.982v12.286h4.475v-27.241h0Zm1.648,0v27.241h7.379v-4.082h-2.904v-8.165h2.158v-4.161h-2.158v-6.79h2.708v-4.043h-7.183Zm12.678,27.241h6.594c2.238,0,3.376-1.727,3.376-4.318v-18.684c0-3.022-1.374-4.239-3.925-4.239h-6.045v27.241h0Zm4.475-23.512h.353c.392,0,.51,.275,.51,.785v17.938c0,.628-.118,.903-.51,.903h-.353v-19.626h0Zm17.309,.981c0-2.708-1.609-4.946-5.142-4.946-3.572,0-5.142,2.238-5.142,4.946v17.781c0,2.709,1.61,5.025,5.142,5.025s5.142-2.316,5.142-5.025v-17.781h0Zm-4.71,17.86c0,.51-.078,.785-.432,.785s-.431-.275-.431-.785v-17.978c0-.51,.078-.785,.431-.785s.432,.314,.432,.785v17.978h0Zm6.28,4.671h3.729v-15.858l.354,4.357,.981,11.501h1.609l.942-11.501,.393-4.357-.039,4.553v11.305h3.886v-27.241h-5.182l-.549,10.245-.157,2.904-.157-2.904-.589-10.245h-5.221v27.241h0Zm17.977-27.241h-4.474v27.241h4.474v-27.241h0Zm1.531,14.248v3.847h4.474v-3.847h-4.474Z" style="fill:#fff;"/><path d="M287.307,150.926h-1.021l.353-7.85,.157-3.611,.157,3.611,.354,7.85h0Zm-1.335,4.004h1.649l.196,4.121h4.396l-2.394-27.241h-5.692l-2.198,27.241h3.847l.196-4.121h0Zm17.663-7.694c1.963,.079,3.337-.942,3.337-4.2v-7.457c0-2.827-1.296-3.769-3.337-3.769h-6.359v27.241h4.475v-11.815h1.884Zm-1.884-12.207h.236c.392,0,.471,.196,.471,.628v7.419c0,.471-.118,.667-.471,.667h-.236v-8.714h0Zm16.918,1.492c0-2.709-1.61-4.946-5.142-4.946-3.572,0-5.142,2.237-5.142,4.946v17.781c0,2.708,1.609,5.024,5.142,5.024s5.142-2.316,5.142-5.024v-17.781h0Zm-4.711,17.859c0,.511-.078,.785-.431,.785s-.432-.274-.432-.785v-17.977c0-.51,.078-.785,.432-.785s.431,.314,.431,.785v17.977h0Zm6.281-22.57v27.241h3.768v-16.289l.392,2.944,1.649,13.345h4.004v-27.241h-3.768v14.681l-.393-3.023-1.295-11.658h-4.357Zm11.579,0v3.965h3.14l-3.415,19.665v3.611h8.439v-4.043h-3.69l3.454-19.665v-3.533h-7.928Zm14.13,0h-4.475v27.241h4.475v-27.241h0Zm5.338,22.57h-3.808v4.671h3.808v-4.671h0Zm5.337,4.671h6.712c2.198,0,3.415-1.491,3.415-4.2v-8.125c0-2.316-1.531-3.062-2.355-3.258,.785-.196,1.963-.824,1.963-3.022v-5.142c0-2.473-1.217-3.494-2.983-3.494h-6.752v27.241h0Zm4.75-23.983c.432,0,.471,.236,.471,.668v6.358c0,.432-.118,.668-.471,.668h-.275v-7.694h.275Zm.118,10.716c.353,0,.51,.236,.51,.707v8.635c0,.432-.079,.667-.51,.667h-.393v-10.009h.393Zm16.799-13.974h-4.671v22.413c0,.511-.039,.825-.393,.825-.274,0-.353-.275-.353-.825v-22.413h-4.671v22.374c0,2.983,1.295,5.142,4.789,5.142h.549c3.454,0,4.75-2.237,4.75-5.142v-22.374h0Zm9.891,0h-8.478v3.965h2.001v23.276h4.475v-23.276h2.002v-3.965h0Zm9.695,0h-4.475v27.241h4.475v-27.241h0Zm9.93,0h-8.479v3.965h2.002v23.276h4.475v-23.276h2.002v-3.965h0Zm5.22,27.241h3.729v-15.858l.353,4.357,.981,11.501h1.61l.942-11.501,.392-4.357-.039,4.554v11.304h3.886v-27.241h-5.181l-.55,10.245-.157,2.905-.157-2.905-.589-10.245h-5.22v27.241h0Zm18.526-8.125h-1.02l.353-7.85,.157-3.611,.157,3.611,.353,7.85h0Zm-1.334,4.004h1.648l.197,4.121h4.396l-2.395-27.241h-5.691l-2.198,27.241h3.847l.196-4.121h0Zm11.972,4.121v-9.145l-.04-2.473,.275,2.473,1.138,9.145h4.711l-2.473-14.405,1.845-12.836h-4.397l-.824,7.772-.275,2.63,.04-2.63v-7.772h-4.475v27.241h4.475Zm7.222-27.241v27.241h7.379v-4.082h-2.904v-8.164h2.159v-4.161h-2.159v-6.791h2.708v-4.043h-7.183Zm13.973,10.167h4.279v-6.438c0-2.904-1.609-4.003-4.632-4.003h-.118c-3.493,0-4.749,1.962-4.749,4.474v5.064c.039,2.119,.471,3.533,2.355,4.867l2.159,1.531c.667,.51,.785,.824,.785,1.609v5.613c0,.393-.079,.707-.432,.707h-.039c-.393,0-.51-.314-.51-.628v-7.262h-4.397v7.576c0,2.747,1.61,4.239,4.711,4.239h.235c3.454,0,5.142-1.923,5.142-5.142v-5.574c0-2.119-.589-3.454-2.551-4.828l-2.395-1.688c-.471-.274-.549-.628-.549-1.138v-5.574c0-.353,.118-.51,.353-.51,.275,0,.353,.118,.353,.51v6.595h0Z" style="fill:#fff;"/><path d="M296.589,118.501h-1.02l.353-7.851,.157-3.611,.157,3.611,.353,7.851h0Zm-1.334,4.003h1.648l.197,4.122h4.396l-2.395-27.241h-5.691l-2.198,27.241h3.847l.196-4.122h0Zm17.663-7.693c1.963,.078,3.336-.942,3.336-4.2v-7.458c0-2.826-1.295-3.768-3.336-3.768h-6.359v27.241h4.475v-11.815h1.884Zm-1.884-12.207h.235c.393,0,.471,.196,.471,.628v7.418c0,.471-.117,.667-.471,.667h-.235v-8.713h0Zm13.228,12.717l2.63-15.936h-4.003l-.511,6.947-.235,3.219-.197-3.219-.549-6.947h-4.436l2.827,15.936v11.305h4.474v-11.305h0Zm8.361-1.06h.157c.432,0,.549,.197,.549,.707v10.402c0,.588,.236,1.02,.511,1.256h4.357v-.118c-.197-.314-.314-.51-.314-1.138v-10.873c0-1.766-.707-2.198-1.806-2.591,1.256-.51,1.766-1.531,1.766-3.061v-6.163c0-2.316-1.373-3.297-3.493-3.297h-6.202v27.241h4.475v-12.365h0Zm0-11.657h.235c.393,0,.471,.196,.471,.628v6.947c0,.471-.117,.667-.471,.667h-.235v-8.242h0Zm11.854,15.897h-1.021l.353-7.851,.157-3.611,.157,3.611,.354,7.851h0Zm-1.335,4.003h1.649l.196,4.122h4.396l-2.394-27.241h-5.692l-2.198,27.241h3.847l.196-4.122h0Zm7.497,4.122h3.729v-15.858l.353,4.357,.982,11.501h1.609l.942-11.501,.393-4.357-.04,4.553v11.305h3.886v-27.241h-5.181l-.55,10.245-.157,2.904-.157-2.904-.588-10.245h-5.221v27.241h0Zm17.977-27.241h-4.475v27.241h4.475v-27.241h0Zm1.648,27.241h6.594c2.238,0,3.376-1.727,3.376-4.318v-18.684c0-3.022-1.374-4.239-3.925-4.239h-6.045v27.241h0Zm4.475-23.512h.353c.393,0,.51,.275,.51,.785v17.938c0,.628-.117,.903-.51,.903h-.353v-19.626h0Zm17.977,6.437h4.279v-6.437c0-2.905-1.61-4.004-4.632-4.004h-.118c-3.493,0-4.749,1.963-4.749,4.475v5.063c.039,2.12,.471,3.533,2.355,4.868l2.159,1.53c.667,.511,.785,.825,.785,1.61v5.613c0,.392-.079,.706-.432,.706h-.039c-.393,0-.511-.314-.511-.628v-7.261h-4.396v7.575c0,2.748,1.609,4.239,4.71,4.239h.236c3.454,0,5.142-1.923,5.142-5.142v-5.573c0-2.12-.589-3.454-2.552-4.828l-2.394-1.688c-.471-.275-.549-.628-.549-1.138v-5.574c0-.353,.117-.51,.353-.51,.275,0,.353,.117,.353,.51v6.594h0Zm11.619,12.639c0,.511-.04,.825-.393,.825s-.432-.275-.432-.825v-18.409c0-.51,.079-.785,.432-.785s.393,.314,.393,.785v6.398h4.396v-6.045c0-3.14-1.335-4.945-4.671-4.945h-.471c-3.494,0-4.789,2.198-4.789,5.966v16.25c0,3.376,1.374,5.495,4.867,5.495h.668c3.061,0,4.396-2.472,4.396-4.867v-8.36h-4.396v8.517h0Zm15.818-22.805h-4.475v10.48h-.981v-10.48h-4.475v27.241h4.475v-12.286h.981v12.286h4.475v-27.241h0Zm1.648,0v27.241h7.38v-4.082h-2.905v-8.165h2.159v-4.161h-2.159v-6.79h2.708v-4.043h-7.183Zm8.871,27.241h3.729v-15.858l.353,4.357,.982,11.501h1.609l.942-11.501,.392-4.357-.039,4.553v11.305h3.886v-27.241h-5.181l-.55,10.245-.157,2.904-.157-2.904-.589-10.245h-5.22v27.241h0Zm13.502-27.241v27.241h7.38v-4.082h-2.905v-8.165h2.159v-4.161h-2.159v-6.79h2.708v-4.043h-7.183Zm12.561,22.57h-3.808v4.671h3.808v-4.671h0Z" style="fill:#fff;"/><path d="M319.17,66.959v27.241h7.38v-4.082h-2.905v-8.164h2.159v-4.161h-2.159v-6.79h2.708v-4.043h-7.183Zm13.974,10.166h4.278v-6.437c0-2.905-1.609-4.004-4.631-4.004h-.118c-3.494,0-4.75,1.963-4.75,4.475v5.063c.04,2.12,.471,3.533,2.355,4.867l2.159,1.531c.668,.51,.785,.824,.785,1.609v5.613c0,.393-.078,.706-.431,.706h-.04c-.392,0-.51-.314-.51-.628v-7.262h-4.396v7.576c0,2.748,1.609,4.239,4.71,4.239h.236c3.454,0,5.142-1.923,5.142-5.142v-5.574c0-2.12-.589-3.454-2.552-4.828l-2.394-1.688c-.471-.275-.55-.628-.55-1.138v-5.574c0-.353,.118-.51,.354-.51,.274,0,.353,.118,.353,.51v6.594h0Zm11.344,0h4.278v-6.437c0-2.905-1.609-4.004-4.632-4.004h-.117c-3.494,0-4.75,1.963-4.75,4.475v5.063c.039,2.12,.471,3.533,2.355,4.867l2.159,1.531c.667,.51,.785,.824,.785,1.609v5.613c0,.393-.078,.706-.432,.706h-.039c-.392,0-.51-.314-.51-.628v-7.262h-4.396v7.576c0,2.748,1.609,4.239,4.71,4.239h.235c3.454,0,5.142-1.923,5.142-5.142v-5.574c0-2.12-.588-3.454-2.551-4.828l-2.394-1.688c-.471-.275-.55-.628-.55-1.138v-5.574c0-.353,.118-.51,.353-.51,.275,0,.354,.118,.354,.51v6.594h0Zm6.162-10.166v27.241h7.379v-4.082h-2.904v-8.164h2.159v-4.161h-2.159v-6.79h2.708v-4.043h-7.183Zm8.871,0v27.241h3.768v-16.29l.392,2.944,1.649,13.346h4.004v-27.241h-3.769v14.68l-.392-3.022-1.295-11.658h-4.357Zm19.743,0h-8.478v3.964h2.001v23.276h4.475v-23.276h2.002v-3.964h0Zm5.887,0h-4.474v27.241h4.474v-27.241h0Zm6.673,19.116h-1.021l.353-7.85,.157-3.611,.157,3.611,.354,7.85h0Zm-1.335,4.004h1.649l.196,4.121h4.396l-2.394-27.241h-5.692l-2.198,27.241h3.847l.196-4.121h0Zm7.497-23.119v27.241h7.183v-4.318h-2.708v-22.923h-4.475Zm8.674,0v27.241h7.184v-4.318h-2.709v-22.923h-4.475Zm13.934,15.936l2.63-15.936h-4.003l-.511,6.948-.235,3.219-.196-3.219-.55-6.948h-4.435l2.826,15.936v11.305h4.474v-11.305h0Zm4.554,14.288c.432-.863,.981-2.316,.981-4.043v-3.611h-3.807v4.671h1.413c0,1.099-.314,2.198-.51,2.983h1.923Z" style="fill:#fff;"/><path d="M348.08,34.534h-8.478v3.964h2.002v23.276h4.474v-23.276h2.002v-3.964h0Zm11.344,0h-4.475v10.48h-.981v-10.48h-4.475v27.241h4.475v-12.286h.981v12.286h4.475v-27.241h0Zm6.123,0h-4.475v27.241h4.475v-27.241h0Zm6.829,10.166h4.278v-6.437c0-2.905-1.609-4.004-4.631-4.004h-.118c-3.494,0-4.75,1.963-4.75,4.475v5.064c.04,2.12,.471,3.533,2.356,4.867l2.158,1.531c.668,.51,.785,.824,.785,1.609v5.613c0,.393-.078,.707-.431,.707h-.04c-.392,0-.51-.314-.51-.628v-7.262h-4.396v7.576c0,2.748,1.609,4.239,4.71,4.239h.236c3.454,0,5.142-1.923,5.142-5.142v-5.574c0-2.12-.589-3.454-2.552-4.828l-2.394-1.688c-.471-.275-.55-.628-.55-1.138v-5.574c0-.353,.118-.51,.354-.51,.274,0,.353,.118,.353,.51v6.594h0Zm14.444-10.166h-4.474v27.241h4.474v-27.241h0Zm6.83,10.166h4.278v-6.437c0-2.905-1.609-4.004-4.632-4.004h-.117c-3.494,0-4.75,1.963-4.75,4.475v5.064c.039,2.12,.471,3.533,2.355,4.867l2.159,1.531c.667,.51,.785,.824,.785,1.609v5.613c0,.393-.078,.707-.432,.707h-.039c-.392,0-.51-.314-.51-.628v-7.262h-4.396v7.576c0,2.748,1.609,4.239,4.71,4.239h.235c3.455,0,5.142-1.923,5.142-5.142v-5.574c0-2.12-.588-3.454-2.551-4.828l-2.394-1.688c-.471-.275-.55-.628-.55-1.138v-5.574c0-.353,.118-.51,.353-.51,.275,0,.354,.118,.354,.51v6.594h0Zm8.87,20.058c.432-.864,.982-2.316,.982-4.043v-3.611h-3.808v4.671h1.413c0,1.099-.314,2.198-.51,2.983h1.923Z" style="fill:#fff;"/></g><g><path d="M327.701,33.776c-.326,.734-.857,2.366-.857,3.998v3.468h3.998v-4.447h-1.51c.041-.979,.449-2.244,.734-3.019h-2.366Zm4.447,0c-.367,.734-.898,2.366-.898,3.998v3.468h3.998v-4.447h-1.469c0-.979,.408-2.244,.694-3.019h-2.326Z" style="fill:#fff;"/><path d="M748.477,528.561c.367-.775,.898-2.407,.898-3.998v-3.468h-3.998v4.447h1.469c0,.938-.408,2.244-.694,3.019h2.326Zm4.447,0c.326-.775,.857-2.407,.857-3.998v-3.468h-3.998v4.447h1.51c-.041,.938-.449,2.244-.734,3.019h2.366Z" style="fill:#fff;"/></g></svg>