<?xml version="1.0" encoding="UTF-8"?><svg id="a" xmlns="http://www.w3.org/2000/svg" xmlns:xlink="http://www.w3.org/1999/xlink" viewBox="0 0 401 277"><defs><clipPath id="b"><rect width="401" height="277" style="fill:none;"/></clipPath></defs><g><polygon points="241.216 276 400 117.216 400 75.003 199.003 276 241.216 276" style="fill:none;"/><polygon points="343.994 276 400 219.994 400 177.78 301.78 276 343.994 276" style="fill:none;"/><polygon points="1 207.883 207.883 1 165.669 1 1 165.669 1 207.883" style="fill:none;"/><polygon points="2.328 1 1 1 1 2.328 2.328 1" style="fill:none;"/><polygon points="1 276 35.661 276 310.661 1 268.447 1 1 268.447 1 276" style="fill:none;"/><polygon points="138.438 276 400 14.438 400 1 371.225 1 96.225 276 138.438 276" style="fill:none;"/><polygon points="1 105.105 105.105 1 62.892 1 1 62.892 1 105.105" style="fill:none;"/><polygon points="1 62.892 62.892 1 2.328 1 1 2.328 1 62.892" style="fill:#ff0;"/><polygon points="1 165.669 165.669 1 105.105 1 1 105.105 1 165.669" style="fill:#ff0;"/><polygon points="301.78 276 400 177.78 400 117.216 241.216 276 301.78 276" style="fill:#ff0;"/><polygon points="199.003 276 400 75.003 400 14.438 138.438 276 199.003 276" style="fill:#ff0;"/><polygon points="96.225 276 371.225 1 310.661 1 35.661 276 96.225 276" style="fill:#ff0;"/><polygon points="400 276 400 219.994 343.994 276 400 276" style="fill:#ff0;"/><polygon points="1 268.447 268.447 1 207.883 1 1 207.883 1 268.447" style="fill:#ff0;"/></g><g style="clip-path:url(#b);"><path d="M401,277H0V0H401V277ZM2,275H399V2H2V275Z" style="fill:red;"/></g><path d="M14.388,242.14h10.089c1.982,0,3.74-.583,5.275-1.749,1.534-1.166,2.814-2.805,3.841-4.917,1.027-2.112,1.805-4.664,2.336-7.656,.531-2.992,.797-6.314,.797-9.966,0-3.74-.266-7.128-.797-10.164-.531-3.036-1.31-5.643-2.336-7.821-1.027-2.178-2.278-3.861-3.752-5.049-1.475-1.188-3.168-1.782-5.08-1.782H14.388v49.104h0Zm4.921-7.788v-33.528h4.991c1.298,0,2.413,.407,3.345,1.221,.932,.814,1.699,1.969,2.301,3.465,.602,1.496,1.044,3.289,1.328,5.379,.283,2.09,.425,4.411,.425,6.963,0,5.148-.608,9.185-1.823,12.111-1.216,2.926-3.121,4.389-5.717,4.389h-4.85Zm21.487,7.788h19.576v-7.986h-14.691v-13.86h12.709v-7.326h-12.709v-12.144h14.372v-7.788h-19.258v49.104h0Zm43.259-4.356c.92-1.672,1.669-3.663,2.248-5.973,.578-2.31,.891-4.697,.938-7.161h-4.92c-.071,1.496-.26,2.893-.566,4.191-.307,1.298-.726,2.442-1.257,3.432-.531,.99-1.174,1.771-1.929,2.343-.756,.572-1.628,.858-2.62,.858-1.18,0-2.242-.44-3.186-1.32-.944-.88-1.752-2.101-2.425-3.663-.673-1.562-1.192-3.432-1.558-5.61-.366-2.178-.549-4.565-.549-7.161,0-2.552,.165-4.917,.496-7.095,.33-2.178,.82-4.07,1.469-5.676,.649-1.606,1.451-2.86,2.407-3.762,.956-.902,2.059-1.353,3.31-1.353,1.746,0,3.151,.836,4.213,2.508s1.711,3.828,1.947,6.468h4.885c-.165-2.596-.561-4.972-1.186-7.128-.626-2.156-1.469-4.004-2.531-5.544-.897-1.276-1.959-2.266-3.186-2.97-1.227-.704-2.596-1.056-4.106-1.056-1.959,0-3.723,.649-5.292,1.947-1.57,1.298-2.903,3.091-4,5.379-1.097,2.288-1.942,4.994-2.531,8.118-.59,3.124-.885,6.512-.885,10.164,0,3.696,.301,7.095,.903,10.197,.602,3.102,1.457,5.786,2.566,8.052,1.109,2.266,2.443,4.037,4,5.313,1.558,1.275,3.292,1.914,5.204,1.914,3.492,0,6.207-1.804,8.142-5.412h0Zm7.08,4.356h19.576v-7.986h-14.691v-13.86h12.709v-7.326h-12.709v-12.144h14.372v-7.788h-19.257v49.104h0Zm23.859,0h4.637v-24.552c0-1.232-.012-2.574-.035-4.026-.024-1.452-.059-2.816-.106-4.092-.048-1.452-.083-2.926-.106-4.422h.07c.378,1.364,.755,2.728,1.133,4.092,.33,1.144,.684,2.387,1.062,3.729,.377,1.342,.755,2.563,1.133,3.663l8.708,25.608h5.027v-49.104h-4.637v24.618c0,1.232,.011,2.574,.035,4.026,.023,1.452,.059,2.816,.106,4.092,.047,1.452,.094,2.926,.142,4.422h-.106c-.378-1.364-.756-2.728-1.133-4.092-.331-1.144-.685-2.376-1.062-3.696-.378-1.32-.743-2.53-1.097-3.63l-8.744-25.74h-5.027v49.104h0Zm25.204-41.25h8.213v41.25h4.921v-41.25h8.248v-7.854h-21.382v7.854h0Zm41.347,41.25h5.522l-6.265-19.998c1.628-1.056,2.914-2.794,3.858-5.214,.944-2.42,1.416-5.324,1.416-8.712,0-2.156-.194-4.103-.584-5.841-.389-1.738-.926-3.311-1.611-4.719-1.51-3.08-3.752-4.62-6.726-4.62h-11.894v49.104h4.956v-18.942h5.664l5.664,18.942h0Zm-11.328-41.25h6.478c1.44,0,2.549,.616,3.328,1.848,.779,1.232,1.168,3.102,1.168,5.61,0,5.016-1.534,7.524-4.602,7.524h-6.372v-14.982h0Zm18.372,41.25h4.956l2.124-11.682h9.983l2.088,11.682h5.239l-9.593-49.104h-5.239l-9.558,49.104h0Zm10.372-29.766c.212-1.144,.419-2.409,.619-3.795,.201-1.386,.384-2.673,.549-3.861,.189-1.408,.377-2.794,.567-4.158h.07c.142,1.188,.295,2.442,.461,3.762,.141,1.144,.312,2.409,.513,3.795,.2,1.386,.43,2.805,.69,4.257l2.018,11.352h-7.576l2.089-11.352h0Zm17.239,29.766h17.7v-7.986h-12.815v-41.118h-4.885v49.104h0Zm21.452,0h4.92v-49.104h-4.92v49.104h0Zm8.956,0h21.204v-7.92h-10.195c-.519,0-1.092,.022-1.717,.066-.625,.044-1.21,.088-1.752,.132-.637,.044-1.287,.088-1.947,.132v-.198c.519-.924,1.026-1.892,1.522-2.904,.425-.836,.873-1.749,1.345-2.739,.472-.99,.908-1.925,1.31-2.805l10.903-25.674v-7.194h-19.718v7.722h8.886c.472,0,1.009-.011,1.611-.033,.601-.022,1.173-.055,1.716-.099,.614-.044,1.227-.088,1.841-.132v.198c-.472,.88-.932,1.76-1.38,2.64-.402,.748-.827,1.573-1.275,2.475-.448,.902-.838,1.749-1.168,2.541l-11.186,26.004v7.788h0Zm23.434,0h4.956l2.124-11.682h9.982l2.089,11.682h5.239l-9.593-49.104h-5.239l-9.558,49.104h0Zm10.372-29.766c.212-1.144,.419-2.409,.619-3.795,.201-1.386,.384-2.673,.549-3.861,.189-1.408,.377-2.794,.566-4.158h.071c.142,1.188,.295,2.442,.46,3.762,.142,1.144,.313,2.409,.514,3.795,.2,1.386,.43,2.805,.69,4.257l2.018,11.352h-7.576l2.089-11.352h0Zm12.602-11.484h8.212v41.25h4.921v-41.25h8.248v-7.854h-21.381v7.854h0Zm25.062,41.25h4.921v-49.104h-4.921v49.104h0Zm27.4-.792c1.604-1.276,2.967-3.058,4.088-5.346,1.121-2.288,1.983-4.994,2.584-8.118,.602-3.124,.903-6.512,.903-10.164,0-3.696-.301-7.106-.903-10.23-.601-3.124-1.463-5.819-2.584-8.085-1.121-2.266-2.484-4.048-4.088-5.346-1.606-1.298-3.399-1.947-5.381-1.947s-3.776,.649-5.381,1.947c-1.605,1.298-2.968,3.08-4.089,5.346-1.121,2.266-1.982,4.961-2.584,8.085-.602,3.124-.903,6.534-.903,10.23,0,3.652,.301,7.04,.903,10.164,.602,3.124,1.463,5.83,2.584,8.118,1.121,2.288,2.484,4.07,4.089,5.346,1.605,1.275,3.398,1.914,5.381,1.914s3.775-.639,5.381-1.914h0Zm-8.815-7.161c-.991-.902-1.823-2.145-2.496-3.729-.672-1.584-1.18-3.465-1.522-5.643-.342-2.178-.513-4.543-.513-7.095s.171-4.928,.513-7.128c.342-2.2,.85-4.114,1.522-5.742,.673-1.628,1.505-2.904,2.496-3.828,.991-.924,2.147-1.386,3.469-1.386,1.298,0,2.443,.462,3.434,1.386,.991,.924,1.817,2.2,2.478,3.828,.66,1.628,1.156,3.542,1.487,5.742,.33,2.2,.495,4.576,.495,7.128s-.165,4.917-.495,7.095c-.331,2.178-.827,4.059-1.487,5.643-.661,1.584-1.487,2.827-2.478,3.729-.991,.902-2.136,1.353-3.434,1.353-1.322,0-2.478-.451-3.469-1.353h0Zm20.496,7.953h4.637v-24.552c0-1.232-.012-2.574-.035-4.026-.024-1.452-.059-2.816-.106-4.092-.048-1.452-.083-2.926-.106-4.422h.07c.378,1.364,.755,2.728,1.133,4.092,.33,1.144,.684,2.387,1.062,3.729,.377,1.342,.755,2.563,1.133,3.663l8.708,25.608h5.027v-49.104h-4.637v24.618c0,1.232,.011,2.574,.035,4.026,.024,1.452,.059,2.816,.106,4.092,.047,1.452,.095,2.926,.142,4.422h-.106c-.378-1.364-.756-2.728-1.133-4.092-.331-1.144-.685-2.376-1.062-3.696-.378-1.32-.743-2.53-1.097-3.63l-8.744-25.74h-5.027v49.104h0Zm25.629,0h4.921v-9.174h-4.921v9.174h0Z" style="fill:red;"/><path d="M161.738,162.14h4.956l2.124-11.682h9.982l2.089,11.682h5.239l-9.593-49.104h-5.239l-9.558,49.104h0Zm10.372-29.766c.212-1.144,.419-2.409,.619-3.795,.201-1.386,.384-2.673,.549-3.861,.189-1.408,.377-2.794,.566-4.158h.071c.142,1.188,.295,2.442,.46,3.762,.142,1.144,.313,2.409,.514,3.795,.2,1.386,.43,2.805,.69,4.257l2.018,11.352h-7.576l2.089-11.352h0Zm17.239,29.766h4.637v-24.552c0-1.232-.012-2.574-.035-4.026-.024-1.452-.059-2.816-.106-4.092-.048-1.452-.083-2.926-.107-4.422h.071c.378,1.364,.755,2.728,1.133,4.092,.33,1.144,.684,2.387,1.062,3.729,.377,1.342,.755,2.563,1.133,3.663l8.708,25.608h5.027v-49.104h-4.637v24.618c0,1.232,.011,2.574,.035,4.026,.023,1.452,.059,2.816,.106,4.092,.047,1.452,.094,2.926,.142,4.422h-.106c-.378-1.364-.756-2.728-1.133-4.092-.331-1.144-.685-2.376-1.062-3.696-.378-1.32-.744-2.53-1.098-3.63l-8.743-25.74h-5.027v49.104h0Zm26.691,0h10.089c1.982,0,3.74-.583,5.275-1.749,1.533-1.166,2.814-2.805,3.84-4.917,1.027-2.112,1.806-4.664,2.337-7.656,.531-2.992,.796-6.314,.796-9.966,0-3.74-.265-7.128-.796-10.164-.531-3.036-1.31-5.643-2.337-7.821-1.026-2.178-2.277-3.861-3.752-5.049-1.475-1.188-3.168-1.782-5.08-1.782h-10.372v49.104h0Zm4.921-7.788v-33.528h4.991c1.298,0,2.413,.407,3.345,1.221,.932,.814,1.699,1.969,2.301,3.465,.602,1.496,1.045,3.289,1.328,5.379s.425,4.411,.425,6.963c0,5.148-.608,9.185-1.824,12.111-1.215,2.926-3.121,4.389-5.717,4.389h-4.849Z" style="fill:red;"/><path d="M125.011,82.239c1.251-.682,2.33-1.66,3.239-2.937,.908-1.276,1.623-2.86,2.142-4.752,.519-1.891,.779-4.069,.779-6.534,0-2.64-.26-4.84-.779-6.6-.519-1.759-1.216-3.201-2.089-4.323-.873-1.122-1.87-2.013-2.991-2.673s-2.295-1.231-3.522-1.716c-1.015-.392-1.93-.784-2.744-1.176-.814-.392-1.51-.85-2.088-1.373-.579-.523-1.021-1.155-1.328-1.895-.307-.741-.46-1.678-.46-2.811,0-1.96,.442-3.474,1.327-4.542,.885-1.067,2.071-1.602,3.558-1.602,1.558,0,2.808,.638,3.753,1.913,.943,1.276,1.51,3.102,1.699,5.479h4.779c-.26-4.531-1.245-8.085-2.956-10.659-1.712-2.574-4.113-3.861-7.204-3.861-1.416,0-2.714,.298-3.894,.893-1.18,.596-2.207,1.478-3.08,2.646-.873,1.169-1.552,2.624-2.035,4.366-.484,1.743-.726,3.783-.726,6.12,0,2.47,.242,4.51,.726,6.119,.483,1.61,1.132,2.944,1.947,4.002,.814,1.059,1.77,1.898,2.867,2.514,1.097,.618,2.26,1.191,3.487,1.72,1.038,.438,1.976,.865,2.814,1.282,.838,.417,1.552,.92,2.142,1.511,.59,.592,1.044,1.315,1.363,2.169,.318,.854,.478,1.939,.478,3.253,0,1.227-.136,2.289-.407,3.187-.272,.898-.65,1.643-1.133,2.235-.484,.592-1.044,1.029-1.682,1.314-.637,.285-1.309,.427-2.017,.427-4.06,0-6.266-3.168-6.62-9.504h-4.921c.047,2.508,.336,4.796,.867,6.864,.531,2.069,1.28,3.839,2.248,5.313,.968,1.475,2.154,2.618,3.558,3.432,1.404,.814,3.015,1.221,4.832,1.221,1.463,0,2.82-.341,4.071-1.023h0Zm10.266-.099h19.576v-7.986h-14.691v-13.86h12.708v-7.326h-12.708v-12.144h14.372v-7.788h-19.257v49.104h0Zm43.258-4.356c.921-1.672,1.67-3.663,2.248-5.973,.578-2.31,.891-4.696,.938-7.161h-4.92c-.071,1.496-.26,2.894-.567,4.191-.307,1.298-.725,2.442-1.256,3.432-.531,.99-1.175,1.772-1.93,2.343-.755,.572-1.628,.858-2.619,.858-1.181,0-2.243-.439-3.186-1.32-.945-.88-1.753-2.101-2.425-3.663-.673-1.561-1.192-3.432-1.558-5.61-.366-2.178-.549-4.564-.549-7.161,0-2.551,.165-4.917,.496-7.095,.33-2.178,.82-4.069,1.469-5.676,.649-1.606,1.452-2.86,2.407-3.762,.956-.901,2.059-1.353,3.31-1.353,1.746,0,3.151,.836,4.213,2.508,1.062,1.673,1.711,3.828,1.947,6.468h4.885c-.165-2.596-.561-4.972-1.186-7.128-.625-2.155-1.469-4.003-2.531-5.544-.897-1.276-1.959-2.266-3.186-2.97-1.227-.703-2.596-1.056-4.106-1.056-1.96,0-3.723,.65-5.293,1.947-1.569,1.298-2.902,3.092-4,5.379-1.097,2.288-1.941,4.994-2.531,8.118-.59,3.125-.885,6.512-.885,10.164,0,3.696,.301,7.095,.903,10.197,.602,3.102,1.457,5.786,2.566,8.052,1.109,2.267,2.443,4.037,4,5.313,1.558,1.276,3.293,1.914,5.204,1.914,3.493,0,6.207-1.804,8.142-5.412h0Zm21.665,4.125c1.297-.726,2.401-1.815,3.31-3.267,.908-1.452,1.61-3.267,2.106-5.445,.495-2.178,.743-4.719,.743-7.623V33.036h-4.92v32.325c0,3.305-.484,5.817-1.452,7.535-.968,1.719-2.348,2.578-4.142,2.578-3.8,0-5.699-3.327-5.699-9.981V33.036h-4.885v32.538c0,5.852,.938,10.22,2.814,13.101,1.876,2.882,4.454,4.323,7.735,4.323,1.628,0,3.091-.363,4.39-1.089h0Zm27.222,.231h5.522l-6.266-19.998c1.629-1.056,2.915-2.794,3.859-5.214,.944-2.419,1.416-5.323,1.416-8.712,0-2.155-.195-4.102-.584-5.841-.389-1.738-.927-3.31-1.611-4.719-1.51-3.079-3.752-4.62-6.726-4.62h-11.894v49.104h4.956v-18.942h5.664l5.664,18.942h0Zm-11.328-41.25h6.478c1.439,0,2.549,.617,3.328,1.848,.778,1.232,1.168,3.102,1.168,5.61,0,5.016-1.535,7.524-4.602,7.524h-6.372v-14.982h0Zm20.177,41.25h4.921V33.036h-4.921v49.104h0Zm8.673-41.25h8.213v41.25h4.92V40.89h8.249v-7.854h-21.382v7.854h0Zm32.851,41.25h4.92v-19.272l9.275-29.832h-5.204l-3.752,12.408c-.307,1.013-.614,2.123-.921,3.333-.307,1.211-.59,2.343-.849,3.399-.307,1.232-.602,2.486-.885,3.762h-.071c-.307-1.276-.602-2.53-.885-3.762-.26-1.056-.543-2.188-.85-3.399-.307-1.21-.601-2.32-.885-3.333l-3.717-12.408h-5.416l9.24,29.7v19.404h0Z" style="fill:red;"/></svg>